<?xml version="1.0" encoding="UTF-8" standalone="no"?>
<!DOCTYPE svg PUBLIC "-//W3C//DTD SVG 1.1//EN"
 "http://www.w3.org/Graphics/SVG/1.1/DTD/svg11.dtd">
<!-- Generated by graphviz version 2.50.0 (0)
 -->
<!-- Pages: 1 -->
<svg width="576pt" height="217pt"
 viewBox="0.00 0.00 576.00 216.93" xmlns="http://www.w3.org/2000/svg" xmlns:xlink="http://www.w3.org/1999/xlink">
<g id="graph0" class="graph" transform="scale(0.69 0.69) rotate(0) translate(4 310)">
<polygon fill="white" stroke="transparent" points="-4,4 -4,-310 829.73,-310 829.73,4 -4,4"/>
<!-- acc_open_past_24mths -->
<g id="node1" class="node">
<title>acc_open_past_24mths</title>
<path fill="#e1f5fe" stroke="black" d="M371.61,-144C371.61,-144 251.76,-144 251.76,-144 245.76,-144 239.76,-138 239.76,-132 239.76,-132 239.76,-120 239.76,-120 239.76,-114 245.76,-108 251.76,-108 251.76,-108 371.61,-108 371.61,-108 377.61,-108 383.61,-114 383.61,-120 383.61,-120 383.61,-132 383.61,-132 383.61,-138 377.61,-144 371.61,-144"/>
<text text-anchor="middle" x="311.69" y="-122.4" font-family="Helvetica,sans-Serif" font-size="12.00">acc_open_past_24mths</text>
</g>
<!-- num_tl_op_past_12m -->
<g id="node2" class="node">
<title>num_tl_op_past_12m</title>
<path fill="#e1f5fe" stroke="black" d="M365.6,-90C365.6,-90 257.78,-90 257.78,-90 251.78,-90 245.78,-84 245.78,-78 245.78,-78 245.78,-66 245.78,-66 245.78,-60 251.78,-54 257.78,-54 257.78,-54 365.6,-54 365.6,-54 371.6,-54 377.6,-60 377.6,-66 377.6,-66 377.6,-78 377.6,-78 377.6,-84 371.6,-90 365.6,-90"/>
<text text-anchor="middle" x="311.69" y="-68.4" font-family="Helvetica,sans-Serif" font-size="12.00">num_tl_op_past_12m</text>
</g>
<!-- acc_open_past_24mths&#45;&gt;num_tl_op_past_12m -->
<g id="edge1" class="edge">
<title>acc_open_past_24mths&#45;&gt;num_tl_op_past_12m</title>
<path fill="none" stroke="black" d="M311.69,-107.97C311.69,-105.57 311.69,-103.06 311.69,-100.52"/>
<polygon fill="black" stroke="black" points="315.19,-100.24 311.69,-90.24 308.19,-100.24 315.19,-100.24"/>
</g>
<!-- mths_since_recent_bc -->
<g id="node3" class="node">
<title>mths_since_recent_bc</title>
<path fill="#e1f5fe" stroke="black" d="M367.75,-36C367.75,-36 255.62,-36 255.62,-36 249.62,-36 243.62,-30 243.62,-24 243.62,-24 243.62,-12 243.62,-12 243.62,-6 249.62,0 255.62,0 255.62,0 367.75,0 367.75,0 373.75,0 379.75,-6 379.75,-12 379.75,-12 379.75,-24 379.75,-24 379.75,-30 373.75,-36 367.75,-36"/>
<text text-anchor="middle" x="311.69" y="-14.4" font-family="Helvetica,sans-Serif" font-size="12.00">mths_since_recent_bc</text>
</g>
<!-- num_tl_op_past_12m&#45;&gt;mths_since_recent_bc -->
<g id="edge2" class="edge">
<title>num_tl_op_past_12m&#45;&gt;mths_since_recent_bc</title>
<path fill="none" stroke="black" d="M311.69,-53.97C311.69,-51.57 311.69,-49.06 311.69,-46.52"/>
<polygon fill="black" stroke="black" points="315.19,-46.24 311.69,-36.24 308.19,-46.24 315.19,-46.24"/>
</g>
<!-- all_util -->
<g id="node4" class="node">
<title>all_util</title>
<path fill="#e1f5fe" stroke="black" d="M367.69,-252C367.69,-252 337.69,-252 337.69,-252 331.69,-252 325.69,-246 325.69,-240 325.69,-240 325.69,-228 325.69,-228 325.69,-222 331.69,-216 337.69,-216 337.69,-216 367.69,-216 367.69,-216 373.69,-216 379.69,-222 379.69,-228 379.69,-228 379.69,-240 379.69,-240 379.69,-246 373.69,-252 367.69,-252"/>
<text text-anchor="middle" x="352.69" y="-230.4" font-family="Helvetica,sans-Serif" font-size="12.00">all_util</text>
</g>
<!-- open_rv_24m -->
<g id="node5" class="node">
<title>open_rv_24m</title>
<path fill="#e1f5fe" stroke="black" d="M309.57,-198C309.57,-198 243.81,-198 243.81,-198 237.81,-198 231.81,-192 231.81,-186 231.81,-186 231.81,-174 231.81,-174 231.81,-168 237.81,-162 243.81,-162 243.81,-162 309.57,-162 309.57,-162 315.57,-162 321.57,-168 321.57,-174 321.57,-174 321.57,-186 321.57,-186 321.57,-192 315.57,-198 309.57,-198"/>
<text text-anchor="middle" x="276.69" y="-176.4" font-family="Helvetica,sans-Serif" font-size="12.00">open_rv_24m</text>
</g>
<!-- all_util&#45;&gt;open_rv_24m -->
<g id="edge3" class="edge">
<title>all_util&#45;&gt;open_rv_24m</title>
<path fill="none" stroke="black" d="M327.8,-215.97C322.16,-212.11 316.08,-207.95 310.15,-203.89"/>
<polygon fill="black" stroke="black" points="311.86,-200.82 301.63,-198.06 307.91,-206.6 311.86,-200.82"/>
</g>
<!-- open_act_il -->
<g id="node6" class="node">
<title>open_act_il</title>
<path fill="#e1f5fe" stroke="black" d="M411.57,-198C411.57,-198 357.81,-198 357.81,-198 351.81,-198 345.81,-192 345.81,-186 345.81,-186 345.81,-174 345.81,-174 345.81,-168 351.81,-162 357.81,-162 357.81,-162 411.57,-162 411.57,-162 417.57,-162 423.57,-168 423.57,-174 423.57,-174 423.57,-186 423.57,-186 423.57,-192 417.57,-198 411.57,-198"/>
<text text-anchor="middle" x="384.69" y="-176.4" font-family="Helvetica,sans-Serif" font-size="12.00">open_act_il</text>
</g>
<!-- all_util&#45;&gt;open_act_il -->
<g id="edge4" class="edge">
<title>all_util&#45;&gt;open_act_il</title>
<path fill="none" stroke="black" d="M363.17,-215.97C364.97,-213.04 366.88,-209.93 368.79,-206.83"/>
<polygon fill="black" stroke="black" points="371.82,-208.59 374.08,-198.24 365.86,-204.93 371.82,-208.59"/>
</g>
<!-- inq_last_12m -->
<g id="node7" class="node">
<title>inq_last_12m</title>
<path fill="#e1f5fe" stroke="black" d="M523.57,-198C523.57,-198 459.81,-198 459.81,-198 453.81,-198 447.81,-192 447.81,-186 447.81,-186 447.81,-174 447.81,-174 447.81,-168 453.81,-162 459.81,-162 459.81,-162 523.57,-162 523.57,-162 529.57,-162 535.57,-168 535.57,-174 535.57,-174 535.57,-186 535.57,-186 535.57,-192 529.57,-198 523.57,-198"/>
<text text-anchor="middle" x="491.69" y="-176.4" font-family="Helvetica,sans-Serif" font-size="12.00">inq_last_12m</text>
</g>
<!-- all_util&#45;&gt;inq_last_12m -->
<g id="edge5" class="edge">
<title>all_util&#45;&gt;inq_last_12m</title>
<path fill="none" stroke="black" d="M379.71,-221.25C384.03,-219.45 388.47,-217.64 392.69,-216 407.32,-210.31 423.32,-204.49 438.1,-199.26"/>
<polygon fill="black" stroke="black" points="439.33,-202.54 447.61,-195.93 437.02,-195.93 439.33,-202.54"/>
</g>
<!-- total_rev_hi_lim -->
<g id="node8" class="node">
<title>total_rev_hi_lim</title>
<path fill="#e1f5fe" stroke="black" d="M194.73,-198C194.73,-198 118.65,-198 118.65,-198 112.65,-198 106.65,-192 106.65,-186 106.65,-186 106.65,-174 106.65,-174 106.65,-168 112.65,-162 118.65,-162 118.65,-162 194.73,-162 194.73,-162 200.73,-162 206.73,-168 206.73,-174 206.73,-174 206.73,-186 206.73,-186 206.73,-192 200.73,-198 194.73,-198"/>
<text text-anchor="middle" x="156.69" y="-176.4" font-family="Helvetica,sans-Serif" font-size="12.00">total_rev_hi_lim</text>
</g>
<!-- all_util&#45;&gt;total_rev_hi_lim -->
<g id="edge6" class="edge">
<title>all_util&#45;&gt;total_rev_hi_lim</title>
<path fill="none" stroke="black" d="M325.47,-221.66C319.98,-219.61 314.19,-217.61 308.69,-216 269.95,-204.69 258.97,-207.26 219.69,-198 218.77,-197.78 217.85,-197.56 216.92,-197.34"/>
<polygon fill="black" stroke="black" points="217.37,-193.85 206.82,-194.84 215.69,-200.64 217.37,-193.85"/>
</g>
<!-- open_rv_24m&#45;&gt;acc_open_past_24mths -->
<g id="edge7" class="edge">
<title>open_rv_24m&#45;&gt;acc_open_past_24mths</title>
<path fill="none" stroke="black" d="M288.15,-161.97C290.18,-158.95 292.34,-155.75 294.49,-152.55"/>
<polygon fill="black" stroke="black" points="297.4,-154.49 300.08,-144.24 291.6,-150.58 297.4,-154.49"/>
</g>
<!-- open_act_il&#45;&gt;acc_open_past_24mths -->
<g id="edge8" class="edge">
<title>open_act_il&#45;&gt;acc_open_past_24mths</title>
<path fill="none" stroke="black" d="M360.79,-161.97C355.55,-158.24 349.91,-154.23 344.4,-150.3"/>
<polygon fill="black" stroke="black" points="346.07,-147.19 335.9,-144.24 342.01,-152.9 346.07,-147.19"/>
</g>
<!-- mths_since_recent_inq -->
<g id="node9" class="node">
<title>mths_since_recent_inq</title>
<path fill="#e1f5fe" stroke="black" d="M549.59,-144C549.59,-144 433.78,-144 433.78,-144 427.78,-144 421.78,-138 421.78,-132 421.78,-132 421.78,-120 421.78,-120 421.78,-114 427.78,-108 433.78,-108 433.78,-108 549.59,-108 549.59,-108 555.59,-108 561.59,-114 561.59,-120 561.59,-120 561.59,-132 561.59,-132 561.59,-138 555.59,-144 549.59,-144"/>
<text text-anchor="middle" x="491.69" y="-122.4" font-family="Helvetica,sans-Serif" font-size="12.00">mths_since_recent_inq</text>
</g>
<!-- inq_last_12m&#45;&gt;mths_since_recent_inq -->
<g id="edge9" class="edge">
<title>inq_last_12m&#45;&gt;mths_since_recent_inq</title>
<path fill="none" stroke="black" d="M491.69,-161.97C491.69,-159.57 491.69,-157.06 491.69,-154.52"/>
<polygon fill="black" stroke="black" points="495.19,-154.24 491.69,-144.24 488.19,-154.24 495.19,-154.24"/>
</g>
<!-- total_bc_limit -->
<g id="node10" class="node">
<title>total_bc_limit</title>
<path fill="#e1f5fe" stroke="black" d="M187.72,-144C187.72,-144 125.66,-144 125.66,-144 119.66,-144 113.66,-138 113.66,-132 113.66,-132 113.66,-120 113.66,-120 113.66,-114 119.66,-108 125.66,-108 125.66,-108 187.72,-108 187.72,-108 193.72,-108 199.72,-114 199.72,-120 199.72,-120 199.72,-132 199.72,-132 199.72,-138 193.72,-144 187.72,-144"/>
<text text-anchor="middle" x="156.69" y="-122.4" font-family="Helvetica,sans-Serif" font-size="12.00">total_bc_limit</text>
</g>
<!-- total_rev_hi_lim&#45;&gt;total_bc_limit -->
<g id="edge10" class="edge">
<title>total_rev_hi_lim&#45;&gt;total_bc_limit</title>
<path fill="none" stroke="black" d="M156.69,-161.97C156.69,-159.57 156.69,-157.06 156.69,-154.52"/>
<polygon fill="black" stroke="black" points="160.19,-154.24 156.69,-144.24 153.19,-154.24 160.19,-154.24"/>
</g>
<!-- annual_inc -->
<g id="node11" class="node">
<title>annual_inc</title>
<path fill="#e1f5fe" stroke="black" d="M676.74,-306C676.74,-306 626.64,-306 626.64,-306 620.64,-306 614.64,-300 614.64,-294 614.64,-294 614.64,-282 614.64,-282 614.64,-276 620.64,-270 626.64,-270 626.64,-270 676.74,-270 676.74,-270 682.74,-270 688.74,-276 688.74,-282 688.74,-282 688.74,-294 688.74,-294 688.74,-300 682.74,-306 676.74,-306"/>
<text text-anchor="middle" x="651.69" y="-284.4" font-family="Helvetica,sans-Serif" font-size="12.00">annual_inc</text>
</g>
<!-- funded_amnt -->
<g id="node12" class="node">
<title>funded_amnt</title>
<path fill="#e1f5fe" stroke="black" d="M682.74,-252C682.74,-252 620.63,-252 620.63,-252 614.63,-252 608.63,-246 608.63,-240 608.63,-240 608.63,-228 608.63,-228 608.63,-222 614.63,-216 620.63,-216 620.63,-216 682.74,-216 682.74,-216 688.74,-216 694.74,-222 694.74,-228 694.74,-228 694.74,-240 694.74,-240 694.74,-246 688.74,-252 682.74,-252"/>
<text text-anchor="middle" x="651.69" y="-230.4" font-family="Helvetica,sans-Serif" font-size="12.00">funded_amnt</text>
</g>
<!-- annual_inc&#45;&gt;funded_amnt -->
<g id="edge11" class="edge">
<title>annual_inc&#45;&gt;funded_amnt</title>
<path fill="none" stroke="black" d="M651.69,-269.97C651.69,-267.57 651.69,-265.06 651.69,-262.52"/>
<polygon fill="black" stroke="black" points="655.19,-262.24 651.69,-252.24 648.19,-262.24 655.19,-262.24"/>
</g>
<!-- term -->
<g id="node13" class="node">
<title>term</title>
<path fill="#e1f5fe" stroke="black" d="M666.69,-198C666.69,-198 636.69,-198 636.69,-198 630.69,-198 624.69,-192 624.69,-186 624.69,-186 624.69,-174 624.69,-174 624.69,-168 630.69,-162 636.69,-162 636.69,-162 666.69,-162 666.69,-162 672.69,-162 678.69,-168 678.69,-174 678.69,-174 678.69,-186 678.69,-186 678.69,-192 672.69,-198 666.69,-198"/>
<text text-anchor="middle" x="651.69" y="-176.4" font-family="Helvetica,sans-Serif" font-size="12.00">term</text>
</g>
<!-- funded_amnt&#45;&gt;term -->
<g id="edge12" class="edge">
<title>funded_amnt&#45;&gt;term</title>
<path fill="none" stroke="black" d="M651.69,-215.97C651.69,-213.57 651.69,-211.06 651.69,-208.52"/>
<polygon fill="black" stroke="black" points="655.19,-208.24 651.69,-198.24 648.19,-208.24 655.19,-208.24"/>
</g>
<!-- int_rate% -->
<g id="node14" class="node">
<title>int_rate%</title>
<path fill="#e1f5fe" stroke="black" d="M672.89,-144C672.89,-144 630.49,-144 630.49,-144 624.49,-144 618.49,-138 618.49,-132 618.49,-132 618.49,-120 618.49,-120 618.49,-114 624.49,-108 630.49,-108 630.49,-108 672.89,-108 672.89,-108 678.89,-108 684.89,-114 684.89,-120 684.89,-120 684.89,-132 684.89,-132 684.89,-138 678.89,-144 672.89,-144"/>
<text text-anchor="middle" x="651.69" y="-122.4" font-family="Helvetica,sans-Serif" font-size="12.00">int_rate%</text>
</g>
<!-- term&#45;&gt;int_rate% -->
<g id="edge13" class="edge">
<title>term&#45;&gt;int_rate%</title>
<path fill="none" stroke="black" d="M651.69,-161.97C651.69,-159.57 651.69,-157.06 651.69,-154.52"/>
<polygon fill="black" stroke="black" points="655.19,-154.24 651.69,-144.24 648.19,-154.24 655.19,-154.24"/>
</g>
<!-- percent_bc_gt_75 -->
<g id="node15" class="node">
<title>percent_bc_gt_75</title>
<path fill="#e1f5fe" stroke="black" d="M813.77,-306C813.77,-306 725.61,-306 725.61,-306 719.61,-306 713.61,-300 713.61,-294 713.61,-294 713.61,-282 713.61,-282 713.61,-276 719.61,-270 725.61,-270 725.61,-270 813.77,-270 813.77,-270 819.77,-270 825.77,-276 825.77,-282 825.77,-282 825.77,-294 825.77,-294 825.77,-300 819.77,-306 813.77,-306"/>
<text text-anchor="middle" x="769.69" y="-284.4" font-family="Helvetica,sans-Serif" font-size="12.00">percent_bc_gt_75</text>
</g>
<!-- bc_util -->
<g id="node16" class="node">
<title>bc_util</title>
<path fill="#e1f5fe" stroke="black" d="M784.69,-252C784.69,-252 754.69,-252 754.69,-252 748.69,-252 742.69,-246 742.69,-240 742.69,-240 742.69,-228 742.69,-228 742.69,-222 748.69,-216 754.69,-216 754.69,-216 784.69,-216 784.69,-216 790.69,-216 796.69,-222 796.69,-228 796.69,-228 796.69,-240 796.69,-240 796.69,-246 790.69,-252 784.69,-252"/>
<text text-anchor="middle" x="769.69" y="-230.4" font-family="Helvetica,sans-Serif" font-size="12.00">bc_util</text>
</g>
<!-- percent_bc_gt_75&#45;&gt;bc_util -->
<g id="edge14" class="edge">
<title>percent_bc_gt_75&#45;&gt;bc_util</title>
<path fill="none" stroke="black" d="M769.69,-269.97C769.69,-267.57 769.69,-265.06 769.69,-262.52"/>
<polygon fill="black" stroke="black" points="773.19,-262.24 769.69,-252.24 766.19,-262.24 773.19,-262.24"/>
</g>
<!-- loan_age -->
<g id="node17" class="node">
<title>loan_age</title>
<path fill="#e1f5fe" stroke="black" d="M408.57,-306C408.57,-306 366.81,-306 366.81,-306 360.81,-306 354.81,-300 354.81,-294 354.81,-294 354.81,-282 354.81,-282 354.81,-276 360.81,-270 366.81,-270 366.81,-270 408.57,-270 408.57,-270 414.57,-270 420.57,-276 420.57,-282 420.57,-282 420.57,-294 420.57,-294 420.57,-300 414.57,-306 408.57,-306"/>
<text text-anchor="middle" x="387.69" y="-284.4" font-family="Helvetica,sans-Serif" font-size="12.00">loan_age</text>
</g>
<!-- loan_age&#45;&gt;all_util -->
<g id="edge15" class="edge">
<title>loan_age&#45;&gt;all_util</title>
<path fill="none" stroke="black" d="M376.23,-269.97C374.2,-266.95 372.04,-263.75 369.89,-260.55"/>
<polygon fill="black" stroke="black" points="372.78,-258.58 364.3,-252.24 366.98,-262.49 372.78,-258.58"/>
</g>
<!-- time_since_last_payment -->
<g id="node18" class="node">
<title>time_since_last_payment</title>
<path fill="#e1f5fe" stroke="black" d="M544.59,-252C544.59,-252 416.78,-252 416.78,-252 410.78,-252 404.78,-246 404.78,-240 404.78,-240 404.78,-228 404.78,-228 404.78,-222 410.78,-216 416.78,-216 416.78,-216 544.59,-216 544.59,-216 550.59,-216 556.59,-222 556.59,-228 556.59,-228 556.59,-240 556.59,-240 556.59,-246 550.59,-252 544.59,-252"/>
<text text-anchor="middle" x="480.69" y="-230.4" font-family="Helvetica,sans-Serif" font-size="12.00">time_since_last_payment</text>
</g>
<!-- loan_age&#45;&gt;time_since_last_payment -->
<g id="edge16" class="edge">
<title>loan_age&#45;&gt;time_since_last_payment</title>
<path fill="none" stroke="black" d="M418.14,-269.97C425.53,-265.84 433.53,-261.37 441.27,-257.04"/>
<polygon fill="black" stroke="black" points="443.15,-260 450.17,-252.06 439.73,-253.89 443.15,-260"/>
</g>
<!-- home_ownership -->
<g id="node19" class="node">
<title>home_ownership</title>
<path fill="#e1f5fe" stroke="black" d="M142.58,-252C142.58,-252 58.8,-252 58.8,-252 52.8,-252 46.8,-246 46.8,-240 46.8,-240 46.8,-228 46.8,-228 46.8,-222 52.8,-216 58.8,-216 58.8,-216 142.58,-216 142.58,-216 148.58,-216 154.58,-222 154.58,-228 154.58,-228 154.58,-240 154.58,-240 154.58,-246 148.58,-252 142.58,-252"/>
<text text-anchor="middle" x="100.69" y="-230.4" font-family="Helvetica,sans-Serif" font-size="12.00">home_ownership</text>
</g>
<!-- home_ownership&#45;&gt;total_rev_hi_lim -->
<g id="edge18" class="edge">
<title>home_ownership&#45;&gt;total_rev_hi_lim</title>
<path fill="none" stroke="black" d="M119.03,-215.97C122.76,-212.51 126.75,-208.8 130.69,-205.14"/>
<polygon fill="black" stroke="black" points="133.17,-207.61 138.12,-198.24 128.41,-202.48 133.17,-207.61"/>
</g>
<!-- avg_cur_bal -->
<g id="node20" class="node">
<title>avg_cur_bal</title>
<path fill="#e1f5fe" stroke="black" d="M69.57,-198C69.57,-198 11.81,-198 11.81,-198 5.81,-198 -0.19,-192 -0.19,-186 -0.19,-186 -0.19,-174 -0.19,-174 -0.19,-168 5.81,-162 11.81,-162 11.81,-162 69.57,-162 69.57,-162 75.57,-162 81.57,-168 81.57,-174 81.57,-174 81.57,-186 81.57,-186 81.57,-192 75.57,-198 69.57,-198"/>
<text text-anchor="middle" x="40.69" y="-176.4" font-family="Helvetica,sans-Serif" font-size="12.00">avg_cur_bal</text>
</g>
<!-- home_ownership&#45;&gt;avg_cur_bal -->
<g id="edge17" class="edge">
<title>home_ownership&#45;&gt;avg_cur_bal</title>
<path fill="none" stroke="black" d="M81.04,-215.97C76.94,-212.42 72.55,-208.61 68.22,-204.86"/>
<polygon fill="black" stroke="black" points="70.43,-202.15 60.59,-198.24 65.85,-207.44 70.43,-202.15"/>
</g>
<!-- debt_settlement_flag -->
<g id="node21" class="node">
<title>debt_settlement_flag</title>
<path fill="#e1f5fe" stroke="black" d="M253.6,-306C253.6,-306 149.78,-306 149.78,-306 143.78,-306 137.78,-300 137.78,-294 137.78,-294 137.78,-282 137.78,-282 137.78,-276 143.78,-270 149.78,-270 149.78,-270 253.6,-270 253.6,-270 259.6,-270 265.6,-276 265.6,-282 265.6,-282 265.6,-294 265.6,-294 265.6,-300 259.6,-306 253.6,-306"/>
<text text-anchor="middle" x="201.69" y="-284.4" font-family="Helvetica,sans-Serif" font-size="12.00">debt_settlement_flag</text>
</g>
<!-- debt_settlement_flag&#45;&gt;home_ownership -->
<g id="edge20" class="edge">
<title>debt_settlement_flag&#45;&gt;home_ownership</title>
<path fill="none" stroke="black" d="M168.62,-269.97C160.42,-265.75 151.53,-261.17 142.96,-256.76"/>
<polygon fill="black" stroke="black" points="144.33,-253.53 133.83,-252.06 141.12,-259.75 144.33,-253.53"/>
</g>
<!-- binary_loan_status -->
<g id="node22" class="node">
<title>binary_loan_status</title>
<path fill="#e1f5fe" stroke="black" d="M283.92,-252C283.92,-252 191.45,-252 191.45,-252 185.45,-252 179.45,-246 179.45,-240 179.45,-240 179.45,-228 179.45,-228 179.45,-222 185.45,-216 191.45,-216 191.45,-216 283.92,-216 283.92,-216 289.92,-216 295.92,-222 295.92,-228 295.92,-228 295.92,-240 295.92,-240 295.92,-246 289.92,-252 283.92,-252"/>
<text text-anchor="middle" x="237.69" y="-230.4" font-family="Helvetica,sans-Serif" font-size="12.00">binary_loan_status</text>
</g>
<!-- debt_settlement_flag&#45;&gt;binary_loan_status -->
<g id="edge19" class="edge">
<title>debt_settlement_flag&#45;&gt;binary_loan_status</title>
<path fill="none" stroke="black" d="M213.48,-269.97C215.57,-266.95 217.79,-263.75 220,-260.55"/>
<polygon fill="black" stroke="black" points="222.94,-262.46 225.75,-252.24 217.18,-258.47 222.94,-262.46"/>
</g>
</g>
</svg>
