<?xml version="1.0" encoding="UTF-8" standalone="no"?>
<!DOCTYPE svg PUBLIC "-//W3C//DTD SVG 1.1//EN"
 "http://www.w3.org/Graphics/SVG/1.1/DTD/svg11.dtd">
<!-- Generated by graphviz version 2.50.0 (0)
 -->
<!-- Pages: 1 -->
<svg width="550pt" height="530pt"
 viewBox="0.00 0.00 549.73 530.00" xmlns="http://www.w3.org/2000/svg" xmlns:xlink="http://www.w3.org/1999/xlink">
<g id="graph0" class="graph" transform="scale(1 1) rotate(0) translate(4 526)">
<polygon fill="white" stroke="transparent" points="-4,4 -4,-526 545.73,-526 545.73,4 -4,4"/>
<!-- acc_open_past_24mths -->
<g id="node1" class="node">
<title>acc_open_past_24mths</title>
<path fill="#e1f5fe" stroke="black" d="M261.95,-360C261.95,-360 142.1,-360 142.1,-360 136.1,-360 130.1,-354 130.1,-348 130.1,-348 130.1,-336 130.1,-336 130.1,-330 136.1,-324 142.1,-324 142.1,-324 261.95,-324 261.95,-324 267.95,-324 273.95,-330 273.95,-336 273.95,-336 273.95,-348 273.95,-348 273.95,-354 267.95,-360 261.95,-360"/>
<text text-anchor="middle" x="202.03" y="-338.4" font-family="Helvetica,sans-Serif" font-size="12.00">acc_open_past_24mths</text>
</g>
<!-- num_tl_op_past_12m -->
<g id="node2" class="node">
<title>num_tl_op_past_12m</title>
<path fill="#e1f5fe" stroke="black" d="M255.94,-306C255.94,-306 148.11,-306 148.11,-306 142.11,-306 136.11,-300 136.11,-294 136.11,-294 136.11,-282 136.11,-282 136.11,-276 142.11,-270 148.11,-270 148.11,-270 255.94,-270 255.94,-270 261.94,-270 267.94,-276 267.94,-282 267.94,-282 267.94,-294 267.94,-294 267.94,-300 261.94,-306 255.94,-306"/>
<text text-anchor="middle" x="202.03" y="-284.4" font-family="Helvetica,sans-Serif" font-size="12.00">num_tl_op_past_12m</text>
</g>
<!-- acc_open_past_24mths&#45;&gt;num_tl_op_past_12m -->
<g id="edge1" class="edge">
<title>acc_open_past_24mths&#45;&gt;num_tl_op_past_12m</title>
<path fill="none" stroke="black" d="M202.03,-323.97C202.03,-321.57 202.03,-319.06 202.03,-316.52"/>
<polygon fill="black" stroke="black" points="205.53,-316.24 202.03,-306.24 198.53,-316.24 205.53,-316.24"/>
</g>
<!-- mths_since_recent_bc -->
<g id="node3" class="node">
<title>mths_since_recent_bc</title>
<path fill="#e1f5fe" stroke="black" d="M235.09,-252C235.09,-252 122.96,-252 122.96,-252 116.96,-252 110.96,-246 110.96,-240 110.96,-240 110.96,-228 110.96,-228 110.96,-222 116.96,-216 122.96,-216 122.96,-216 235.09,-216 235.09,-216 241.09,-216 247.09,-222 247.09,-228 247.09,-228 247.09,-240 247.09,-240 247.09,-246 241.09,-252 235.09,-252"/>
<text text-anchor="middle" x="179.03" y="-230.4" font-family="Helvetica,sans-Serif" font-size="12.00">mths_since_recent_bc</text>
</g>
<!-- num_tl_op_past_12m&#45;&gt;mths_since_recent_bc -->
<g id="edge2" class="edge">
<title>num_tl_op_past_12m&#45;&gt;mths_since_recent_bc</title>
<path fill="none" stroke="black" d="M194.5,-269.97C193.28,-267.22 191.99,-264.31 190.7,-261.4"/>
<polygon fill="black" stroke="black" points="193.9,-259.97 186.65,-252.24 187.5,-262.8 193.9,-259.97"/>
</g>
<!-- binary_loan_status -->
<g id="node4" class="node">
<title>binary_loan_status</title>
<path fill="#e1f5fe" stroke="black" d="M376.26,-252C376.26,-252 283.79,-252 283.79,-252 277.79,-252 271.79,-246 271.79,-240 271.79,-240 271.79,-228 271.79,-228 271.79,-222 277.79,-216 283.79,-216 283.79,-216 376.26,-216 376.26,-216 382.26,-216 388.26,-222 388.26,-228 388.26,-228 388.26,-240 388.26,-240 388.26,-246 382.26,-252 376.26,-252"/>
<text text-anchor="middle" x="330.03" y="-230.4" font-family="Helvetica,sans-Serif" font-size="12.00">binary_loan_status</text>
</g>
<!-- num_tl_op_past_12m&#45;&gt;binary_loan_status -->
<g id="edge3" class="edge">
<title>num_tl_op_past_12m&#45;&gt;binary_loan_status</title>
<path fill="none" stroke="black" d="M243.94,-269.97C254.99,-265.48 267.04,-260.59 278.53,-255.92"/>
<polygon fill="black" stroke="black" points="280.07,-259.07 288.02,-252.06 277.44,-252.59 280.07,-259.07"/>
</g>
<!-- term -->
<g id="node14" class="node">
<title>term</title>
<path fill="#e1f5fe" stroke="black" d="M143.03,-198C143.03,-198 113.03,-198 113.03,-198 107.03,-198 101.03,-192 101.03,-186 101.03,-186 101.03,-174 101.03,-174 101.03,-168 107.03,-162 113.03,-162 113.03,-162 143.03,-162 143.03,-162 149.03,-162 155.03,-168 155.03,-174 155.03,-174 155.03,-186 155.03,-186 155.03,-192 149.03,-198 143.03,-198"/>
<text text-anchor="middle" x="128.03" y="-176.4" font-family="Helvetica,sans-Serif" font-size="12.00">term</text>
</g>
<!-- binary_loan_status&#45;&gt;term -->
<g id="edge16" class="edge">
<title>binary_loan_status&#45;&gt;term</title>
<path fill="none" stroke="black" d="M271.6,-217.96C237.31,-209.13 195,-198.24 165.23,-190.58"/>
<polygon fill="black" stroke="black" points="165.81,-187.11 155.25,-188.01 164.06,-193.89 165.81,-187.11"/>
</g>
<!-- debt_settlement_flag -->
<g id="node16" class="node">
<title>debt_settlement_flag</title>
<path fill="#e1f5fe" stroke="black" d="M357.94,-198C357.94,-198 254.12,-198 254.12,-198 248.12,-198 242.12,-192 242.12,-186 242.12,-186 242.12,-174 242.12,-174 242.12,-168 248.12,-162 254.12,-162 254.12,-162 357.94,-162 357.94,-162 363.94,-162 369.94,-168 369.94,-174 369.94,-174 369.94,-186 369.94,-186 369.94,-192 363.94,-198 357.94,-198"/>
<text text-anchor="middle" x="306.03" y="-176.4" font-family="Helvetica,sans-Serif" font-size="12.00">debt_settlement_flag</text>
</g>
<!-- binary_loan_status&#45;&gt;debt_settlement_flag -->
<g id="edge15" class="edge">
<title>binary_loan_status&#45;&gt;debt_settlement_flag</title>
<path fill="none" stroke="black" d="M322.17,-215.97C320.9,-213.22 319.56,-210.31 318.21,-207.4"/>
<polygon fill="black" stroke="black" points="321.35,-205.86 313.99,-198.24 315,-208.79 321.35,-205.86"/>
</g>
<!-- dti -->
<g id="node17" class="node">
<title>dti</title>
<path fill="#e1f5fe" stroke="black" d="M437.03,-198C437.03,-198 407.03,-198 407.03,-198 401.03,-198 395.03,-192 395.03,-186 395.03,-186 395.03,-174 395.03,-174 395.03,-168 401.03,-162 407.03,-162 407.03,-162 437.03,-162 437.03,-162 443.03,-162 449.03,-168 449.03,-174 449.03,-174 449.03,-186 449.03,-186 449.03,-192 443.03,-198 437.03,-198"/>
<text text-anchor="middle" x="422.03" y="-176.4" font-family="Helvetica,sans-Serif" font-size="12.00">dti</text>
</g>
<!-- binary_loan_status&#45;&gt;dti -->
<g id="edge17" class="edge">
<title>binary_loan_status&#45;&gt;dti</title>
<path fill="none" stroke="black" d="M360.15,-215.97C368.47,-211.27 377.59,-206.12 386.2,-201.25"/>
<polygon fill="black" stroke="black" points="387.96,-204.28 394.94,-196.31 384.51,-198.18 387.96,-204.28"/>
</g>
<!-- all_util -->
<g id="node5" class="node">
<title>all_util</title>
<path fill="#e1f5fe" stroke="black" d="M353.03,-468C353.03,-468 323.03,-468 323.03,-468 317.03,-468 311.03,-462 311.03,-456 311.03,-456 311.03,-444 311.03,-444 311.03,-438 317.03,-432 323.03,-432 323.03,-432 353.03,-432 353.03,-432 359.03,-432 365.03,-438 365.03,-444 365.03,-444 365.03,-456 365.03,-456 365.03,-462 359.03,-468 353.03,-468"/>
<text text-anchor="middle" x="338.03" y="-446.4" font-family="Helvetica,sans-Serif" font-size="12.00">all_util</text>
</g>
<!-- open_rv_24m -->
<g id="node6" class="node">
<title>open_rv_24m</title>
<path fill="#e1f5fe" stroke="black" d="M209.91,-414C209.91,-414 144.14,-414 144.14,-414 138.14,-414 132.14,-408 132.14,-402 132.14,-402 132.14,-390 132.14,-390 132.14,-384 138.14,-378 144.14,-378 144.14,-378 209.91,-378 209.91,-378 215.91,-378 221.91,-384 221.91,-390 221.91,-390 221.91,-402 221.91,-402 221.91,-408 215.91,-414 209.91,-414"/>
<text text-anchor="middle" x="177.03" y="-392.4" font-family="Helvetica,sans-Serif" font-size="12.00">open_rv_24m</text>
</g>
<!-- all_util&#45;&gt;open_rv_24m -->
<g id="edge4" class="edge">
<title>all_util&#45;&gt;open_rv_24m</title>
<path fill="none" stroke="black" d="M310.72,-440.18C289.06,-433.19 258.12,-423.19 231.45,-414.58"/>
<polygon fill="black" stroke="black" points="232.43,-411.22 221.84,-411.47 230.28,-417.88 232.43,-411.22"/>
</g>
<!-- open_act_il -->
<g id="node7" class="node">
<title>open_act_il</title>
<path fill="#e1f5fe" stroke="black" d="M311.91,-414C311.91,-414 258.14,-414 258.14,-414 252.14,-414 246.14,-408 246.14,-402 246.14,-402 246.14,-390 246.14,-390 246.14,-384 252.14,-378 258.14,-378 258.14,-378 311.91,-378 311.91,-378 317.91,-378 323.91,-384 323.91,-390 323.91,-390 323.91,-402 323.91,-402 323.91,-408 317.91,-414 311.91,-414"/>
<text text-anchor="middle" x="285.03" y="-392.4" font-family="Helvetica,sans-Serif" font-size="12.00">open_act_il</text>
</g>
<!-- all_util&#45;&gt;open_act_il -->
<g id="edge5" class="edge">
<title>all_util&#45;&gt;open_act_il</title>
<path fill="none" stroke="black" d="M320.67,-431.97C317.23,-428.6 313.56,-424.99 309.92,-421.42"/>
<polygon fill="black" stroke="black" points="312.19,-418.75 302.6,-414.24 307.29,-423.74 312.19,-418.75"/>
</g>
<!-- inq_last_12m -->
<g id="node8" class="node">
<title>inq_last_12m</title>
<path fill="#e1f5fe" stroke="black" d="M423.91,-414C423.91,-414 360.15,-414 360.15,-414 354.15,-414 348.15,-408 348.15,-402 348.15,-402 348.15,-390 348.15,-390 348.15,-384 354.15,-378 360.15,-378 360.15,-378 423.91,-378 423.91,-378 429.91,-378 435.91,-384 435.91,-390 435.91,-390 435.91,-402 435.91,-402 435.91,-408 429.91,-414 423.91,-414"/>
<text text-anchor="middle" x="392.03" y="-392.4" font-family="Helvetica,sans-Serif" font-size="12.00">inq_last_12m</text>
</g>
<!-- all_util&#45;&gt;inq_last_12m -->
<g id="edge6" class="edge">
<title>all_util&#45;&gt;inq_last_12m</title>
<path fill="none" stroke="black" d="M355.71,-431.97C359.22,-428.6 362.96,-424.99 366.67,-421.42"/>
<polygon fill="black" stroke="black" points="369.35,-423.7 374.12,-414.24 364.49,-418.66 369.35,-423.7"/>
</g>
<!-- total_rev_hi_lim -->
<g id="node9" class="node">
<title>total_rev_hi_lim</title>
<path fill="#e1f5fe" stroke="black" d="M509.07,-90C509.07,-90 432.99,-90 432.99,-90 426.99,-90 420.99,-84 420.99,-78 420.99,-78 420.99,-66 420.99,-66 420.99,-60 426.99,-54 432.99,-54 432.99,-54 509.07,-54 509.07,-54 515.07,-54 521.07,-60 521.07,-66 521.07,-66 521.07,-78 521.07,-78 521.07,-84 515.07,-90 509.07,-90"/>
<text text-anchor="middle" x="471.03" y="-68.4" font-family="Helvetica,sans-Serif" font-size="12.00">total_rev_hi_lim</text>
</g>
<!-- all_util&#45;&gt;total_rev_hi_lim -->
<g id="edge7" class="edge">
<title>all_util&#45;&gt;total_rev_hi_lim</title>
<path fill="none" stroke="black" d="M365.36,-436.74C369.56,-435.05 373.88,-433.4 378.03,-432 408.45,-421.69 422.65,-433.7 448.03,-414 476.47,-391.92 487.03,-379 487.03,-343 487.03,-343 487.03,-343 487.03,-179 487.03,-151.93 481.86,-121.41 477.4,-100.09"/>
<polygon fill="black" stroke="black" points="480.78,-99.16 475.23,-90.14 473.94,-100.65 480.78,-99.16"/>
</g>
<!-- open_rv_24m&#45;&gt;acc_open_past_24mths -->
<g id="edge8" class="edge">
<title>open_rv_24m&#45;&gt;acc_open_past_24mths</title>
<path fill="none" stroke="black" d="M185.21,-377.97C186.54,-375.22 187.94,-372.31 189.34,-369.4"/>
<polygon fill="black" stroke="black" points="192.56,-370.77 193.74,-360.24 186.25,-367.74 192.56,-370.77"/>
</g>
<!-- open_act_il&#45;&gt;acc_open_past_24mths -->
<g id="edge9" class="edge">
<title>open_act_il&#45;&gt;acc_open_past_24mths</title>
<path fill="none" stroke="black" d="M257.85,-377.97C251.54,-374.02 244.74,-369.76 238.11,-365.61"/>
<polygon fill="black" stroke="black" points="239.6,-362.41 229.27,-360.06 235.88,-368.34 239.6,-362.41"/>
</g>
<!-- mths_since_recent_inq -->
<g id="node10" class="node">
<title>mths_since_recent_inq</title>
<path fill="#e1f5fe" stroke="black" d="M436.93,-360C436.93,-360 321.12,-360 321.12,-360 315.12,-360 309.12,-354 309.12,-348 309.12,-348 309.12,-336 309.12,-336 309.12,-330 315.12,-324 321.12,-324 321.12,-324 436.93,-324 436.93,-324 442.93,-324 448.93,-330 448.93,-336 448.93,-336 448.93,-348 448.93,-348 448.93,-354 442.93,-360 436.93,-360"/>
<text text-anchor="middle" x="379.03" y="-338.4" font-family="Helvetica,sans-Serif" font-size="12.00">mths_since_recent_inq</text>
</g>
<!-- inq_last_12m&#45;&gt;mths_since_recent_inq -->
<g id="edge10" class="edge">
<title>inq_last_12m&#45;&gt;mths_since_recent_inq</title>
<path fill="none" stroke="black" d="M387.77,-377.97C387.13,-375.4 386.45,-372.69 385.77,-369.96"/>
<polygon fill="black" stroke="black" points="389.16,-369.1 383.34,-360.24 382.37,-370.79 389.16,-369.1"/>
</g>
<!-- total_bc_limit -->
<g id="node11" class="node">
<title>total_bc_limit</title>
<path fill="#e1f5fe" stroke="black" d="M502.06,-36C502.06,-36 440,-36 440,-36 434,-36 428,-30 428,-24 428,-24 428,-12 428,-12 428,-6 434,0 440,0 440,0 502.06,0 502.06,0 508.06,0 514.06,-6 514.06,-12 514.06,-12 514.06,-24 514.06,-24 514.06,-30 508.06,-36 502.06,-36"/>
<text text-anchor="middle" x="471.03" y="-14.4" font-family="Helvetica,sans-Serif" font-size="12.00">total_bc_limit</text>
</g>
<!-- total_rev_hi_lim&#45;&gt;total_bc_limit -->
<g id="edge11" class="edge">
<title>total_rev_hi_lim&#45;&gt;total_bc_limit</title>
<path fill="none" stroke="black" d="M471.03,-53.97C471.03,-51.57 471.03,-49.06 471.03,-46.52"/>
<polygon fill="black" stroke="black" points="474.53,-46.24 471.03,-36.24 467.53,-46.24 474.53,-46.24"/>
</g>
<!-- annual_inc -->
<g id="node12" class="node">
<title>annual_inc</title>
<path fill="#e1f5fe" stroke="black" d="M68.08,-306C68.08,-306 17.98,-306 17.98,-306 11.98,-306 5.98,-300 5.98,-294 5.98,-294 5.98,-282 5.98,-282 5.98,-276 11.98,-270 17.98,-270 17.98,-270 68.08,-270 68.08,-270 74.08,-270 80.08,-276 80.08,-282 80.08,-282 80.08,-294 80.08,-294 80.08,-300 74.08,-306 68.08,-306"/>
<text text-anchor="middle" x="43.03" y="-284.4" font-family="Helvetica,sans-Serif" font-size="12.00">annual_inc</text>
</g>
<!-- funded_amnt -->
<g id="node13" class="node">
<title>funded_amnt</title>
<path fill="#e1f5fe" stroke="black" d="M74.08,-252C74.08,-252 11.97,-252 11.97,-252 5.97,-252 -0.03,-246 -0.03,-240 -0.03,-240 -0.03,-228 -0.03,-228 -0.03,-222 5.97,-216 11.97,-216 11.97,-216 74.08,-216 74.08,-216 80.08,-216 86.08,-222 86.08,-228 86.08,-228 86.08,-240 86.08,-240 86.08,-246 80.08,-252 74.08,-252"/>
<text text-anchor="middle" x="43.03" y="-230.4" font-family="Helvetica,sans-Serif" font-size="12.00">funded_amnt</text>
</g>
<!-- annual_inc&#45;&gt;funded_amnt -->
<g id="edge12" class="edge">
<title>annual_inc&#45;&gt;funded_amnt</title>
<path fill="none" stroke="black" d="M43.03,-269.97C43.03,-267.57 43.03,-265.06 43.03,-262.52"/>
<polygon fill="black" stroke="black" points="46.53,-262.24 43.03,-252.24 39.53,-262.24 46.53,-262.24"/>
</g>
<!-- funded_amnt&#45;&gt;term -->
<g id="edge13" class="edge">
<title>funded_amnt&#45;&gt;term</title>
<path fill="none" stroke="black" d="M70.86,-215.97C77.67,-211.81 85.05,-207.29 92.17,-202.93"/>
<polygon fill="black" stroke="black" points="94.3,-205.74 101,-197.53 90.64,-199.77 94.3,-205.74"/>
</g>
<!-- int_rate% -->
<g id="node15" class="node">
<title>int_rate%</title>
<path fill="#e1f5fe" stroke="black" d="M149.22,-144C149.22,-144 106.83,-144 106.83,-144 100.83,-144 94.83,-138 94.83,-132 94.83,-132 94.83,-120 94.83,-120 94.83,-114 100.83,-108 106.83,-108 106.83,-108 149.22,-108 149.22,-108 155.22,-108 161.22,-114 161.22,-120 161.22,-120 161.22,-132 161.22,-132 161.22,-138 155.22,-144 149.22,-144"/>
<text text-anchor="middle" x="128.03" y="-122.4" font-family="Helvetica,sans-Serif" font-size="12.00">int_rate%</text>
</g>
<!-- term&#45;&gt;int_rate% -->
<g id="edge14" class="edge">
<title>term&#45;&gt;int_rate%</title>
<path fill="none" stroke="black" d="M128.03,-161.97C128.03,-159.57 128.03,-157.06 128.03,-154.52"/>
<polygon fill="black" stroke="black" points="131.53,-154.24 128.03,-144.24 124.53,-154.24 131.53,-154.24"/>
</g>
<!-- home_ownership -->
<g id="node20" class="node">
<title>home_ownership</title>
<path fill="#e1f5fe" stroke="black" d="M379.92,-144C379.92,-144 296.14,-144 296.14,-144 290.14,-144 284.14,-138 284.14,-132 284.14,-132 284.14,-120 284.14,-120 284.14,-114 290.14,-108 296.14,-108 296.14,-108 379.92,-108 379.92,-108 385.92,-108 391.92,-114 391.92,-120 391.92,-120 391.92,-132 391.92,-132 391.92,-138 385.92,-144 379.92,-144"/>
<text text-anchor="middle" x="338.03" y="-122.4" font-family="Helvetica,sans-Serif" font-size="12.00">home_ownership</text>
</g>
<!-- debt_settlement_flag&#45;&gt;home_ownership -->
<g id="edge22" class="edge">
<title>debt_settlement_flag&#45;&gt;home_ownership</title>
<path fill="none" stroke="black" d="M316.51,-161.97C318.31,-159.04 320.22,-155.93 322.13,-152.83"/>
<polygon fill="black" stroke="black" points="325.16,-154.59 327.42,-144.24 319.19,-150.93 325.16,-154.59"/>
</g>
<!-- loan_age -->
<g id="node18" class="node">
<title>loan_age</title>
<path fill="#e1f5fe" stroke="black" d="M422.91,-522C422.91,-522 381.14,-522 381.14,-522 375.14,-522 369.14,-516 369.14,-510 369.14,-510 369.14,-498 369.14,-498 369.14,-492 375.14,-486 381.14,-486 381.14,-486 422.91,-486 422.91,-486 428.91,-486 434.91,-492 434.91,-498 434.91,-498 434.91,-510 434.91,-510 434.91,-516 428.91,-522 422.91,-522"/>
<text text-anchor="middle" x="402.03" y="-500.4" font-family="Helvetica,sans-Serif" font-size="12.00">loan_age</text>
</g>
<!-- loan_age&#45;&gt;all_util -->
<g id="edge18" class="edge">
<title>loan_age&#45;&gt;all_util</title>
<path fill="none" stroke="black" d="M381.07,-485.97C376.59,-482.33 371.77,-478.42 367.05,-474.58"/>
<polygon fill="black" stroke="black" points="369.22,-471.83 359.25,-468.24 364.8,-477.27 369.22,-471.83"/>
</g>
<!-- time_since_last_payment -->
<g id="node19" class="node">
<title>time_since_last_payment</title>
<path fill="#e1f5fe" stroke="black" d="M529.93,-468C529.93,-468 402.12,-468 402.12,-468 396.12,-468 390.12,-462 390.12,-456 390.12,-456 390.12,-444 390.12,-444 390.12,-438 396.12,-432 402.12,-432 402.12,-432 529.93,-432 529.93,-432 535.93,-432 541.93,-438 541.93,-444 541.93,-444 541.93,-456 541.93,-456 541.93,-462 535.93,-468 529.93,-468"/>
<text text-anchor="middle" x="466.03" y="-446.4" font-family="Helvetica,sans-Serif" font-size="12.00">time_since_last_payment</text>
</g>
<!-- loan_age&#45;&gt;time_since_last_payment -->
<g id="edge19" class="edge">
<title>loan_age&#45;&gt;time_since_last_payment</title>
<path fill="none" stroke="black" d="M422.98,-485.97C427.47,-482.33 432.28,-478.42 437.01,-474.58"/>
<polygon fill="black" stroke="black" points="439.25,-477.27 444.81,-468.24 434.84,-471.83 439.25,-477.27"/>
</g>
<!-- home_ownership&#45;&gt;total_rev_hi_lim -->
<g id="edge21" class="edge">
<title>home_ownership&#45;&gt;total_rev_hi_lim</title>
<path fill="none" stroke="black" d="M381.58,-107.97C393.17,-103.44 405.83,-98.49 417.88,-93.78"/>
<polygon fill="black" stroke="black" points="419.34,-96.97 427.38,-90.06 416.79,-90.45 419.34,-96.97"/>
</g>
<!-- avg_cur_bal -->
<g id="node21" class="node">
<title>avg_cur_bal</title>
<path fill="#e1f5fe" stroke="black" d="M366.91,-90C366.91,-90 309.15,-90 309.15,-90 303.15,-90 297.15,-84 297.15,-78 297.15,-78 297.15,-66 297.15,-66 297.15,-60 303.15,-54 309.15,-54 309.15,-54 366.91,-54 366.91,-54 372.91,-54 378.91,-60 378.91,-66 378.91,-66 378.91,-78 378.91,-78 378.91,-84 372.91,-90 366.91,-90"/>
<text text-anchor="middle" x="338.03" y="-68.4" font-family="Helvetica,sans-Serif" font-size="12.00">avg_cur_bal</text>
</g>
<!-- home_ownership&#45;&gt;avg_cur_bal -->
<g id="edge20" class="edge">
<title>home_ownership&#45;&gt;avg_cur_bal</title>
<path fill="none" stroke="black" d="M338.03,-107.97C338.03,-105.57 338.03,-103.06 338.03,-100.52"/>
<polygon fill="black" stroke="black" points="341.53,-100.24 338.03,-90.24 334.53,-100.24 341.53,-100.24"/>
</g>
</g>
</svg>
