<?xml version="1.0" encoding="UTF-8" standalone="no"?>
<!DOCTYPE svg PUBLIC "-//W3C//DTD SVG 1.1//EN"
 "http://www.w3.org/Graphics/SVG/1.1/DTD/svg11.dtd">
<!-- Generated by graphviz version 2.50.0 (0)
 -->
<!-- Pages: 1 -->
<svg width="576pt" height="571pt"
 viewBox="0.00 0.00 576.00 570.69" xmlns="http://www.w3.org/2000/svg" xmlns:xlink="http://www.w3.org/1999/xlink">
<g id="graph0" class="graph" transform="scale(0.56 0.56) rotate(0) translate(4 1012)">
<polygon fill="white" stroke="transparent" points="-4,4 -4,-1012 1021.45,-1012 1021.45,4 -4,4"/>
<!-- acc_open_past_24mths -->
<g id="node1" class="node">
<title>acc_open_past_24mths</title>
<path fill="#e1f5fe" stroke="black" d="M585.37,-954C585.37,-954 465.53,-954 465.53,-954 459.53,-954 453.53,-948 453.53,-942 453.53,-942 453.53,-930 453.53,-930 453.53,-924 459.53,-918 465.53,-918 465.53,-918 585.37,-918 585.37,-918 591.37,-918 597.37,-924 597.37,-930 597.37,-930 597.37,-942 597.37,-942 597.37,-948 591.37,-954 585.37,-954"/>
<text text-anchor="middle" x="525.45" y="-932.4" font-family="Helvetica,sans-Serif" font-size="12.00">acc_open_past_24mths</text>
</g>
<!-- mths_since_recent_bc -->
<g id="node2" class="node">
<title>mths_since_recent_bc</title>
<path fill="#e1f5fe" stroke="black" d="M532.51,-900C532.51,-900 420.39,-900 420.39,-900 414.39,-900 408.39,-894 408.39,-888 408.39,-888 408.39,-876 408.39,-876 408.39,-870 414.39,-864 420.39,-864 420.39,-864 532.51,-864 532.51,-864 538.51,-864 544.51,-870 544.51,-876 544.51,-876 544.51,-888 544.51,-888 544.51,-894 538.51,-900 532.51,-900"/>
<text text-anchor="middle" x="476.45" y="-878.4" font-family="Helvetica,sans-Serif" font-size="12.00">mths_since_recent_bc</text>
</g>
<!-- acc_open_past_24mths&#45;&gt;mths_since_recent_bc -->
<g id="edge1" class="edge">
<title>acc_open_past_24mths&#45;&gt;mths_since_recent_bc</title>
<path fill="none" stroke="black" d="M509.41,-917.97C506.31,-914.69 503,-911.18 499.73,-907.7"/>
<polygon fill="black" stroke="black" points="502.1,-905.12 492.7,-900.24 497.01,-909.92 502.1,-905.12"/>
</g>
<!-- total_rev_hi_lim -->
<g id="node3" class="node">
<title>total_rev_hi_lim</title>
<path fill="#e1f5fe" stroke="black" d="M863.49,-360C863.49,-360 787.41,-360 787.41,-360 781.41,-360 775.41,-354 775.41,-348 775.41,-348 775.41,-336 775.41,-336 775.41,-330 781.41,-324 787.41,-324 787.41,-324 863.49,-324 863.49,-324 869.49,-324 875.49,-330 875.49,-336 875.49,-336 875.49,-348 875.49,-348 875.49,-354 869.49,-360 863.49,-360"/>
<text text-anchor="middle" x="825.45" y="-338.4" font-family="Helvetica,sans-Serif" font-size="12.00">total_rev_hi_lim</text>
</g>
<!-- acc_open_past_24mths&#45;&gt;total_rev_hi_lim -->
<g id="edge2" class="edge">
<title>acc_open_past_24mths&#45;&gt;total_rev_hi_lim</title>
<path fill="none" stroke="black" d="M597.25,-934.29C733.81,-930.99 1017.45,-913.92 1017.45,-829 1017.45,-829 1017.45,-829 1017.45,-557 1017.45,-467.69 923.66,-398.68 867.18,-365.23"/>
<polygon fill="black" stroke="black" points="868.86,-362.16 858.46,-360.16 865.35,-368.21 868.86,-362.16"/>
</g>
<!-- mths_since_recent_inq -->
<g id="node4" class="node">
<title>mths_since_recent_inq</title>
<path fill="#e1f5fe" stroke="black" d="M313.36,-846C313.36,-846 197.55,-846 197.55,-846 191.55,-846 185.55,-840 185.55,-834 185.55,-834 185.55,-822 185.55,-822 185.55,-816 191.55,-810 197.55,-810 197.55,-810 313.36,-810 313.36,-810 319.36,-810 325.36,-816 325.36,-822 325.36,-822 325.36,-834 325.36,-834 325.36,-840 319.36,-846 313.36,-846"/>
<text text-anchor="middle" x="255.45" y="-824.4" font-family="Helvetica,sans-Serif" font-size="12.00">mths_since_recent_inq</text>
</g>
<!-- acc_open_past_24mths&#45;&gt;mths_since_recent_inq -->
<g id="edge3" class="edge">
<title>acc_open_past_24mths&#45;&gt;mths_since_recent_inq</title>
<path fill="none" stroke="black" d="M453.45,-927.73C421.24,-922.67 383.42,-914.19 351.45,-900 325.32,-888.41 299.49,-868.7 281.22,-852.99"/>
<polygon fill="black" stroke="black" points="283.2,-850.07 273.38,-846.1 278.57,-855.33 283.2,-850.07"/>
</g>
<!-- open_act_il -->
<g id="node5" class="node">
<title>open_act_il</title>
<path fill="#e1f5fe" stroke="black" d="M789.33,-846C789.33,-846 735.57,-846 735.57,-846 729.57,-846 723.57,-840 723.57,-834 723.57,-834 723.57,-822 723.57,-822 723.57,-816 729.57,-810 735.57,-810 735.57,-810 789.33,-810 789.33,-810 795.33,-810 801.33,-816 801.33,-822 801.33,-822 801.33,-834 801.33,-834 801.33,-840 795.33,-846 789.33,-846"/>
<text text-anchor="middle" x="762.45" y="-824.4" font-family="Helvetica,sans-Serif" font-size="12.00">open_act_il</text>
</g>
<!-- acc_open_past_24mths&#45;&gt;open_act_il -->
<g id="edge4" class="edge">
<title>acc_open_past_24mths&#45;&gt;open_act_il</title>
<path fill="none" stroke="black" d="M542.48,-917.78C559.5,-901.54 587.15,-877.7 615.45,-864 646.29,-849.07 683.92,-840.27 713.39,-835.22"/>
<polygon fill="black" stroke="black" points="714.14,-838.65 723.45,-833.59 713.02,-831.74 714.14,-838.65"/>
</g>
<!-- total_bc_limit -->
<g id="node6" class="node">
<title>total_bc_limit</title>
<path fill="#e1f5fe" stroke="black" d="M670.48,-414C670.48,-414 608.42,-414 608.42,-414 602.42,-414 596.42,-408 596.42,-402 596.42,-402 596.42,-390 596.42,-390 596.42,-384 602.42,-378 608.42,-378 608.42,-378 670.48,-378 670.48,-378 676.48,-378 682.48,-384 682.48,-390 682.48,-390 682.48,-402 682.48,-402 682.48,-408 676.48,-414 670.48,-414"/>
<text text-anchor="middle" x="639.45" y="-392.4" font-family="Helvetica,sans-Serif" font-size="12.00">total_bc_limit</text>
</g>
<!-- acc_open_past_24mths&#45;&gt;total_bc_limit -->
<g id="edge5" class="edge">
<title>acc_open_past_24mths&#45;&gt;total_bc_limit</title>
<path fill="none" stroke="black" d="M597.29,-931.98C722.25,-922.46 966.45,-883.12 966.45,-721 966.45,-721 966.45,-721 966.45,-611 966.45,-481.68 785.18,-426.3 692.56,-406.44"/>
<polygon fill="black" stroke="black" points="693.04,-402.97 682.54,-404.36 691.61,-409.82 693.04,-402.97"/>
</g>
<!-- all_util -->
<g id="node7" class="node">
<title>all_util</title>
<path fill="#e1f5fe" stroke="black" d="M457.45,-684C457.45,-684 427.45,-684 427.45,-684 421.45,-684 415.45,-678 415.45,-672 415.45,-672 415.45,-660 415.45,-660 415.45,-654 421.45,-648 427.45,-648 427.45,-648 457.45,-648 457.45,-648 463.45,-648 469.45,-654 469.45,-660 469.45,-660 469.45,-672 469.45,-672 469.45,-678 463.45,-684 457.45,-684"/>
<text text-anchor="middle" x="442.45" y="-662.4" font-family="Helvetica,sans-Serif" font-size="12.00">all_util</text>
</g>
<!-- acc_open_past_24mths&#45;&gt;all_util -->
<g id="edge6" class="edge">
<title>acc_open_past_24mths&#45;&gt;all_util</title>
<path fill="none" stroke="black" d="M453.5,-928.39C432.67,-923.35 411.3,-914.7 395.45,-900 370.92,-877.25 370.45,-862.45 370.45,-829 370.45,-829 370.45,-829 370.45,-773 370.45,-740.65 393.68,-710.85 413.75,-691.14"/>
<polygon fill="black" stroke="black" points="416.35,-693.5 421.24,-684.09 411.56,-688.4 416.35,-693.5"/>
</g>
<!-- binary_loan_status -->
<g id="node8" class="node">
<title>binary_loan_status</title>
<path fill="#e1f5fe" stroke="black" d="M226.68,-522C226.68,-522 134.22,-522 134.22,-522 128.22,-522 122.22,-516 122.22,-510 122.22,-510 122.22,-498 122.22,-498 122.22,-492 128.22,-486 134.22,-486 134.22,-486 226.68,-486 226.68,-486 232.68,-486 238.68,-492 238.68,-498 238.68,-498 238.68,-510 238.68,-510 238.68,-516 232.68,-522 226.68,-522"/>
<text text-anchor="middle" x="180.45" y="-500.4" font-family="Helvetica,sans-Serif" font-size="12.00">binary_loan_status</text>
</g>
<!-- acc_open_past_24mths&#45;&gt;binary_loan_status -->
<g id="edge7" class="edge">
<title>acc_open_past_24mths&#45;&gt;binary_loan_status</title>
<path fill="none" stroke="black" d="M453.66,-929.52C406.77,-924.66 344.61,-915.79 291.45,-900 148.07,-857.4 6.45,-870.58 6.45,-721 6.45,-721 6.45,-721 6.45,-611 6.45,-559.21 63.37,-531.99 112.09,-518.17"/>
<polygon fill="black" stroke="black" points="113.28,-521.48 122.03,-515.5 111.46,-514.72 113.28,-521.48"/>
</g>
<!-- mths_since_recent_bc&#45;&gt;mths_since_recent_inq -->
<g id="edge9" class="edge">
<title>mths_since_recent_bc&#45;&gt;mths_since_recent_inq</title>
<path fill="none" stroke="black" d="M408.34,-864.97C385.15,-859.52 359.03,-853.37 335.03,-847.72"/>
<polygon fill="black" stroke="black" points="335.78,-844.31 325.24,-845.42 334.18,-851.12 335.78,-844.31"/>
</g>
<!-- mths_since_recent_bc&#45;&gt;open_act_il -->
<g id="edge11" class="edge">
<title>mths_since_recent_bc&#45;&gt;open_act_il</title>
<path fill="none" stroke="black" d="M544.65,-867.71C551.34,-866.44 558.02,-865.19 564.45,-864 615.29,-854.6 673.58,-844.36 713.68,-837.4"/>
<polygon fill="black" stroke="black" points="714.46,-840.82 723.72,-835.66 713.27,-833.92 714.46,-840.82"/>
</g>
<!-- mths_since_recent_bc&#45;&gt;total_bc_limit -->
<g id="edge12" class="edge">
<title>mths_since_recent_bc&#45;&gt;total_bc_limit</title>
<path fill="none" stroke="black" d="M483.75,-863.94C495.13,-838.61 518.87,-790.35 548.45,-756 589.94,-707.82 660.45,-730.58 660.45,-667 660.45,-667 660.45,-667 660.45,-503 660.45,-475.59 653.61,-444.94 647.74,-423.68"/>
<polygon fill="black" stroke="black" points="651.1,-422.69 644.97,-414.05 644.37,-424.63 651.1,-422.69"/>
</g>
<!-- percent_bc_gt_75 -->
<g id="node9" class="node">
<title>percent_bc_gt_75</title>
<path fill="#e1f5fe" stroke="black" d="M661.53,-792C661.53,-792 573.37,-792 573.37,-792 567.37,-792 561.37,-786 561.37,-780 561.37,-780 561.37,-768 561.37,-768 561.37,-762 567.37,-756 573.37,-756 573.37,-756 661.53,-756 661.53,-756 667.53,-756 673.53,-762 673.53,-768 673.53,-768 673.53,-780 673.53,-780 673.53,-786 667.53,-792 661.53,-792"/>
<text text-anchor="middle" x="617.45" y="-770.4" font-family="Helvetica,sans-Serif" font-size="12.00">percent_bc_gt_75</text>
</g>
<!-- mths_since_recent_bc&#45;&gt;percent_bc_gt_75 -->
<g id="edge8" class="edge">
<title>mths_since_recent_bc&#45;&gt;percent_bc_gt_75</title>
<path fill="none" stroke="black" d="M499.1,-863.97C522.71,-846.23 559.85,-818.3 586.23,-798.47"/>
<polygon fill="black" stroke="black" points="588.49,-801.15 594.38,-792.34 584.29,-795.55 588.49,-801.15"/>
</g>
<!-- bc_util -->
<g id="node10" class="node">
<title>bc_util</title>
<path fill="#e1f5fe" stroke="black" d="M522.45,-738C522.45,-738 492.45,-738 492.45,-738 486.45,-738 480.45,-732 480.45,-726 480.45,-726 480.45,-714 480.45,-714 480.45,-708 486.45,-702 492.45,-702 492.45,-702 522.45,-702 522.45,-702 528.45,-702 534.45,-708 534.45,-714 534.45,-714 534.45,-726 534.45,-726 534.45,-732 528.45,-738 522.45,-738"/>
<text text-anchor="middle" x="507.45" y="-716.4" font-family="Helvetica,sans-Serif" font-size="12.00">bc_util</text>
</g>
<!-- mths_since_recent_bc&#45;&gt;bc_util -->
<g id="edge10" class="edge">
<title>mths_since_recent_bc&#45;&gt;bc_util</title>
<path fill="none" stroke="black" d="M462.35,-863.84C458.73,-858.46 455.33,-852.27 453.45,-846 441.99,-807.68 434.35,-791.14 453.45,-756 457.63,-748.31 464.31,-742.05 471.57,-737.06"/>
<polygon fill="black" stroke="black" points="473.51,-739.97 480.24,-731.78 469.87,-733.99 473.51,-739.97"/>
</g>
<!-- funded_amnt -->
<g id="node11" class="node">
<title>funded_amnt</title>
<path fill="#e1f5fe" stroke="black" d="M670.5,-306C670.5,-306 608.4,-306 608.4,-306 602.4,-306 596.4,-300 596.4,-294 596.4,-294 596.4,-282 596.4,-282 596.4,-276 602.4,-270 608.4,-270 608.4,-270 670.5,-270 670.5,-270 676.5,-270 682.5,-276 682.5,-282 682.5,-282 682.5,-294 682.5,-294 682.5,-300 676.5,-306 670.5,-306"/>
<text text-anchor="middle" x="639.45" y="-284.4" font-family="Helvetica,sans-Serif" font-size="12.00">funded_amnt</text>
</g>
<!-- total_rev_hi_lim&#45;&gt;funded_amnt -->
<g id="edge13" class="edge">
<title>total_rev_hi_lim&#45;&gt;funded_amnt</title>
<path fill="none" stroke="black" d="M775.12,-326.93C749.45,-319.75 718.26,-311.03 692.25,-303.76"/>
<polygon fill="black" stroke="black" points="693.14,-300.37 682.56,-301.05 691.25,-307.12 693.14,-300.37"/>
</g>
<!-- annual_inc -->
<g id="node12" class="node">
<title>annual_inc</title>
<path fill="#e1f5fe" stroke="black" d="M858.5,-252C858.5,-252 808.4,-252 808.4,-252 802.4,-252 796.4,-246 796.4,-240 796.4,-240 796.4,-228 796.4,-228 796.4,-222 802.4,-216 808.4,-216 808.4,-216 858.5,-216 858.5,-216 864.5,-216 870.5,-222 870.5,-228 870.5,-228 870.5,-240 870.5,-240 870.5,-246 864.5,-252 858.5,-252"/>
<text text-anchor="middle" x="833.45" y="-230.4" font-family="Helvetica,sans-Serif" font-size="12.00">annual_inc</text>
</g>
<!-- total_rev_hi_lim&#45;&gt;annual_inc -->
<g id="edge14" class="edge">
<title>total_rev_hi_lim&#45;&gt;annual_inc</title>
<path fill="none" stroke="black" d="M826.74,-323.97C827.99,-307.38 829.91,-281.88 831.38,-262.43"/>
<polygon fill="black" stroke="black" points="834.88,-262.58 832.14,-252.34 827.9,-262.05 834.88,-262.58"/>
</g>
<!-- dti -->
<g id="node13" class="node">
<title>dti</title>
<path fill="#e1f5fe" stroke="black" d="M573.45,-198C573.45,-198 543.45,-198 543.45,-198 537.45,-198 531.45,-192 531.45,-186 531.45,-186 531.45,-174 531.45,-174 531.45,-168 537.45,-162 543.45,-162 543.45,-162 573.45,-162 573.45,-162 579.45,-162 585.45,-168 585.45,-174 585.45,-174 585.45,-186 585.45,-186 585.45,-192 579.45,-198 573.45,-198"/>
<text text-anchor="middle" x="558.45" y="-176.4" font-family="Helvetica,sans-Serif" font-size="12.00">dti</text>
</g>
<!-- total_rev_hi_lim&#45;&gt;dti -->
<g id="edge15" class="edge">
<title>total_rev_hi_lim&#45;&gt;dti</title>
<path fill="none" stroke="black" d="M816.88,-323.7C802.32,-296.2 770.03,-242.91 726.45,-216 686.3,-191.21 631.54,-183.7 595.6,-181.57"/>
<polygon fill="black" stroke="black" points="595.7,-178.07 585.54,-181.09 595.36,-185.07 595.7,-178.07"/>
</g>
<!-- home_ownership -->
<g id="node14" class="node">
<title>home_ownership</title>
<path fill="#e1f5fe" stroke="black" d="M912.34,-90C912.34,-90 828.56,-90 828.56,-90 822.56,-90 816.56,-84 816.56,-78 816.56,-78 816.56,-66 816.56,-66 816.56,-60 822.56,-54 828.56,-54 828.56,-54 912.34,-54 912.34,-54 918.34,-54 924.34,-60 924.34,-66 924.34,-66 924.34,-78 924.34,-78 924.34,-84 918.34,-90 912.34,-90"/>
<text text-anchor="middle" x="870.45" y="-68.4" font-family="Helvetica,sans-Serif" font-size="12.00">home_ownership</text>
</g>
<!-- total_rev_hi_lim&#45;&gt;home_ownership -->
<g id="edge16" class="edge">
<title>total_rev_hi_lim&#45;&gt;home_ownership</title>
<path fill="none" stroke="black" d="M850.8,-323.94C875.21,-305.25 908.45,-272.86 908.45,-235 908.45,-235 908.45,-235 908.45,-179 908.45,-150.52 896.14,-120.12 885.54,-99.22"/>
<polygon fill="black" stroke="black" points="888.6,-97.53 880.83,-90.32 882.41,-100.8 888.6,-97.53"/>
</g>
<!-- inq_last_12m -->
<g id="node15" class="node">
<title>inq_last_12m</title>
<path fill="#e1f5fe" stroke="black" d="M171.33,-630C171.33,-630 107.57,-630 107.57,-630 101.57,-630 95.57,-624 95.57,-618 95.57,-618 95.57,-606 95.57,-606 95.57,-600 101.57,-594 107.57,-594 107.57,-594 171.33,-594 171.33,-594 177.33,-594 183.33,-600 183.33,-606 183.33,-606 183.33,-618 183.33,-618 183.33,-624 177.33,-630 171.33,-630"/>
<text text-anchor="middle" x="139.45" y="-608.4" font-family="Helvetica,sans-Serif" font-size="12.00">inq_last_12m</text>
</g>
<!-- mths_since_recent_inq&#45;&gt;inq_last_12m -->
<g id="edge17" class="edge">
<title>mths_since_recent_inq&#45;&gt;inq_last_12m</title>
<path fill="none" stroke="black" d="M246.15,-809.85C225.92,-772.52 177.77,-683.69 153.68,-639.26"/>
<polygon fill="black" stroke="black" points="156.63,-637.36 148.79,-630.23 150.48,-640.69 156.63,-637.36"/>
</g>
<!-- open_act_il&#45;&gt;total_bc_limit -->
<g id="edge22" class="edge">
<title>open_act_il&#45;&gt;total_bc_limit</title>
<path fill="none" stroke="black" d="M762.45,-809.74C762.45,-788.76 762.45,-752.28 762.45,-721 762.45,-721 762.45,-721 762.45,-503 762.45,-463.32 725.26,-435.23 691.78,-417.98"/>
<polygon fill="black" stroke="black" points="692.99,-414.67 682.47,-413.4 689.9,-420.95 692.99,-414.67"/>
</g>
<!-- open_act_il&#45;&gt;all_util -->
<g id="edge18" class="edge">
<title>open_act_il&#45;&gt;all_util</title>
<path fill="none" stroke="black" d="M747.64,-809.82C733.31,-794.07 710.3,-770.99 686.45,-756 619.44,-713.9 529.62,-687.69 479.77,-675.37"/>
<polygon fill="black" stroke="black" points="480.3,-671.9 469.76,-672.96 478.66,-678.71 480.3,-671.9"/>
</g>
<!-- open_act_il&#45;&gt;percent_bc_gt_75 -->
<g id="edge20" class="edge">
<title>open_act_il&#45;&gt;percent_bc_gt_75</title>
<path fill="none" stroke="black" d="M723.59,-813.06C708.52,-807.66 690.94,-801.36 674.49,-795.46"/>
<polygon fill="black" stroke="black" points="675.55,-792.12 664.96,-792.04 673.19,-798.71 675.55,-792.12"/>
</g>
<!-- open_act_il&#45;&gt;annual_inc -->
<g id="edge21" class="edge">
<title>open_act_il&#45;&gt;annual_inc</title>
<path fill="none" stroke="black" d="M801.16,-813.41C812.31,-808.07 823.79,-801.01 832.45,-792 856.43,-767.04 864.45,-755.61 864.45,-721 864.45,-721 864.45,-721 864.45,-557 864.45,-516.55 878.28,-508.11 883.45,-468 889.6,-420.34 887.34,-408.04 888.45,-360 888.82,-344 892.82,-339.39 888.45,-324 881.77,-300.49 866.92,-277.11 854.33,-260.21"/>
<polygon fill="black" stroke="black" points="856.89,-257.79 848.01,-252.01 851.34,-262.06 856.89,-257.79"/>
</g>
<!-- open_act_il&#45;&gt;dti -->
<g id="edge19" class="edge">
<title>open_act_il&#45;&gt;dti</title>
<path fill="none" stroke="black" d="M776.66,-809.84C791.75,-789.82 813.45,-755.1 813.45,-721 813.45,-721 813.45,-721 813.45,-557 813.45,-488.04 739.47,-323.08 695.45,-270 668.05,-236.96 625.16,-211.88 594.68,-196.9"/>
<polygon fill="black" stroke="black" points="596.18,-193.73 585.65,-192.57 593.16,-200.05 596.18,-193.73"/>
</g>
<!-- open_act_il&#45;&gt;inq_last_12m -->
<g id="edge23" class="edge">
<title>open_act_il&#45;&gt;inq_last_12m</title>
<path fill="none" stroke="black" d="M723.53,-823.59C680.14,-819.11 608.2,-809.66 548.45,-792 408.13,-750.53 252.36,-672.89 180.22,-634.97"/>
<polygon fill="black" stroke="black" points="181.5,-631.69 171.02,-630.11 178.23,-637.87 181.5,-631.69"/>
</g>
<!-- emp_length -->
<g id="node16" class="node">
<title>emp_length</title>
<path fill="#e1f5fe" stroke="black" d="M989.66,-36C989.66,-36 935.24,-36 935.24,-36 929.24,-36 923.24,-30 923.24,-24 923.24,-24 923.24,-12 923.24,-12 923.24,-6 929.24,0 935.24,0 935.24,0 989.66,0 989.66,0 995.66,0 1001.66,-6 1001.66,-12 1001.66,-12 1001.66,-24 1001.66,-24 1001.66,-30 995.66,-36 989.66,-36"/>
<text text-anchor="middle" x="962.45" y="-14.4" font-family="Helvetica,sans-Serif" font-size="12.00">emp_length</text>
</g>
<!-- open_act_il&#45;&gt;emp_length -->
<g id="edge24" class="edge">
<title>open_act_il&#45;&gt;emp_length</title>
<path fill="none" stroke="black" d="M801.45,-818.09C846.78,-805.16 915.45,-776.42 915.45,-721 915.45,-721 915.45,-721 915.45,-611 915.45,-505.64 1017.45,-502.36 1017.45,-397 1017.45,-397 1017.45,-397 1017.45,-125 1017.45,-94.89 999.74,-64.82 984.42,-44.44"/>
<polygon fill="black" stroke="black" points="986.99,-42.04 978.06,-36.33 981.48,-46.36 986.99,-42.04"/>
</g>
<!-- total_bc_limit&#45;&gt;total_rev_hi_lim -->
<g id="edge25" class="edge">
<title>total_bc_limit&#45;&gt;total_rev_hi_lim</title>
<path fill="none" stroke="black" d="M682.59,-382.94C707.25,-376.05 738.55,-367.29 765.56,-359.74"/>
<polygon fill="black" stroke="black" points="766.61,-363.08 775.3,-357.02 764.73,-356.34 766.61,-363.08"/>
</g>
<!-- total_bc_limit&#45;&gt;funded_amnt -->
<g id="edge27" class="edge">
<title>total_bc_limit&#45;&gt;funded_amnt</title>
<path fill="none" stroke="black" d="M639.45,-377.97C639.45,-361.38 639.45,-335.88 639.45,-316.43"/>
<polygon fill="black" stroke="black" points="642.95,-316.34 639.45,-306.34 635.95,-316.34 642.95,-316.34"/>
</g>
<!-- total_bc_limit&#45;&gt;dti -->
<g id="edge26" class="edge">
<title>total_bc_limit&#45;&gt;dti</title>
<path fill="none" stroke="black" d="M626.05,-377.96C613.2,-360.76 594.2,-332.96 583.45,-306 570.61,-273.8 564.12,-234.21 561.02,-208.33"/>
<polygon fill="black" stroke="black" points="564.47,-207.69 559.89,-198.14 557.52,-208.46 564.47,-207.69"/>
</g>
<!-- all_util&#45;&gt;total_bc_limit -->
<g id="edge30" class="edge">
<title>all_util&#45;&gt;total_bc_limit</title>
<path fill="none" stroke="black" d="M450.4,-647.96C469.96,-607.24 523.72,-502.46 590.45,-432 594.31,-427.92 598.72,-424.01 603.26,-420.38"/>
<polygon fill="black" stroke="black" points="605.62,-422.98 611.5,-414.17 601.41,-417.39 605.62,-422.98"/>
</g>
<!-- all_util&#45;&gt;dti -->
<g id="edge32" class="edge">
<title>all_util&#45;&gt;dti</title>
<path fill="none" stroke="black" d="M415.25,-649.94C361.16,-620.19 241.5,-555.42 197.45,-540 159.77,-526.81 138.56,-549.31 109.45,-522 67.46,-482.61 75.45,-454.57 75.45,-397 75.45,-397 75.45,-397 75.45,-287 75.45,-195.83 407.93,-182.98 521.19,-181.24"/>
<polygon fill="black" stroke="black" points="521.49,-184.74 531.45,-181.11 521.4,-177.74 521.49,-184.74"/>
</g>
<!-- all_util&#45;&gt;inq_last_12m -->
<g id="edge29" class="edge">
<title>all_util&#45;&gt;inq_last_12m</title>
<path fill="none" stroke="black" d="M415.08,-653.56C409.03,-651.4 402.59,-649.39 396.45,-648 312.01,-628.83 287.67,-645.34 202.45,-630 199.43,-629.46 196.34,-628.84 193.23,-628.16"/>
<polygon fill="black" stroke="black" points="193.82,-624.71 183.29,-625.86 192.24,-631.53 193.82,-624.71"/>
</g>
<!-- loan_age -->
<g id="node17" class="node">
<title>loan_age</title>
<path fill="#e1f5fe" stroke="black" d="M379.33,-576C379.33,-576 337.57,-576 337.57,-576 331.57,-576 325.57,-570 325.57,-564 325.57,-564 325.57,-552 325.57,-552 325.57,-546 331.57,-540 337.57,-540 337.57,-540 379.33,-540 379.33,-540 385.33,-540 391.33,-546 391.33,-552 391.33,-552 391.33,-564 391.33,-564 391.33,-570 385.33,-576 379.33,-576"/>
<text text-anchor="middle" x="358.45" y="-554.4" font-family="Helvetica,sans-Serif" font-size="12.00">loan_age</text>
</g>
<!-- all_util&#45;&gt;loan_age -->
<g id="edge28" class="edge">
<title>all_util&#45;&gt;loan_age</title>
<path fill="none" stroke="black" d="M428.95,-647.97C415.32,-630.76 394.1,-603.98 378.5,-584.29"/>
<polygon fill="black" stroke="black" points="381.15,-582 372.19,-576.34 375.66,-586.35 381.15,-582"/>
</g>
<!-- avg_cur_bal -->
<g id="node18" class="node">
<title>avg_cur_bal</title>
<path fill="#e1f5fe" stroke="black" d="M807.33,-144C807.33,-144 749.57,-144 749.57,-144 743.57,-144 737.57,-138 737.57,-132 737.57,-132 737.57,-120 737.57,-120 737.57,-114 743.57,-108 749.57,-108 749.57,-108 807.33,-108 807.33,-108 813.33,-108 819.33,-114 819.33,-120 819.33,-120 819.33,-132 819.33,-132 819.33,-138 813.33,-144 807.33,-144"/>
<text text-anchor="middle" x="778.45" y="-122.4" font-family="Helvetica,sans-Serif" font-size="12.00">avg_cur_bal</text>
</g>
<!-- all_util&#45;&gt;avg_cur_bal -->
<g id="edge31" class="edge">
<title>all_util&#45;&gt;avg_cur_bal</title>
<path fill="none" stroke="black" d="M415.42,-659.62C387.64,-653.73 343.37,-643.32 306.45,-630 253.53,-610.9 110.99,-567.18 77.45,-522 10.46,-431.76 21.87,-376.94 56.45,-270 65.56,-241.83 70.02,-231.16 95.45,-216 202.45,-152.24 587.59,-133.31 727.34,-128.48"/>
<polygon fill="black" stroke="black" points="727.87,-131.96 737.75,-128.13 727.64,-124.96 727.87,-131.96"/>
</g>
<!-- time_since_last_payment -->
<g id="node19" class="node">
<title>time_since_last_payment</title>
<path fill="#e1f5fe" stroke="black" d="M304.36,-468C304.36,-468 176.55,-468 176.55,-468 170.55,-468 164.55,-462 164.55,-456 164.55,-456 164.55,-444 164.55,-444 164.55,-438 170.55,-432 176.55,-432 176.55,-432 304.36,-432 304.36,-432 310.36,-432 316.36,-438 316.36,-444 316.36,-444 316.36,-456 316.36,-456 316.36,-462 310.36,-468 304.36,-468"/>
<text text-anchor="middle" x="240.45" y="-446.4" font-family="Helvetica,sans-Serif" font-size="12.00">time_since_last_payment</text>
</g>
<!-- binary_loan_status&#45;&gt;time_since_last_payment -->
<g id="edge33" class="edge">
<title>binary_loan_status&#45;&gt;time_since_last_payment</title>
<path fill="none" stroke="black" d="M200.1,-485.97C204.2,-482.42 208.59,-478.61 212.92,-474.86"/>
<polygon fill="black" stroke="black" points="215.29,-477.44 220.55,-468.24 210.71,-472.15 215.29,-477.44"/>
</g>
<!-- term -->
<g id="node20" class="node">
<title>term</title>
<path fill="#e1f5fe" stroke="black" d="M355.45,-252C355.45,-252 325.45,-252 325.45,-252 319.45,-252 313.45,-246 313.45,-240 313.45,-240 313.45,-228 313.45,-228 313.45,-222 319.45,-216 325.45,-216 325.45,-216 355.45,-216 355.45,-216 361.45,-216 367.45,-222 367.45,-228 367.45,-228 367.45,-240 367.45,-240 367.45,-246 361.45,-252 355.45,-252"/>
<text text-anchor="middle" x="340.45" y="-230.4" font-family="Helvetica,sans-Serif" font-size="12.00">term</text>
</g>
<!-- binary_loan_status&#45;&gt;term -->
<g id="edge34" class="edge">
<title>binary_loan_status&#45;&gt;term</title>
<path fill="none" stroke="black" d="M163.03,-485.91C158.73,-480.62 154.72,-474.46 152.45,-468 147.15,-452.9 146.5,-446.85 152.45,-432 183.42,-354.7 260.78,-290.5 306.03,-257.98"/>
<polygon fill="black" stroke="black" points="308.21,-260.72 314.35,-252.09 304.17,-255.01 308.21,-260.72"/>
</g>
<!-- percent_bc_gt_75&#45;&gt;total_bc_limit -->
<g id="edge57" class="edge">
<title>percent_bc_gt_75&#45;&gt;total_bc_limit</title>
<path fill="none" stroke="black" d="M656.58,-755.9C664.86,-750.99 673.03,-745.03 679.45,-738 702.79,-712.44 711.45,-701.61 711.45,-667 711.45,-667 711.45,-667 711.45,-503 711.45,-468.39 700.06,-459.81 679.45,-432 676.58,-428.13 673.21,-424.38 669.68,-420.86"/>
<polygon fill="black" stroke="black" points="671.99,-418.23 662.27,-414.01 667.23,-423.37 671.99,-418.23"/>
</g>
<!-- percent_bc_gt_75&#45;&gt;bc_util -->
<g id="edge56" class="edge">
<title>percent_bc_gt_75&#45;&gt;bc_util</title>
<path fill="none" stroke="black" d="M581.43,-755.97C569.37,-750.27 555.92,-743.91 543.83,-738.2"/>
<polygon fill="black" stroke="black" points="545.01,-734.88 534.47,-733.77 542.02,-741.21 545.01,-734.88"/>
</g>
<!-- bc_util&#45;&gt;total_bc_limit -->
<g id="edge50" class="edge">
<title>bc_util&#45;&gt;total_bc_limit</title>
<path fill="none" stroke="black" d="M534.78,-710.37C548.99,-704.74 565.78,-696.15 577.45,-684 601.43,-659.04 609.45,-647.61 609.45,-613 609.45,-613 609.45,-613 609.45,-503 609.45,-475.1 619.19,-444.57 627.58,-423.47"/>
<polygon fill="black" stroke="black" points="630.82,-424.79 631.41,-414.21 624.35,-422.11 630.82,-424.79"/>
</g>
<!-- bc_util&#45;&gt;all_util -->
<g id="edge49" class="edge">
<title>bc_util&#45;&gt;all_util</title>
<path fill="none" stroke="black" d="M486.17,-701.97C481.61,-698.33 476.72,-694.42 471.92,-690.58"/>
<polygon fill="black" stroke="black" points="474,-687.76 464,-684.24 469.63,-693.22 474,-687.76"/>
</g>
<!-- bc_util&#45;&gt;funded_amnt -->
<g id="edge52" class="edge">
<title>bc_util&#45;&gt;funded_amnt</title>
<path fill="none" stroke="black" d="M521.66,-701.84C536.75,-681.82 558.45,-647.1 558.45,-613 558.45,-613 558.45,-613 558.45,-557 558.45,-476.67 555.89,-453.45 583.45,-378 591.88,-354.93 606.91,-331.52 619.29,-314.51"/>
<polygon fill="black" stroke="black" points="622.29,-316.34 625.46,-306.23 616.68,-312.15 622.29,-316.34"/>
</g>
<!-- bc_util&#45;&gt;dti -->
<g id="edge51" class="edge">
<title>bc_util&#45;&gt;dti</title>
<path fill="none" stroke="black" d="M480.32,-719.89C409.03,-720.93 213.02,-715.31 83.45,-630 4.45,-577.99 -8.92,-525.48 5.45,-432 21.25,-329.21 4.7,-266.8 95.45,-216 132.21,-195.42 417.73,-185.11 521.18,-182.02"/>
<polygon fill="black" stroke="black" points="521.29,-185.52 531.18,-181.73 521.08,-178.52 521.29,-185.52"/>
</g>
<!-- bc_util&#45;&gt;loan_age -->
<g id="edge53" class="edge">
<title>bc_util&#45;&gt;loan_age</title>
<path fill="none" stroke="black" d="M504.05,-701.78C500.47,-686.64 493.75,-664.5 482.45,-648 461.87,-617.94 427.64,-594.5 400.35,-579.24"/>
<polygon fill="black" stroke="black" points="401.85,-576.07 391.39,-574.38 398.51,-582.23 401.85,-576.07"/>
</g>
<!-- funded_amnt&#45;&gt;annual_inc -->
<g id="edge54" class="edge">
<title>funded_amnt&#45;&gt;annual_inc</title>
<path fill="none" stroke="black" d="M682.51,-275.46C713.33,-267.2 754.81,-256.08 786.48,-247.59"/>
<polygon fill="black" stroke="black" points="787.64,-250.9 796.4,-244.93 785.83,-244.14 787.64,-250.9"/>
</g>
<!-- funded_amnt&#45;&gt;term -->
<g id="edge55" class="edge">
<title>funded_amnt&#45;&gt;term</title>
<path fill="none" stroke="black" d="M596.29,-279.49C537.49,-269.27 433.2,-251.13 377.66,-241.47"/>
<polygon fill="black" stroke="black" points="378.01,-237.98 367.56,-239.71 376.81,-244.88 378.01,-237.98"/>
</g>
<!-- annual_inc&#45;&gt;dti -->
<g id="edge45" class="edge">
<title>annual_inc&#45;&gt;dti</title>
<path fill="none" stroke="black" d="M796.29,-220.95C790.04,-219.14 783.59,-217.42 777.45,-216 714.37,-201.46 639.68,-190.92 595.84,-185.4"/>
<polygon fill="black" stroke="black" points="596.01,-181.89 585.65,-184.14 595.14,-188.84 596.01,-181.89"/>
</g>
<!-- annual_inc&#45;&gt;emp_length -->
<g id="edge46" class="edge">
<title>annual_inc&#45;&gt;emp_length</title>
<path fill="none" stroke="black" d="M848.11,-215.97C869.76,-190.15 910.5,-138.92 936.45,-90 943.85,-76.05 950.04,-59.52 954.52,-45.93"/>
<polygon fill="black" stroke="black" points="957.92,-46.79 957.6,-36.2 951.25,-44.67 957.92,-46.79"/>
</g>
<!-- annual_inc&#45;&gt;avg_cur_bal -->
<g id="edge44" class="edge">
<title>annual_inc&#45;&gt;avg_cur_bal</title>
<path fill="none" stroke="black" d="M824.61,-215.97C815.85,-199.07 802.28,-172.94 792.13,-153.36"/>
<polygon fill="black" stroke="black" points="795.16,-151.6 787.45,-144.34 788.95,-154.83 795.16,-151.6"/>
</g>
<!-- dti&#45;&gt;avg_cur_bal -->
<g id="edge43" class="edge">
<title>dti&#45;&gt;avg_cur_bal</title>
<path fill="none" stroke="black" d="M585.87,-172.52C621.24,-164.16 683.46,-149.45 727.59,-139.02"/>
<polygon fill="black" stroke="black" points="728.63,-142.37 737.56,-136.67 727.02,-135.56 728.63,-142.37"/>
</g>
<!-- home_ownership&#45;&gt;emp_length -->
<g id="edge48" class="edge">
<title>home_ownership&#45;&gt;emp_length</title>
<path fill="none" stroke="black" d="M900.57,-53.97C907.88,-49.84 915.8,-45.37 923.45,-41.04"/>
<polygon fill="black" stroke="black" points="925.27,-44.03 932.26,-36.06 921.83,-37.94 925.27,-44.03"/>
</g>
<!-- addr_state -->
<g id="node21" class="node">
<title>addr_state</title>
<path fill="#e1f5fe" stroke="black" d="M844.66,-36C844.66,-36 796.24,-36 796.24,-36 790.24,-36 784.24,-30 784.24,-24 784.24,-24 784.24,-12 784.24,-12 784.24,-6 790.24,0 796.24,0 796.24,0 844.66,0 844.66,0 850.66,0 856.66,-6 856.66,-12 856.66,-12 856.66,-24 856.66,-24 856.66,-30 850.66,-36 844.66,-36"/>
<text text-anchor="middle" x="820.45" y="-14.4" font-family="Helvetica,sans-Serif" font-size="12.00">addr_state</text>
</g>
<!-- home_ownership&#45;&gt;addr_state -->
<g id="edge47" class="edge">
<title>home_ownership&#45;&gt;addr_state</title>
<path fill="none" stroke="black" d="M854.08,-53.97C850.92,-50.69 847.55,-47.18 844.2,-43.7"/>
<polygon fill="black" stroke="black" points="846.48,-41.03 837.03,-36.24 841.44,-45.88 846.48,-41.03"/>
</g>
<!-- inq_last_12m&#45;&gt;loan_age -->
<g id="edge40" class="edge">
<title>inq_last_12m&#45;&gt;loan_age</title>
<path fill="none" stroke="black" d="M183.24,-600.6C221.74,-591.46 277.44,-578.24 315.64,-569.16"/>
<polygon fill="black" stroke="black" points="316.52,-572.55 325.44,-566.84 314.9,-565.74 316.52,-572.55"/>
</g>
<!-- loan_age&#45;&gt;total_bc_limit -->
<g id="edge38" class="edge">
<title>loan_age&#45;&gt;total_bc_limit</title>
<path fill="none" stroke="black" d="M391.33,-541.02C402.11,-535.4 414.01,-528.78 424.45,-522 478.89,-486.66 482.5,-463.14 539.45,-432 554.15,-423.96 571.05,-417.21 586.73,-411.85"/>
<polygon fill="black" stroke="black" points="587.9,-415.15 596.3,-408.7 585.7,-408.5 587.9,-415.15"/>
</g>
<!-- loan_age&#45;&gt;binary_loan_status -->
<g id="edge37" class="edge">
<title>loan_age&#45;&gt;binary_loan_status</title>
<path fill="none" stroke="black" d="M325.39,-547.34C303.9,-541.06 275.1,-532.65 248.84,-524.98"/>
<polygon fill="black" stroke="black" points="249.5,-521.52 238.92,-522.08 247.53,-528.24 249.5,-521.52"/>
</g>
<!-- loan_age&#45;&gt;dti -->
<g id="edge36" class="edge">
<title>loan_age&#45;&gt;dti</title>
<path fill="none" stroke="black" d="M371.54,-539.66C385.45,-519.48 405.45,-484.62 405.45,-451 405.45,-451 405.45,-451 405.45,-287 405.45,-230.67 476.39,-201.91 521.66,-189.28"/>
<polygon fill="black" stroke="black" points="522.68,-192.64 531.45,-186.69 520.89,-185.87 522.68,-192.64"/>
</g>
<!-- loan_age&#45;&gt;time_since_last_payment -->
<g id="edge35" class="edge">
<title>loan_age&#45;&gt;time_since_last_payment</title>
<path fill="none" stroke="black" d="M339.49,-539.97C320,-522.46 289.46,-495.02 267.44,-475.25"/>
<polygon fill="black" stroke="black" points="269.53,-472.42 259.75,-468.34 264.85,-477.63 269.53,-472.42"/>
</g>
<!-- loan_age&#45;&gt;term -->
<g id="edge39" class="edge">
<title>loan_age&#45;&gt;term</title>
<path fill="none" stroke="black" d="M357.4,-539.75C356.21,-518.78 354.45,-482.31 354.45,-451 354.45,-451 354.45,-451 354.45,-341 354.45,-314 349.93,-283.47 346.03,-262.13"/>
<polygon fill="black" stroke="black" points="349.44,-261.33 344.13,-252.17 342.56,-262.65 349.44,-261.33"/>
</g>
<!-- avg_cur_bal&#45;&gt;home_ownership -->
<g id="edge41" class="edge">
<title>avg_cur_bal&#45;&gt;home_ownership</title>
<path fill="none" stroke="black" d="M808.57,-107.97C815.88,-103.84 823.8,-99.37 831.45,-95.04"/>
<polygon fill="black" stroke="black" points="833.27,-98.03 840.26,-90.06 829.83,-91.94 833.27,-98.03"/>
</g>
<!-- avg_cur_bal&#45;&gt;addr_state -->
<g id="edge42" class="edge">
<title>avg_cur_bal&#45;&gt;addr_state</title>
<path fill="none" stroke="black" d="M784.28,-107.93C789.33,-93.46 796.97,-72.21 804.45,-54 805.57,-51.28 806.78,-48.45 808.01,-45.65"/>
<polygon fill="black" stroke="black" points="811.29,-46.89 812.21,-36.33 804.91,-44.01 811.29,-46.89"/>
</g>
<!-- time_since_last_payment&#45;&gt;total_bc_limit -->
<g id="edge65" class="edge">
<title>time_since_last_payment&#45;&gt;total_bc_limit</title>
<path fill="none" stroke="black" d="M316.44,-439.1C395.37,-428.81 516.82,-412.98 586.12,-403.95"/>
<polygon fill="black" stroke="black" points="586.91,-407.38 596.37,-402.61 586,-400.44 586.91,-407.38"/>
</g>
<!-- time_since_last_payment&#45;&gt;dti -->
<g id="edge64" class="edge">
<title>time_since_last_payment&#45;&gt;dti</title>
<path fill="none" stroke="black" d="M222.23,-431.73C203.62,-412.15 177.45,-378.32 177.45,-343 177.45,-343 177.45,-343 177.45,-287 177.45,-216.11 425.38,-190.61 521.24,-183.4"/>
<polygon fill="black" stroke="black" points="521.63,-186.88 531.36,-182.67 521.13,-179.9 521.63,-186.88"/>
</g>
<!-- num_tl_op_past_12m -->
<g id="node22" class="node">
<title>num_tl_op_past_12m</title>
<path fill="#e1f5fe" stroke="black" d="M524.36,-1008C524.36,-1008 416.54,-1008 416.54,-1008 410.54,-1008 404.54,-1002 404.54,-996 404.54,-996 404.54,-984 404.54,-984 404.54,-978 410.54,-972 416.54,-972 416.54,-972 524.36,-972 524.36,-972 530.36,-972 536.36,-978 536.36,-984 536.36,-984 536.36,-996 536.36,-996 536.36,-1002 530.36,-1008 524.36,-1008"/>
<text text-anchor="middle" x="470.45" y="-986.4" font-family="Helvetica,sans-Serif" font-size="12.00">num_tl_op_past_12m</text>
</g>
<!-- num_tl_op_past_12m&#45;&gt;acc_open_past_24mths -->
<g id="edge58" class="edge">
<title>num_tl_op_past_12m&#45;&gt;acc_open_past_24mths</title>
<path fill="none" stroke="black" d="M488.46,-971.97C492.12,-968.51 496.05,-964.8 499.92,-961.14"/>
<polygon fill="black" stroke="black" points="502.35,-963.66 507.21,-954.24 497.54,-958.57 502.35,-963.66"/>
</g>
<!-- num_tl_op_past_12m&#45;&gt;mths_since_recent_bc -->
<g id="edge59" class="edge">
<title>num_tl_op_past_12m&#45;&gt;mths_since_recent_bc</title>
<path fill="none" stroke="black" d="M452.11,-971.64C447.78,-966.43 443.75,-960.38 441.45,-954 436.02,-938.95 435.33,-932.78 441.45,-918 442.92,-914.46 444.94,-911.09 447.27,-907.93"/>
<polygon fill="black" stroke="black" points="450.12,-909.99 454.02,-900.14 444.83,-905.41 450.12,-909.99"/>
</g>
<!-- num_tl_op_past_12m&#45;&gt;mths_since_recent_inq -->
<g id="edge60" class="edge">
<title>num_tl_op_past_12m&#45;&gt;mths_since_recent_inq</title>
<path fill="none" stroke="black" d="M415.16,-971.97C376.6,-957.8 326.06,-934.34 291.45,-900 279.02,-887.66 270.07,-870.14 264.2,-855.58"/>
<polygon fill="black" stroke="black" points="267.43,-854.21 260.63,-846.09 260.88,-856.68 267.43,-854.21"/>
</g>
<!-- num_tl_op_past_12m&#45;&gt;open_act_il -->
<g id="edge63" class="edge">
<title>num_tl_op_past_12m&#45;&gt;open_act_il</title>
<path fill="none" stroke="black" d="M536.22,-986.05C595.95,-982.16 678.55,-973.38 704.45,-954 736.01,-930.38 750.97,-885.39 757.63,-856.31"/>
<polygon fill="black" stroke="black" points="761.08,-856.9 759.72,-846.39 754.23,-855.46 761.08,-856.9"/>
</g>
<!-- num_tl_op_past_12m&#45;&gt;percent_bc_gt_75 -->
<g id="edge62" class="edge">
<title>num_tl_op_past_12m&#45;&gt;percent_bc_gt_75</title>
<path fill="none" stroke="black" d="M536.19,-980.08C567.31,-974.4 599.77,-965.86 609.45,-954 644.68,-910.82 634.52,-840.41 625.24,-802.03"/>
<polygon fill="black" stroke="black" points="628.57,-800.92 622.69,-792.1 621.79,-802.66 628.57,-800.92"/>
</g>
<!-- num_tl_op_past_12m&#45;&gt;inq_last_12m -->
<g id="edge61" class="edge">
<title>num_tl_op_past_12m&#45;&gt;inq_last_12m</title>
<path fill="none" stroke="black" d="M404.55,-985.67C287.95,-977.97 57.45,-953.79 57.45,-883 57.45,-883 57.45,-883 57.45,-719 57.45,-685.28 83.73,-655.77 106.53,-636.51"/>
<polygon fill="black" stroke="black" points="108.83,-639.15 114.4,-630.13 104.43,-633.71 108.83,-639.15"/>
</g>
</g>
</svg>
