<?xml version="1.0" encoding="UTF-8" standalone="no"?>
<!DOCTYPE svg PUBLIC "-//W3C//DTD SVG 1.1//EN"
 "http://www.w3.org/Graphics/SVG/1.1/DTD/svg11.dtd">
<!-- Generated by graphviz version 2.50.0 (0)
 -->
<!-- Pages: 1 -->
<svg width="576pt" height="491pt"
 viewBox="0.00 0.00 576.00 491.08" xmlns="http://www.w3.org/2000/svg" xmlns:xlink="http://www.w3.org/1999/xlink">
<g id="graph0" class="graph" transform="scale(0.66 0.66) rotate(0) translate(4 742)">
<polygon fill="white" stroke="transparent" points="-4,4 -4,-742 871,-742 871,4 -4,4"/>
<!-- acc_open_past_24mths -->
<g id="node1" class="node">
<title>acc_open_past_24mths</title>
<path fill="#e1f5fe" stroke="black" d="M408.92,-522C408.92,-522 289.08,-522 289.08,-522 283.08,-522 277.08,-516 277.08,-510 277.08,-510 277.08,-498 277.08,-498 277.08,-492 283.08,-486 289.08,-486 289.08,-486 408.92,-486 408.92,-486 414.92,-486 420.92,-492 420.92,-498 420.92,-498 420.92,-510 420.92,-510 420.92,-516 414.92,-522 408.92,-522"/>
<text text-anchor="middle" x="349" y="-500.4" font-family="Helvetica,sans-Serif" font-size="12.00">acc_open_past_24mths</text>
</g>
<!-- num_tl_op_past_12m -->
<g id="node2" class="node">
<title>num_tl_op_past_12m</title>
<path fill="#e1f5fe" stroke="black" d="M293.91,-414C293.91,-414 186.09,-414 186.09,-414 180.09,-414 174.09,-408 174.09,-402 174.09,-402 174.09,-390 174.09,-390 174.09,-384 180.09,-378 186.09,-378 186.09,-378 293.91,-378 293.91,-378 299.91,-378 305.91,-384 305.91,-390 305.91,-390 305.91,-402 305.91,-402 305.91,-408 299.91,-414 293.91,-414"/>
<text text-anchor="middle" x="240" y="-392.4" font-family="Helvetica,sans-Serif" font-size="12.00">num_tl_op_past_12m</text>
</g>
<!-- acc_open_past_24mths&#45;&gt;num_tl_op_past_12m -->
<g id="edge1" class="edge">
<title>acc_open_past_24mths&#45;&gt;num_tl_op_past_12m</title>
<path fill="none" stroke="black" d="M277.14,-487.19C250.13,-480.53 224.93,-473.15 221,-468 211.16,-455.1 215.78,-437.5 222.92,-423.05"/>
<polygon fill="black" stroke="black" points="226.1,-424.54 227.86,-414.09 219.97,-421.16 226.1,-424.54"/>
</g>
<!-- open_rv_24m -->
<g id="node3" class="node">
<title>open_rv_24m</title>
<path fill="#e1f5fe" stroke="black" d="M459.88,-414C459.88,-414 394.12,-414 394.12,-414 388.12,-414 382.12,-408 382.12,-402 382.12,-402 382.12,-390 382.12,-390 382.12,-384 388.12,-378 394.12,-378 394.12,-378 459.88,-378 459.88,-378 465.88,-378 471.88,-384 471.88,-390 471.88,-390 471.88,-402 471.88,-402 471.88,-408 465.88,-414 459.88,-414"/>
<text text-anchor="middle" x="427" y="-392.4" font-family="Helvetica,sans-Serif" font-size="12.00">open_rv_24m</text>
</g>
<!-- acc_open_past_24mths&#45;&gt;open_rv_24m -->
<g id="edge2" class="edge">
<title>acc_open_past_24mths&#45;&gt;open_rv_24m</title>
<path fill="none" stroke="black" d="M367.08,-485.88C372.46,-480.39 378.2,-474.14 383,-468 394.02,-453.88 404.65,-436.86 412.7,-423.03"/>
<polygon fill="black" stroke="black" points="415.91,-424.45 417.83,-414.03 409.83,-420.98 415.91,-424.45"/>
</g>
<!-- mths_since_recent_bc -->
<g id="node4" class="node">
<title>mths_since_recent_bc</title>
<path fill="#e1f5fe" stroke="black" d="M358.06,-468C358.06,-468 245.94,-468 245.94,-468 239.94,-468 233.94,-462 233.94,-456 233.94,-456 233.94,-444 233.94,-444 233.94,-438 239.94,-432 245.94,-432 245.94,-432 358.06,-432 358.06,-432 364.06,-432 370.06,-438 370.06,-444 370.06,-444 370.06,-456 370.06,-456 370.06,-462 364.06,-468 358.06,-468"/>
<text text-anchor="middle" x="302" y="-446.4" font-family="Helvetica,sans-Serif" font-size="12.00">mths_since_recent_bc</text>
</g>
<!-- acc_open_past_24mths&#45;&gt;mths_since_recent_bc -->
<g id="edge3" class="edge">
<title>acc_open_past_24mths&#45;&gt;mths_since_recent_bc</title>
<path fill="none" stroke="black" d="M333.61,-485.97C330.64,-482.69 327.47,-479.18 324.33,-475.7"/>
<polygon fill="black" stroke="black" points="326.89,-473.31 317.59,-468.24 321.69,-478.01 326.89,-473.31"/>
</g>
<!-- mths_since_recent_inq -->
<g id="node5" class="node">
<title>mths_since_recent_inq</title>
<path fill="#e1f5fe" stroke="black" d="M358.9,-360C358.9,-360 243.1,-360 243.1,-360 237.1,-360 231.1,-354 231.1,-348 231.1,-348 231.1,-336 231.1,-336 231.1,-330 237.1,-324 243.1,-324 243.1,-324 358.9,-324 358.9,-324 364.9,-324 370.9,-330 370.9,-336 370.9,-336 370.9,-348 370.9,-348 370.9,-354 364.9,-360 358.9,-360"/>
<text text-anchor="middle" x="301" y="-338.4" font-family="Helvetica,sans-Serif" font-size="12.00">mths_since_recent_inq</text>
</g>
<!-- num_tl_op_past_12m&#45;&gt;mths_since_recent_inq -->
<g id="edge4" class="edge">
<title>num_tl_op_past_12m&#45;&gt;mths_since_recent_inq</title>
<path fill="none" stroke="black" d="M259.97,-377.97C264.14,-374.42 268.61,-370.61 273.01,-366.86"/>
<polygon fill="black" stroke="black" points="275.43,-369.39 280.77,-360.24 270.89,-364.07 275.43,-369.39"/>
</g>
<!-- grade -->
<g id="node6" class="node">
<title>grade</title>
<path fill="#e1f5fe" stroke="black" d="M194,-360C194,-360 164,-360 164,-360 158,-360 152,-354 152,-348 152,-348 152,-336 152,-336 152,-330 158,-324 164,-324 164,-324 194,-324 194,-324 200,-324 206,-330 206,-336 206,-336 206,-348 206,-348 206,-354 200,-360 194,-360"/>
<text text-anchor="middle" x="179" y="-338.4" font-family="Helvetica,sans-Serif" font-size="12.00">grade</text>
</g>
<!-- num_tl_op_past_12m&#45;&gt;grade -->
<g id="edge5" class="edge">
<title>num_tl_op_past_12m&#45;&gt;grade</title>
<path fill="none" stroke="black" d="M220.03,-377.97C215.86,-374.42 211.39,-370.61 206.99,-366.86"/>
<polygon fill="black" stroke="black" points="209.11,-364.07 199.23,-360.24 204.57,-369.39 209.11,-364.07"/>
</g>
<!-- loan_age -->
<g id="node7" class="node">
<title>loan_age</title>
<path fill="#e1f5fe" stroke="black" d="M448.88,-360C448.88,-360 407.12,-360 407.12,-360 401.12,-360 395.12,-354 395.12,-348 395.12,-348 395.12,-336 395.12,-336 395.12,-330 401.12,-324 407.12,-324 407.12,-324 448.88,-324 448.88,-324 454.88,-324 460.88,-330 460.88,-336 460.88,-336 460.88,-348 460.88,-348 460.88,-354 454.88,-360 448.88,-360"/>
<text text-anchor="middle" x="428" y="-338.4" font-family="Helvetica,sans-Serif" font-size="12.00">loan_age</text>
</g>
<!-- open_rv_24m&#45;&gt;loan_age -->
<g id="edge6" class="edge">
<title>open_rv_24m&#45;&gt;loan_age</title>
<path fill="none" stroke="black" d="M427.33,-377.97C427.38,-375.49 427.43,-372.87 427.48,-370.24"/>
<polygon fill="black" stroke="black" points="430.98,-370.31 427.67,-360.24 423.98,-370.17 430.98,-370.31"/>
</g>
<!-- inq_last_12m -->
<g id="node8" class="node">
<title>inq_last_12m</title>
<path fill="#e1f5fe" stroke="black" d="M561.88,-306C561.88,-306 498.12,-306 498.12,-306 492.12,-306 486.12,-300 486.12,-294 486.12,-294 486.12,-282 486.12,-282 486.12,-276 492.12,-270 498.12,-270 498.12,-270 561.88,-270 561.88,-270 567.88,-270 573.88,-276 573.88,-282 573.88,-282 573.88,-294 573.88,-294 573.88,-300 567.88,-306 561.88,-306"/>
<text text-anchor="middle" x="530" y="-284.4" font-family="Helvetica,sans-Serif" font-size="12.00">inq_last_12m</text>
</g>
<!-- open_rv_24m&#45;&gt;inq_last_12m -->
<g id="edge7" class="edge">
<title>open_rv_24m&#45;&gt;inq_last_12m</title>
<path fill="none" stroke="black" d="M451.78,-377.89C458.93,-372.5 466.53,-366.3 473,-360 487.35,-346.02 501.45,-328.49 512.04,-314.34"/>
<polygon fill="black" stroke="black" points="515.05,-316.16 518.16,-306.04 509.41,-312.02 515.05,-316.16"/>
</g>
<!-- mths_since_recent_bc&#45;&gt;num_tl_op_past_12m -->
<g id="edge10" class="edge">
<title>mths_since_recent_bc&#45;&gt;num_tl_op_past_12m</title>
<path fill="none" stroke="black" d="M281.7,-431.97C277.46,-428.42 272.92,-424.61 268.45,-420.86"/>
<polygon fill="black" stroke="black" points="270.47,-417.99 260.56,-414.24 265.97,-423.35 270.47,-417.99"/>
</g>
<!-- mths_since_recent_bc&#45;&gt;open_rv_24m -->
<g id="edge8" class="edge">
<title>mths_since_recent_bc&#45;&gt;open_rv_24m</title>
<path fill="none" stroke="black" d="M342.93,-431.97C353.72,-427.48 365.49,-422.59 376.71,-417.92"/>
<polygon fill="black" stroke="black" points="378.09,-421.14 385.98,-414.06 375.4,-414.67 378.09,-421.14"/>
</g>
<!-- mths_since_recent_bc&#45;&gt;mths_since_recent_inq -->
<g id="edge9" class="edge">
<title>mths_since_recent_bc&#45;&gt;mths_since_recent_inq</title>
<path fill="none" stroke="black" d="M311.68,-431.71C314.26,-426.22 316.69,-420.01 318,-414 321.4,-398.37 321.59,-393.59 318,-378 317.35,-375.16 316.43,-372.29 315.36,-369.47"/>
<polygon fill="black" stroke="black" points="318.52,-367.96 311.28,-360.23 312.12,-370.79 318.52,-367.96"/>
</g>
<!-- mths_since_recent_inq&#45;&gt;inq_last_12m -->
<g id="edge36" class="edge">
<title>mths_since_recent_inq&#45;&gt;inq_last_12m</title>
<path fill="none" stroke="black" d="M370.78,-326.49C374.91,-325.64 379.01,-324.81 383,-324 423.41,-315.82 434,-316 474,-306 474.74,-305.82 475.48,-305.63 476.23,-305.43"/>
<polygon fill="black" stroke="black" points="477.35,-308.76 486.1,-302.78 475.53,-302 477.35,-308.76"/>
</g>
<!-- int_rate% -->
<g id="node14" class="node">
<title>int_rate%</title>
<path fill="#e1f5fe" stroke="black" d="M449.2,-306C449.2,-306 406.8,-306 406.8,-306 400.8,-306 394.8,-300 394.8,-294 394.8,-294 394.8,-282 394.8,-282 394.8,-276 400.8,-270 406.8,-270 406.8,-270 449.2,-270 449.2,-270 455.2,-270 461.2,-276 461.2,-282 461.2,-282 461.2,-294 461.2,-294 461.2,-300 455.2,-306 449.2,-306"/>
<text text-anchor="middle" x="428" y="-284.4" font-family="Helvetica,sans-Serif" font-size="12.00">int_rate%</text>
</g>
<!-- grade&#45;&gt;int_rate% -->
<g id="edge30" class="edge">
<title>grade&#45;&gt;int_rate%</title>
<path fill="none" stroke="black" d="M206.22,-328.39C210.44,-326.74 214.79,-325.21 219,-324 267.88,-309.95 281.85,-314.43 332,-306 349.28,-303.09 368.28,-299.76 384.79,-296.82"/>
<polygon fill="black" stroke="black" points="385.48,-300.25 394.7,-295.04 384.24,-293.36 385.48,-300.25"/>
</g>
<!-- binary_loan_status -->
<g id="node15" class="node">
<title>binary_loan_status</title>
<path fill="#e1f5fe" stroke="black" d="M307.23,-306C307.23,-306 214.77,-306 214.77,-306 208.77,-306 202.77,-300 202.77,-294 202.77,-294 202.77,-282 202.77,-282 202.77,-276 208.77,-270 214.77,-270 214.77,-270 307.23,-270 307.23,-270 313.23,-270 319.23,-276 319.23,-282 319.23,-282 319.23,-294 319.23,-294 319.23,-300 313.23,-306 307.23,-306"/>
<text text-anchor="middle" x="261" y="-284.4" font-family="Helvetica,sans-Serif" font-size="12.00">binary_loan_status</text>
</g>
<!-- grade&#45;&gt;binary_loan_status -->
<g id="edge32" class="edge">
<title>grade&#45;&gt;binary_loan_status</title>
<path fill="none" stroke="black" d="M205.85,-323.97C212.08,-320.02 218.81,-315.76 225.35,-311.61"/>
<polygon fill="black" stroke="black" points="227.52,-314.38 234.09,-306.06 223.77,-308.46 227.52,-314.38"/>
</g>
<!-- term -->
<g id="node21" class="node">
<title>term</title>
<path fill="#e1f5fe" stroke="black" d="M166,-306C166,-306 136,-306 136,-306 130,-306 124,-300 124,-294 124,-294 124,-282 124,-282 124,-276 130,-270 136,-270 136,-270 166,-270 166,-270 172,-270 178,-276 178,-282 178,-282 178,-294 178,-294 178,-300 172,-306 166,-306"/>
<text text-anchor="middle" x="151" y="-284.4" font-family="Helvetica,sans-Serif" font-size="12.00">term</text>
</g>
<!-- grade&#45;&gt;term -->
<g id="edge31" class="edge">
<title>grade&#45;&gt;term</title>
<path fill="none" stroke="black" d="M169.83,-323.97C168.3,-321.13 166.68,-318.12 165.06,-315.11"/>
<polygon fill="black" stroke="black" points="168.11,-313.39 160.28,-306.24 161.94,-316.71 168.11,-313.39"/>
</g>
<!-- time_since_last_payment -->
<g id="node13" class="node">
<title>time_since_last_payment</title>
<path fill="#e1f5fe" stroke="black" d="M379.9,-252C379.9,-252 252.1,-252 252.1,-252 246.1,-252 240.1,-246 240.1,-240 240.1,-240 240.1,-228 240.1,-228 240.1,-222 246.1,-216 252.1,-216 252.1,-216 379.9,-216 379.9,-216 385.9,-216 391.9,-222 391.9,-228 391.9,-228 391.9,-240 391.9,-240 391.9,-246 385.9,-252 379.9,-252"/>
<text text-anchor="middle" x="316" y="-230.4" font-family="Helvetica,sans-Serif" font-size="12.00">time_since_last_payment</text>
</g>
<!-- loan_age&#45;&gt;time_since_last_payment -->
<g id="edge17" class="edge">
<title>loan_age&#45;&gt;time_since_last_payment</title>
<path fill="none" stroke="black" d="M403.98,-323.94C396.71,-318.46 388.84,-312.2 382,-306 366.15,-291.64 349.78,-274.05 337.3,-259.96"/>
<polygon fill="black" stroke="black" points="339.66,-257.35 330.44,-252.13 334.4,-261.96 339.66,-257.35"/>
</g>
<!-- loan_age&#45;&gt;int_rate% -->
<g id="edge18" class="edge">
<title>loan_age&#45;&gt;int_rate%</title>
<path fill="none" stroke="black" d="M428,-323.97C428,-321.57 428,-319.06 428,-316.52"/>
<polygon fill="black" stroke="black" points="431.5,-316.24 428,-306.24 424.5,-316.24 431.5,-316.24"/>
</g>
<!-- loan_age&#45;&gt;binary_loan_status -->
<g id="edge19" class="edge">
<title>loan_age&#45;&gt;binary_loan_status</title>
<path fill="none" stroke="black" d="M395.18,-328.25C391.1,-326.76 386.96,-325.31 383,-324 365.62,-318.23 346.66,-312.52 328.99,-307.44"/>
<polygon fill="black" stroke="black" points="329.9,-304.06 319.32,-304.68 327.98,-310.79 329.9,-304.06"/>
</g>
<!-- all_util -->
<g id="node9" class="node">
<title>all_util</title>
<path fill="#e1f5fe" stroke="black" d="M550,-630C550,-630 520,-630 520,-630 514,-630 508,-624 508,-618 508,-618 508,-606 508,-606 508,-600 514,-594 520,-594 520,-594 550,-594 550,-594 556,-594 562,-600 562,-606 562,-606 562,-618 562,-618 562,-624 556,-630 550,-630"/>
<text text-anchor="middle" x="535" y="-608.4" font-family="Helvetica,sans-Serif" font-size="12.00">all_util</text>
</g>
<!-- all_util&#45;&gt;open_rv_24m -->
<g id="edge13" class="edge">
<title>all_util&#45;&gt;open_rv_24m</title>
<path fill="none" stroke="black" d="M508.56,-593.86C502.15,-588.73 495.77,-582.67 491,-576 457.09,-528.61 439.51,-461.44 431.87,-424.32"/>
<polygon fill="black" stroke="black" points="435.25,-423.39 429.89,-414.25 428.38,-424.74 435.25,-423.39"/>
</g>
<!-- all_util&#45;&gt;loan_age -->
<g id="edge11" class="edge">
<title>all_util&#45;&gt;loan_age</title>
<path fill="none" stroke="black" d="M528.3,-593.67C520.9,-572.91 510,-536.95 510,-505 510,-505 510,-505 510,-449 510,-415.4 505.17,-404.1 484,-378 479.88,-372.92 474.81,-368.36 469.42,-364.35"/>
<polygon fill="black" stroke="black" points="471.02,-361.21 460.78,-358.49 467.09,-367 471.02,-361.21"/>
</g>
<!-- all_util&#45;&gt;inq_last_12m -->
<g id="edge14" class="edge">
<title>all_util&#45;&gt;inq_last_12m</title>
<path fill="none" stroke="black" d="M541.97,-593.69C549.67,-572.96 561,-537.02 561,-505 561,-505 561,-505 561,-395 561,-367.03 550.93,-336.51 542.27,-315.43"/>
<polygon fill="black" stroke="black" points="545.46,-313.99 538.31,-306.18 539.03,-316.75 545.46,-313.99"/>
</g>
<!-- open_act_il -->
<g id="node10" class="node">
<title>open_act_il</title>
<path fill="#e1f5fe" stroke="black" d="M791.88,-144C791.88,-144 738.12,-144 738.12,-144 732.12,-144 726.12,-138 726.12,-132 726.12,-132 726.12,-120 726.12,-120 726.12,-114 732.12,-108 738.12,-108 738.12,-108 791.88,-108 791.88,-108 797.88,-108 803.88,-114 803.88,-120 803.88,-120 803.88,-132 803.88,-132 803.88,-138 797.88,-144 791.88,-144"/>
<text text-anchor="middle" x="765" y="-122.4" font-family="Helvetica,sans-Serif" font-size="12.00">open_act_il</text>
</g>
<!-- all_util&#45;&gt;open_act_il -->
<g id="edge12" class="edge">
<title>all_util&#45;&gt;open_act_il</title>
<path fill="none" stroke="black" d="M562.2,-600.54C632.72,-571.43 816,-482.38 816,-343 816,-343 816,-343 816,-233 816,-203.16 799.38,-172.85 785.12,-152.33"/>
<polygon fill="black" stroke="black" points="787.91,-150.21 779.21,-144.16 782.24,-154.31 787.91,-150.21"/>
</g>
<!-- bc_util -->
<g id="node11" class="node">
<title>bc_util</title>
<path fill="#e1f5fe" stroke="black" d="M270,-576C270,-576 240,-576 240,-576 234,-576 228,-570 228,-564 228,-564 228,-552 228,-552 228,-546 234,-540 240,-540 240,-540 270,-540 270,-540 276,-540 282,-546 282,-552 282,-552 282,-564 282,-564 282,-570 276,-576 270,-576"/>
<text text-anchor="middle" x="255" y="-554.4" font-family="Helvetica,sans-Serif" font-size="12.00">bc_util</text>
</g>
<!-- all_util&#45;&gt;bc_util -->
<g id="edge15" class="edge">
<title>all_util&#45;&gt;bc_util</title>
<path fill="none" stroke="black" d="M507.9,-605.97C457.51,-596.61 349.34,-576.52 292.17,-565.9"/>
<polygon fill="black" stroke="black" points="292.59,-562.42 282.12,-564.04 291.31,-569.3 292.59,-562.42"/>
</g>
<!-- avg_cur_bal -->
<g id="node12" class="node">
<title>avg_cur_bal</title>
<path fill="#e1f5fe" stroke="black" d="M643.88,-144C643.88,-144 586.12,-144 586.12,-144 580.12,-144 574.12,-138 574.12,-132 574.12,-132 574.12,-120 574.12,-120 574.12,-114 580.12,-108 586.12,-108 586.12,-108 643.88,-108 643.88,-108 649.88,-108 655.88,-114 655.88,-120 655.88,-120 655.88,-132 655.88,-132 655.88,-138 649.88,-144 643.88,-144"/>
<text text-anchor="middle" x="615" y="-122.4" font-family="Helvetica,sans-Serif" font-size="12.00">avg_cur_bal</text>
</g>
<!-- all_util&#45;&gt;avg_cur_bal -->
<g id="edge16" class="edge">
<title>all_util&#45;&gt;avg_cur_bal</title>
<path fill="none" stroke="black" d="M558.1,-593.88C580.78,-574.91 612,-542.08 612,-505 612,-505 612,-505 612,-341 612,-273.95 613.49,-195.09 614.37,-154.39"/>
<polygon fill="black" stroke="black" points="617.87,-154.27 614.6,-144.2 610.88,-154.12 617.87,-154.27"/>
</g>
<!-- bc_util&#45;&gt;acc_open_past_24mths -->
<g id="edge22" class="edge">
<title>bc_util&#45;&gt;acc_open_past_24mths</title>
<path fill="none" stroke="black" d="M282.19,-541.96C290.65,-537.28 300.15,-532.02 309.28,-526.97"/>
<polygon fill="black" stroke="black" points="311.18,-529.92 318.24,-522.02 307.79,-523.8 311.18,-529.92"/>
</g>
<!-- bc_util&#45;&gt;grade -->
<g id="edge21" class="edge">
<title>bc_util&#45;&gt;grade</title>
<path fill="none" stroke="black" d="M245.7,-539.78C237.69,-525.22 225.6,-503.92 214,-486 192.55,-452.87 174.14,-451.56 162,-414 157.08,-398.78 158.41,-393.59 162,-378 162.65,-375.16 163.57,-372.29 164.64,-369.47"/>
<polygon fill="black" stroke="black" points="167.88,-370.79 168.72,-360.23 161.48,-367.96 167.88,-370.79"/>
</g>
<!-- percent_bc_gt_75 -->
<g id="node16" class="node">
<title>percent_bc_gt_75</title>
<path fill="#e1f5fe" stroke="black" d="M189.08,-522C189.08,-522 100.92,-522 100.92,-522 94.92,-522 88.92,-516 88.92,-510 88.92,-510 88.92,-498 88.92,-498 88.92,-492 94.92,-486 100.92,-486 100.92,-486 189.08,-486 189.08,-486 195.08,-486 201.08,-492 201.08,-498 201.08,-498 201.08,-510 201.08,-510 201.08,-516 195.08,-522 189.08,-522"/>
<text text-anchor="middle" x="145" y="-500.4" font-family="Helvetica,sans-Serif" font-size="12.00">percent_bc_gt_75</text>
</g>
<!-- bc_util&#45;&gt;percent_bc_gt_75 -->
<g id="edge20" class="edge">
<title>bc_util&#45;&gt;percent_bc_gt_75</title>
<path fill="none" stroke="black" d="M227.81,-544.15C216.44,-538.77 202.93,-532.38 190.15,-526.34"/>
<polygon fill="black" stroke="black" points="191.55,-523.13 181.01,-522.02 188.56,-529.46 191.55,-523.13"/>
</g>
<!-- home_ownership -->
<g id="node17" class="node">
<title>home_ownership</title>
<path fill="#e1f5fe" stroke="black" d="M656.89,-90C656.89,-90 573.11,-90 573.11,-90 567.11,-90 561.11,-84 561.11,-78 561.11,-78 561.11,-66 561.11,-66 561.11,-60 567.11,-54 573.11,-54 573.11,-54 656.89,-54 656.89,-54 662.89,-54 668.89,-60 668.89,-66 668.89,-66 668.89,-78 668.89,-78 668.89,-84 662.89,-90 656.89,-90"/>
<text text-anchor="middle" x="615" y="-68.4" font-family="Helvetica,sans-Serif" font-size="12.00">home_ownership</text>
</g>
<!-- avg_cur_bal&#45;&gt;home_ownership -->
<g id="edge23" class="edge">
<title>avg_cur_bal&#45;&gt;home_ownership</title>
<path fill="none" stroke="black" d="M615,-107.97C615,-105.57 615,-103.06 615,-100.52"/>
<polygon fill="black" stroke="black" points="618.5,-100.24 615,-90.24 611.5,-100.24 618.5,-100.24"/>
</g>
<!-- debt_settlement_flag -->
<g id="node25" class="node">
<title>debt_settlement_flag</title>
<path fill="#e1f5fe" stroke="black" d="M336.91,-198C336.91,-198 233.09,-198 233.09,-198 227.09,-198 221.09,-192 221.09,-186 221.09,-186 221.09,-174 221.09,-174 221.09,-168 227.09,-162 233.09,-162 233.09,-162 336.91,-162 336.91,-162 342.91,-162 348.91,-168 348.91,-174 348.91,-174 348.91,-186 348.91,-186 348.91,-192 342.91,-198 336.91,-198"/>
<text text-anchor="middle" x="285" y="-176.4" font-family="Helvetica,sans-Serif" font-size="12.00">debt_settlement_flag</text>
</g>
<!-- time_since_last_payment&#45;&gt;debt_settlement_flag -->
<g id="edge50" class="edge">
<title>time_since_last_payment&#45;&gt;debt_settlement_flag</title>
<path fill="none" stroke="black" d="M305.85,-215.97C304.15,-213.13 302.36,-210.12 300.57,-207.11"/>
<polygon fill="black" stroke="black" points="303.41,-205.04 295.28,-198.24 297.39,-208.62 303.41,-205.04"/>
</g>
<!-- dti -->
<g id="node22" class="node">
<title>dti</title>
<path fill="#e1f5fe" stroke="black" d="M705,-252C705,-252 675,-252 675,-252 669,-252 663,-246 663,-240 663,-240 663,-228 663,-228 663,-222 669,-216 675,-216 675,-216 705,-216 705,-216 711,-216 717,-222 717,-228 717,-228 717,-240 717,-240 717,-246 711,-252 705,-252"/>
<text text-anchor="middle" x="690" y="-230.4" font-family="Helvetica,sans-Serif" font-size="12.00">dti</text>
</g>
<!-- int_rate%&#45;&gt;dti -->
<g id="edge49" class="edge">
<title>int_rate%&#45;&gt;dti</title>
<path fill="none" stroke="black" d="M461.42,-273.8C465.62,-272.39 469.88,-271.08 474,-270 535.6,-253.79 609.17,-243.8 652.6,-238.84"/>
<polygon fill="black" stroke="black" points="653.16,-242.3 662.71,-237.71 652.38,-235.34 653.16,-242.3"/>
</g>
<!-- binary_loan_status&#45;&gt;time_since_last_payment -->
<g id="edge51" class="edge">
<title>binary_loan_status&#45;&gt;time_since_last_payment</title>
<path fill="none" stroke="black" d="M279.01,-269.97C282.67,-266.51 286.6,-262.8 290.47,-259.14"/>
<polygon fill="black" stroke="black" points="292.9,-261.66 297.76,-252.24 288.09,-256.57 292.9,-261.66"/>
</g>
<!-- binary_loan_status&#45;&gt;debt_settlement_flag -->
<g id="edge53" class="edge">
<title>binary_loan_status&#45;&gt;debt_settlement_flag</title>
<path fill="none" stroke="black" d="M239.83,-269.66C235.03,-264.53 230.59,-258.52 228,-252 222.1,-237.13 220.19,-229.96 228,-216 230.39,-211.73 233.54,-207.91 237.13,-204.52"/>
<polygon fill="black" stroke="black" points="239.45,-207.15 245.03,-198.14 235.05,-201.7 239.45,-207.15"/>
</g>
<!-- hardship_status -->
<g id="node26" class="node">
<title>hardship_status</title>
<path fill="#e1f5fe" stroke="black" d="M505.22,-252C505.22,-252 428.78,-252 428.78,-252 422.78,-252 416.78,-246 416.78,-240 416.78,-240 416.78,-228 416.78,-228 416.78,-222 422.78,-216 428.78,-216 428.78,-216 505.22,-216 505.22,-216 511.22,-216 517.22,-222 517.22,-228 517.22,-228 517.22,-240 517.22,-240 517.22,-246 511.22,-252 505.22,-252"/>
<text text-anchor="middle" x="467" y="-230.4" font-family="Helvetica,sans-Serif" font-size="12.00">hardship_status</text>
</g>
<!-- binary_loan_status&#45;&gt;hardship_status -->
<g id="edge52" class="edge">
<title>binary_loan_status&#45;&gt;hardship_status</title>
<path fill="none" stroke="black" d="M319.52,-273.01C345.44,-266.72 376.28,-259.13 404,-252 404.89,-251.77 405.78,-251.54 406.68,-251.31"/>
<polygon fill="black" stroke="black" points="407.69,-254.66 416.48,-248.74 405.92,-247.89 407.69,-254.66"/>
</g>
<!-- percent_bc_gt_75&#45;&gt;mths_since_recent_bc -->
<g id="edge29" class="edge">
<title>percent_bc_gt_75&#45;&gt;mths_since_recent_bc</title>
<path fill="none" stroke="black" d="M196.41,-485.97C210.64,-481.26 226.23,-476.1 240.95,-471.22"/>
<polygon fill="black" stroke="black" points="242.08,-474.53 250.48,-468.06 239.88,-467.89 242.08,-474.53"/>
</g>
<!-- purpose -->
<g id="node20" class="node">
<title>purpose</title>
<path fill="#e1f5fe" stroke="black" d="M492.87,-36C492.87,-36 457.13,-36 457.13,-36 451.13,-36 445.13,-30 445.13,-24 445.13,-24 445.13,-12 445.13,-12 445.13,-6 451.13,0 457.13,0 457.13,0 492.87,0 492.87,0 498.87,0 504.87,-6 504.87,-12 504.87,-12 504.87,-24 504.87,-24 504.87,-30 498.87,-36 492.87,-36"/>
<text text-anchor="middle" x="475" y="-14.4" font-family="Helvetica,sans-Serif" font-size="12.00">purpose</text>
</g>
<!-- home_ownership&#45;&gt;purpose -->
<g id="edge28" class="edge">
<title>home_ownership&#45;&gt;purpose</title>
<path fill="none" stroke="black" d="M569.16,-53.97C551.56,-47.44 531.64,-40.04 514.67,-33.73"/>
<polygon fill="black" stroke="black" points="515.65,-30.36 505.05,-30.16 513.21,-36.93 515.65,-30.36"/>
</g>
<!-- annual_inc -->
<g id="node18" class="node">
<title>annual_inc</title>
<path fill="#e1f5fe" stroke="black" d="M715.05,-198C715.05,-198 664.95,-198 664.95,-198 658.95,-198 652.95,-192 652.95,-186 652.95,-186 652.95,-174 652.95,-174 652.95,-168 658.95,-162 664.95,-162 664.95,-162 715.05,-162 715.05,-162 721.05,-162 727.05,-168 727.05,-174 727.05,-174 727.05,-186 727.05,-186 727.05,-192 721.05,-198 715.05,-198"/>
<text text-anchor="middle" x="690" y="-176.4" font-family="Helvetica,sans-Serif" font-size="12.00">annual_inc</text>
</g>
<!-- annual_inc&#45;&gt;open_act_il -->
<g id="edge25" class="edge">
<title>annual_inc&#45;&gt;open_act_il</title>
<path fill="none" stroke="black" d="M714.56,-161.97C720.13,-158.11 726.13,-153.95 731.98,-149.89"/>
<polygon fill="black" stroke="black" points="734.16,-152.64 740.39,-144.06 730.17,-146.89 734.16,-152.64"/>
</g>
<!-- annual_inc&#45;&gt;avg_cur_bal -->
<g id="edge24" class="edge">
<title>annual_inc&#45;&gt;avg_cur_bal</title>
<path fill="none" stroke="black" d="M665.44,-161.97C659.87,-158.11 653.87,-153.95 648.02,-149.89"/>
<polygon fill="black" stroke="black" points="649.83,-146.89 639.61,-144.06 645.84,-152.64 649.83,-146.89"/>
</g>
<!-- funded_amnt -->
<g id="node19" class="node">
<title>funded_amnt</title>
<path fill="#e1f5fe" stroke="black" d="M274.05,-144C274.05,-144 211.95,-144 211.95,-144 205.95,-144 199.95,-138 199.95,-132 199.95,-132 199.95,-120 199.95,-120 199.95,-114 205.95,-108 211.95,-108 211.95,-108 274.05,-108 274.05,-108 280.05,-108 286.05,-114 286.05,-120 286.05,-120 286.05,-132 286.05,-132 286.05,-138 280.05,-144 274.05,-144"/>
<text text-anchor="middle" x="243" y="-122.4" font-family="Helvetica,sans-Serif" font-size="12.00">funded_amnt</text>
</g>
<!-- annual_inc&#45;&gt;funded_amnt -->
<g id="edge26" class="edge">
<title>annual_inc&#45;&gt;funded_amnt</title>
<path fill="none" stroke="black" d="M652.93,-174.69C596.12,-168.09 484.11,-155.07 389,-144 358.32,-140.43 324.01,-136.44 296.37,-133.22"/>
<polygon fill="black" stroke="black" points="296.46,-129.7 286.12,-132.02 295.65,-136.66 296.46,-129.7"/>
</g>
<!-- funded_amnt&#45;&gt;purpose -->
<g id="edge27" class="edge">
<title>funded_amnt&#45;&gt;purpose</title>
<path fill="none" stroke="black" d="M280.27,-107.97C323,-88.45 392.69,-56.61 436.09,-36.78"/>
<polygon fill="black" stroke="black" points="437.55,-39.96 445.19,-32.62 434.64,-33.59 437.55,-39.96"/>
</g>
<!-- term&#45;&gt;time_since_last_payment -->
<g id="edge48" class="edge">
<title>term&#45;&gt;time_since_last_payment</title>
<path fill="none" stroke="black" d="M178.08,-274.62C182.04,-272.97 186.1,-271.38 190,-270 205.33,-264.56 221.94,-259.43 237.92,-254.85"/>
<polygon fill="black" stroke="black" points="239.1,-258.15 247.78,-252.07 237.2,-251.42 239.1,-258.15"/>
</g>
<!-- term&#45;&gt;funded_amnt -->
<g id="edge47" class="edge">
<title>term&#45;&gt;funded_amnt</title>
<path fill="none" stroke="black" d="M156.85,-269.87C165.83,-244.86 184.59,-197.48 209,-162 211.43,-158.47 214.23,-154.96 217.16,-151.61"/>
<polygon fill="black" stroke="black" points="219.86,-153.85 224.1,-144.14 214.73,-149.08 219.86,-153.85"/>
</g>
<!-- dti&#45;&gt;open_act_il -->
<g id="edge33" class="edge">
<title>dti&#45;&gt;open_act_il</title>
<path fill="none" stroke="black" d="M717.23,-218.4C725.46,-212.9 733.91,-206.02 740,-198 749.7,-185.23 755.84,-168.38 759.61,-154.31"/>
<polygon fill="black" stroke="black" points="763.11,-154.74 762.05,-144.2 756.3,-153.1 763.11,-154.74"/>
</g>
<!-- dti&#45;&gt;avg_cur_bal -->
<g id="edge34" class="edge">
<title>dti&#45;&gt;avg_cur_bal</title>
<path fill="none" stroke="black" d="M662.77,-218.4C654.54,-212.9 646.09,-206.02 640,-198 630.3,-185.23 624.16,-168.38 620.39,-154.31"/>
<polygon fill="black" stroke="black" points="623.7,-153.1 617.95,-144.2 616.89,-154.74 623.7,-153.1"/>
</g>
<!-- dti&#45;&gt;annual_inc -->
<g id="edge35" class="edge">
<title>dti&#45;&gt;annual_inc</title>
<path fill="none" stroke="black" d="M690,-215.97C690,-213.57 690,-211.06 690,-208.52"/>
<polygon fill="black" stroke="black" points="693.5,-208.24 690,-198.24 686.5,-208.24 693.5,-208.24"/>
</g>
<!-- total_bc_limit -->
<g id="node23" class="node">
<title>total_bc_limit</title>
<path fill="#e1f5fe" stroke="black" d="M235.03,-738C235.03,-738 172.97,-738 172.97,-738 166.97,-738 160.97,-732 160.97,-726 160.97,-726 160.97,-714 160.97,-714 160.97,-708 166.97,-702 172.97,-702 172.97,-702 235.03,-702 235.03,-702 241.03,-702 247.03,-708 247.03,-714 247.03,-714 247.03,-726 247.03,-726 247.03,-732 241.03,-738 235.03,-738"/>
<text text-anchor="middle" x="204" y="-716.4" font-family="Helvetica,sans-Serif" font-size="12.00">total_bc_limit</text>
</g>
<!-- total_bc_limit&#45;&gt;bc_util -->
<g id="edge38" class="edge">
<title>total_bc_limit&#45;&gt;bc_util</title>
<path fill="none" stroke="black" d="M209.46,-701.88C218.27,-674.23 235.7,-619.54 246.26,-586.42"/>
<polygon fill="black" stroke="black" points="249.72,-587.08 249.43,-576.48 243.06,-584.95 249.72,-587.08"/>
</g>
<!-- total_bc_limit&#45;&gt;percent_bc_gt_75 -->
<g id="edge40" class="edge">
<title>total_bc_limit&#45;&gt;percent_bc_gt_75</title>
<path fill="none" stroke="black" d="M199.27,-701.85C189.04,-664.75 164.8,-576.81 152.47,-532.1"/>
<polygon fill="black" stroke="black" points="155.78,-530.94 149.75,-522.23 149.03,-532.8 155.78,-530.94"/>
</g>
<!-- total_bc_limit&#45;&gt;term -->
<g id="edge39" class="edge">
<title>total_bc_limit&#45;&gt;term</title>
<path fill="none" stroke="black" d="M160.97,-708.92C115.72,-695.46 51,-666.8 51,-613 51,-613 51,-613 51,-395 51,-356.37 86.58,-326.11 115.29,-307.98"/>
<polygon fill="black" stroke="black" points="117.2,-310.92 123.94,-302.74 113.57,-304.93 117.2,-310.92"/>
</g>
<!-- total_rev_hi_lim -->
<g id="node24" class="node">
<title>total_rev_hi_lim</title>
<path fill="#e1f5fe" stroke="black" d="M573.04,-684C573.04,-684 496.96,-684 496.96,-684 490.96,-684 484.96,-678 484.96,-672 484.96,-672 484.96,-660 484.96,-660 484.96,-654 490.96,-648 496.96,-648 496.96,-648 573.04,-648 573.04,-648 579.04,-648 585.04,-654 585.04,-660 585.04,-660 585.04,-672 585.04,-672 585.04,-678 579.04,-684 573.04,-684"/>
<text text-anchor="middle" x="535" y="-662.4" font-family="Helvetica,sans-Serif" font-size="12.00">total_rev_hi_lim</text>
</g>
<!-- total_bc_limit&#45;&gt;total_rev_hi_lim -->
<g id="edge37" class="edge">
<title>total_bc_limit&#45;&gt;total_rev_hi_lim</title>
<path fill="none" stroke="black" d="M247.27,-712.2C305.41,-703.07 409.01,-686.79 474.74,-676.47"/>
<polygon fill="black" stroke="black" points="475.62,-679.87 484.96,-674.86 474.53,-672.96 475.62,-679.87"/>
</g>
<!-- total_rev_hi_lim&#45;&gt;acc_open_past_24mths -->
<g id="edge46" class="edge">
<title>total_rev_hi_lim&#45;&gt;acc_open_past_24mths</title>
<path fill="none" stroke="black" d="M515.09,-647.88C481.76,-619.2 414.58,-561.41 376.67,-528.8"/>
<polygon fill="black" stroke="black" points="378.91,-526.11 369.04,-522.24 374.34,-531.42 378.91,-526.11"/>
</g>
<!-- total_rev_hi_lim&#45;&gt;all_util -->
<g id="edge42" class="edge">
<title>total_rev_hi_lim&#45;&gt;all_util</title>
<path fill="none" stroke="black" d="M535,-647.97C535,-645.57 535,-643.06 535,-640.52"/>
<polygon fill="black" stroke="black" points="538.5,-640.24 535,-630.24 531.5,-640.24 538.5,-640.24"/>
</g>
<!-- total_rev_hi_lim&#45;&gt;home_ownership -->
<g id="edge45" class="edge">
<title>total_rev_hi_lim&#45;&gt;home_ownership</title>
<path fill="none" stroke="black" d="M585.16,-662.7C630.52,-659.3 698.5,-650.87 754,-630 809.52,-609.12 867,-618.31 867,-559 867,-559 867,-559 867,-179 867,-97.52 753.67,-77.65 679.01,-73.4"/>
<polygon fill="black" stroke="black" points="678.91,-69.89 668.75,-72.9 678.57,-76.89 678.91,-69.89"/>
</g>
<!-- total_rev_hi_lim&#45;&gt;annual_inc -->
<g id="edge44" class="edge">
<title>total_rev_hi_lim&#45;&gt;annual_inc</title>
<path fill="none" stroke="black" d="M576.67,-647.95C608.92,-633 652.84,-608.56 682,-576 740.5,-510.67 765,-484.69 765,-397 765,-397 765,-397 765,-287 765,-254.27 740.88,-224.58 720,-205"/>
<polygon fill="black" stroke="black" points="722.28,-202.34 712.5,-198.26 717.6,-207.54 722.28,-202.34"/>
</g>
<!-- total_rev_hi_lim&#45;&gt;funded_amnt -->
<g id="edge41" class="edge">
<title>total_rev_hi_lim&#45;&gt;funded_amnt</title>
<path fill="none" stroke="black" d="M484.67,-656.04C351.49,-630.92 0,-554.79 0,-451 0,-451 0,-451 0,-233 0,-150.86 118.11,-131.73 189.64,-127.68"/>
<polygon fill="black" stroke="black" points="190.02,-131.16 199.84,-127.18 189.68,-124.17 190.02,-131.16"/>
</g>
<!-- total_rev_hi_lim&#45;&gt;dti -->
<g id="edge43" class="edge">
<title>total_rev_hi_lim&#45;&gt;dti</title>
<path fill="none" stroke="black" d="M585.25,-663.24C637.59,-660.23 714.49,-652.07 733,-630 743.28,-617.74 733.77,-609.98 733,-594 728.77,-506.14 714,-484.96 714,-397 714,-397 714,-397 714,-341 714,-313.6 706.28,-283.17 699.59,-261.97"/>
<polygon fill="black" stroke="black" points="702.88,-260.76 696.43,-252.36 696.23,-262.95 702.88,-260.76"/>
</g>
<!-- hardship_type -->
<g id="node27" class="node">
<title>hardship_type</title>
<path fill="#e1f5fe" stroke="black" d="M500.89,-198C500.89,-198 433.11,-198 433.11,-198 427.11,-198 421.11,-192 421.11,-186 421.11,-186 421.11,-174 421.11,-174 421.11,-168 427.11,-162 433.11,-162 433.11,-162 500.89,-162 500.89,-162 506.89,-162 512.89,-168 512.89,-174 512.89,-174 512.89,-186 512.89,-186 512.89,-192 506.89,-198 500.89,-198"/>
<text text-anchor="middle" x="467" y="-176.4" font-family="Helvetica,sans-Serif" font-size="12.00">hardship_type</text>
</g>
<!-- hardship_status&#45;&gt;hardship_type -->
<g id="edge55" class="edge">
<title>hardship_status&#45;&gt;hardship_type</title>
<path fill="none" stroke="black" d="M467,-215.97C467,-213.57 467,-211.06 467,-208.52"/>
<polygon fill="black" stroke="black" points="470.5,-208.24 467,-198.24 463.5,-208.24 470.5,-208.24"/>
</g>
<!-- hardship_loan_status -->
<g id="node28" class="node">
<title>hardship_loan_status</title>
<path fill="#e1f5fe" stroke="black" d="M520.08,-144C520.08,-144 413.92,-144 413.92,-144 407.92,-144 401.92,-138 401.92,-132 401.92,-132 401.92,-120 401.92,-120 401.92,-114 407.92,-108 413.92,-108 413.92,-108 520.08,-108 520.08,-108 526.08,-108 532.08,-114 532.08,-120 532.08,-120 532.08,-132 532.08,-132 532.08,-138 526.08,-144 520.08,-144"/>
<text text-anchor="middle" x="467" y="-122.4" font-family="Helvetica,sans-Serif" font-size="12.00">hardship_loan_status</text>
</g>
<!-- hardship_type&#45;&gt;hardship_loan_status -->
<g id="edge54" class="edge">
<title>hardship_type&#45;&gt;hardship_loan_status</title>
<path fill="none" stroke="black" d="M467,-161.97C467,-159.57 467,-157.06 467,-154.52"/>
<polygon fill="black" stroke="black" points="470.5,-154.24 467,-144.24 463.5,-154.24 470.5,-154.24"/>
</g>
</g>
</svg>
