<?xml version="1.0" encoding="UTF-8" standalone="no"?>
<!DOCTYPE svg PUBLIC "-//W3C//DTD SVG 1.1//EN"
 "http://www.w3.org/Graphics/SVG/1.1/DTD/svg11.dtd">
<!-- Generated by graphviz version 2.50.0 (0)
 -->
<!-- Pages: 1 -->
<svg width="576pt" height="577pt"
 viewBox="0.00 0.00 576.00 576.94" xmlns="http://www.w3.org/2000/svg" xmlns:xlink="http://www.w3.org/1999/xlink">
<g id="graph0" class="graph" transform="scale(0.99 0.99) rotate(0) translate(4 580)">
<polygon fill="white" stroke="transparent" points="-4,4 -4,-580 579.05,-580 579.05,4 -4,4"/>
<!-- acc_open_past_24mths -->
<g id="node1" class="node">
<title>acc_open_past_24mths</title>
<path fill="#e1f5fe" stroke="black" d="M385.27,-144C385.27,-144 265.42,-144 265.42,-144 259.42,-144 253.42,-138 253.42,-132 253.42,-132 253.42,-120 253.42,-120 253.42,-114 259.42,-108 265.42,-108 265.42,-108 385.27,-108 385.27,-108 391.27,-108 397.27,-114 397.27,-120 397.27,-120 397.27,-132 397.27,-132 397.27,-138 391.27,-144 385.27,-144"/>
<text text-anchor="middle" x="325.35" y="-122.4" font-family="Helvetica,sans-Serif" font-size="12.00">acc_open_past_24mths</text>
</g>
<!-- num_tl_op_past_12m -->
<g id="node2" class="node">
<title>num_tl_op_past_12m</title>
<path fill="#e1f5fe" stroke="black" d="M379.26,-90C379.26,-90 271.43,-90 271.43,-90 265.43,-90 259.43,-84 259.43,-78 259.43,-78 259.43,-66 259.43,-66 259.43,-60 265.43,-54 271.43,-54 271.43,-54 379.26,-54 379.26,-54 385.26,-54 391.26,-60 391.26,-66 391.26,-66 391.26,-78 391.26,-78 391.26,-84 385.26,-90 379.26,-90"/>
<text text-anchor="middle" x="325.35" y="-68.4" font-family="Helvetica,sans-Serif" font-size="12.00">num_tl_op_past_12m</text>
</g>
<!-- acc_open_past_24mths&#45;&gt;num_tl_op_past_12m -->
<g id="edge1" class="edge">
<title>acc_open_past_24mths&#45;&gt;num_tl_op_past_12m</title>
<path fill="none" stroke="black" d="M325.35,-107.97C325.35,-105.57 325.35,-103.06 325.35,-100.52"/>
<polygon fill="black" stroke="black" points="328.85,-100.24 325.35,-90.24 321.85,-100.24 328.85,-100.24"/>
</g>
<!-- mths_since_recent_bc -->
<g id="node3" class="node">
<title>mths_since_recent_bc</title>
<path fill="#e1f5fe" stroke="black" d="M381.41,-36C381.41,-36 269.28,-36 269.28,-36 263.28,-36 257.28,-30 257.28,-24 257.28,-24 257.28,-12 257.28,-12 257.28,-6 263.28,0 269.28,0 269.28,0 381.41,0 381.41,0 387.41,0 393.41,-6 393.41,-12 393.41,-12 393.41,-24 393.41,-24 393.41,-30 387.41,-36 381.41,-36"/>
<text text-anchor="middle" x="325.35" y="-14.4" font-family="Helvetica,sans-Serif" font-size="12.00">mths_since_recent_bc</text>
</g>
<!-- num_tl_op_past_12m&#45;&gt;mths_since_recent_bc -->
<g id="edge2" class="edge">
<title>num_tl_op_past_12m&#45;&gt;mths_since_recent_bc</title>
<path fill="none" stroke="black" d="M325.35,-53.97C325.35,-51.57 325.35,-49.06 325.35,-46.52"/>
<polygon fill="black" stroke="black" points="328.85,-46.24 325.35,-36.24 321.85,-46.24 328.85,-46.24"/>
</g>
<!-- all_util -->
<g id="node4" class="node">
<title>all_util</title>
<path fill="#e1f5fe" stroke="black" d="M354.35,-252C354.35,-252 324.35,-252 324.35,-252 318.35,-252 312.35,-246 312.35,-240 312.35,-240 312.35,-228 312.35,-228 312.35,-222 318.35,-216 324.35,-216 324.35,-216 354.35,-216 354.35,-216 360.35,-216 366.35,-222 366.35,-228 366.35,-228 366.35,-240 366.35,-240 366.35,-246 360.35,-252 354.35,-252"/>
<text text-anchor="middle" x="339.35" y="-230.4" font-family="Helvetica,sans-Serif" font-size="12.00">all_util</text>
</g>
<!-- open_rv_24m -->
<g id="node5" class="node">
<title>open_rv_24m</title>
<path fill="#e1f5fe" stroke="black" d="M323.23,-198C323.23,-198 257.46,-198 257.46,-198 251.46,-198 245.46,-192 245.46,-186 245.46,-186 245.46,-174 245.46,-174 245.46,-168 251.46,-162 257.46,-162 257.46,-162 323.23,-162 323.23,-162 329.23,-162 335.23,-168 335.23,-174 335.23,-174 335.23,-186 335.23,-186 335.23,-192 329.23,-198 323.23,-198"/>
<text text-anchor="middle" x="290.35" y="-176.4" font-family="Helvetica,sans-Serif" font-size="12.00">open_rv_24m</text>
</g>
<!-- all_util&#45;&gt;open_rv_24m -->
<g id="edge3" class="edge">
<title>all_util&#45;&gt;open_rv_24m</title>
<path fill="none" stroke="black" d="M323.3,-215.97C320.21,-212.69 316.9,-209.18 313.63,-205.7"/>
<polygon fill="black" stroke="black" points="316,-203.12 306.6,-198.24 310.91,-207.92 316,-203.12"/>
</g>
<!-- open_act_il -->
<g id="node6" class="node">
<title>open_act_il</title>
<path fill="#e1f5fe" stroke="black" d="M425.23,-198C425.23,-198 371.46,-198 371.46,-198 365.46,-198 359.46,-192 359.46,-186 359.46,-186 359.46,-174 359.46,-174 359.46,-168 365.46,-162 371.46,-162 371.46,-162 425.23,-162 425.23,-162 431.23,-162 437.23,-168 437.23,-174 437.23,-174 437.23,-186 437.23,-186 437.23,-192 431.23,-198 425.23,-198"/>
<text text-anchor="middle" x="398.35" y="-176.4" font-family="Helvetica,sans-Serif" font-size="12.00">open_act_il</text>
</g>
<!-- all_util&#45;&gt;open_act_il -->
<g id="edge4" class="edge">
<title>all_util&#45;&gt;open_act_il</title>
<path fill="none" stroke="black" d="M358.67,-215.97C362.7,-212.42 367.02,-208.61 371.28,-204.86"/>
<polygon fill="black" stroke="black" points="373.6,-207.48 378.78,-198.24 368.97,-202.23 373.6,-207.48"/>
</g>
<!-- inq_last_12m -->
<g id="node7" class="node">
<title>inq_last_12m</title>
<path fill="#e1f5fe" stroke="black" d="M537.23,-198C537.23,-198 473.47,-198 473.47,-198 467.47,-198 461.47,-192 461.47,-186 461.47,-186 461.47,-174 461.47,-174 461.47,-168 467.47,-162 473.47,-162 473.47,-162 537.23,-162 537.23,-162 543.23,-162 549.23,-168 549.23,-174 549.23,-174 549.23,-186 549.23,-186 549.23,-192 543.23,-198 537.23,-198"/>
<text text-anchor="middle" x="505.35" y="-176.4" font-family="Helvetica,sans-Serif" font-size="12.00">inq_last_12m</text>
</g>
<!-- all_util&#45;&gt;inq_last_12m -->
<g id="edge5" class="edge">
<title>all_util&#45;&gt;inq_last_12m</title>
<path fill="none" stroke="black" d="M366.68,-220.74C370.88,-219.05 375.2,-217.4 379.35,-216 409.77,-205.69 418.42,-206.67 449.35,-198 450.08,-197.79 450.82,-197.59 451.56,-197.38"/>
<polygon fill="black" stroke="black" points="452.74,-200.68 461.38,-194.54 450.8,-193.95 452.74,-200.68"/>
</g>
<!-- total_rev_hi_lim -->
<g id="node8" class="node">
<title>total_rev_hi_lim</title>
<path fill="#e1f5fe" stroke="black" d="M208.39,-198C208.39,-198 132.31,-198 132.31,-198 126.31,-198 120.31,-192 120.31,-186 120.31,-186 120.31,-174 120.31,-174 120.31,-168 126.31,-162 132.31,-162 132.31,-162 208.39,-162 208.39,-162 214.39,-162 220.39,-168 220.39,-174 220.39,-174 220.39,-186 220.39,-186 220.39,-192 214.39,-198 208.39,-198"/>
<text text-anchor="middle" x="170.35" y="-176.4" font-family="Helvetica,sans-Serif" font-size="12.00">total_rev_hi_lim</text>
</g>
<!-- all_util&#45;&gt;total_rev_hi_lim -->
<g id="edge6" class="edge">
<title>all_util&#45;&gt;total_rev_hi_lim</title>
<path fill="none" stroke="black" d="M312.19,-224.65C290.16,-217.87 258.27,-208.05 230.31,-199.45"/>
<polygon fill="black" stroke="black" points="231.2,-196.06 220.61,-196.47 229.14,-202.75 231.2,-196.06"/>
</g>
<!-- open_rv_24m&#45;&gt;acc_open_past_24mths -->
<g id="edge7" class="edge">
<title>open_rv_24m&#45;&gt;acc_open_past_24mths</title>
<path fill="none" stroke="black" d="M301.81,-161.97C303.84,-158.95 306,-155.75 308.15,-152.55"/>
<polygon fill="black" stroke="black" points="311.06,-154.49 313.74,-144.24 305.25,-150.58 311.06,-154.49"/>
</g>
<!-- open_act_il&#45;&gt;acc_open_past_24mths -->
<g id="edge8" class="edge">
<title>open_act_il&#45;&gt;acc_open_past_24mths</title>
<path fill="none" stroke="black" d="M374.44,-161.97C369.21,-158.24 363.57,-154.23 358.05,-150.3"/>
<polygon fill="black" stroke="black" points="359.73,-147.19 349.55,-144.24 355.67,-152.9 359.73,-147.19"/>
</g>
<!-- mths_since_recent_inq -->
<g id="node9" class="node">
<title>mths_since_recent_inq</title>
<path fill="#e1f5fe" stroke="black" d="M563.25,-144C563.25,-144 447.44,-144 447.44,-144 441.44,-144 435.44,-138 435.44,-132 435.44,-132 435.44,-120 435.44,-120 435.44,-114 441.44,-108 447.44,-108 447.44,-108 563.25,-108 563.25,-108 569.25,-108 575.25,-114 575.25,-120 575.25,-120 575.25,-132 575.25,-132 575.25,-138 569.25,-144 563.25,-144"/>
<text text-anchor="middle" x="505.35" y="-122.4" font-family="Helvetica,sans-Serif" font-size="12.00">mths_since_recent_inq</text>
</g>
<!-- inq_last_12m&#45;&gt;mths_since_recent_inq -->
<g id="edge9" class="edge">
<title>inq_last_12m&#45;&gt;mths_since_recent_inq</title>
<path fill="none" stroke="black" d="M505.35,-161.97C505.35,-159.57 505.35,-157.06 505.35,-154.52"/>
<polygon fill="black" stroke="black" points="508.85,-154.24 505.35,-144.24 501.85,-154.24 508.85,-154.24"/>
</g>
<!-- total_bc_limit -->
<g id="node10" class="node">
<title>total_bc_limit</title>
<path fill="#e1f5fe" stroke="black" d="M201.38,-144C201.38,-144 139.32,-144 139.32,-144 133.32,-144 127.32,-138 127.32,-132 127.32,-132 127.32,-120 127.32,-120 127.32,-114 133.32,-108 139.32,-108 139.32,-108 201.38,-108 201.38,-108 207.38,-108 213.38,-114 213.38,-120 213.38,-120 213.38,-132 213.38,-132 213.38,-138 207.38,-144 201.38,-144"/>
<text text-anchor="middle" x="170.35" y="-122.4" font-family="Helvetica,sans-Serif" font-size="12.00">total_bc_limit</text>
</g>
<!-- total_rev_hi_lim&#45;&gt;total_bc_limit -->
<g id="edge10" class="edge">
<title>total_rev_hi_lim&#45;&gt;total_bc_limit</title>
<path fill="none" stroke="black" d="M170.35,-161.97C170.35,-159.57 170.35,-157.06 170.35,-154.52"/>
<polygon fill="black" stroke="black" points="173.85,-154.24 170.35,-144.24 166.85,-154.24 173.85,-154.24"/>
</g>
<!-- annual_inc -->
<g id="node11" class="node">
<title>annual_inc</title>
<path fill="#e1f5fe" stroke="black" d="M109.4,-576C109.4,-576 59.3,-576 59.3,-576 53.3,-576 47.3,-570 47.3,-564 47.3,-564 47.3,-552 47.3,-552 47.3,-546 53.3,-540 59.3,-540 59.3,-540 109.4,-540 109.4,-540 115.4,-540 121.4,-546 121.4,-552 121.4,-552 121.4,-564 121.4,-564 121.4,-570 115.4,-576 109.4,-576"/>
<text text-anchor="middle" x="84.35" y="-554.4" font-family="Helvetica,sans-Serif" font-size="12.00">annual_inc</text>
</g>
<!-- funded_amnt -->
<g id="node12" class="node">
<title>funded_amnt</title>
<path fill="#e1f5fe" stroke="black" d="M115.4,-522C115.4,-522 53.29,-522 53.29,-522 47.29,-522 41.29,-516 41.29,-510 41.29,-510 41.29,-498 41.29,-498 41.29,-492 47.29,-486 53.29,-486 53.29,-486 115.4,-486 115.4,-486 121.4,-486 127.4,-492 127.4,-498 127.4,-498 127.4,-510 127.4,-510 127.4,-516 121.4,-522 115.4,-522"/>
<text text-anchor="middle" x="84.35" y="-500.4" font-family="Helvetica,sans-Serif" font-size="12.00">funded_amnt</text>
</g>
<!-- annual_inc&#45;&gt;funded_amnt -->
<g id="edge11" class="edge">
<title>annual_inc&#45;&gt;funded_amnt</title>
<path fill="none" stroke="black" d="M84.35,-539.97C84.35,-537.57 84.35,-535.06 84.35,-532.52"/>
<polygon fill="black" stroke="black" points="87.85,-532.24 84.35,-522.24 80.85,-532.24 87.85,-532.24"/>
</g>
<!-- term -->
<g id="node13" class="node">
<title>term</title>
<path fill="#e1f5fe" stroke="black" d="M99.35,-468C99.35,-468 69.35,-468 69.35,-468 63.35,-468 57.35,-462 57.35,-456 57.35,-456 57.35,-444 57.35,-444 57.35,-438 63.35,-432 69.35,-432 69.35,-432 99.35,-432 99.35,-432 105.35,-432 111.35,-438 111.35,-444 111.35,-444 111.35,-456 111.35,-456 111.35,-462 105.35,-468 99.35,-468"/>
<text text-anchor="middle" x="84.35" y="-446.4" font-family="Helvetica,sans-Serif" font-size="12.00">term</text>
</g>
<!-- funded_amnt&#45;&gt;term -->
<g id="edge12" class="edge">
<title>funded_amnt&#45;&gt;term</title>
<path fill="none" stroke="black" d="M84.35,-485.97C84.35,-483.57 84.35,-481.06 84.35,-478.52"/>
<polygon fill="black" stroke="black" points="87.85,-478.24 84.35,-468.24 80.85,-478.24 87.85,-478.24"/>
</g>
<!-- grade -->
<g id="node14" class="node">
<title>grade</title>
<path fill="#e1f5fe" stroke="black" d="M99.35,-414C99.35,-414 69.35,-414 69.35,-414 63.35,-414 57.35,-408 57.35,-402 57.35,-402 57.35,-390 57.35,-390 57.35,-384 63.35,-378 69.35,-378 69.35,-378 99.35,-378 99.35,-378 105.35,-378 111.35,-384 111.35,-390 111.35,-390 111.35,-402 111.35,-402 111.35,-408 105.35,-414 99.35,-414"/>
<text text-anchor="middle" x="84.35" y="-392.4" font-family="Helvetica,sans-Serif" font-size="12.00">grade</text>
</g>
<!-- term&#45;&gt;grade -->
<g id="edge13" class="edge">
<title>term&#45;&gt;grade</title>
<path fill="none" stroke="black" d="M84.35,-431.97C84.35,-429.57 84.35,-427.06 84.35,-424.52"/>
<polygon fill="black" stroke="black" points="87.85,-424.24 84.35,-414.24 80.85,-424.24 87.85,-424.24"/>
</g>
<!-- int_rate% -->
<g id="node17" class="node">
<title>int_rate%</title>
<path fill="#e1f5fe" stroke="black" d="M54.54,-252C54.54,-252 12.15,-252 12.15,-252 6.15,-252 0.15,-246 0.15,-240 0.15,-240 0.15,-228 0.15,-228 0.15,-222 6.15,-216 12.15,-216 12.15,-216 54.54,-216 54.54,-216 60.54,-216 66.54,-222 66.54,-228 66.54,-228 66.54,-240 66.54,-240 66.54,-246 60.54,-252 54.54,-252"/>
<text text-anchor="middle" x="33.35" y="-230.4" font-family="Helvetica,sans-Serif" font-size="12.00">int_rate%</text>
</g>
<!-- grade&#45;&gt;int_rate% -->
<g id="edge16" class="edge">
<title>grade&#45;&gt;int_rate%</title>
<path fill="none" stroke="black" d="M73.19,-377.67C70,-372.18 66.74,-365.98 64.35,-360 51.32,-327.49 42.63,-287.97 37.85,-262.19"/>
<polygon fill="black" stroke="black" points="41.24,-261.27 36.03,-252.04 34.35,-262.5 41.24,-261.27"/>
</g>
<!-- binary_loan_status -->
<g id="node18" class="node">
<title>binary_loan_status</title>
<path fill="#e1f5fe" stroke="black" d="M181.58,-360C181.58,-360 89.11,-360 89.11,-360 83.11,-360 77.11,-354 77.11,-348 77.11,-348 77.11,-336 77.11,-336 77.11,-330 83.11,-324 89.11,-324 89.11,-324 181.58,-324 181.58,-324 187.58,-324 193.58,-330 193.58,-336 193.58,-336 193.58,-348 193.58,-348 193.58,-354 187.58,-360 181.58,-360"/>
<text text-anchor="middle" x="135.35" y="-338.4" font-family="Helvetica,sans-Serif" font-size="12.00">binary_loan_status</text>
</g>
<!-- grade&#45;&gt;binary_loan_status -->
<g id="edge17" class="edge">
<title>grade&#45;&gt;binary_loan_status</title>
<path fill="none" stroke="black" d="M101.05,-377.97C104.36,-374.6 107.9,-370.99 111.39,-367.42"/>
<polygon fill="black" stroke="black" points="113.93,-369.83 118.44,-360.24 108.94,-364.93 113.93,-369.83"/>
</g>
<!-- loan_age -->
<g id="node15" class="node">
<title>loan_age</title>
<path fill="#e1f5fe" stroke="black" d="M385.23,-306C385.23,-306 343.46,-306 343.46,-306 337.46,-306 331.46,-300 331.46,-294 331.46,-294 331.46,-282 331.46,-282 331.46,-276 337.46,-270 343.46,-270 343.46,-270 385.23,-270 385.23,-270 391.23,-270 397.23,-276 397.23,-282 397.23,-282 397.23,-294 397.23,-294 397.23,-300 391.23,-306 385.23,-306"/>
<text text-anchor="middle" x="364.35" y="-284.4" font-family="Helvetica,sans-Serif" font-size="12.00">loan_age</text>
</g>
<!-- loan_age&#45;&gt;all_util -->
<g id="edge14" class="edge">
<title>loan_age&#45;&gt;all_util</title>
<path fill="none" stroke="black" d="M356.16,-269.97C354.84,-267.22 353.44,-264.31 352.04,-261.4"/>
<polygon fill="black" stroke="black" points="355.12,-259.74 347.64,-252.24 348.82,-262.77 355.12,-259.74"/>
</g>
<!-- time_since_last_payment -->
<g id="node16" class="node">
<title>time_since_last_payment</title>
<path fill="#e1f5fe" stroke="black" d="M531.25,-252C531.25,-252 403.44,-252 403.44,-252 397.44,-252 391.44,-246 391.44,-240 391.44,-240 391.44,-228 391.44,-228 391.44,-222 397.44,-216 403.44,-216 403.44,-216 531.25,-216 531.25,-216 537.25,-216 543.25,-222 543.25,-228 543.25,-228 543.25,-240 543.25,-240 543.25,-246 537.25,-252 531.25,-252"/>
<text text-anchor="middle" x="467.35" y="-230.4" font-family="Helvetica,sans-Serif" font-size="12.00">time_since_last_payment</text>
</g>
<!-- loan_age&#45;&gt;time_since_last_payment -->
<g id="edge15" class="edge">
<title>loan_age&#45;&gt;time_since_last_payment</title>
<path fill="none" stroke="black" d="M397.22,-270.4C405.88,-266.03 415.34,-261.26 424.44,-256.66"/>
<polygon fill="black" stroke="black" points="426.02,-259.79 433.37,-252.15 422.87,-253.54 426.02,-259.79"/>
</g>
<!-- debt_settlement_flag -->
<g id="node19" class="node">
<title>debt_settlement_flag</title>
<path fill="#e1f5fe" stroke="black" d="M187.26,-306C187.26,-306 83.44,-306 83.44,-306 77.44,-306 71.44,-300 71.44,-294 71.44,-294 71.44,-282 71.44,-282 71.44,-276 77.44,-270 83.44,-270 83.44,-270 187.26,-270 187.26,-270 193.26,-270 199.26,-276 199.26,-282 199.26,-282 199.26,-294 199.26,-294 199.26,-300 193.26,-306 187.26,-306"/>
<text text-anchor="middle" x="135.35" y="-284.4" font-family="Helvetica,sans-Serif" font-size="12.00">debt_settlement_flag</text>
</g>
<!-- binary_loan_status&#45;&gt;debt_settlement_flag -->
<g id="edge18" class="edge">
<title>binary_loan_status&#45;&gt;debt_settlement_flag</title>
<path fill="none" stroke="black" d="M135.35,-323.97C135.35,-321.57 135.35,-319.06 135.35,-316.52"/>
<polygon fill="black" stroke="black" points="138.85,-316.24 135.35,-306.24 131.85,-316.24 138.85,-316.24"/>
</g>
<!-- dti -->
<g id="node20" class="node">
<title>dti</title>
<path fill="#e1f5fe" stroke="black" d="M266.35,-306C266.35,-306 236.35,-306 236.35,-306 230.35,-306 224.35,-300 224.35,-294 224.35,-294 224.35,-282 224.35,-282 224.35,-276 230.35,-270 236.35,-270 236.35,-270 266.35,-270 266.35,-270 272.35,-270 278.35,-276 278.35,-282 278.35,-282 278.35,-294 278.35,-294 278.35,-300 272.35,-306 266.35,-306"/>
<text text-anchor="middle" x="251.35" y="-284.4" font-family="Helvetica,sans-Serif" font-size="12.00">dti</text>
</g>
<!-- binary_loan_status&#45;&gt;dti -->
<g id="edge19" class="edge">
<title>binary_loan_status&#45;&gt;dti</title>
<path fill="none" stroke="black" d="M173.33,-323.97C186.73,-317.97 201.75,-311.23 215.01,-305.29"/>
<polygon fill="black" stroke="black" points="216.61,-308.41 224.31,-301.12 213.75,-302.02 216.61,-308.41"/>
</g>
<!-- debt_settlement_flag&#45;&gt;int_rate% -->
<g id="edge22" class="edge">
<title>debt_settlement_flag&#45;&gt;int_rate%</title>
<path fill="none" stroke="black" d="M101.95,-269.97C93.58,-265.71 84.5,-261.08 75.76,-256.62"/>
<polygon fill="black" stroke="black" points="77.32,-253.49 66.82,-252.06 74.14,-259.73 77.32,-253.49"/>
</g>
<!-- home_ownership -->
<g id="node21" class="node">
<title>home_ownership</title>
<path fill="#e1f5fe" stroke="black" d="M187.24,-252C187.24,-252 103.46,-252 103.46,-252 97.46,-252 91.46,-246 91.46,-240 91.46,-240 91.46,-228 91.46,-228 91.46,-222 97.46,-216 103.46,-216 103.46,-216 187.24,-216 187.24,-216 193.24,-216 199.24,-222 199.24,-228 199.24,-228 199.24,-240 199.24,-240 199.24,-246 193.24,-252 187.24,-252"/>
<text text-anchor="middle" x="145.35" y="-230.4" font-family="Helvetica,sans-Serif" font-size="12.00">home_ownership</text>
</g>
<!-- debt_settlement_flag&#45;&gt;home_ownership -->
<g id="edge23" class="edge">
<title>debt_settlement_flag&#45;&gt;home_ownership</title>
<path fill="none" stroke="black" d="M138.62,-269.97C139.1,-267.49 139.6,-264.87 140.11,-262.24"/>
<polygon fill="black" stroke="black" points="143.58,-262.72 142.03,-252.24 136.71,-261.4 143.58,-262.72"/>
</g>
<!-- home_ownership&#45;&gt;total_rev_hi_lim -->
<g id="edge21" class="edge">
<title>home_ownership&#45;&gt;total_rev_hi_lim</title>
<path fill="none" stroke="black" d="M153.53,-215.97C154.86,-213.22 156.26,-210.31 157.66,-207.4"/>
<polygon fill="black" stroke="black" points="160.88,-208.77 162.06,-198.24 154.57,-205.74 160.88,-208.77"/>
</g>
<!-- avg_cur_bal -->
<g id="node22" class="node">
<title>avg_cur_bal</title>
<path fill="#e1f5fe" stroke="black" d="M83.23,-198C83.23,-198 25.47,-198 25.47,-198 19.47,-198 13.47,-192 13.47,-186 13.47,-186 13.47,-174 13.47,-174 13.47,-168 19.47,-162 25.47,-162 25.47,-162 83.23,-162 83.23,-162 89.23,-162 95.23,-168 95.23,-174 95.23,-174 95.23,-186 95.23,-186 95.23,-192 89.23,-198 83.23,-198"/>
<text text-anchor="middle" x="54.35" y="-176.4" font-family="Helvetica,sans-Serif" font-size="12.00">avg_cur_bal</text>
</g>
<!-- home_ownership&#45;&gt;avg_cur_bal -->
<g id="edge20" class="edge">
<title>home_ownership&#45;&gt;avg_cur_bal</title>
<path fill="none" stroke="black" d="M115.55,-215.97C108.32,-211.84 100.49,-207.37 92.92,-203.04"/>
<polygon fill="black" stroke="black" points="94.63,-199.99 84.21,-198.06 91.16,-206.07 94.63,-199.99"/>
</g>
</g>
</svg>
