<?xml version="1.0" encoding="UTF-8" standalone="no"?>
<!DOCTYPE svg PUBLIC "-//W3C//DTD SVG 1.1//EN"
 "http://www.w3.org/Graphics/SVG/1.1/DTD/svg11.dtd">
<!-- Generated by graphviz version 2.50.0 (0)
 -->
<!-- Pages: 1 -->
<svg width="576pt" height="522pt"
 viewBox="0.00 0.00 576.00 521.76" xmlns="http://www.w3.org/2000/svg" xmlns:xlink="http://www.w3.org/1999/xlink">
<g id="graph0" class="graph" transform="scale(0.54 0.54) rotate(0) translate(4 958)">
<polygon fill="white" stroke="transparent" points="-4,4 -4,-958 1058,-958 1058,4 -4,4"/>
<!-- acc_open_past_24mths -->
<g id="node1" class="node">
<title>acc_open_past_24mths</title>
<path fill="#e1f5fe" stroke="black" d="M505.92,-900C505.92,-900 386.08,-900 386.08,-900 380.08,-900 374.08,-894 374.08,-888 374.08,-888 374.08,-876 374.08,-876 374.08,-870 380.08,-864 386.08,-864 386.08,-864 505.92,-864 505.92,-864 511.92,-864 517.92,-870 517.92,-876 517.92,-876 517.92,-888 517.92,-888 517.92,-894 511.92,-900 505.92,-900"/>
<text text-anchor="middle" x="446" y="-878.4" font-family="Helvetica,sans-Serif" font-size="12.00">acc_open_past_24mths</text>
</g>
<!-- mths_since_recent_bc -->
<g id="node2" class="node">
<title>mths_since_recent_bc</title>
<path fill="#e1f5fe" stroke="black" d="M610.06,-846C610.06,-846 497.94,-846 497.94,-846 491.94,-846 485.94,-840 485.94,-834 485.94,-834 485.94,-822 485.94,-822 485.94,-816 491.94,-810 497.94,-810 497.94,-810 610.06,-810 610.06,-810 616.06,-810 622.06,-816 622.06,-822 622.06,-822 622.06,-834 622.06,-834 622.06,-840 616.06,-846 610.06,-846"/>
<text text-anchor="middle" x="554" y="-824.4" font-family="Helvetica,sans-Serif" font-size="12.00">mths_since_recent_bc</text>
</g>
<!-- acc_open_past_24mths&#45;&gt;mths_since_recent_bc -->
<g id="edge1" class="edge">
<title>acc_open_past_24mths&#45;&gt;mths_since_recent_bc</title>
<path fill="none" stroke="black" d="M481.36,-863.97C490.31,-859.66 500.04,-854.98 509.39,-850.48"/>
<polygon fill="black" stroke="black" points="511.07,-853.56 518.56,-846.06 508.03,-847.25 511.07,-853.56"/>
</g>
<!-- total_rev_hi_lim -->
<g id="node3" class="node">
<title>total_rev_hi_lim</title>
<path fill="#e1f5fe" stroke="black" d="M908.04,-360C908.04,-360 831.96,-360 831.96,-360 825.96,-360 819.96,-354 819.96,-348 819.96,-348 819.96,-336 819.96,-336 819.96,-330 825.96,-324 831.96,-324 831.96,-324 908.04,-324 908.04,-324 914.04,-324 920.04,-330 920.04,-336 920.04,-336 920.04,-348 920.04,-348 920.04,-354 914.04,-360 908.04,-360"/>
<text text-anchor="middle" x="870" y="-338.4" font-family="Helvetica,sans-Serif" font-size="12.00">total_rev_hi_lim</text>
</g>
<!-- acc_open_past_24mths&#45;&gt;total_rev_hi_lim -->
<g id="edge2" class="edge">
<title>acc_open_past_24mths&#45;&gt;total_rev_hi_lim</title>
<path fill="none" stroke="black" d="M517.83,-875.9C678.72,-863.52 1054,-828.88 1054,-775 1054,-775 1054,-775 1054,-503 1054,-434.37 980.21,-388.5 926.08,-364.08"/>
<polygon fill="black" stroke="black" points="927.47,-360.87 916.91,-360.06 924.66,-367.28 927.47,-360.87"/>
</g>
<!-- mths_since_recent_inq -->
<g id="node4" class="node">
<title>mths_since_recent_inq</title>
<path fill="#e1f5fe" stroke="black" d="M295.9,-792C295.9,-792 180.1,-792 180.1,-792 174.1,-792 168.1,-786 168.1,-780 168.1,-780 168.1,-768 168.1,-768 168.1,-762 174.1,-756 180.1,-756 180.1,-756 295.9,-756 295.9,-756 301.9,-756 307.9,-762 307.9,-768 307.9,-768 307.9,-780 307.9,-780 307.9,-786 301.9,-792 295.9,-792"/>
<text text-anchor="middle" x="238" y="-770.4" font-family="Helvetica,sans-Serif" font-size="12.00">mths_since_recent_inq</text>
</g>
<!-- acc_open_past_24mths&#45;&gt;mths_since_recent_inq -->
<g id="edge3" class="edge">
<title>acc_open_past_24mths&#45;&gt;mths_since_recent_inq</title>
<path fill="none" stroke="black" d="M374.08,-864.72C358.12,-859.79 341.61,-853.6 327,-846 303.34,-833.69 279.9,-814.64 263.02,-799.36"/>
<polygon fill="black" stroke="black" points="265,-796.43 255.28,-792.22 260.25,-801.57 265,-796.43"/>
</g>
<!-- open_act_il -->
<g id="node5" class="node">
<title>open_act_il</title>
<path fill="#e1f5fe" stroke="black" d="M776.88,-792C776.88,-792 723.12,-792 723.12,-792 717.12,-792 711.12,-786 711.12,-780 711.12,-780 711.12,-768 711.12,-768 711.12,-762 717.12,-756 723.12,-756 723.12,-756 776.88,-756 776.88,-756 782.88,-756 788.88,-762 788.88,-768 788.88,-768 788.88,-780 788.88,-780 788.88,-786 782.88,-792 776.88,-792"/>
<text text-anchor="middle" x="750" y="-770.4" font-family="Helvetica,sans-Serif" font-size="12.00">open_act_il</text>
</g>
<!-- acc_open_past_24mths&#45;&gt;open_act_il -->
<g id="edge4" class="edge">
<title>acc_open_past_24mths&#45;&gt;open_act_il</title>
<path fill="none" stroke="black" d="M517.71,-874.06C553.77,-869 597.64,-860.41 635,-846 665.73,-834.15 697.33,-813.95 719.62,-798.12"/>
<polygon fill="black" stroke="black" points="721.92,-800.77 727.97,-792.07 717.82,-795.1 721.92,-800.77"/>
</g>
<!-- total_bc_limit -->
<g id="node6" class="node">
<title>total_bc_limit</title>
<path fill="#e1f5fe" stroke="black" d="M617.03,-414C617.03,-414 554.97,-414 554.97,-414 548.97,-414 542.97,-408 542.97,-402 542.97,-402 542.97,-390 542.97,-390 542.97,-384 548.97,-378 554.97,-378 554.97,-378 617.03,-378 617.03,-378 623.03,-378 629.03,-384 629.03,-390 629.03,-390 629.03,-402 629.03,-402 629.03,-408 623.03,-414 617.03,-414"/>
<text text-anchor="middle" x="586" y="-392.4" font-family="Helvetica,sans-Serif" font-size="12.00">total_bc_limit</text>
</g>
<!-- acc_open_past_24mths&#45;&gt;total_bc_limit -->
<g id="edge5" class="edge">
<title>acc_open_past_24mths&#45;&gt;total_bc_limit</title>
<path fill="none" stroke="black" d="M442.82,-863.75C437.35,-828.3 430.53,-746.84 473,-702 500.15,-673.33 530.27,-709.98 560,-684 585.19,-661.99 585,-646.45 585,-613 585,-613 585,-613 585,-503 585,-476.24 585.32,-445.67 585.6,-424.26"/>
<polygon fill="black" stroke="black" points="589.1,-424.3 585.74,-414.26 582.1,-424.21 589.1,-424.3"/>
</g>
<!-- all_util -->
<g id="node7" class="node">
<title>all_util</title>
<path fill="#e1f5fe" stroke="black" d="M365,-630C365,-630 335,-630 335,-630 329,-630 323,-624 323,-618 323,-618 323,-606 323,-606 323,-600 329,-594 335,-594 335,-594 365,-594 365,-594 371,-594 377,-600 377,-606 377,-606 377,-618 377,-618 377,-624 371,-630 365,-630"/>
<text text-anchor="middle" x="350" y="-608.4" font-family="Helvetica,sans-Serif" font-size="12.00">all_util</text>
</g>
<!-- acc_open_past_24mths&#45;&gt;all_util -->
<g id="edge6" class="edge">
<title>acc_open_past_24mths&#45;&gt;all_util</title>
<path fill="none" stroke="black" d="M413.26,-863.87C384.09,-845.98 346,-814.97 346,-775 346,-775 346,-775 346,-719 346,-692.22 347.29,-661.66 348.41,-640.25"/>
<polygon fill="black" stroke="black" points="351.9,-640.43 348.95,-630.25 344.91,-640.05 351.9,-640.43"/>
</g>
<!-- time_since_last_payment -->
<g id="node8" class="node">
<title>time_since_last_payment</title>
<path fill="#e1f5fe" stroke="black" d="M177.9,-468C177.9,-468 50.1,-468 50.1,-468 44.1,-468 38.1,-462 38.1,-456 38.1,-456 38.1,-444 38.1,-444 38.1,-438 44.1,-432 50.1,-432 50.1,-432 177.9,-432 177.9,-432 183.9,-432 189.9,-438 189.9,-444 189.9,-444 189.9,-456 189.9,-456 189.9,-462 183.9,-468 177.9,-468"/>
<text text-anchor="middle" x="114" y="-446.4" font-family="Helvetica,sans-Serif" font-size="12.00">time_since_last_payment</text>
</g>
<!-- acc_open_past_24mths&#45;&gt;time_since_last_payment -->
<g id="edge7" class="edge">
<title>acc_open_past_24mths&#45;&gt;time_since_last_payment</title>
<path fill="none" stroke="black" d="M373.9,-871.52C280.64,-857.19 130,-826.14 130,-775 130,-775 130,-775 130,-719 130,-637.48 79.3,-620.81 90,-540 92.83,-518.65 99.32,-495.15 104.83,-477.66"/>
<polygon fill="black" stroke="black" points="108.17,-478.71 107.94,-468.12 101.52,-476.55 108.17,-478.71"/>
</g>
<!-- mths_since_recent_bc&#45;&gt;mths_since_recent_inq -->
<g id="edge9" class="edge">
<title>mths_since_recent_bc&#45;&gt;mths_since_recent_inq</title>
<path fill="none" stroke="black" d="M485.82,-815.78C436.58,-807.68 369.91,-796.71 318.12,-788.18"/>
<polygon fill="black" stroke="black" points="318.4,-784.68 307.97,-786.51 317.27,-791.59 318.4,-784.68"/>
</g>
<!-- mths_since_recent_bc&#45;&gt;open_act_il -->
<g id="edge11" class="edge">
<title>mths_since_recent_bc&#45;&gt;open_act_il</title>
<path fill="none" stroke="black" d="M618.18,-809.97C645.28,-802.78 676.32,-794.55 701.47,-787.88"/>
<polygon fill="black" stroke="black" points="702.38,-791.25 711.15,-785.31 700.59,-784.49 702.38,-791.25"/>
</g>
<!-- mths_since_recent_bc&#45;&gt;total_bc_limit -->
<g id="edge12" class="edge">
<title>mths_since_recent_bc&#45;&gt;total_bc_limit</title>
<path fill="none" stroke="black" d="M582.86,-809.83C621.98,-784.12 687,-731.66 687,-667 687,-667 687,-667 687,-503 687,-466.6 655.4,-437.76 627.55,-419.41"/>
<polygon fill="black" stroke="black" points="629.4,-416.43 619.07,-414.05 625.66,-422.35 629.4,-416.43"/>
</g>
<!-- percent_bc_gt_75 -->
<g id="node9" class="node">
<title>percent_bc_gt_75</title>
<path fill="#e1f5fe" stroke="black" d="M586.08,-738C586.08,-738 497.92,-738 497.92,-738 491.92,-738 485.92,-732 485.92,-726 485.92,-726 485.92,-714 485.92,-714 485.92,-708 491.92,-702 497.92,-702 497.92,-702 586.08,-702 586.08,-702 592.08,-702 598.08,-708 598.08,-714 598.08,-714 598.08,-726 598.08,-726 598.08,-732 592.08,-738 586.08,-738"/>
<text text-anchor="middle" x="542" y="-716.4" font-family="Helvetica,sans-Serif" font-size="12.00">percent_bc_gt_75</text>
</g>
<!-- mths_since_recent_bc&#45;&gt;percent_bc_gt_75 -->
<g id="edge8" class="edge">
<title>mths_since_recent_bc&#45;&gt;percent_bc_gt_75</title>
<path fill="none" stroke="black" d="M552.07,-809.97C550.19,-793.38 547.31,-767.88 545.11,-748.43"/>
<polygon fill="black" stroke="black" points="548.57,-747.88 543.96,-738.34 541.61,-748.67 548.57,-747.88"/>
</g>
<!-- bc_util -->
<g id="node10" class="node">
<title>bc_util</title>
<path fill="#e1f5fe" stroke="black" d="M535,-684C535,-684 505,-684 505,-684 499,-684 493,-678 493,-672 493,-672 493,-660 493,-660 493,-654 499,-648 505,-648 505,-648 535,-648 535,-648 541,-648 547,-654 547,-660 547,-660 547,-672 547,-672 547,-678 541,-684 535,-684"/>
<text text-anchor="middle" x="520" y="-662.4" font-family="Helvetica,sans-Serif" font-size="12.00">bc_util</text>
</g>
<!-- mths_since_recent_bc&#45;&gt;bc_util -->
<g id="edge10" class="edge">
<title>mths_since_recent_bc&#45;&gt;bc_util</title>
<path fill="none" stroke="black" d="M530.82,-809.85C511.21,-793.78 484.54,-767.81 473,-738 467.23,-723.08 465.82,-716.3 473,-702 475.75,-696.53 479.81,-691.69 484.4,-687.49"/>
<polygon fill="black" stroke="black" points="486.87,-690.01 492.51,-681.04 482.51,-684.53 486.87,-690.01"/>
</g>
<!-- funded_amnt -->
<g id="node11" class="node">
<title>funded_amnt</title>
<path fill="#e1f5fe" stroke="black" d="M630.05,-306C630.05,-306 567.95,-306 567.95,-306 561.95,-306 555.95,-300 555.95,-294 555.95,-294 555.95,-282 555.95,-282 555.95,-276 561.95,-270 567.95,-270 567.95,-270 630.05,-270 630.05,-270 636.05,-270 642.05,-276 642.05,-282 642.05,-282 642.05,-294 642.05,-294 642.05,-300 636.05,-306 630.05,-306"/>
<text text-anchor="middle" x="599" y="-284.4" font-family="Helvetica,sans-Serif" font-size="12.00">funded_amnt</text>
</g>
<!-- total_rev_hi_lim&#45;&gt;funded_amnt -->
<g id="edge13" class="edge">
<title>total_rev_hi_lim&#45;&gt;funded_amnt</title>
<path fill="none" stroke="black" d="M819.98,-331.4C772.29,-322.25 700.72,-308.52 652.05,-299.18"/>
<polygon fill="black" stroke="black" points="652.51,-295.7 642.03,-297.26 651.19,-302.58 652.51,-295.7"/>
</g>
<!-- annual_inc -->
<g id="node12" class="node">
<title>annual_inc</title>
<path fill="#e1f5fe" stroke="black" d="M933.05,-252C933.05,-252 882.95,-252 882.95,-252 876.95,-252 870.95,-246 870.95,-240 870.95,-240 870.95,-228 870.95,-228 870.95,-222 876.95,-216 882.95,-216 882.95,-216 933.05,-216 933.05,-216 939.05,-216 945.05,-222 945.05,-228 945.05,-228 945.05,-240 945.05,-240 945.05,-246 939.05,-252 933.05,-252"/>
<text text-anchor="middle" x="908" y="-230.4" font-family="Helvetica,sans-Serif" font-size="12.00">annual_inc</text>
</g>
<!-- total_rev_hi_lim&#45;&gt;annual_inc -->
<g id="edge14" class="edge">
<title>total_rev_hi_lim&#45;&gt;annual_inc</title>
<path fill="none" stroke="black" d="M876.11,-323.97C882.11,-307.22 891.36,-281.41 898.36,-261.89"/>
<polygon fill="black" stroke="black" points="901.7,-262.94 901.78,-252.34 895.11,-260.57 901.7,-262.94"/>
</g>
<!-- dti -->
<g id="node13" class="node">
<title>dti</title>
<path fill="#e1f5fe" stroke="black" d="M746,-198C746,-198 716,-198 716,-198 710,-198 704,-192 704,-186 704,-186 704,-174 704,-174 704,-168 710,-162 716,-162 716,-162 746,-162 746,-162 752,-162 758,-168 758,-174 758,-174 758,-186 758,-186 758,-192 752,-198 746,-198"/>
<text text-anchor="middle" x="731" y="-176.4" font-family="Helvetica,sans-Serif" font-size="12.00">dti</text>
</g>
<!-- total_rev_hi_lim&#45;&gt;dti -->
<g id="edge15" class="edge">
<title>total_rev_hi_lim&#45;&gt;dti</title>
<path fill="none" stroke="black" d="M864.35,-323.97C854.92,-297.79 833.72,-247.42 801,-216 791.58,-206.96 779.37,-199.77 767.79,-194.32"/>
<polygon fill="black" stroke="black" points="768.85,-190.97 758.29,-190.15 766.04,-197.38 768.85,-190.97"/>
</g>
<!-- home_ownership -->
<g id="node14" class="node">
<title>home_ownership</title>
<path fill="#e1f5fe" stroke="black" d="M926.89,-90C926.89,-90 843.11,-90 843.11,-90 837.11,-90 831.11,-84 831.11,-78 831.11,-78 831.11,-66 831.11,-66 831.11,-60 837.11,-54 843.11,-54 843.11,-54 926.89,-54 926.89,-54 932.89,-54 938.89,-60 938.89,-66 938.89,-66 938.89,-78 938.89,-78 938.89,-84 932.89,-90 926.89,-90"/>
<text text-anchor="middle" x="885" y="-68.4" font-family="Helvetica,sans-Serif" font-size="12.00">home_ownership</text>
</g>
<!-- total_rev_hi_lim&#45;&gt;home_ownership -->
<g id="edge16" class="edge">
<title>total_rev_hi_lim&#45;&gt;home_ownership</title>
<path fill="none" stroke="black" d="M896.23,-323.78C917.56,-308.02 946.03,-282.55 958,-252 979.65,-196.75 936.57,-132.42 907.84,-97.92"/>
<polygon fill="black" stroke="black" points="910.41,-95.54 901.25,-90.22 905.09,-100.09 910.41,-95.54"/>
</g>
<!-- inq_last_12m -->
<g id="node15" class="node">
<title>inq_last_12m</title>
<path fill="#e1f5fe" stroke="black" d="M177.88,-576C177.88,-576 114.12,-576 114.12,-576 108.12,-576 102.12,-570 102.12,-564 102.12,-564 102.12,-552 102.12,-552 102.12,-546 108.12,-540 114.12,-540 114.12,-540 177.88,-540 177.88,-540 183.88,-540 189.88,-546 189.88,-552 189.88,-552 189.88,-564 189.88,-564 189.88,-570 183.88,-576 177.88,-576"/>
<text text-anchor="middle" x="146" y="-554.4" font-family="Helvetica,sans-Serif" font-size="12.00">inq_last_12m</text>
</g>
<!-- mths_since_recent_inq&#45;&gt;inq_last_12m -->
<g id="edge17" class="edge">
<title>mths_since_recent_inq&#45;&gt;inq_last_12m</title>
<path fill="none" stroke="black" d="M230.63,-755.85C214.61,-718.6 176.55,-630.07 157.41,-585.54"/>
<polygon fill="black" stroke="black" points="160.57,-584.04 153.41,-576.23 154.14,-586.8 160.57,-584.04"/>
</g>
<!-- open_act_il&#45;&gt;total_bc_limit -->
<g id="edge22" class="edge">
<title>open_act_il&#45;&gt;total_bc_limit</title>
<path fill="none" stroke="black" d="M760.66,-755.71C772.2,-735.3 789,-699.94 789,-667 789,-667 789,-667 789,-503 789,-435.35 699.32,-410.8 639.17,-401.94"/>
<polygon fill="black" stroke="black" points="639.43,-398.45 629.05,-400.56 638.48,-405.38 639.43,-398.45"/>
</g>
<!-- open_act_il&#45;&gt;all_util -->
<g id="edge18" class="edge">
<title>open_act_il&#45;&gt;all_util</title>
<path fill="none" stroke="black" d="M733.22,-755.9C715.49,-739.03 685.88,-714.05 655,-702 582.16,-673.57 554.67,-707.2 480,-684 444.63,-673.01 407.91,-651.92 382.56,-635.56"/>
<polygon fill="black" stroke="black" points="384.37,-632.56 374.09,-630 380.52,-638.41 384.37,-632.56"/>
</g>
<!-- open_act_il&#45;&gt;percent_bc_gt_75 -->
<g id="edge20" class="edge">
<title>open_act_il&#45;&gt;percent_bc_gt_75</title>
<path fill="none" stroke="black" d="M710.88,-763.22C681.96,-755.99 641.9,-745.97 608.05,-737.51"/>
<polygon fill="black" stroke="black" points="608.77,-734.09 598.22,-735.06 607.08,-740.88 608.77,-734.09"/>
</g>
<!-- open_act_il&#45;&gt;annual_inc -->
<g id="edge21" class="edge">
<title>open_act_il&#45;&gt;annual_inc</title>
<path fill="none" stroke="black" d="M788.95,-769.86C847.65,-762.75 952,-739.87 952,-667 952,-667 952,-667 952,-449 952,-380.44 930.06,-302 917.17,-261.82"/>
<polygon fill="black" stroke="black" points="920.46,-260.64 914.03,-252.23 913.81,-262.82 920.46,-260.64"/>
</g>
<!-- open_act_il&#45;&gt;dti -->
<g id="edge19" class="edge">
<title>open_act_il&#45;&gt;dti</title>
<path fill="none" stroke="black" d="M778.48,-755.76C804.84,-737.38 840,-705.63 840,-667 840,-667 840,-667 840,-503 840,-436.23 777.61,-277.24 751,-216 749.69,-212.98 748.19,-209.89 746.6,-206.86"/>
<polygon fill="black" stroke="black" points="749.64,-205.12 741.74,-198.06 743.51,-208.51 749.64,-205.12"/>
</g>
<!-- open_act_il&#45;&gt;inq_last_12m -->
<g id="edge23" class="edge">
<title>open_act_il&#45;&gt;inq_last_12m</title>
<path fill="none" stroke="black" d="M711.27,-762.57C692.92,-756.76 671.1,-748.54 653,-738 631.76,-725.63 633.68,-711.5 611,-702 523.78,-665.47 490.09,-709.39 399,-684 316.31,-660.96 228.3,-610.9 180.98,-581.61"/>
<polygon fill="black" stroke="black" points="182.69,-578.54 172.36,-576.21 178.98,-584.48 182.69,-578.54"/>
</g>
<!-- emp_length -->
<g id="node16" class="node">
<title>emp_length</title>
<path fill="#e1f5fe" stroke="black" d="M1004.21,-36C1004.21,-36 949.79,-36 949.79,-36 943.79,-36 937.79,-30 937.79,-24 937.79,-24 937.79,-12 937.79,-12 937.79,-6 943.79,0 949.79,0 949.79,0 1004.21,0 1004.21,0 1010.21,0 1016.21,-6 1016.21,-12 1016.21,-12 1016.21,-24 1016.21,-24 1016.21,-30 1010.21,-36 1004.21,-36"/>
<text text-anchor="middle" x="977" y="-14.4" font-family="Helvetica,sans-Serif" font-size="12.00">emp_length</text>
</g>
<!-- open_act_il&#45;&gt;emp_length -->
<g id="edge24" class="edge">
<title>open_act_il&#45;&gt;emp_length</title>
<path fill="none" stroke="black" d="M788.7,-773.6C859.57,-772.45 1003,-758.79 1003,-667 1003,-667 1003,-667 1003,-503 1003,-428.36 1054,-417.64 1054,-343 1054,-343 1054,-343 1054,-125 1054,-91.98 1029.24,-62.32 1007.8,-42.83"/>
<polygon fill="black" stroke="black" points="1009.94,-40.06 1000.1,-36.12 1005.34,-45.33 1009.94,-40.06"/>
</g>
<!-- total_bc_limit&#45;&gt;total_rev_hi_lim -->
<g id="edge25" class="edge">
<title>total_bc_limit&#45;&gt;total_rev_hi_lim</title>
<path fill="none" stroke="black" d="M629.13,-387.1C677.24,-378.29 755.4,-363.98 809.58,-354.06"/>
<polygon fill="black" stroke="black" points="810.54,-357.45 819.74,-352.2 809.28,-350.56 810.54,-357.45"/>
</g>
<!-- total_bc_limit&#45;&gt;funded_amnt -->
<g id="edge27" class="edge">
<title>total_bc_limit&#45;&gt;funded_amnt</title>
<path fill="none" stroke="black" d="M588.09,-377.97C590.12,-361.38 593.25,-335.88 595.64,-316.43"/>
<polygon fill="black" stroke="black" points="599.13,-316.69 596.87,-306.34 592.18,-315.84 599.13,-316.69"/>
</g>
<!-- total_bc_limit&#45;&gt;dti -->
<g id="edge26" class="edge">
<title>total_bc_limit&#45;&gt;dti</title>
<path fill="none" stroke="black" d="M600.35,-377.71C614.74,-360.09 637.26,-331.77 655,-306 677.83,-272.83 701.53,-232.81 716.27,-207.14"/>
<polygon fill="black" stroke="black" points="719.35,-208.79 721.27,-198.37 713.27,-205.32 719.35,-208.79"/>
</g>
<!-- term -->
<g id="node17" class="node">
<title>term</title>
<path fill="#e1f5fe" stroke="black" d="M533,-252C533,-252 503,-252 503,-252 497,-252 491,-246 491,-240 491,-240 491,-228 491,-228 491,-222 497,-216 503,-216 503,-216 533,-216 533,-216 539,-216 545,-222 545,-228 545,-228 545,-240 545,-240 545,-246 539,-252 533,-252"/>
<text text-anchor="middle" x="518" y="-230.4" font-family="Helvetica,sans-Serif" font-size="12.00">term</text>
</g>
<!-- total_bc_limit&#45;&gt;term -->
<g id="edge28" class="edge">
<title>total_bc_limit&#45;&gt;term</title>
<path fill="none" stroke="black" d="M577.02,-377.87C567.89,-360.13 553.61,-331.51 543,-306 537,-291.58 531.15,-275.15 526.62,-261.72"/>
<polygon fill="black" stroke="black" points="529.91,-260.52 523.44,-252.13 523.27,-262.72 529.91,-260.52"/>
</g>
<!-- all_util&#45;&gt;total_bc_limit -->
<g id="edge31" class="edge">
<title>all_util&#45;&gt;total_bc_limit</title>
<path fill="none" stroke="black" d="M377.04,-594.17C384.8,-588.79 393.05,-582.53 400,-576 459.72,-519.94 451.18,-483.34 515,-432 521.02,-427.15 527.83,-422.75 534.78,-418.82"/>
<polygon fill="black" stroke="black" points="536.44,-421.9 543.61,-414.11 533.14,-415.73 536.44,-421.9"/>
</g>
<!-- all_util&#45;&gt;dti -->
<g id="edge33" class="edge">
<title>all_util&#45;&gt;dti</title>
<path fill="none" stroke="black" d="M347.3,-593.85C341.84,-557.61 330,-470.51 330,-397 330,-397 330,-397 330,-287 330,-212.22 593.92,-189.01 693.54,-182.91"/>
<polygon fill="black" stroke="black" points="693.98,-186.39 703.75,-182.31 693.56,-179.4 693.98,-186.39"/>
</g>
<!-- all_util&#45;&gt;inq_last_12m -->
<g id="edge30" class="edge">
<title>all_util&#45;&gt;inq_last_12m</title>
<path fill="none" stroke="black" d="M322.51,-599.99C316.48,-597.82 310.07,-595.68 304,-594 262.59,-582.51 250.89,-585.6 209,-576 206,-575.31 202.94,-574.58 199.85,-573.82"/>
<polygon fill="black" stroke="black" points="200.51,-570.38 189.95,-571.32 198.79,-577.16 200.51,-570.38"/>
</g>
<!-- loan_age -->
<g id="node18" class="node">
<title>loan_age</title>
<path fill="#e1f5fe" stroke="black" d="M299.88,-522C299.88,-522 258.12,-522 258.12,-522 252.12,-522 246.12,-516 246.12,-510 246.12,-510 246.12,-498 246.12,-498 246.12,-492 252.12,-486 258.12,-486 258.12,-486 299.88,-486 299.88,-486 305.88,-486 311.88,-492 311.88,-498 311.88,-498 311.88,-510 311.88,-510 311.88,-516 305.88,-522 299.88,-522"/>
<text text-anchor="middle" x="279" y="-500.4" font-family="Helvetica,sans-Serif" font-size="12.00">loan_age</text>
</g>
<!-- all_util&#45;&gt;loan_age -->
<g id="edge29" class="edge">
<title>all_util&#45;&gt;loan_age</title>
<path fill="none" stroke="black" d="M327.76,-593.91C321.81,-588.62 315.73,-582.46 311,-576 301.17,-562.56 293.4,-545.63 287.97,-531.67"/>
<polygon fill="black" stroke="black" points="291.19,-530.29 284.44,-522.12 284.63,-532.72 291.19,-530.29"/>
</g>
<!-- avg_cur_bal -->
<g id="node19" class="node">
<title>avg_cur_bal</title>
<path fill="#e1f5fe" stroke="black" d="M821.88,-144C821.88,-144 764.12,-144 764.12,-144 758.12,-144 752.12,-138 752.12,-132 752.12,-132 752.12,-120 752.12,-120 752.12,-114 758.12,-108 764.12,-108 764.12,-108 821.88,-108 821.88,-108 827.88,-108 833.88,-114 833.88,-120 833.88,-120 833.88,-132 833.88,-132 833.88,-138 827.88,-144 821.88,-144"/>
<text text-anchor="middle" x="793" y="-122.4" font-family="Helvetica,sans-Serif" font-size="12.00">avg_cur_bal</text>
</g>
<!-- all_util&#45;&gt;avg_cur_bal -->
<g id="edge32" class="edge">
<title>all_util&#45;&gt;avg_cur_bal</title>
<path fill="none" stroke="black" d="M322.95,-597.43C293.44,-582.77 244.72,-558.96 202,-540 124.76,-505.71 84.64,-528.86 26,-468 2.68,-443.8 0,-430.6 0,-397 0,-397 0,-397 0,-233 0,-176.3 52.19,-179.87 106,-162 165.7,-142.18 592.48,-131.28 741.67,-128.04"/>
<polygon fill="black" stroke="black" points="742,-131.53 751.93,-127.82 741.85,-124.53 742,-131.53"/>
</g>
<!-- time_since_last_payment&#45;&gt;total_bc_limit -->
<g id="edge36" class="edge">
<title>time_since_last_payment&#45;&gt;total_bc_limit</title>
<path fill="none" stroke="black" d="M189.83,-440.65C285.9,-430.06 448.99,-412.09 532.8,-402.86"/>
<polygon fill="black" stroke="black" points="533.31,-406.33 542.86,-401.75 532.54,-399.37 533.31,-406.33"/>
</g>
<!-- time_since_last_payment&#45;&gt;dti -->
<g id="edge34" class="edge">
<title>time_since_last_payment&#45;&gt;dti</title>
<path fill="none" stroke="black" d="M153.55,-431.92C186.48,-414.72 228,-384.75 228,-343 228,-343 228,-343 228,-287 228,-252.39 231.65,-235.85 260,-216 295.19,-191.36 588.36,-183.61 693.59,-181.61"/>
<polygon fill="black" stroke="black" points="693.81,-185.1 703.75,-181.42 693.68,-178.1 693.81,-185.1"/>
</g>
<!-- binary_loan_status -->
<g id="node20" class="node">
<title>binary_loan_status</title>
<path fill="#e1f5fe" stroke="black" d="M223.23,-198C223.23,-198 130.77,-198 130.77,-198 124.77,-198 118.77,-192 118.77,-186 118.77,-186 118.77,-174 118.77,-174 118.77,-168 124.77,-162 130.77,-162 130.77,-162 223.23,-162 223.23,-162 229.23,-162 235.23,-168 235.23,-174 235.23,-174 235.23,-186 235.23,-186 235.23,-192 229.23,-198 223.23,-198"/>
<text text-anchor="middle" x="177" y="-176.4" font-family="Helvetica,sans-Serif" font-size="12.00">binary_loan_status</text>
</g>
<!-- time_since_last_payment&#45;&gt;binary_loan_status -->
<g id="edge35" class="edge">
<title>time_since_last_payment&#45;&gt;binary_loan_status</title>
<path fill="none" stroke="black" d="M115.58,-431.76C117.35,-410.8 120,-374.33 120,-343 120,-343 120,-343 120,-287 120,-256.51 138.51,-226.35 154.44,-206.04"/>
<polygon fill="black" stroke="black" points="157.2,-208.19 160.82,-198.23 151.78,-203.76 157.2,-208.19"/>
</g>
<!-- percent_bc_gt_75&#45;&gt;total_bc_limit -->
<g id="edge59" class="edge">
<title>percent_bc_gt_75&#45;&gt;total_bc_limit</title>
<path fill="none" stroke="black" d="M581.13,-701.9C589.41,-696.99 597.58,-691.03 604,-684 627.34,-658.44 636,-647.61 636,-613 636,-613 636,-613 636,-503 636,-473.27 619.71,-442.94 605.73,-422.39"/>
<polygon fill="black" stroke="black" points="608.57,-420.34 599.93,-414.21 602.85,-424.39 608.57,-420.34"/>
</g>
<!-- percent_bc_gt_75&#45;&gt;bc_util -->
<g id="edge58" class="edge">
<title>percent_bc_gt_75&#45;&gt;bc_util</title>
<path fill="none" stroke="black" d="M534.8,-701.97C533.67,-699.31 532.48,-696.5 531.29,-693.68"/>
<polygon fill="black" stroke="black" points="534.41,-692.09 527.3,-684.24 527.97,-694.82 534.41,-692.09"/>
</g>
<!-- bc_util&#45;&gt;total_bc_limit -->
<g id="edge51" class="edge">
<title>bc_util&#45;&gt;total_bc_limit</title>
<path fill="none" stroke="black" d="M523.68,-647.83C527.83,-626.95 534,-590.56 534,-559 534,-559 534,-559 534,-503 534,-473.05 550.94,-442.75 565.49,-422.27"/>
<polygon fill="black" stroke="black" points="568.38,-424.24 571.52,-414.11 562.75,-420.07 568.38,-424.24"/>
</g>
<!-- bc_util&#45;&gt;all_util -->
<g id="edge50" class="edge">
<title>bc_util&#45;&gt;all_util</title>
<path fill="none" stroke="black" d="M492.95,-654.35C486.77,-652.1 480.2,-649.85 474,-648 439.91,-637.81 430.09,-640.19 396,-630 392.9,-629.07 389.71,-628.05 386.52,-626.97"/>
<polygon fill="black" stroke="black" points="387.64,-623.66 377.05,-623.65 385.32,-630.26 387.64,-623.66"/>
</g>
<!-- bc_util&#45;&gt;funded_amnt -->
<g id="edge53" class="edge">
<title>bc_util&#45;&gt;funded_amnt</title>
<path fill="none" stroke="black" d="M509.89,-647.64C498.93,-627.16 483,-591.75 483,-559 483,-559 483,-559 483,-395 483,-356.76 517.77,-328.62 549.24,-310.98"/>
<polygon fill="black" stroke="black" points="551.26,-313.87 558.43,-306.06 547.96,-307.7 551.26,-313.87"/>
</g>
<!-- bc_util&#45;&gt;dti -->
<g id="edge52" class="edge">
<title>bc_util&#45;&gt;dti</title>
<path fill="none" stroke="black" d="M547.17,-664.06C605.61,-660.43 738,-642.96 738,-559 738,-559 738,-559 738,-503 738,-393.7 733.92,-263.58 731.99,-208.16"/>
<polygon fill="black" stroke="black" points="735.48,-207.97 731.63,-198.1 728.49,-208.22 735.48,-207.97"/>
</g>
<!-- bc_util&#45;&gt;loan_age -->
<g id="edge54" class="edge">
<title>bc_util&#45;&gt;loan_age</title>
<path fill="none" stroke="black" d="M492.82,-648.28C483.62,-642.55 473.32,-636.06 464,-630 410.29,-595.09 348.84,-553.16 312.01,-527.83"/>
<polygon fill="black" stroke="black" points="313.87,-524.85 303.65,-522.06 309.9,-530.62 313.87,-524.85"/>
</g>
<!-- funded_amnt&#45;&gt;annual_inc -->
<g id="edge55" class="edge">
<title>funded_amnt&#45;&gt;annual_inc</title>
<path fill="none" stroke="black" d="M642.29,-279.71C699.91,-270.02 801.44,-252.93 860.92,-242.92"/>
<polygon fill="black" stroke="black" points="861.52,-246.37 870.8,-241.26 860.36,-239.47 861.52,-246.37"/>
</g>
<!-- funded_amnt&#45;&gt;term -->
<g id="edge56" class="edge">
<title>funded_amnt&#45;&gt;term</title>
<path fill="none" stroke="black" d="M572.48,-269.97C566.32,-266.02 559.68,-261.76 553.22,-257.61"/>
<polygon fill="black" stroke="black" points="554.89,-254.52 544.58,-252.06 551.11,-260.41 554.89,-254.52"/>
</g>
<!-- annual_inc&#45;&gt;dti -->
<g id="edge46" class="edge">
<title>annual_inc&#45;&gt;dti</title>
<path fill="none" stroke="black" d="M870.97,-221.68C864.65,-219.77 858.14,-217.82 852,-216 823.93,-207.68 792.13,-198.49 768.17,-191.62"/>
<polygon fill="black" stroke="black" points="769,-188.21 758.42,-188.82 767.07,-194.94 769,-188.21"/>
</g>
<!-- annual_inc&#45;&gt;emp_length -->
<g id="edge47" class="edge">
<title>annual_inc&#45;&gt;emp_length</title>
<path fill="none" stroke="black" d="M913.53,-215.85C925.52,-178.68 953.97,-90.44 968.35,-45.82"/>
<polygon fill="black" stroke="black" points="971.71,-46.82 971.44,-36.23 965.04,-44.68 971.71,-46.82"/>
</g>
<!-- annual_inc&#45;&gt;avg_cur_bal -->
<g id="edge45" class="edge">
<title>annual_inc&#45;&gt;avg_cur_bal</title>
<path fill="none" stroke="black" d="M889.52,-215.97C870.52,-198.46 840.76,-171.02 819.31,-151.25"/>
<polygon fill="black" stroke="black" points="821.54,-148.54 811.81,-144.34 816.79,-153.69 821.54,-148.54"/>
</g>
<!-- dti&#45;&gt;avg_cur_bal -->
<g id="edge44" class="edge">
<title>dti&#45;&gt;avg_cur_bal</title>
<path fill="none" stroke="black" d="M751.3,-161.97C755.54,-158.42 760.08,-154.61 764.55,-150.86"/>
<polygon fill="black" stroke="black" points="767.03,-153.35 772.44,-144.24 762.53,-147.99 767.03,-153.35"/>
</g>
<!-- home_ownership&#45;&gt;emp_length -->
<g id="edge49" class="edge">
<title>home_ownership&#45;&gt;emp_length</title>
<path fill="none" stroke="black" d="M915.12,-53.97C922.43,-49.84 930.35,-45.37 938,-41.04"/>
<polygon fill="black" stroke="black" points="939.82,-44.03 946.81,-36.06 936.38,-37.94 939.82,-44.03"/>
</g>
<!-- addr_state -->
<g id="node21" class="node">
<title>addr_state</title>
<path fill="#e1f5fe" stroke="black" d="M859.21,-36C859.21,-36 810.79,-36 810.79,-36 804.79,-36 798.79,-30 798.79,-24 798.79,-24 798.79,-12 798.79,-12 798.79,-6 804.79,0 810.79,0 810.79,0 859.21,0 859.21,0 865.21,0 871.21,-6 871.21,-12 871.21,-12 871.21,-24 871.21,-24 871.21,-30 865.21,-36 859.21,-36"/>
<text text-anchor="middle" x="835" y="-14.4" font-family="Helvetica,sans-Serif" font-size="12.00">addr_state</text>
</g>
<!-- home_ownership&#45;&gt;addr_state -->
<g id="edge48" class="edge">
<title>home_ownership&#45;&gt;addr_state</title>
<path fill="none" stroke="black" d="M868.63,-53.97C865.47,-50.69 862.1,-47.18 858.75,-43.7"/>
<polygon fill="black" stroke="black" points="861.03,-41.03 851.58,-36.24 855.99,-45.88 861.03,-41.03"/>
</g>
<!-- inq_last_12m&#45;&gt;loan_age -->
<g id="edge41" class="edge">
<title>inq_last_12m&#45;&gt;loan_age</title>
<path fill="none" stroke="black" d="M189.55,-539.97C204.59,-534.09 221.41,-527.52 236.38,-521.66"/>
<polygon fill="black" stroke="black" points="237.87,-524.84 245.9,-517.94 235.32,-518.32 237.87,-524.84"/>
</g>
<!-- term&#45;&gt;binary_loan_status -->
<g id="edge57" class="edge">
<title>term&#45;&gt;binary_loan_status</title>
<path fill="none" stroke="black" d="M490.96,-228.88C438.34,-220.85 320.77,-202.92 245.37,-191.43"/>
<polygon fill="black" stroke="black" points="245.9,-187.97 235.48,-189.92 244.84,-194.89 245.9,-187.97"/>
</g>
<!-- loan_age&#45;&gt;total_bc_limit -->
<g id="edge40" class="edge">
<title>loan_age&#45;&gt;total_bc_limit</title>
<path fill="none" stroke="black" d="M305.66,-485.91C331.97,-469.77 373.83,-446.01 413,-432 452,-418.05 498.04,-409.08 532.82,-403.71"/>
<polygon fill="black" stroke="black" points="533.4,-407.16 542.77,-402.23 532.36,-400.24 533.4,-407.16"/>
</g>
<!-- loan_age&#45;&gt;time_since_last_payment -->
<g id="edge37" class="edge">
<title>loan_age&#45;&gt;time_since_last_payment</title>
<path fill="none" stroke="black" d="M246.01,-492.6C226.5,-486.46 201.14,-478.46 177.87,-471.13"/>
<polygon fill="black" stroke="black" points="178.64,-467.7 168.05,-468.03 176.53,-474.38 178.64,-467.7"/>
</g>
<!-- loan_age&#45;&gt;dti -->
<g id="edge38" class="edge">
<title>loan_age&#45;&gt;dti</title>
<path fill="none" stroke="black" d="M279,-485.74C279,-464.76 279,-428.28 279,-397 279,-397 279,-397 279,-287 279,-252.39 282.73,-235.98 311,-216 341.88,-194.17 596.83,-184.77 693.78,-181.96"/>
<polygon fill="black" stroke="black" points="694.1,-185.46 703.99,-181.68 693.9,-178.46 694.1,-185.46"/>
</g>
<!-- loan_age&#45;&gt;binary_loan_status -->
<g id="edge39" class="edge">
<title>loan_age&#45;&gt;binary_loan_status</title>
<path fill="none" stroke="black" d="M258.36,-485.65C228.55,-458.53 177,-402.95 177,-343 177,-343 177,-343 177,-287 177,-260.24 177,-229.67 177,-208.26"/>
<polygon fill="black" stroke="black" points="180.5,-208.26 177,-198.26 173.5,-208.26 180.5,-208.26"/>
</g>
<!-- avg_cur_bal&#45;&gt;home_ownership -->
<g id="edge42" class="edge">
<title>avg_cur_bal&#45;&gt;home_ownership</title>
<path fill="none" stroke="black" d="M823.12,-107.97C830.43,-103.84 838.35,-99.37 846,-95.04"/>
<polygon fill="black" stroke="black" points="847.82,-98.03 854.81,-90.06 844.38,-91.94 847.82,-98.03"/>
</g>
<!-- avg_cur_bal&#45;&gt;addr_state -->
<g id="edge43" class="edge">
<title>avg_cur_bal&#45;&gt;addr_state</title>
<path fill="none" stroke="black" d="M798.83,-107.93C803.88,-93.46 811.52,-72.21 819,-54 820.12,-51.28 821.33,-48.45 822.56,-45.65"/>
<polygon fill="black" stroke="black" points="825.84,-46.89 826.76,-36.33 819.46,-44.01 825.84,-46.89"/>
</g>
<!-- num_tl_op_past_12m -->
<g id="node22" class="node">
<title>num_tl_op_past_12m</title>
<path fill="#e1f5fe" stroke="black" d="M554.91,-954C554.91,-954 447.09,-954 447.09,-954 441.09,-954 435.09,-948 435.09,-942 435.09,-942 435.09,-930 435.09,-930 435.09,-924 441.09,-918 447.09,-918 447.09,-918 554.91,-918 554.91,-918 560.91,-918 566.91,-924 566.91,-930 566.91,-930 566.91,-942 566.91,-942 566.91,-948 560.91,-954 554.91,-954"/>
<text text-anchor="middle" x="501" y="-932.4" font-family="Helvetica,sans-Serif" font-size="12.00">num_tl_op_past_12m</text>
</g>
<!-- num_tl_op_past_12m&#45;&gt;acc_open_past_24mths -->
<g id="edge60" class="edge">
<title>num_tl_op_past_12m&#45;&gt;acc_open_past_24mths</title>
<path fill="none" stroke="black" d="M482.99,-917.97C479.33,-914.51 475.4,-910.8 471.53,-907.14"/>
<polygon fill="black" stroke="black" points="473.91,-904.57 464.24,-900.24 469.1,-909.66 473.91,-904.57"/>
</g>
<!-- num_tl_op_past_12m&#45;&gt;mths_since_recent_bc -->
<g id="edge61" class="edge">
<title>num_tl_op_past_12m&#45;&gt;mths_since_recent_bc</title>
<path fill="none" stroke="black" d="M517.4,-917.76C521.93,-912.37 526.54,-906.2 530,-900 537.68,-886.24 543.46,-869.6 547.43,-855.9"/>
<polygon fill="black" stroke="black" points="550.85,-856.65 550.11,-846.08 544.1,-854.81 550.85,-856.65"/>
</g>
<!-- num_tl_op_past_12m&#45;&gt;mths_since_recent_inq -->
<g id="edge62" class="edge">
<title>num_tl_op_past_12m&#45;&gt;mths_since_recent_inq</title>
<path fill="none" stroke="black" d="M435.16,-925.89C383.5,-915.33 313.43,-892.92 271,-846 259.63,-833.42 251.5,-816.25 246.16,-801.94"/>
<polygon fill="black" stroke="black" points="249.34,-800.44 242.76,-792.14 242.73,-802.73 249.34,-800.44"/>
</g>
<!-- num_tl_op_past_12m&#45;&gt;open_act_il -->
<g id="edge65" class="edge">
<title>num_tl_op_past_12m&#45;&gt;open_act_il</title>
<path fill="none" stroke="black" d="M566.96,-927.83C609.92,-922.08 661.17,-912.84 679,-900 712.37,-875.97 732.19,-831.09 742.09,-802.16"/>
<polygon fill="black" stroke="black" points="745.53,-802.88 745.29,-792.28 738.88,-800.72 745.53,-802.88"/>
</g>
<!-- num_tl_op_past_12m&#45;&gt;percent_bc_gt_75 -->
<g id="edge64" class="edge">
<title>num_tl_op_past_12m&#45;&gt;percent_bc_gt_75</title>
<path fill="none" stroke="black" d="M547.76,-917.92C578.75,-903.84 616.92,-880.51 635,-846 655.25,-807.35 613.05,-767.77 579.06,-743.78"/>
<polygon fill="black" stroke="black" points="580.87,-740.78 570.64,-738.03 576.92,-746.56 580.87,-740.78"/>
</g>
<!-- num_tl_op_past_12m&#45;&gt;inq_last_12m -->
<g id="edge63" class="edge">
<title>num_tl_op_past_12m&#45;&gt;inq_last_12m</title>
<path fill="none" stroke="black" d="M435.06,-932.03C316.38,-924.88 79,-901.52 79,-829 79,-829 79,-829 79,-719 79,-668.29 107.98,-615.07 127.83,-584.58"/>
<polygon fill="black" stroke="black" points="130.75,-586.5 133.4,-576.24 124.93,-582.61 130.75,-586.5"/>
</g>
</g>
</svg>
