<?xml version="1.0" encoding="UTF-8" standalone="no"?>
<!DOCTYPE svg PUBLIC "-//W3C//DTD SVG 1.1//EN"
 "http://www.w3.org/Graphics/SVG/1.1/DTD/svg11.dtd">
<!-- Generated by graphviz version 2.50.0 (0)
 -->
<!-- Pages: 1 -->
<svg width="576pt" height="597pt"
 viewBox="0.00 0.00 576.00 597.04" xmlns="http://www.w3.org/2000/svg" xmlns:xlink="http://www.w3.org/1999/xlink">
<g id="graph0" class="graph" transform="scale(0.66 0.66) rotate(0) translate(4 904)">
<polygon fill="white" stroke="transparent" points="-4,4 -4,-904 872,-904 872,4 -4,4"/>
<!-- acc_open_past_24mths -->
<g id="node1" class="node">
<title>acc_open_past_24mths</title>
<path fill="#e1f5fe" stroke="black" d="M602.92,-684C602.92,-684 483.08,-684 483.08,-684 477.08,-684 471.08,-678 471.08,-672 471.08,-672 471.08,-660 471.08,-660 471.08,-654 477.08,-648 483.08,-648 483.08,-648 602.92,-648 602.92,-648 608.92,-648 614.92,-654 614.92,-660 614.92,-660 614.92,-672 614.92,-672 614.92,-678 608.92,-684 602.92,-684"/>
<text text-anchor="middle" x="543" y="-662.4" font-family="Helvetica,sans-Serif" font-size="12.00">acc_open_past_24mths</text>
</g>
<!-- dti -->
<g id="node2" class="node">
<title>dti</title>
<path fill="#e1f5fe" stroke="black" d="M322,-630C322,-630 292,-630 292,-630 286,-630 280,-624 280,-618 280,-618 280,-606 280,-606 280,-600 286,-594 292,-594 292,-594 322,-594 322,-594 328,-594 334,-600 334,-606 334,-606 334,-618 334,-618 334,-624 328,-630 322,-630"/>
<text text-anchor="middle" x="307" y="-608.4" font-family="Helvetica,sans-Serif" font-size="12.00">dti</text>
</g>
<!-- acc_open_past_24mths&#45;&gt;dti -->
<g id="edge1" class="edge">
<title>acc_open_past_24mths&#45;&gt;dti</title>
<path fill="none" stroke="black" d="M471.23,-649.19C429.32,-639.95 378.17,-628.68 344.21,-621.2"/>
<polygon fill="black" stroke="black" points="344.77,-617.74 334.25,-619 343.26,-624.57 344.77,-617.74"/>
</g>
<!-- annual_inc -->
<g id="node3" class="node">
<title>annual_inc</title>
<path fill="#e1f5fe" stroke="black" d="M151.05,-414C151.05,-414 100.95,-414 100.95,-414 94.95,-414 88.95,-408 88.95,-402 88.95,-402 88.95,-390 88.95,-390 88.95,-384 94.95,-378 100.95,-378 100.95,-378 151.05,-378 151.05,-378 157.05,-378 163.05,-384 163.05,-390 163.05,-390 163.05,-402 163.05,-402 163.05,-408 157.05,-414 151.05,-414"/>
<text text-anchor="middle" x="126" y="-392.4" font-family="Helvetica,sans-Serif" font-size="12.00">annual_inc</text>
</g>
<!-- dti&#45;&gt;annual_inc -->
<g id="edge2" class="edge">
<title>dti&#45;&gt;annual_inc</title>
<path fill="none" stroke="black" d="M290.72,-593.83C265.89,-567.41 217.4,-514.94 179,-468 167.02,-453.35 154.31,-436.38 144.34,-422.71"/>
<polygon fill="black" stroke="black" points="146.92,-420.3 138.22,-414.25 141.25,-424.41 146.92,-420.3"/>
</g>
<!-- open_act_il -->
<g id="node4" class="node">
<title>open_act_il</title>
<path fill="#e1f5fe" stroke="black" d="M154.88,-576C154.88,-576 101.12,-576 101.12,-576 95.12,-576 89.12,-570 89.12,-564 89.12,-564 89.12,-552 89.12,-552 89.12,-546 95.12,-540 101.12,-540 101.12,-540 154.88,-540 154.88,-540 160.88,-540 166.88,-546 166.88,-552 166.88,-552 166.88,-564 166.88,-564 166.88,-570 160.88,-576 154.88,-576"/>
<text text-anchor="middle" x="128" y="-554.4" font-family="Helvetica,sans-Serif" font-size="12.00">open_act_il</text>
</g>
<!-- dti&#45;&gt;open_act_il -->
<g id="edge3" class="edge">
<title>dti&#45;&gt;open_act_il</title>
<path fill="none" stroke="black" d="M279.6,-603.1C255.07,-596.03 218.12,-585.35 186,-576 183.02,-575.13 179.96,-574.24 176.87,-573.34"/>
<polygon fill="black" stroke="black" points="177.57,-569.9 166.99,-570.45 175.61,-576.62 177.57,-569.9"/>
</g>
<!-- avg_cur_bal -->
<g id="node5" class="node">
<title>avg_cur_bal</title>
<path fill="#e1f5fe" stroke="black" d="M260.88,-468C260.88,-468 203.12,-468 203.12,-468 197.12,-468 191.12,-462 191.12,-456 191.12,-456 191.12,-444 191.12,-444 191.12,-438 197.12,-432 203.12,-432 203.12,-432 260.88,-432 260.88,-432 266.88,-432 272.88,-438 272.88,-444 272.88,-444 272.88,-456 272.88,-456 272.88,-462 266.88,-468 260.88,-468"/>
<text text-anchor="middle" x="232" y="-446.4" font-family="Helvetica,sans-Serif" font-size="12.00">avg_cur_bal</text>
</g>
<!-- dti&#45;&gt;avg_cur_bal -->
<g id="edge4" class="edge">
<title>dti&#45;&gt;avg_cur_bal</title>
<path fill="none" stroke="black" d="M297.26,-593.69C294.21,-588.09 290.88,-581.83 288,-576 271.44,-542.5 254.11,-503.03 243.19,-477.54"/>
<polygon fill="black" stroke="black" points="246.34,-476 239.2,-468.17 239.9,-478.75 246.34,-476"/>
</g>
<!-- all_util -->
<g id="node6" class="node">
<title>all_util</title>
<path fill="#e1f5fe" stroke="black" d="M387,-522C387,-522 357,-522 357,-522 351,-522 345,-516 345,-510 345,-510 345,-498 345,-498 345,-492 351,-486 357,-486 357,-486 387,-486 387,-486 393,-486 399,-492 399,-498 399,-498 399,-510 399,-510 399,-516 393,-522 387,-522"/>
<text text-anchor="middle" x="372" y="-500.4" font-family="Helvetica,sans-Serif" font-size="12.00">all_util</text>
</g>
<!-- dti&#45;&gt;all_util -->
<g id="edge5" class="edge">
<title>dti&#45;&gt;all_util</title>
<path fill="none" stroke="black" d="M317.44,-593.97C327.85,-576.99 343.98,-550.7 356,-531.09"/>
<polygon fill="black" stroke="black" points="359.12,-532.7 361.37,-522.34 353.16,-529.04 359.12,-532.7"/>
</g>
<!-- funded_amnt -->
<g id="node7" class="node">
<title>funded_amnt</title>
<path fill="#e1f5fe" stroke="black" d="M410.05,-360C410.05,-360 347.95,-360 347.95,-360 341.95,-360 335.95,-354 335.95,-348 335.95,-348 335.95,-336 335.95,-336 335.95,-330 341.95,-324 347.95,-324 347.95,-324 410.05,-324 410.05,-324 416.05,-324 422.05,-330 422.05,-336 422.05,-336 422.05,-348 422.05,-348 422.05,-354 416.05,-360 410.05,-360"/>
<text text-anchor="middle" x="379" y="-338.4" font-family="Helvetica,sans-Serif" font-size="12.00">funded_amnt</text>
</g>
<!-- dti&#45;&gt;funded_amnt -->
<g id="edge6" class="edge">
<title>dti&#45;&gt;funded_amnt</title>
<path fill="none" stroke="black" d="M309.96,-593.88C314.29,-569.68 322.93,-524.15 333,-486 343.79,-445.13 359.36,-398.68 369.33,-370.11"/>
<polygon fill="black" stroke="black" points="372.72,-371.03 372.73,-360.43 366.11,-368.71 372.72,-371.03"/>
</g>
<!-- annual_inc&#45;&gt;funded_amnt -->
<g id="edge20" class="edge">
<title>annual_inc&#45;&gt;funded_amnt</title>
<path fill="none" stroke="black" d="M163.06,-387.38C205.99,-378.56 277.04,-363.96 325.85,-353.92"/>
<polygon fill="black" stroke="black" points="326.82,-357.3 335.91,-351.86 325.41,-350.44 326.82,-357.3"/>
</g>
<!-- emp_length -->
<g id="node17" class="node">
<title>emp_length</title>
<path fill="#e1f5fe" stroke="black" d="M78.21,-198C78.21,-198 23.79,-198 23.79,-198 17.79,-198 11.79,-192 11.79,-186 11.79,-186 11.79,-174 11.79,-174 11.79,-168 17.79,-162 23.79,-162 23.79,-162 78.21,-162 78.21,-162 84.21,-162 90.21,-168 90.21,-174 90.21,-174 90.21,-186 90.21,-186 90.21,-192 84.21,-198 78.21,-198"/>
<text text-anchor="middle" x="51" y="-176.4" font-family="Helvetica,sans-Serif" font-size="12.00">emp_length</text>
</g>
<!-- annual_inc&#45;&gt;emp_length -->
<g id="edge21" class="edge">
<title>annual_inc&#45;&gt;emp_length</title>
<path fill="none" stroke="black" d="M119.99,-377.85C106.96,-340.68 76.04,-252.44 60.4,-207.82"/>
<polygon fill="black" stroke="black" points="63.65,-206.51 57.04,-198.23 57.04,-208.83 63.65,-206.51"/>
</g>
<!-- open_act_il&#45;&gt;annual_inc -->
<g id="edge35" class="edge">
<title>open_act_il&#45;&gt;annual_inc</title>
<path fill="none" stroke="black" d="M127.79,-539.88C127.44,-512.35 126.76,-458.01 126.35,-424.85"/>
<polygon fill="black" stroke="black" points="129.84,-424.44 126.22,-414.48 122.84,-424.53 129.84,-424.44"/>
</g>
<!-- open_act_il&#45;&gt;avg_cur_bal -->
<g id="edge36" class="edge">
<title>open_act_il&#45;&gt;avg_cur_bal</title>
<path fill="none" stroke="black" d="M140.11,-539.99C151.19,-524.98 168.49,-502.92 186,-486 190.06,-482.08 194.56,-478.19 199.1,-474.51"/>
<polygon fill="black" stroke="black" points="201.52,-477.06 207.25,-468.15 197.22,-471.54 201.52,-477.06"/>
</g>
<!-- open_act_il&#45;&gt;all_util -->
<g id="edge34" class="edge">
<title>open_act_il&#45;&gt;all_util</title>
<path fill="none" stroke="black" d="M166.93,-548.7C213.12,-538.86 289.55,-522.57 334.91,-512.9"/>
<polygon fill="black" stroke="black" points="335.87,-516.28 344.92,-510.77 334.41,-509.43 335.87,-516.28"/>
</g>
<!-- avg_cur_bal&#45;&gt;annual_inc -->
<g id="edge16" class="edge">
<title>avg_cur_bal&#45;&gt;annual_inc</title>
<path fill="none" stroke="black" d="M197.29,-431.97C188.51,-427.66 178.96,-422.98 169.79,-418.48"/>
<polygon fill="black" stroke="black" points="171.31,-415.33 160.79,-414.06 168.22,-421.61 171.31,-415.33"/>
</g>
<!-- home_ownership -->
<g id="node15" class="node">
<title>home_ownership</title>
<path fill="#e1f5fe" stroke="black" d="M189.89,-252C189.89,-252 106.11,-252 106.11,-252 100.11,-252 94.11,-246 94.11,-240 94.11,-240 94.11,-228 94.11,-228 94.11,-222 100.11,-216 106.11,-216 106.11,-216 189.89,-216 189.89,-216 195.89,-216 201.89,-222 201.89,-228 201.89,-228 201.89,-240 201.89,-240 201.89,-246 195.89,-252 189.89,-252"/>
<text text-anchor="middle" x="148" y="-230.4" font-family="Helvetica,sans-Serif" font-size="12.00">home_ownership</text>
</g>
<!-- avg_cur_bal&#45;&gt;home_ownership -->
<g id="edge17" class="edge">
<title>avg_cur_bal&#45;&gt;home_ownership</title>
<path fill="none" stroke="black" d="M225.27,-431.85C210.68,-394.68 176.04,-306.44 158.53,-261.82"/>
<polygon fill="black" stroke="black" points="161.68,-260.26 154.76,-252.23 155.16,-262.82 161.68,-260.26"/>
</g>
<!-- all_util&#45;&gt;avg_cur_bal -->
<g id="edge9" class="edge">
<title>all_util&#45;&gt;avg_cur_bal</title>
<path fill="none" stroke="black" d="M344.67,-492.85C326.94,-486.26 303.3,-477.48 282.25,-469.66"/>
<polygon fill="black" stroke="black" points="283.38,-466.35 272.79,-466.15 280.94,-472.91 283.38,-466.35"/>
</g>
<!-- loan_age -->
<g id="node8" class="node">
<title>loan_age</title>
<path fill="#e1f5fe" stroke="black" d="M666.88,-360C666.88,-360 625.12,-360 625.12,-360 619.12,-360 613.12,-354 613.12,-348 613.12,-348 613.12,-336 613.12,-336 613.12,-330 619.12,-324 625.12,-324 625.12,-324 666.88,-324 666.88,-324 672.88,-324 678.88,-330 678.88,-336 678.88,-336 678.88,-348 678.88,-348 678.88,-354 672.88,-360 666.88,-360"/>
<text text-anchor="middle" x="646" y="-338.4" font-family="Helvetica,sans-Serif" font-size="12.00">loan_age</text>
</g>
<!-- all_util&#45;&gt;loan_age -->
<g id="edge7" class="edge">
<title>all_util&#45;&gt;loan_age</title>
<path fill="none" stroke="black" d="M399.27,-487.07C448.38,-458.4 551.78,-398.02 607.87,-365.27"/>
<polygon fill="black" stroke="black" points="609.91,-368.13 616.78,-360.06 606.38,-362.08 609.91,-368.13"/>
</g>
<!-- inq_last_12m -->
<g id="node9" class="node">
<title>inq_last_12m</title>
<path fill="#e1f5fe" stroke="black" d="M704.88,-468C704.88,-468 641.12,-468 641.12,-468 635.12,-468 629.12,-462 629.12,-456 629.12,-456 629.12,-444 629.12,-444 629.12,-438 635.12,-432 641.12,-432 641.12,-432 704.88,-432 704.88,-432 710.88,-432 716.88,-438 716.88,-444 716.88,-444 716.88,-456 716.88,-456 716.88,-462 710.88,-468 704.88,-468"/>
<text text-anchor="middle" x="673" y="-446.4" font-family="Helvetica,sans-Serif" font-size="12.00">inq_last_12m</text>
</g>
<!-- all_util&#45;&gt;inq_last_12m -->
<g id="edge8" class="edge">
<title>all_util&#45;&gt;inq_last_12m</title>
<path fill="none" stroke="black" d="M399.24,-498.29C448.83,-489.73 554.67,-471.44 619.25,-460.29"/>
<polygon fill="black" stroke="black" points="619.99,-463.71 629.24,-458.56 618.79,-456.81 619.99,-463.71"/>
</g>
<!-- total_rev_hi_lim -->
<g id="node10" class="node">
<title>total_rev_hi_lim</title>
<path fill="#e1f5fe" stroke="black" d="M301.04,-306C301.04,-306 224.96,-306 224.96,-306 218.96,-306 212.96,-300 212.96,-294 212.96,-294 212.96,-282 212.96,-282 212.96,-276 218.96,-270 224.96,-270 224.96,-270 301.04,-270 301.04,-270 307.04,-270 313.04,-276 313.04,-282 313.04,-282 313.04,-294 313.04,-294 313.04,-300 307.04,-306 301.04,-306"/>
<text text-anchor="middle" x="263" y="-284.4" font-family="Helvetica,sans-Serif" font-size="12.00">total_rev_hi_lim</text>
</g>
<!-- all_util&#45;&gt;total_rev_hi_lim -->
<g id="edge10" class="edge">
<title>all_util&#45;&gt;total_rev_hi_lim</title>
<path fill="none" stroke="black" d="M363.26,-485.85C344.25,-448.52 299.01,-359.69 276.37,-315.26"/>
<polygon fill="black" stroke="black" points="279.43,-313.55 271.78,-306.23 273.2,-316.73 279.43,-313.55"/>
</g>
<!-- funded_amnt&#45;&gt;total_rev_hi_lim -->
<g id="edge23" class="edge">
<title>funded_amnt&#45;&gt;total_rev_hi_lim</title>
<path fill="none" stroke="black" d="M341.02,-323.97C331.2,-319.57 320.52,-314.78 310.29,-310.2"/>
<polygon fill="black" stroke="black" points="311.62,-306.96 301.07,-306.06 308.76,-313.35 311.62,-306.96"/>
</g>
<!-- term -->
<g id="node14" class="node">
<title>term</title>
<path fill="#e1f5fe" stroke="black" d="M431,-306C431,-306 401,-306 401,-306 395,-306 389,-300 389,-294 389,-294 389,-282 389,-282 389,-276 395,-270 401,-270 401,-270 431,-270 431,-270 437,-270 443,-276 443,-282 443,-282 443,-294 443,-294 443,-300 437,-306 431,-306"/>
<text text-anchor="middle" x="416" y="-284.4" font-family="Helvetica,sans-Serif" font-size="12.00">term</text>
</g>
<!-- funded_amnt&#45;&gt;term -->
<g id="edge22" class="edge">
<title>funded_amnt&#45;&gt;term</title>
<path fill="none" stroke="black" d="M391.12,-323.97C393.26,-320.95 395.55,-317.75 397.82,-314.55"/>
<polygon fill="black" stroke="black" points="400.79,-316.42 403.73,-306.24 395.08,-312.36 400.79,-316.42"/>
</g>
<!-- purpose -->
<g id="node18" class="node">
<title>purpose</title>
<path fill="#e1f5fe" stroke="black" d="M314.87,-198C314.87,-198 279.13,-198 279.13,-198 273.13,-198 267.13,-192 267.13,-186 267.13,-186 267.13,-174 267.13,-174 267.13,-168 273.13,-162 279.13,-162 279.13,-162 314.87,-162 314.87,-162 320.87,-162 326.87,-168 326.87,-174 326.87,-174 326.87,-186 326.87,-186 326.87,-192 320.87,-198 314.87,-198"/>
<text text-anchor="middle" x="297" y="-176.4" font-family="Helvetica,sans-Serif" font-size="12.00">purpose</text>
</g>
<!-- funded_amnt&#45;&gt;purpose -->
<g id="edge24" class="edge">
<title>funded_amnt&#45;&gt;purpose</title>
<path fill="none" stroke="black" d="M373.45,-323.66C365.1,-298.8 347.93,-252.05 326,-216 323.94,-212.61 321.56,-209.2 319.08,-205.91"/>
<polygon fill="black" stroke="black" points="321.79,-203.68 312.81,-198.05 316.32,-208.05 321.79,-203.68"/>
</g>
<!-- time_since_last_payment -->
<g id="node11" class="node">
<title>time_since_last_payment</title>
<path fill="#e1f5fe" stroke="black" d="M709.9,-144C709.9,-144 582.1,-144 582.1,-144 576.1,-144 570.1,-138 570.1,-132 570.1,-132 570.1,-120 570.1,-120 570.1,-114 576.1,-108 582.1,-108 582.1,-108 709.9,-108 709.9,-108 715.9,-108 721.9,-114 721.9,-120 721.9,-120 721.9,-132 721.9,-132 721.9,-138 715.9,-144 709.9,-144"/>
<text text-anchor="middle" x="646" y="-122.4" font-family="Helvetica,sans-Serif" font-size="12.00">time_since_last_payment</text>
</g>
<!-- loan_age&#45;&gt;time_since_last_payment -->
<g id="edge11" class="edge">
<title>loan_age&#45;&gt;time_since_last_payment</title>
<path fill="none" stroke="black" d="M646,-323.85C646,-286.83 646,-199.18 646,-154.39"/>
<polygon fill="black" stroke="black" points="649.5,-154.23 646,-144.23 642.5,-154.23 649.5,-154.23"/>
</g>
<!-- binary_loan_status -->
<g id="node12" class="node">
<title>binary_loan_status</title>
<path fill="#e1f5fe" stroke="black" d="M603.23,-36C603.23,-36 510.77,-36 510.77,-36 504.77,-36 498.77,-30 498.77,-24 498.77,-24 498.77,-12 498.77,-12 498.77,-6 504.77,0 510.77,0 510.77,0 603.23,0 603.23,0 609.23,0 615.23,-6 615.23,-12 615.23,-12 615.23,-24 615.23,-24 615.23,-30 609.23,-36 603.23,-36"/>
<text text-anchor="middle" x="557" y="-14.4" font-family="Helvetica,sans-Serif" font-size="12.00">binary_loan_status</text>
</g>
<!-- loan_age&#45;&gt;binary_loan_status -->
<g id="edge12" class="edge">
<title>loan_age&#45;&gt;binary_loan_status</title>
<path fill="none" stroke="black" d="M613.03,-327.24C579.36,-310.74 532,-279.59 532,-235 532,-235 532,-235 532,-125 532,-97.54 540.05,-67.12 547.01,-45.94"/>
<polygon fill="black" stroke="black" points="550.37,-46.93 550.3,-36.33 543.75,-44.66 550.37,-46.93"/>
</g>
<!-- debt_settlement_flag -->
<g id="node13" class="node">
<title>debt_settlement_flag</title>
<path fill="#e1f5fe" stroke="black" d="M736.91,-90C736.91,-90 633.09,-90 633.09,-90 627.09,-90 621.09,-84 621.09,-78 621.09,-78 621.09,-66 621.09,-66 621.09,-60 627.09,-54 633.09,-54 633.09,-54 736.91,-54 736.91,-54 742.91,-54 748.91,-60 748.91,-66 748.91,-66 748.91,-78 748.91,-78 748.91,-84 742.91,-90 736.91,-90"/>
<text text-anchor="middle" x="685" y="-68.4" font-family="Helvetica,sans-Serif" font-size="12.00">debt_settlement_flag</text>
</g>
<!-- loan_age&#45;&gt;debt_settlement_flag -->
<g id="edge13" class="edge">
<title>loan_age&#45;&gt;debt_settlement_flag</title>
<path fill="none" stroke="black" d="M678.97,-327.24C712.64,-310.74 760,-279.59 760,-235 760,-235 760,-235 760,-179 760,-145.4 754.36,-134.74 734,-108 730.84,-103.84 727.04,-99.98 722.98,-96.44"/>
<polygon fill="black" stroke="black" points="724.95,-93.54 714.94,-90.08 720.6,-99.03 724.95,-93.54"/>
</g>
<!-- loan_age&#45;&gt;term -->
<g id="edge14" class="edge">
<title>loan_age&#45;&gt;term</title>
<path fill="none" stroke="black" d="M613.05,-333.55C570.64,-323.96 497.17,-307.35 452.93,-297.35"/>
<polygon fill="black" stroke="black" points="453.67,-293.93 443.15,-295.14 452.13,-300.76 453.67,-293.93"/>
</g>
<!-- inq_last_12m&#45;&gt;loan_age -->
<g id="edge15" class="edge">
<title>inq_last_12m&#45;&gt;loan_age</title>
<path fill="none" stroke="black" d="M668.66,-431.97C664.42,-415.3 657.88,-389.65 652.92,-370.16"/>
<polygon fill="black" stroke="black" points="656.28,-369.17 650.42,-360.34 649.49,-370.9 656.28,-369.17"/>
</g>
<!-- total_rev_hi_lim&#45;&gt;home_ownership -->
<g id="edge19" class="edge">
<title>total_rev_hi_lim&#45;&gt;home_ownership</title>
<path fill="none" stroke="black" d="M225.34,-269.97C215.62,-265.57 205.02,-260.78 194.88,-256.2"/>
<polygon fill="black" stroke="black" points="196.29,-253 185.74,-252.06 193.41,-259.37 196.29,-253"/>
</g>
<!-- total_bc_limit -->
<g id="node16" class="node">
<title>total_bc_limit</title>
<path fill="#e1f5fe" stroke="black" d="M301.03,-252C301.03,-252 238.97,-252 238.97,-252 232.97,-252 226.97,-246 226.97,-240 226.97,-240 226.97,-228 226.97,-228 226.97,-222 232.97,-216 238.97,-216 238.97,-216 301.03,-216 301.03,-216 307.03,-216 313.03,-222 313.03,-228 313.03,-228 313.03,-240 313.03,-240 313.03,-246 307.03,-252 301.03,-252"/>
<text text-anchor="middle" x="270" y="-230.4" font-family="Helvetica,sans-Serif" font-size="12.00">total_bc_limit</text>
</g>
<!-- total_rev_hi_lim&#45;&gt;total_bc_limit -->
<g id="edge18" class="edge">
<title>total_rev_hi_lim&#45;&gt;total_bc_limit</title>
<path fill="none" stroke="black" d="M265.29,-269.97C265.63,-267.49 265.98,-264.87 266.33,-262.24"/>
<polygon fill="black" stroke="black" points="269.81,-262.62 267.68,-252.24 262.88,-261.69 269.81,-262.62"/>
</g>
<!-- time_since_last_payment&#45;&gt;binary_loan_status -->
<g id="edge52" class="edge">
<title>time_since_last_payment&#45;&gt;binary_loan_status</title>
<path fill="none" stroke="black" d="M626.53,-107.82C620.67,-102.34 614.38,-96.1 609,-90 596.4,-75.71 583.74,-58.5 574.06,-44.6"/>
<polygon fill="black" stroke="black" points="576.71,-42.27 568.17,-36.01 570.94,-46.23 576.71,-42.27"/>
</g>
<!-- time_since_last_payment&#45;&gt;debt_settlement_flag -->
<g id="edge53" class="edge">
<title>time_since_last_payment&#45;&gt;debt_settlement_flag</title>
<path fill="none" stroke="black" d="M658.77,-107.97C661.1,-104.86 663.58,-101.56 666.05,-98.27"/>
<polygon fill="black" stroke="black" points="668.87,-100.34 672.07,-90.24 663.27,-96.14 668.87,-100.34"/>
</g>
<!-- debt_settlement_flag&#45;&gt;binary_loan_status -->
<g id="edge54" class="edge">
<title>debt_settlement_flag&#45;&gt;binary_loan_status</title>
<path fill="none" stroke="black" d="M643.09,-53.97C632.04,-49.48 619.99,-44.59 608.49,-39.92"/>
<polygon fill="black" stroke="black" points="609.59,-36.59 599.01,-36.06 606.95,-43.07 609.59,-36.59"/>
</g>
<!-- int_rate% -->
<g id="node23" class="node">
<title>int_rate%</title>
<path fill="#e1f5fe" stroke="black" d="M482.2,-198C482.2,-198 439.8,-198 439.8,-198 433.8,-198 427.8,-192 427.8,-186 427.8,-186 427.8,-174 427.8,-174 427.8,-168 433.8,-162 439.8,-162 439.8,-162 482.2,-162 482.2,-162 488.2,-162 494.2,-168 494.2,-174 494.2,-174 494.2,-186 494.2,-186 494.2,-192 488.2,-198 482.2,-198"/>
<text text-anchor="middle" x="461" y="-176.4" font-family="Helvetica,sans-Serif" font-size="12.00">int_rate%</text>
</g>
<!-- term&#45;&gt;int_rate% -->
<g id="edge37" class="edge">
<title>term&#45;&gt;int_rate%</title>
<path fill="none" stroke="black" d="M423.23,-269.97C430.37,-253.15 441.4,-227.17 449.7,-207.62"/>
<polygon fill="black" stroke="black" points="452.95,-208.91 453.64,-198.34 446.51,-206.18 452.95,-208.91"/>
</g>
<!-- home_ownership&#45;&gt;emp_length -->
<g id="edge25" class="edge">
<title>home_ownership&#45;&gt;emp_length</title>
<path fill="none" stroke="black" d="M116.24,-215.97C108.45,-211.8 100.01,-207.27 91.86,-202.9"/>
<polygon fill="black" stroke="black" points="93.3,-199.71 82.83,-198.06 89.99,-205.87 93.3,-199.71"/>
</g>
<!-- home_ownership&#45;&gt;purpose -->
<g id="edge26" class="edge">
<title>home_ownership&#45;&gt;purpose</title>
<path fill="none" stroke="black" d="M196.79,-215.97C216.5,-209.09 238.95,-201.26 257.6,-194.75"/>
<polygon fill="black" stroke="black" points="258.96,-197.98 267.24,-191.38 256.65,-191.37 258.96,-197.98"/>
</g>
<!-- total_bc_limit&#45;&gt;int_rate% -->
<g id="edge51" class="edge">
<title>total_bc_limit&#45;&gt;int_rate%</title>
<path fill="none" stroke="black" d="M313.34,-221.2C344.63,-212.68 386.68,-201.23 417.91,-192.73"/>
<polygon fill="black" stroke="black" points="418.91,-196.09 427.64,-190.08 417.07,-189.33 418.91,-196.09"/>
</g>
<!-- bc_util -->
<g id="node19" class="node">
<title>bc_util</title>
<path fill="#e1f5fe" stroke="black" d="M383,-846C383,-846 353,-846 353,-846 347,-846 341,-840 341,-834 341,-834 341,-822 341,-822 341,-816 347,-810 353,-810 353,-810 383,-810 383,-810 389,-810 395,-816 395,-822 395,-822 395,-834 395,-834 395,-840 389,-846 383,-846"/>
<text text-anchor="middle" x="368" y="-824.4" font-family="Helvetica,sans-Serif" font-size="12.00">bc_util</text>
</g>
<!-- bc_util&#45;&gt;dti -->
<g id="edge30" class="edge">
<title>bc_util&#45;&gt;dti</title>
<path fill="none" stroke="black" d="M363.11,-809.85C352.54,-772.75 327.47,-684.81 314.73,-640.1"/>
<polygon fill="black" stroke="black" points="318.02,-638.89 311.91,-630.23 311.29,-640.81 318.02,-638.89"/>
</g>
<!-- bc_util&#45;&gt;all_util -->
<g id="edge27" class="edge">
<title>bc_util&#45;&gt;all_util</title>
<path fill="none" stroke="black" d="M368.22,-809.69C368.87,-756.71 370.86,-596.5 371.66,-532.17"/>
<polygon fill="black" stroke="black" points="375.16,-532.05 371.79,-522.01 368.16,-531.96 375.16,-532.05"/>
</g>
<!-- bc_util&#45;&gt;total_rev_hi_lim -->
<g id="edge28" class="edge">
<title>bc_util&#45;&gt;total_rev_hi_lim</title>
<path fill="none" stroke="black" d="M340.97,-822.26C264.31,-807.12 51,-752.44 51,-613 51,-613 51,-613 51,-395 51,-326.79 139.89,-302.47 202.56,-293.8"/>
<polygon fill="black" stroke="black" points="203.28,-297.23 212.76,-292.49 202.4,-290.29 203.28,-297.23"/>
</g>
<!-- mths_since_recent_bc -->
<g id="node20" class="node">
<title>mths_since_recent_bc</title>
<path fill="#e1f5fe" stroke="black" d="M597.06,-792C597.06,-792 484.94,-792 484.94,-792 478.94,-792 472.94,-786 472.94,-780 472.94,-780 472.94,-768 472.94,-768 472.94,-762 478.94,-756 484.94,-756 484.94,-756 597.06,-756 597.06,-756 603.06,-756 609.06,-762 609.06,-768 609.06,-768 609.06,-780 609.06,-780 609.06,-786 603.06,-792 597.06,-792"/>
<text text-anchor="middle" x="541" y="-770.4" font-family="Helvetica,sans-Serif" font-size="12.00">mths_since_recent_bc</text>
</g>
<!-- bc_util&#45;&gt;mths_since_recent_bc -->
<g id="edge29" class="edge">
<title>bc_util&#45;&gt;mths_since_recent_bc</title>
<path fill="none" stroke="black" d="M395.03,-818.88C416.28,-812.49 446.82,-803.31 474.47,-795"/>
<polygon fill="black" stroke="black" points="475.54,-798.33 484.11,-792.1 473.53,-791.63 475.54,-798.33"/>
</g>
<!-- mths_since_recent_bc&#45;&gt;acc_open_past_24mths -->
<g id="edge32" class="edge">
<title>mths_since_recent_bc&#45;&gt;acc_open_past_24mths</title>
<path fill="none" stroke="black" d="M541.32,-755.97C541.63,-739.38 542.12,-713.88 542.48,-694.43"/>
<polygon fill="black" stroke="black" points="545.98,-694.4 542.67,-684.34 538.98,-694.27 545.98,-694.4"/>
</g>
<!-- num_tl_op_past_12m -->
<g id="node21" class="node">
<title>num_tl_op_past_12m</title>
<path fill="#e1f5fe" stroke="black" d="M749.91,-738C749.91,-738 642.09,-738 642.09,-738 636.09,-738 630.09,-732 630.09,-726 630.09,-726 630.09,-714 630.09,-714 630.09,-708 636.09,-702 642.09,-702 642.09,-702 749.91,-702 749.91,-702 755.91,-702 761.91,-708 761.91,-714 761.91,-714 761.91,-726 761.91,-726 761.91,-732 755.91,-738 749.91,-738"/>
<text text-anchor="middle" x="696" y="-716.4" font-family="Helvetica,sans-Serif" font-size="12.00">num_tl_op_past_12m</text>
</g>
<!-- mths_since_recent_bc&#45;&gt;num_tl_op_past_12m -->
<g id="edge31" class="edge">
<title>mths_since_recent_bc&#45;&gt;num_tl_op_past_12m</title>
<path fill="none" stroke="black" d="M591.75,-755.97C605.67,-751.3 620.9,-746.2 635.31,-741.36"/>
<polygon fill="black" stroke="black" points="636.77,-744.56 645.13,-738.06 634.54,-737.93 636.77,-744.56"/>
</g>
<!-- mths_since_recent_inq -->
<g id="node22" class="node">
<title>mths_since_recent_inq</title>
<path fill="#e1f5fe" stroke="black" d="M766.9,-684C766.9,-684 651.1,-684 651.1,-684 645.1,-684 639.1,-678 639.1,-672 639.1,-672 639.1,-660 639.1,-660 639.1,-654 645.1,-648 651.1,-648 651.1,-648 766.9,-648 766.9,-648 772.9,-648 778.9,-654 778.9,-660 778.9,-660 778.9,-672 778.9,-672 778.9,-678 772.9,-684 766.9,-684"/>
<text text-anchor="middle" x="709" y="-662.4" font-family="Helvetica,sans-Serif" font-size="12.00">mths_since_recent_inq</text>
</g>
<!-- mths_since_recent_bc&#45;&gt;mths_since_recent_inq -->
<g id="edge33" class="edge">
<title>mths_since_recent_bc&#45;&gt;mths_since_recent_inq</title>
<path fill="none" stroke="black" d="M556.04,-755.82C570.58,-740.06 593.91,-716.97 618,-702 626.41,-696.77 635.73,-692.11 645.1,-688.02"/>
<polygon fill="black" stroke="black" points="646.57,-691.2 654.46,-684.13 643.88,-684.74 646.57,-691.2"/>
</g>
<!-- num_tl_op_past_12m&#45;&gt;acc_open_past_24mths -->
<g id="edge38" class="edge">
<title>num_tl_op_past_12m&#45;&gt;acc_open_past_24mths</title>
<path fill="none" stroke="black" d="M645.9,-701.97C632.16,-697.3 617.13,-692.2 602.91,-687.36"/>
<polygon fill="black" stroke="black" points="603.8,-683.97 593.21,-684.06 601.55,-690.6 603.8,-683.97"/>
</g>
<!-- num_tl_op_past_12m&#45;&gt;inq_last_12m -->
<g id="edge40" class="edge">
<title>num_tl_op_past_12m&#45;&gt;inq_last_12m</title>
<path fill="none" stroke="black" d="M761.77,-703.35C772.52,-698.51 782.81,-692.21 791,-684 814.74,-660.21 817,-646.6 817,-613 817,-613 817,-613 817,-557 817,-510.44 767.58,-482.06 726.64,-466.53"/>
<polygon fill="black" stroke="black" points="727.58,-463.15 716.99,-463.04 725.2,-469.73 727.58,-463.15"/>
</g>
<!-- num_tl_op_past_12m&#45;&gt;mths_since_recent_inq -->
<g id="edge39" class="edge">
<title>num_tl_op_past_12m&#45;&gt;mths_since_recent_inq</title>
<path fill="none" stroke="black" d="M700.26,-701.97C700.9,-699.4 701.58,-696.69 702.26,-693.96"/>
<polygon fill="black" stroke="black" points="705.66,-694.79 704.69,-684.24 698.87,-693.1 705.66,-694.79"/>
</g>
<!-- mths_since_recent_inq&#45;&gt;inq_last_12m -->
<g id="edge41" class="edge">
<title>mths_since_recent_inq&#45;&gt;inq_last_12m</title>
<path fill="none" stroke="black" d="M706.11,-647.85C699.87,-610.75 685.08,-522.81 677.56,-478.1"/>
<polygon fill="black" stroke="black" points="681.01,-477.51 675.9,-468.23 674.11,-478.67 681.01,-477.51"/>
</g>
<!-- int_rate%&#45;&gt;time_since_last_payment -->
<g id="edge50" class="edge">
<title>int_rate%&#45;&gt;time_since_last_payment</title>
<path fill="none" stroke="black" d="M494.5,-169.58C517.14,-163.22 547.86,-154.59 575.72,-146.75"/>
<polygon fill="black" stroke="black" points="576.76,-150.1 585.44,-144.02 574.87,-143.36 576.76,-150.1"/>
</g>
<!-- int_rate%&#45;&gt;binary_loan_status -->
<g id="edge49" class="edge">
<title>int_rate%&#45;&gt;binary_loan_status</title>
<path fill="none" stroke="black" d="M465.18,-161.84C471.99,-136.38 487.37,-87.96 513,-54 515.93,-50.11 519.39,-46.41 523.06,-42.97"/>
<polygon fill="black" stroke="black" points="525.51,-45.49 530.79,-36.31 520.93,-40.19 525.51,-45.49"/>
</g>
<!-- percent_bc_gt_75 -->
<g id="node24" class="node">
<title>percent_bc_gt_75</title>
<path fill="#e1f5fe" stroke="black" d="M477.08,-900C477.08,-900 388.92,-900 388.92,-900 382.92,-900 376.92,-894 376.92,-888 376.92,-888 376.92,-876 376.92,-876 376.92,-870 382.92,-864 388.92,-864 388.92,-864 477.08,-864 477.08,-864 483.08,-864 489.08,-870 489.08,-876 489.08,-876 489.08,-888 489.08,-888 489.08,-894 483.08,-900 477.08,-900"/>
<text text-anchor="middle" x="433" y="-878.4" font-family="Helvetica,sans-Serif" font-size="12.00">percent_bc_gt_75</text>
</g>
<!-- percent_bc_gt_75&#45;&gt;open_act_il -->
<g id="edge44" class="edge">
<title>percent_bc_gt_75&#45;&gt;open_act_il</title>
<path fill="none" stroke="black" d="M376.85,-874.74C282.41,-862.62 102,-832.02 102,-775 102,-775 102,-775 102,-665 102,-637.48 110.37,-607.07 117.61,-585.9"/>
<polygon fill="black" stroke="black" points="120.97,-586.91 121.03,-576.31 114.38,-584.55 120.97,-586.91"/>
</g>
<!-- percent_bc_gt_75&#45;&gt;loan_age -->
<g id="edge48" class="edge">
<title>percent_bc_gt_75&#45;&gt;loan_age</title>
<path fill="none" stroke="black" d="M489.42,-879.01C607.12,-873.33 868,-852.05 868,-775 868,-775 868,-775 868,-449 868,-370.51 753.6,-350.09 689.05,-344.81"/>
<polygon fill="black" stroke="black" points="688.98,-341.3 678.76,-344.06 688.48,-348.28 688.98,-341.3"/>
</g>
<!-- percent_bc_gt_75&#45;&gt;total_bc_limit -->
<g id="edge45" class="edge">
<title>percent_bc_gt_75&#45;&gt;total_bc_limit</title>
<path fill="none" stroke="black" d="M376.84,-878.96C259.68,-873.18 0,-851.72 0,-775 0,-775 0,-775 0,-341 0,-329.46 138.58,-280.05 217.18,-252.95"/>
<polygon fill="black" stroke="black" points="218.6,-256.16 226.92,-249.6 216.32,-249.54 218.6,-256.16"/>
</g>
<!-- percent_bc_gt_75&#45;&gt;bc_util -->
<g id="edge42" class="edge">
<title>percent_bc_gt_75&#45;&gt;bc_util</title>
<path fill="none" stroke="black" d="M411.72,-863.97C407.16,-860.33 402.27,-856.42 397.47,-852.58"/>
<polygon fill="black" stroke="black" points="399.55,-849.76 389.55,-846.24 395.18,-855.22 399.55,-849.76"/>
</g>
<!-- percent_bc_gt_75&#45;&gt;mths_since_recent_bc -->
<g id="edge46" class="edge">
<title>percent_bc_gt_75&#45;&gt;mths_since_recent_bc</title>
<path fill="none" stroke="black" d="M450.35,-863.97C468.12,-846.53 495.9,-819.26 516.03,-799.51"/>
<polygon fill="black" stroke="black" points="518.65,-801.84 523.33,-792.34 513.74,-796.85 518.65,-801.84"/>
</g>
<!-- percent_bc_gt_75&#45;&gt;num_tl_op_past_12m -->
<g id="edge47" class="edge">
<title>percent_bc_gt_75&#45;&gt;num_tl_op_past_12m</title>
<path fill="none" stroke="black" d="M479.92,-863.87C519.61,-848.25 577.02,-822.93 622,-792 641.19,-778.81 660.08,-760.56 673.98,-745.87"/>
<polygon fill="black" stroke="black" points="676.92,-747.85 681.15,-738.13 671.79,-743.09 676.92,-747.85"/>
</g>
<!-- percent_bc_gt_75&#45;&gt;int_rate% -->
<g id="edge43" class="edge">
<title>percent_bc_gt_75&#45;&gt;int_rate%</title>
<path fill="none" stroke="black" d="M433,-863.74C433,-842.76 433,-806.28 433,-775 433,-775 433,-775 433,-719 433,-535.16 447.21,-489.63 456,-306 457.6,-272.55 459.09,-234.05 460.02,-208.72"/>
<polygon fill="black" stroke="black" points="463.53,-208.51 460.39,-198.39 456.53,-208.26 463.53,-208.51"/>
</g>
</g>
</svg>
