<?xml version="1.0" encoding="UTF-8" standalone="no"?>
<!DOCTYPE svg PUBLIC "-//W3C//DTD SVG 1.1//EN"
 "http://www.w3.org/Graphics/SVG/1.1/DTD/svg11.dtd">
<!-- Generated by graphviz version 2.50.0 (0)
 -->
<!-- Pages: 1 -->
<svg width="522pt" height="720pt"
 viewBox="0.00 0.00 521.66 720.00" xmlns="http://www.w3.org/2000/svg" xmlns:xlink="http://www.w3.org/1999/xlink">
<g id="graph0" class="graph" transform="scale(0.75 0.75) rotate(0) translate(4 958)">
<polygon fill="white" stroke="transparent" points="-4,4 -4,-958 693,-958 693,4 -4,4"/>
<!-- acc_open_past_24mths -->
<g id="node1" class="node">
<title>acc_open_past_24mths</title>
<path fill="#e1f5fe" stroke="black" d="M443.92,-414C443.92,-414 324.08,-414 324.08,-414 318.08,-414 312.08,-408 312.08,-402 312.08,-402 312.08,-390 312.08,-390 312.08,-384 318.08,-378 324.08,-378 324.08,-378 443.92,-378 443.92,-378 449.92,-378 455.92,-384 455.92,-390 455.92,-390 455.92,-402 455.92,-402 455.92,-408 449.92,-414 443.92,-414"/>
<text text-anchor="middle" x="384" y="-392.4" font-family="Helvetica,sans-Serif" font-size="12.00">acc_open_past_24mths</text>
</g>
<!-- num_tl_op_past_12m -->
<g id="node2" class="node">
<title>num_tl_op_past_12m</title>
<path fill="#e1f5fe" stroke="black" d="M364.91,-306C364.91,-306 257.09,-306 257.09,-306 251.09,-306 245.09,-300 245.09,-294 245.09,-294 245.09,-282 245.09,-282 245.09,-276 251.09,-270 257.09,-270 257.09,-270 364.91,-270 364.91,-270 370.91,-270 376.91,-276 376.91,-282 376.91,-282 376.91,-294 376.91,-294 376.91,-300 370.91,-306 364.91,-306"/>
<text text-anchor="middle" x="311" y="-284.4" font-family="Helvetica,sans-Serif" font-size="12.00">num_tl_op_past_12m</text>
</g>
<!-- acc_open_past_24mths&#45;&gt;num_tl_op_past_12m -->
<g id="edge1" class="edge">
<title>acc_open_past_24mths&#45;&gt;num_tl_op_past_12m</title>
<path fill="none" stroke="black" d="M354.62,-377.88C347.79,-372.81 341.05,-366.79 336,-360 326.43,-347.13 320.29,-330.29 316.49,-316.23"/>
<polygon fill="black" stroke="black" points="319.8,-315.03 314.02,-306.14 313,-316.69 319.8,-315.03"/>
</g>
<!-- mths_since_recent_bc -->
<g id="node3" class="node">
<title>mths_since_recent_bc</title>
<path fill="#e1f5fe" stroke="black" d="M473.06,-360C473.06,-360 360.94,-360 360.94,-360 354.94,-360 348.94,-354 348.94,-348 348.94,-348 348.94,-336 348.94,-336 348.94,-330 354.94,-324 360.94,-324 360.94,-324 473.06,-324 473.06,-324 479.06,-324 485.06,-330 485.06,-336 485.06,-336 485.06,-348 485.06,-348 485.06,-354 479.06,-360 473.06,-360"/>
<text text-anchor="middle" x="417" y="-338.4" font-family="Helvetica,sans-Serif" font-size="12.00">mths_since_recent_bc</text>
</g>
<!-- acc_open_past_24mths&#45;&gt;mths_since_recent_bc -->
<g id="edge2" class="edge">
<title>acc_open_past_24mths&#45;&gt;mths_since_recent_bc</title>
<path fill="none" stroke="black" d="M394.81,-377.97C396.67,-375.04 398.64,-371.93 400.61,-368.83"/>
<polygon fill="black" stroke="black" points="403.65,-370.56 406.06,-360.24 397.74,-366.81 403.65,-370.56"/>
</g>
<!-- mths_since_recent_inq -->
<g id="node4" class="node">
<title>mths_since_recent_inq</title>
<path fill="#e1f5fe" stroke="black" d="M440.9,-252C440.9,-252 325.1,-252 325.1,-252 319.1,-252 313.1,-246 313.1,-240 313.1,-240 313.1,-228 313.1,-228 313.1,-222 319.1,-216 325.1,-216 325.1,-216 440.9,-216 440.9,-216 446.9,-216 452.9,-222 452.9,-228 452.9,-228 452.9,-240 452.9,-240 452.9,-246 446.9,-252 440.9,-252"/>
<text text-anchor="middle" x="383" y="-230.4" font-family="Helvetica,sans-Serif" font-size="12.00">mths_since_recent_inq</text>
</g>
<!-- num_tl_op_past_12m&#45;&gt;mths_since_recent_inq -->
<g id="edge3" class="edge">
<title>num_tl_op_past_12m&#45;&gt;mths_since_recent_inq</title>
<path fill="none" stroke="black" d="M334.58,-269.97C339.74,-266.24 345.3,-262.23 350.74,-258.3"/>
<polygon fill="black" stroke="black" points="353.07,-260.94 359.13,-252.24 348.97,-255.26 353.07,-260.94"/>
</g>
<!-- inq_last_12m -->
<g id="node5" class="node">
<title>inq_last_12m</title>
<path fill="#e1f5fe" stroke="black" d="M306.88,-198C306.88,-198 243.12,-198 243.12,-198 237.12,-198 231.12,-192 231.12,-186 231.12,-186 231.12,-174 231.12,-174 231.12,-168 237.12,-162 243.12,-162 243.12,-162 306.88,-162 306.88,-162 312.88,-162 318.88,-168 318.88,-174 318.88,-174 318.88,-186 318.88,-186 318.88,-192 312.88,-198 306.88,-198"/>
<text text-anchor="middle" x="275" y="-176.4" font-family="Helvetica,sans-Serif" font-size="12.00">inq_last_12m</text>
</g>
<!-- num_tl_op_past_12m&#45;&gt;inq_last_12m -->
<g id="edge4" class="edge">
<title>num_tl_op_past_12m&#45;&gt;inq_last_12m</title>
<path fill="none" stroke="black" d="M305.22,-269.97C299.53,-253.22 290.76,-227.41 284.13,-207.89"/>
<polygon fill="black" stroke="black" points="287.42,-206.68 280.89,-198.34 280.79,-208.93 287.42,-206.68"/>
</g>
<!-- mths_since_recent_bc&#45;&gt;num_tl_op_past_12m -->
<g id="edge6" class="edge">
<title>mths_since_recent_bc&#45;&gt;num_tl_op_past_12m</title>
<path fill="none" stroke="black" d="M382.29,-323.97C373.51,-319.66 363.96,-314.98 354.79,-310.48"/>
<polygon fill="black" stroke="black" points="356.31,-307.33 345.79,-306.06 353.22,-313.61 356.31,-307.33"/>
</g>
<!-- mths_since_recent_bc&#45;&gt;mths_since_recent_inq -->
<g id="edge5" class="edge">
<title>mths_since_recent_bc&#45;&gt;mths_since_recent_inq</title>
<path fill="none" stroke="black" d="M411.54,-323.97C406.17,-307.22 397.89,-281.41 391.63,-261.89"/>
<polygon fill="black" stroke="black" points="394.95,-260.79 388.56,-252.34 388.28,-262.93 394.95,-260.79"/>
</g>
<!-- mths_since_recent_inq&#45;&gt;inq_last_12m -->
<g id="edge36" class="edge">
<title>mths_since_recent_inq&#45;&gt;inq_last_12m</title>
<path fill="none" stroke="black" d="M347.64,-215.97C338.69,-211.66 328.96,-206.98 319.61,-202.48"/>
<polygon fill="black" stroke="black" points="320.97,-199.25 310.44,-198.06 317.93,-205.56 320.97,-199.25"/>
</g>
<!-- loan_age -->
<g id="node7" class="node">
<title>loan_age</title>
<path fill="#e1f5fe" stroke="black" d="M295.88,-144C295.88,-144 254.12,-144 254.12,-144 248.12,-144 242.12,-138 242.12,-132 242.12,-132 242.12,-120 242.12,-120 242.12,-114 248.12,-108 254.12,-108 254.12,-108 295.88,-108 295.88,-108 301.88,-108 307.88,-114 307.88,-120 307.88,-120 307.88,-132 307.88,-132 307.88,-138 301.88,-144 295.88,-144"/>
<text text-anchor="middle" x="275" y="-122.4" font-family="Helvetica,sans-Serif" font-size="12.00">loan_age</text>
</g>
<!-- inq_last_12m&#45;&gt;loan_age -->
<g id="edge16" class="edge">
<title>inq_last_12m&#45;&gt;loan_age</title>
<path fill="none" stroke="black" d="M275,-161.97C275,-159.57 275,-157.06 275,-154.52"/>
<polygon fill="black" stroke="black" points="278.5,-154.24 275,-144.24 271.5,-154.24 278.5,-154.24"/>
</g>
<!-- all_util -->
<g id="node6" class="node">
<title>all_util</title>
<path fill="#e1f5fe" stroke="black" d="M85,-684C85,-684 55,-684 55,-684 49,-684 43,-678 43,-672 43,-672 43,-660 43,-660 43,-654 49,-648 55,-648 55,-648 85,-648 85,-648 91,-648 97,-654 97,-660 97,-660 97,-672 97,-672 97,-678 91,-684 85,-684"/>
<text text-anchor="middle" x="70" y="-662.4" font-family="Helvetica,sans-Serif" font-size="12.00">all_util</text>
</g>
<!-- all_util&#45;&gt;inq_last_12m -->
<g id="edge9" class="edge">
<title>all_util&#45;&gt;inq_last_12m</title>
<path fill="none" stroke="black" d="M65.01,-647.91C59.38,-627.1 51,-590.78 51,-559 51,-559 51,-559 51,-287 51,-212.06 154.7,-190.03 220.98,-183.6"/>
<polygon fill="black" stroke="black" points="221.62,-187.05 231.28,-182.69 221.01,-180.08 221.62,-187.05"/>
</g>
<!-- all_util&#45;&gt;loan_age -->
<g id="edge7" class="edge">
<title>all_util&#45;&gt;loan_age</title>
<path fill="none" stroke="black" d="M49.38,-647.78C28.73,-628.5 0,-595.17 0,-559 0,-559 0,-559 0,-233 0,-183.85 154.89,-148.77 232.18,-134.32"/>
<polygon fill="black" stroke="black" points="232.9,-137.75 242.1,-132.5 231.63,-130.87 232.9,-137.75"/>
</g>
<!-- open_act_il -->
<g id="node8" class="node">
<title>open_act_il</title>
<path fill="#e1f5fe" stroke="black" d="M307.88,-630C307.88,-630 254.12,-630 254.12,-630 248.12,-630 242.12,-624 242.12,-618 242.12,-618 242.12,-606 242.12,-606 242.12,-600 248.12,-594 254.12,-594 254.12,-594 307.88,-594 307.88,-594 313.88,-594 319.88,-600 319.88,-606 319.88,-606 319.88,-618 319.88,-618 319.88,-624 313.88,-630 307.88,-630"/>
<text text-anchor="middle" x="281" y="-608.4" font-family="Helvetica,sans-Serif" font-size="12.00">open_act_il</text>
</g>
<!-- all_util&#45;&gt;open_act_il -->
<g id="edge8" class="edge">
<title>all_util&#45;&gt;open_act_il</title>
<path fill="none" stroke="black" d="M97.15,-658.31C131.26,-649.9 190.4,-635.33 232.38,-624.98"/>
<polygon fill="black" stroke="black" points="233.26,-628.37 242.13,-622.58 231.58,-621.57 233.26,-628.37"/>
</g>
<!-- bc_util -->
<g id="node9" class="node">
<title>bc_util</title>
<path fill="#e1f5fe" stroke="black" d="M428,-576C428,-576 398,-576 398,-576 392,-576 386,-570 386,-564 386,-564 386,-552 386,-552 386,-546 392,-540 398,-540 398,-540 428,-540 428,-540 434,-540 440,-546 440,-552 440,-552 440,-564 440,-564 440,-570 434,-576 428,-576"/>
<text text-anchor="middle" x="413" y="-554.4" font-family="Helvetica,sans-Serif" font-size="12.00">bc_util</text>
</g>
<!-- all_util&#45;&gt;bc_util -->
<g id="edge10" class="edge">
<title>all_util&#45;&gt;bc_util</title>
<path fill="none" stroke="black" d="M97.01,-650.72C128.23,-634.75 181.57,-609.16 230,-594 279.38,-578.55 338.5,-568.74 375.91,-563.56"/>
<polygon fill="black" stroke="black" points="376.41,-567.02 385.86,-562.22 375.48,-560.08 376.41,-567.02"/>
</g>
<!-- time_since_last_payment -->
<g id="node10" class="node">
<title>time_since_last_payment</title>
<path fill="#e1f5fe" stroke="black" d="M536.9,-90C536.9,-90 409.1,-90 409.1,-90 403.1,-90 397.1,-84 397.1,-78 397.1,-78 397.1,-66 397.1,-66 397.1,-60 403.1,-54 409.1,-54 409.1,-54 536.9,-54 536.9,-54 542.9,-54 548.9,-60 548.9,-66 548.9,-66 548.9,-78 548.9,-78 548.9,-84 542.9,-90 536.9,-90"/>
<text text-anchor="middle" x="473" y="-68.4" font-family="Helvetica,sans-Serif" font-size="12.00">time_since_last_payment</text>
</g>
<!-- loan_age&#45;&gt;time_since_last_payment -->
<g id="edge11" class="edge">
<title>loan_age&#45;&gt;time_since_last_payment</title>
<path fill="none" stroke="black" d="M307.7,-116.41C332.28,-109.96 366.95,-100.85 398.19,-92.65"/>
<polygon fill="black" stroke="black" points="399.42,-95.94 408.2,-90.02 397.64,-89.17 399.42,-95.94"/>
</g>
<!-- binary_loan_status -->
<g id="node11" class="node">
<title>binary_loan_status</title>
<path fill="#e1f5fe" stroke="black" d="M437.23,-36C437.23,-36 344.77,-36 344.77,-36 338.77,-36 332.77,-30 332.77,-24 332.77,-24 332.77,-12 332.77,-12 332.77,-6 338.77,0 344.77,0 344.77,0 437.23,0 437.23,0 443.23,0 449.23,-6 449.23,-12 449.23,-12 449.23,-24 449.23,-24 449.23,-30 443.23,-36 437.23,-36"/>
<text text-anchor="middle" x="391" y="-14.4" font-family="Helvetica,sans-Serif" font-size="12.00">binary_loan_status</text>
</g>
<!-- loan_age&#45;&gt;binary_loan_status -->
<g id="edge12" class="edge">
<title>loan_age&#45;&gt;binary_loan_status</title>
<path fill="none" stroke="black" d="M247.31,-107.87C241.53,-102.87 236.22,-96.88 233,-90 226.21,-75.51 222.98,-66.48 233,-54 244.45,-39.73 285.16,-30.92 322.38,-25.71"/>
<polygon fill="black" stroke="black" points="323.3,-29.12 332.76,-24.33 322.38,-22.18 323.3,-29.12"/>
</g>
<!-- debt_settlement_flag -->
<g id="node12" class="node">
<title>debt_settlement_flag</title>
<path fill="#e1f5fe" stroke="black" d="M360.91,-90C360.91,-90 257.09,-90 257.09,-90 251.09,-90 245.09,-84 245.09,-78 245.09,-78 245.09,-66 245.09,-66 245.09,-60 251.09,-54 257.09,-54 257.09,-54 360.91,-54 360.91,-54 366.91,-54 372.91,-60 372.91,-66 372.91,-66 372.91,-78 372.91,-78 372.91,-84 366.91,-90 360.91,-90"/>
<text text-anchor="middle" x="309" y="-68.4" font-family="Helvetica,sans-Serif" font-size="12.00">debt_settlement_flag</text>
</g>
<!-- loan_age&#45;&gt;debt_settlement_flag -->
<g id="edge13" class="edge">
<title>loan_age&#45;&gt;debt_settlement_flag</title>
<path fill="none" stroke="black" d="M286.13,-107.97C288.05,-105.04 290.08,-101.93 292.11,-98.83"/>
<polygon fill="black" stroke="black" points="295.18,-100.53 297.73,-90.24 289.32,-96.7 295.18,-100.53"/>
</g>
<!-- open_act_il&#45;&gt;bc_util -->
<g id="edge14" class="edge">
<title>open_act_il&#45;&gt;bc_util</title>
<path fill="none" stroke="black" d="M319.89,-595.68C337.73,-588.65 358.76,-580.37 376.32,-573.45"/>
<polygon fill="black" stroke="black" points="377.66,-576.68 385.68,-569.76 375.09,-570.17 377.66,-576.68"/>
</g>
<!-- emp_length -->
<g id="node13" class="node">
<title>emp_length</title>
<path fill="#e1f5fe" stroke="black" d="M261.21,-576C261.21,-576 206.79,-576 206.79,-576 200.79,-576 194.79,-570 194.79,-564 194.79,-564 194.79,-552 194.79,-552 194.79,-546 200.79,-540 206.79,-540 206.79,-540 261.21,-540 261.21,-540 267.21,-540 273.21,-546 273.21,-552 273.21,-552 273.21,-564 273.21,-564 273.21,-570 267.21,-576 261.21,-576"/>
<text text-anchor="middle" x="234" y="-554.4" font-family="Helvetica,sans-Serif" font-size="12.00">emp_length</text>
</g>
<!-- open_act_il&#45;&gt;emp_length -->
<g id="edge15" class="edge">
<title>open_act_il&#45;&gt;emp_length</title>
<path fill="none" stroke="black" d="M265.61,-593.97C262.64,-590.69 259.47,-587.18 256.33,-583.7"/>
<polygon fill="black" stroke="black" points="258.89,-581.31 249.59,-576.24 253.69,-586.01 258.89,-581.31"/>
</g>
<!-- bc_util&#45;&gt;acc_open_past_24mths -->
<g id="edge18" class="edge">
<title>bc_util&#45;&gt;acc_open_past_24mths</title>
<path fill="none" stroke="black" d="M409.9,-539.88C404.89,-512.23 394.97,-457.54 388.97,-424.42"/>
<polygon fill="black" stroke="black" points="392.4,-423.7 387.17,-414.48 385.51,-424.95 392.4,-423.7"/>
</g>
<!-- percent_bc_gt_75 -->
<g id="node14" class="node">
<title>percent_bc_gt_75</title>
<path fill="#e1f5fe" stroke="black" d="M537.08,-522C537.08,-522 448.92,-522 448.92,-522 442.92,-522 436.92,-516 436.92,-510 436.92,-510 436.92,-498 436.92,-498 436.92,-492 442.92,-486 448.92,-486 448.92,-486 537.08,-486 537.08,-486 543.08,-486 549.08,-492 549.08,-498 549.08,-498 549.08,-510 549.08,-510 549.08,-516 543.08,-522 537.08,-522"/>
<text text-anchor="middle" x="493" y="-500.4" font-family="Helvetica,sans-Serif" font-size="12.00">percent_bc_gt_75</text>
</g>
<!-- bc_util&#45;&gt;percent_bc_gt_75 -->
<g id="edge17" class="edge">
<title>bc_util&#45;&gt;percent_bc_gt_75</title>
<path fill="none" stroke="black" d="M439.19,-539.97C445.27,-536.02 451.84,-531.76 458.22,-527.61"/>
<polygon fill="black" stroke="black" points="460.27,-530.45 466.75,-522.06 456.45,-524.58 460.27,-530.45"/>
</g>
<!-- time_since_last_payment&#45;&gt;binary_loan_status -->
<g id="edge48" class="edge">
<title>time_since_last_payment&#45;&gt;binary_loan_status</title>
<path fill="none" stroke="black" d="M446.15,-53.97C439.92,-50.02 433.19,-45.76 426.65,-41.61"/>
<polygon fill="black" stroke="black" points="428.23,-38.46 417.91,-36.06 424.48,-44.38 428.23,-38.46"/>
</g>
<!-- debt_settlement_flag&#45;&gt;binary_loan_status -->
<g id="edge49" class="edge">
<title>debt_settlement_flag&#45;&gt;binary_loan_status</title>
<path fill="none" stroke="black" d="M335.85,-53.97C342.08,-50.02 348.81,-45.76 355.35,-41.61"/>
<polygon fill="black" stroke="black" points="357.52,-44.38 364.09,-36.06 353.77,-38.46 357.52,-44.38"/>
</g>
<!-- home_ownership -->
<g id="node18" class="node">
<title>home_ownership</title>
<path fill="#e1f5fe" stroke="black" d="M275.89,-522C275.89,-522 192.11,-522 192.11,-522 186.11,-522 180.11,-516 180.11,-510 180.11,-510 180.11,-498 180.11,-498 180.11,-492 186.11,-486 192.11,-486 192.11,-486 275.89,-486 275.89,-486 281.89,-486 287.89,-492 287.89,-498 287.89,-498 287.89,-510 287.89,-510 287.89,-516 281.89,-522 275.89,-522"/>
<text text-anchor="middle" x="234" y="-500.4" font-family="Helvetica,sans-Serif" font-size="12.00">home_ownership</text>
</g>
<!-- emp_length&#45;&gt;home_ownership -->
<g id="edge25" class="edge">
<title>emp_length&#45;&gt;home_ownership</title>
<path fill="none" stroke="black" d="M234,-539.97C234,-537.57 234,-535.06 234,-532.52"/>
<polygon fill="black" stroke="black" points="237.5,-532.24 234,-522.24 230.5,-532.24 237.5,-532.24"/>
</g>
<!-- percent_bc_gt_75&#45;&gt;mths_since_recent_bc -->
<g id="edge30" class="edge">
<title>percent_bc_gt_75&#45;&gt;mths_since_recent_bc</title>
<path fill="none" stroke="black" d="M493.5,-485.71C493.43,-460.08 490.07,-411.43 468,-378 465.26,-373.85 461.84,-370.05 458.08,-366.62"/>
<polygon fill="black" stroke="black" points="459.97,-363.65 449.99,-360.09 455.57,-369.1 459.97,-363.65"/>
</g>
<!-- int_rate% -->
<g id="node21" class="node">
<title>int_rate%</title>
<path fill="#e1f5fe" stroke="black" d="M588.2,-468C588.2,-468 545.8,-468 545.8,-468 539.8,-468 533.8,-462 533.8,-456 533.8,-456 533.8,-444 533.8,-444 533.8,-438 539.8,-432 545.8,-432 545.8,-432 588.2,-432 588.2,-432 594.2,-432 600.2,-438 600.2,-444 600.2,-444 600.2,-456 600.2,-456 600.2,-462 594.2,-468 588.2,-468"/>
<text text-anchor="middle" x="567" y="-446.4" font-family="Helvetica,sans-Serif" font-size="12.00">int_rate%</text>
</g>
<!-- percent_bc_gt_75&#45;&gt;int_rate% -->
<g id="edge29" class="edge">
<title>percent_bc_gt_75&#45;&gt;int_rate%</title>
<path fill="none" stroke="black" d="M517.23,-485.97C522.72,-482.11 528.65,-477.95 534.42,-473.89"/>
<polygon fill="black" stroke="black" points="536.55,-476.68 542.72,-468.06 532.52,-470.95 536.55,-476.68"/>
</g>
<!-- annual_inc -->
<g id="node15" class="node">
<title>annual_inc</title>
<path fill="#e1f5fe" stroke="black" d="M256.05,-792C256.05,-792 205.95,-792 205.95,-792 199.95,-792 193.95,-786 193.95,-780 193.95,-780 193.95,-768 193.95,-768 193.95,-762 199.95,-756 205.95,-756 205.95,-756 256.05,-756 256.05,-756 262.05,-756 268.05,-762 268.05,-768 268.05,-768 268.05,-780 268.05,-780 268.05,-786 262.05,-792 256.05,-792"/>
<text text-anchor="middle" x="231" y="-770.4" font-family="Helvetica,sans-Serif" font-size="12.00">annual_inc</text>
</g>
<!-- annual_inc&#45;&gt;open_act_il -->
<g id="edge21" class="edge">
<title>annual_inc&#45;&gt;open_act_il</title>
<path fill="none" stroke="black" d="M236.35,-755.88C244.99,-728.23 262.08,-673.54 272.43,-640.42"/>
<polygon fill="black" stroke="black" points="275.89,-641.07 275.54,-630.48 269.21,-638.99 275.89,-641.07"/>
</g>
<!-- annual_inc&#45;&gt;emp_length -->
<g id="edge20" class="edge">
<title>annual_inc&#45;&gt;emp_length</title>
<path fill="none" stroke="black" d="M230.2,-755.95C228.85,-724.1 226.62,-653.42 230,-594 230.15,-591.44 230.35,-588.77 230.59,-586.11"/>
<polygon fill="black" stroke="black" points="234.09,-586.37 231.66,-576.06 227.12,-585.63 234.09,-586.37"/>
</g>
<!-- avg_cur_bal -->
<g id="node16" class="node">
<title>avg_cur_bal</title>
<path fill="#e1f5fe" stroke="black" d="M153.88,-738C153.88,-738 96.12,-738 96.12,-738 90.12,-738 84.12,-732 84.12,-726 84.12,-726 84.12,-714 84.12,-714 84.12,-708 90.12,-702 96.12,-702 96.12,-702 153.88,-702 153.88,-702 159.88,-702 165.88,-708 165.88,-714 165.88,-714 165.88,-726 165.88,-726 165.88,-732 159.88,-738 153.88,-738"/>
<text text-anchor="middle" x="125" y="-716.4" font-family="Helvetica,sans-Serif" font-size="12.00">avg_cur_bal</text>
</g>
<!-- annual_inc&#45;&gt;avg_cur_bal -->
<g id="edge19" class="edge">
<title>annual_inc&#45;&gt;avg_cur_bal</title>
<path fill="none" stroke="black" d="M196.29,-755.97C187.51,-751.66 177.96,-746.98 168.79,-742.48"/>
<polygon fill="black" stroke="black" points="170.31,-739.33 159.79,-738.06 167.22,-745.61 170.31,-739.33"/>
</g>
<!-- funded_amnt -->
<g id="node17" class="node">
<title>funded_amnt</title>
<path fill="#e1f5fe" stroke="black" d="M418.05,-738C418.05,-738 355.95,-738 355.95,-738 349.95,-738 343.95,-732 343.95,-726 343.95,-726 343.95,-714 343.95,-714 343.95,-708 349.95,-702 355.95,-702 355.95,-702 418.05,-702 418.05,-702 424.05,-702 430.05,-708 430.05,-714 430.05,-714 430.05,-726 430.05,-726 430.05,-732 424.05,-738 418.05,-738"/>
<text text-anchor="middle" x="387" y="-716.4" font-family="Helvetica,sans-Serif" font-size="12.00">funded_amnt</text>
</g>
<!-- annual_inc&#45;&gt;funded_amnt -->
<g id="edge22" class="edge">
<title>annual_inc&#45;&gt;funded_amnt</title>
<path fill="none" stroke="black" d="M268.37,-760.54C288.06,-753.98 312.56,-745.81 334.17,-738.61"/>
<polygon fill="black" stroke="black" points="335.49,-741.86 343.87,-735.38 333.27,-735.22 335.49,-741.86"/>
</g>
<!-- avg_cur_bal&#45;&gt;all_util -->
<g id="edge24" class="edge">
<title>avg_cur_bal&#45;&gt;all_util</title>
<path fill="none" stroke="black" d="M106.99,-701.97C103.33,-698.51 99.4,-694.8 95.53,-691.14"/>
<polygon fill="black" stroke="black" points="97.91,-688.57 88.24,-684.24 93.1,-693.66 97.91,-688.57"/>
</g>
<!-- avg_cur_bal&#45;&gt;home_ownership -->
<g id="edge23" class="edge">
<title>avg_cur_bal&#45;&gt;home_ownership</title>
<path fill="none" stroke="black" d="M126.7,-701.76C130.81,-667.71 143.95,-590.75 182,-540 185.18,-535.76 189.04,-531.86 193.2,-528.33"/>
<polygon fill="black" stroke="black" points="195.65,-530.86 201.47,-522.01 191.4,-525.3 195.65,-530.86"/>
</g>
<!-- purpose -->
<g id="node19" class="node">
<title>purpose</title>
<path fill="#e1f5fe" stroke="black" d="M306.87,-468C306.87,-468 271.13,-468 271.13,-468 265.13,-468 259.13,-462 259.13,-456 259.13,-456 259.13,-444 259.13,-444 259.13,-438 265.13,-432 271.13,-432 271.13,-432 306.87,-432 306.87,-432 312.87,-432 318.87,-438 318.87,-444 318.87,-444 318.87,-456 318.87,-456 318.87,-462 312.87,-468 306.87,-468"/>
<text text-anchor="middle" x="289" y="-446.4" font-family="Helvetica,sans-Serif" font-size="12.00">purpose</text>
</g>
<!-- funded_amnt&#45;&gt;purpose -->
<g id="edge26" class="edge">
<title>funded_amnt&#45;&gt;purpose</title>
<path fill="none" stroke="black" d="M380.72,-701.83C364.09,-656.35 318.82,-532.54 298.77,-477.73"/>
<polygon fill="black" stroke="black" points="301.95,-476.22 295.23,-468.03 295.37,-478.62 301.95,-476.22"/>
</g>
<!-- term -->
<g id="node20" class="node">
<title>term</title>
<path fill="#e1f5fe" stroke="black" d="M609,-630C609,-630 579,-630 579,-630 573,-630 567,-624 567,-618 567,-618 567,-606 567,-606 567,-600 573,-594 579,-594 579,-594 609,-594 609,-594 615,-594 621,-600 621,-606 621,-606 621,-618 621,-618 621,-624 615,-630 609,-630"/>
<text text-anchor="middle" x="594" y="-608.4" font-family="Helvetica,sans-Serif" font-size="12.00">term</text>
</g>
<!-- funded_amnt&#45;&gt;term -->
<g id="edge27" class="edge">
<title>funded_amnt&#45;&gt;term</title>
<path fill="none" stroke="black" d="M420.26,-701.97C457.77,-682.76 518.57,-651.62 557.4,-631.74"/>
<polygon fill="black" stroke="black" points="559.47,-634.62 566.77,-626.94 556.28,-628.39 559.47,-634.62"/>
</g>
<!-- home_ownership&#45;&gt;purpose -->
<g id="edge28" class="edge">
<title>home_ownership&#45;&gt;purpose</title>
<path fill="none" stroke="black" d="M252.01,-485.97C255.67,-482.51 259.6,-478.8 263.47,-475.14"/>
<polygon fill="black" stroke="black" points="265.9,-477.66 270.76,-468.24 261.09,-472.57 265.9,-477.66"/>
</g>
<!-- term&#45;&gt;time_since_last_payment -->
<g id="edge35" class="edge">
<title>term&#45;&gt;time_since_last_payment</title>
<path fill="none" stroke="black" d="M606.02,-593.9C619.05,-573.66 638,-538.47 638,-505 638,-505 638,-505 638,-287 638,-202.47 556.26,-130.92 507.85,-95.95"/>
<polygon fill="black" stroke="black" points="509.69,-92.97 499.51,-90.05 505.65,-98.69 509.69,-92.97"/>
</g>
<!-- term&#45;&gt;int_rate% -->
<g id="edge34" class="edge">
<title>term&#45;&gt;int_rate%</title>
<path fill="none" stroke="black" d="M591.11,-593.88C586.45,-566.23 577.22,-511.54 571.63,-478.42"/>
<polygon fill="black" stroke="black" points="575.07,-477.76 569.95,-468.48 568.16,-478.93 575.07,-477.76"/>
</g>
<!-- int_rate%&#45;&gt;acc_open_past_24mths -->
<g id="edge38" class="edge">
<title>int_rate%&#45;&gt;acc_open_past_24mths</title>
<path fill="none" stroke="black" d="M533.43,-439.46C511.2,-433.14 481.2,-424.62 453.92,-416.87"/>
<polygon fill="black" stroke="black" points="454.58,-413.42 444.01,-414.05 452.67,-420.15 454.58,-413.42"/>
</g>
<!-- int_rate%&#45;&gt;binary_loan_status -->
<g id="edge37" class="edge">
<title>int_rate%&#45;&gt;binary_loan_status</title>
<path fill="none" stroke="black" d="M572.25,-431.93C578.18,-411.13 587,-374.84 587,-343 587,-343 587,-343 587,-125 587,-91.4 586.45,-75.94 561,-54 545.69,-40.81 499.76,-31.83 459.49,-26.27"/>
<polygon fill="black" stroke="black" points="459.77,-22.78 449.4,-24.93 458.85,-29.72 459.77,-22.78"/>
</g>
<!-- dti -->
<g id="node22" class="node">
<title>dti</title>
<path fill="#e1f5fe" stroke="black" d="M246,-846C246,-846 216,-846 216,-846 210,-846 204,-840 204,-834 204,-834 204,-822 204,-822 204,-816 210,-810 216,-810 216,-810 246,-810 246,-810 252,-810 258,-816 258,-822 258,-822 258,-834 258,-834 258,-840 252,-846 246,-846"/>
<text text-anchor="middle" x="231" y="-824.4" font-family="Helvetica,sans-Serif" font-size="12.00">dti</text>
</g>
<!-- dti&#45;&gt;open_act_il -->
<g id="edge31" class="edge">
<title>dti&#45;&gt;open_act_il</title>
<path fill="none" stroke="black" d="M258.21,-814.41C267.07,-808.86 275.93,-801.42 281,-792 307.01,-743.69 297.14,-676.86 288.51,-640.05"/>
<polygon fill="black" stroke="black" points="291.84,-638.93 286.03,-630.07 285.05,-640.62 291.84,-638.93"/>
</g>
<!-- dti&#45;&gt;annual_inc -->
<g id="edge33" class="edge">
<title>dti&#45;&gt;annual_inc</title>
<path fill="none" stroke="black" d="M231,-809.97C231,-807.57 231,-805.06 231,-802.52"/>
<polygon fill="black" stroke="black" points="234.5,-802.24 231,-792.24 227.5,-802.24 234.5,-802.24"/>
</g>
<!-- dti&#45;&gt;avg_cur_bal -->
<g id="edge32" class="edge">
<title>dti&#45;&gt;avg_cur_bal</title>
<path fill="none" stroke="black" d="M203.94,-810.2C196.17,-804.82 187.93,-798.55 181,-792 166.54,-778.34 152.67,-760.81 142.36,-746.59"/>
<polygon fill="black" stroke="black" points="145.06,-744.35 136.42,-738.22 139.36,-748.4 145.06,-744.35"/>
</g>
<!-- total_bc_limit -->
<g id="node23" class="node">
<title>total_bc_limit</title>
<path fill="#e1f5fe" stroke="black" d="M560.03,-954C560.03,-954 497.97,-954 497.97,-954 491.97,-954 485.97,-948 485.97,-942 485.97,-942 485.97,-930 485.97,-930 485.97,-924 491.97,-918 497.97,-918 497.97,-918 560.03,-918 560.03,-918 566.03,-918 572.03,-924 572.03,-930 572.03,-930 572.03,-942 572.03,-942 572.03,-948 566.03,-954 560.03,-954"/>
<text text-anchor="middle" x="529" y="-932.4" font-family="Helvetica,sans-Serif" font-size="12.00">total_bc_limit</text>
</g>
<!-- total_bc_limit&#45;&gt;bc_util -->
<g id="edge41" class="edge">
<title>total_bc_limit&#45;&gt;bc_util</title>
<path fill="none" stroke="black" d="M511.68,-917.98C493.65,-898.35 468,-864.25 468,-829 468,-829 468,-829 468,-773 468,-703.51 440.46,-625.21 424.36,-585.36"/>
<polygon fill="black" stroke="black" points="427.58,-584 420.53,-576.09 421.11,-586.67 427.58,-584"/>
</g>
<!-- total_bc_limit&#45;&gt;percent_bc_gt_75 -->
<g id="edge42" class="edge">
<title>total_bc_limit&#45;&gt;percent_bc_gt_75</title>
<path fill="none" stroke="black" d="M529,-917.74C529,-896.76 529,-860.28 529,-829 529,-829 529,-829 529,-611 529,-582.65 517.31,-552.18 507.25,-531.22"/>
<polygon fill="black" stroke="black" points="510.25,-529.4 502.65,-522.03 503.99,-532.53 510.25,-529.4"/>
</g>
<!-- total_bc_limit&#45;&gt;term -->
<g id="edge43" class="edge">
<title>total_bc_limit&#45;&gt;term</title>
<path fill="none" stroke="black" d="M545.47,-917.82C562.61,-898.05 587,-863.82 587,-829 587,-829 587,-829 587,-719 587,-692.18 589.26,-661.62 591.21,-640.23"/>
<polygon fill="black" stroke="black" points="594.7,-640.52 592.16,-630.24 587.73,-639.86 594.7,-640.52"/>
</g>
<!-- total_bc_limit&#45;&gt;int_rate% -->
<g id="edge40" class="edge">
<title>total_bc_limit&#45;&gt;int_rate%</title>
<path fill="none" stroke="black" d="M572.3,-925.99C619.68,-913.3 689,-885.15 689,-829 689,-829 689,-829 689,-557 689,-513.73 644.73,-484.12 609.52,-467.42"/>
<polygon fill="black" stroke="black" points="610.89,-464.2 600.34,-463.25 608,-470.58 610.89,-464.2"/>
</g>
<!-- total_rev_hi_lim -->
<g id="node24" class="node">
<title>total_rev_hi_lim</title>
<path fill="#e1f5fe" stroke="black" d="M334.04,-900C334.04,-900 257.96,-900 257.96,-900 251.96,-900 245.96,-894 245.96,-888 245.96,-888 245.96,-876 245.96,-876 245.96,-870 251.96,-864 257.96,-864 257.96,-864 334.04,-864 334.04,-864 340.04,-864 346.04,-870 346.04,-876 346.04,-876 346.04,-888 346.04,-888 346.04,-894 340.04,-900 334.04,-900"/>
<text text-anchor="middle" x="296" y="-878.4" font-family="Helvetica,sans-Serif" font-size="12.00">total_rev_hi_lim</text>
</g>
<!-- total_bc_limit&#45;&gt;total_rev_hi_lim -->
<g id="edge39" class="edge">
<title>total_bc_limit&#45;&gt;total_rev_hi_lim</title>
<path fill="none" stroke="black" d="M485.72,-925.34C449.25,-917.2 396.67,-905.47 356.11,-896.42"/>
<polygon fill="black" stroke="black" points="356.86,-893 346.34,-894.23 355.34,-899.83 356.86,-893"/>
</g>
<!-- total_rev_hi_lim&#45;&gt;all_util -->
<g id="edge45" class="edge">
<title>total_rev_hi_lim&#45;&gt;all_util</title>
<path fill="none" stroke="black" d="M245.82,-868.9C227.83,-863.39 207.83,-855.85 191,-846 129.35,-809.93 101.84,-802.89 72,-738 65.82,-724.56 64.99,-708.13 65.86,-694.46"/>
<polygon fill="black" stroke="black" points="69.37,-694.49 66.85,-684.2 62.4,-693.82 69.37,-694.49"/>
</g>
<!-- total_rev_hi_lim&#45;&gt;annual_inc -->
<g id="edge46" class="edge">
<title>total_rev_hi_lim&#45;&gt;annual_inc</title>
<path fill="none" stroke="black" d="M292.23,-863.84C288.35,-848.74 281.26,-826.63 270,-810 267.46,-806.25 264.44,-802.64 261.22,-799.26"/>
<polygon fill="black" stroke="black" points="263.57,-796.67 253.95,-792.23 258.71,-801.7 263.57,-796.67"/>
</g>
<!-- total_rev_hi_lim&#45;&gt;funded_amnt -->
<g id="edge44" class="edge">
<title>total_rev_hi_lim&#45;&gt;funded_amnt</title>
<path fill="none" stroke="black" d="M305.74,-863.88C321.6,-836 353.11,-780.59 371.89,-747.56"/>
<polygon fill="black" stroke="black" points="375.15,-748.91 377.06,-738.48 369.07,-745.45 375.15,-748.91"/>
</g>
<!-- total_rev_hi_lim&#45;&gt;dti -->
<g id="edge47" class="edge">
<title>total_rev_hi_lim&#45;&gt;dti</title>
<path fill="none" stroke="black" d="M274.72,-863.97C270.16,-860.33 265.27,-856.42 260.47,-852.58"/>
<polygon fill="black" stroke="black" points="262.55,-849.76 252.55,-846.24 258.18,-855.22 262.55,-849.76"/>
</g>
</g>
</svg>
