<?xml version="1.0" encoding="UTF-8" standalone="no"?>
<!DOCTYPE svg PUBLIC "-//W3C//DTD SVG 1.1//EN"
 "http://www.w3.org/Graphics/SVG/1.1/DTD/svg11.dtd">
<!-- Generated by graphviz version 2.50.0 (0)
 -->
<!-- Pages: 1 -->
<svg width="576pt" height="535pt"
 viewBox="0.00 0.00 576.00 534.94" xmlns="http://www.w3.org/2000/svg" xmlns:xlink="http://www.w3.org/1999/xlink">
<g id="graph0" class="graph" transform="scale(0.59 0.59) rotate(0) translate(4 904)">
<polygon fill="white" stroke="transparent" points="-4,4 -4,-904 973.69,-904 973.69,4 -4,4"/>
<!-- acc_open_past_24mths -->
<g id="node1" class="node">
<title>acc_open_past_24mths</title>
<path fill="#e1f5fe" stroke="black" d="M524.92,-684C524.92,-684 405.08,-684 405.08,-684 399.08,-684 393.08,-678 393.08,-672 393.08,-672 393.08,-660 393.08,-660 393.08,-654 399.08,-648 405.08,-648 405.08,-648 524.92,-648 524.92,-648 530.92,-648 536.92,-654 536.92,-660 536.92,-660 536.92,-672 536.92,-672 536.92,-678 530.92,-684 524.92,-684"/>
<text text-anchor="middle" x="465" y="-662.4" font-family="Helvetica,sans-Serif" font-size="12.00">acc_open_past_24mths</text>
</g>
<!-- num_tl_op_past_12m -->
<g id="node2" class="node">
<title>num_tl_op_past_12m</title>
<path fill="#e1f5fe" stroke="black" d="M573.91,-576C573.91,-576 466.09,-576 466.09,-576 460.09,-576 454.09,-570 454.09,-564 454.09,-564 454.09,-552 454.09,-552 454.09,-546 460.09,-540 466.09,-540 466.09,-540 573.91,-540 573.91,-540 579.91,-540 585.91,-546 585.91,-552 585.91,-552 585.91,-564 585.91,-564 585.91,-570 579.91,-576 573.91,-576"/>
<text text-anchor="middle" x="520" y="-554.4" font-family="Helvetica,sans-Serif" font-size="12.00">num_tl_op_past_12m</text>
</g>
<!-- acc_open_past_24mths&#45;&gt;num_tl_op_past_12m -->
<g id="edge1" class="edge">
<title>acc_open_past_24mths&#45;&gt;num_tl_op_past_12m</title>
<path fill="none" stroke="black" d="M481.94,-647.8C486.62,-642.42 491.4,-636.24 495,-630 502.91,-616.29 508.94,-599.66 513.08,-585.94"/>
<polygon fill="black" stroke="black" points="516.51,-586.69 515.89,-576.12 509.78,-584.77 516.51,-586.69"/>
</g>
<!-- mths_since_recent_bc -->
<g id="node3" class="node">
<title>mths_since_recent_bc</title>
<path fill="#e1f5fe" stroke="black" d="M470.06,-630C470.06,-630 357.94,-630 357.94,-630 351.94,-630 345.94,-624 345.94,-618 345.94,-618 345.94,-606 345.94,-606 345.94,-600 351.94,-594 357.94,-594 357.94,-594 470.06,-594 470.06,-594 476.06,-594 482.06,-600 482.06,-606 482.06,-606 482.06,-618 482.06,-618 482.06,-624 476.06,-630 470.06,-630"/>
<text text-anchor="middle" x="414" y="-608.4" font-family="Helvetica,sans-Serif" font-size="12.00">mths_since_recent_bc</text>
</g>
<!-- acc_open_past_24mths&#45;&gt;mths_since_recent_bc -->
<g id="edge2" class="edge">
<title>acc_open_past_24mths&#45;&gt;mths_since_recent_bc</title>
<path fill="none" stroke="black" d="M448.3,-647.97C444.99,-644.6 441.45,-640.99 437.95,-637.42"/>
<polygon fill="black" stroke="black" points="440.41,-634.93 430.91,-630.24 435.41,-639.83 440.41,-634.93"/>
</g>
<!-- mths_since_recent_inq -->
<g id="node4" class="node">
<title>mths_since_recent_inq</title>
<path fill="#e1f5fe" stroke="black" d="M471.9,-522C471.9,-522 356.1,-522 356.1,-522 350.1,-522 344.1,-516 344.1,-510 344.1,-510 344.1,-498 344.1,-498 344.1,-492 350.1,-486 356.1,-486 356.1,-486 471.9,-486 471.9,-486 477.9,-486 483.9,-492 483.9,-498 483.9,-498 483.9,-510 483.9,-510 483.9,-516 477.9,-522 471.9,-522"/>
<text text-anchor="middle" x="414" y="-500.4" font-family="Helvetica,sans-Serif" font-size="12.00">mths_since_recent_inq</text>
</g>
<!-- num_tl_op_past_12m&#45;&gt;mths_since_recent_inq -->
<g id="edge3" class="edge">
<title>num_tl_op_past_12m&#45;&gt;mths_since_recent_inq</title>
<path fill="none" stroke="black" d="M485.29,-539.97C476.51,-535.66 466.96,-530.98 457.79,-526.48"/>
<polygon fill="black" stroke="black" points="459.31,-523.33 448.79,-522.06 456.22,-529.61 459.31,-523.33"/>
</g>
<!-- inq_last_12m -->
<g id="node5" class="node">
<title>inq_last_12m</title>
<path fill="#e1f5fe" stroke="black" d="M590.88,-468C590.88,-468 527.12,-468 527.12,-468 521.12,-468 515.12,-462 515.12,-456 515.12,-456 515.12,-444 515.12,-444 515.12,-438 521.12,-432 527.12,-432 527.12,-432 590.88,-432 590.88,-432 596.88,-432 602.88,-438 602.88,-444 602.88,-444 602.88,-456 602.88,-456 602.88,-462 596.88,-468 590.88,-468"/>
<text text-anchor="middle" x="559" y="-446.4" font-family="Helvetica,sans-Serif" font-size="12.00">inq_last_12m</text>
</g>
<!-- num_tl_op_past_12m&#45;&gt;inq_last_12m -->
<g id="edge4" class="edge">
<title>num_tl_op_past_12m&#45;&gt;inq_last_12m</title>
<path fill="none" stroke="black" d="M531.73,-539.72C535.08,-534.23 538.5,-528.02 541,-522 546.82,-508.01 551.12,-491.66 554.06,-478.18"/>
<polygon fill="black" stroke="black" points="557.55,-478.59 556.12,-468.09 550.69,-477.18 557.55,-478.59"/>
</g>
<!-- grade -->
<g id="node6" class="node">
<title>grade</title>
<path fill="#e1f5fe" stroke="black" d="M321,-468C321,-468 291,-468 291,-468 285,-468 279,-462 279,-456 279,-456 279,-444 279,-444 279,-438 285,-432 291,-432 291,-432 321,-432 321,-432 327,-432 333,-438 333,-444 333,-444 333,-456 333,-456 333,-462 327,-468 321,-468"/>
<text text-anchor="middle" x="306" y="-446.4" font-family="Helvetica,sans-Serif" font-size="12.00">grade</text>
</g>
<!-- num_tl_op_past_12m&#45;&gt;grade -->
<g id="edge5" class="edge">
<title>num_tl_op_past_12m&#45;&gt;grade</title>
<path fill="none" stroke="black" d="M519.01,-539.98C517.11,-523.65 511.64,-499.54 496,-486 473.67,-466.67 392.17,-457.37 343.46,-453.45"/>
<polygon fill="black" stroke="black" points="343.54,-449.95 333.31,-452.67 343.01,-456.93 343.54,-449.95"/>
</g>
<!-- mths_since_recent_bc&#45;&gt;num_tl_op_past_12m -->
<g id="edge7" class="edge">
<title>mths_since_recent_bc&#45;&gt;num_tl_op_past_12m</title>
<path fill="none" stroke="black" d="M448.71,-593.97C457.49,-589.66 467.04,-584.98 476.21,-580.48"/>
<polygon fill="black" stroke="black" points="477.78,-583.61 485.21,-576.06 474.69,-577.33 477.78,-583.61"/>
</g>
<!-- mths_since_recent_bc&#45;&gt;mths_since_recent_inq -->
<g id="edge6" class="edge">
<title>mths_since_recent_bc&#45;&gt;mths_since_recent_inq</title>
<path fill="none" stroke="black" d="M414,-593.97C414,-577.38 414,-551.88 414,-532.43"/>
<polygon fill="black" stroke="black" points="417.5,-532.34 414,-522.34 410.5,-532.34 417.5,-532.34"/>
</g>
<!-- mths_since_recent_inq&#45;&gt;inq_last_12m -->
<g id="edge38" class="edge">
<title>mths_since_recent_inq&#45;&gt;inq_last_12m</title>
<path fill="none" stroke="black" d="M461.48,-485.97C475.44,-480.97 490.81,-475.46 505.13,-470.32"/>
<polygon fill="black" stroke="black" points="506.62,-473.5 514.86,-466.83 504.26,-466.91 506.62,-473.5"/>
</g>
<!-- loan_age -->
<g id="node8" class="node">
<title>loan_age</title>
<path fill="#e1f5fe" stroke="black" d="M566.88,-414C566.88,-414 525.12,-414 525.12,-414 519.12,-414 513.12,-408 513.12,-402 513.12,-402 513.12,-390 513.12,-390 513.12,-384 519.12,-378 525.12,-378 525.12,-378 566.88,-378 566.88,-378 572.88,-378 578.88,-384 578.88,-390 578.88,-390 578.88,-402 578.88,-402 578.88,-408 572.88,-414 566.88,-414"/>
<text text-anchor="middle" x="546" y="-392.4" font-family="Helvetica,sans-Serif" font-size="12.00">loan_age</text>
</g>
<!-- inq_last_12m&#45;&gt;loan_age -->
<g id="edge19" class="edge">
<title>inq_last_12m&#45;&gt;loan_age</title>
<path fill="none" stroke="black" d="M554.74,-431.97C554.1,-429.4 553.42,-426.69 552.74,-423.96"/>
<polygon fill="black" stroke="black" points="556.13,-423.1 550.31,-414.24 549.34,-424.79 556.13,-423.1"/>
</g>
<!-- int_rate% -->
<g id="node13" class="node">
<title>int_rate%</title>
<path fill="#e1f5fe" stroke="black" d="M676.2,-360C676.2,-360 633.8,-360 633.8,-360 627.8,-360 621.8,-354 621.8,-348 621.8,-348 621.8,-336 621.8,-336 621.8,-330 627.8,-324 633.8,-324 633.8,-324 676.2,-324 676.2,-324 682.2,-324 688.2,-330 688.2,-336 688.2,-336 688.2,-348 688.2,-348 688.2,-354 682.2,-360 676.2,-360"/>
<text text-anchor="middle" x="655" y="-338.4" font-family="Helvetica,sans-Serif" font-size="12.00">int_rate%</text>
</g>
<!-- grade&#45;&gt;int_rate% -->
<g id="edge32" class="edge">
<title>grade&#45;&gt;int_rate%</title>
<path fill="none" stroke="black" d="M333.22,-446.75C400.04,-441.07 568.39,-425.76 591,-414 610.87,-403.66 627.59,-384.48 638.94,-368.66"/>
<polygon fill="black" stroke="black" points="641.91,-370.52 644.69,-360.3 636.14,-366.56 641.91,-370.52"/>
</g>
<!-- binary_loan_status -->
<g id="node16" class="node">
<title>binary_loan_status</title>
<path fill="#e1f5fe" stroke="black" d="M320.23,-306C320.23,-306 227.77,-306 227.77,-306 221.77,-306 215.77,-300 215.77,-294 215.77,-294 215.77,-282 215.77,-282 215.77,-276 221.77,-270 227.77,-270 227.77,-270 320.23,-270 320.23,-270 326.23,-270 332.23,-276 332.23,-282 332.23,-282 332.23,-294 332.23,-294 332.23,-300 326.23,-306 320.23,-306"/>
<text text-anchor="middle" x="274" y="-284.4" font-family="Helvetica,sans-Serif" font-size="12.00">binary_loan_status</text>
</g>
<!-- grade&#45;&gt;binary_loan_status -->
<g id="edge34" class="edge">
<title>grade&#45;&gt;binary_loan_status</title>
<path fill="none" stroke="black" d="M278.78,-446.22C233.37,-439.95 143.25,-420.19 104,-360 95.26,-346.6 93.89,-336.4 104,-324 116.93,-308.14 163.98,-299.26 205.31,-294.41"/>
<polygon fill="black" stroke="black" points="205.84,-297.88 215.4,-293.3 205.07,-290.92 205.84,-297.88"/>
</g>
<!-- term -->
<g id="node23" class="node">
<title>term</title>
<path fill="#e1f5fe" stroke="black" d="M42,-414C42,-414 12,-414 12,-414 6,-414 0,-408 0,-402 0,-402 0,-390 0,-390 0,-384 6,-378 12,-378 12,-378 42,-378 42,-378 48,-378 54,-384 54,-390 54,-390 54,-402 54,-402 54,-408 48,-414 42,-414"/>
<text text-anchor="middle" x="27" y="-392.4" font-family="Helvetica,sans-Serif" font-size="12.00">term</text>
</g>
<!-- grade&#45;&gt;term -->
<g id="edge33" class="edge">
<title>grade&#45;&gt;term</title>
<path fill="none" stroke="black" d="M278.73,-446.73C234.85,-442.67 146.09,-432.78 73,-414 70.04,-413.24 67.01,-412.36 63.99,-411.41"/>
<polygon fill="black" stroke="black" points="65.03,-408.07 54.44,-408.18 62.79,-414.7 65.03,-408.07"/>
</g>
<!-- all_util -->
<g id="node7" class="node">
<title>all_util</title>
<path fill="#e1f5fe" stroke="black" d="M715,-792C715,-792 685,-792 685,-792 679,-792 673,-786 673,-780 673,-780 673,-768 673,-768 673,-762 679,-756 685,-756 685,-756 715,-756 715,-756 721,-756 727,-762 727,-768 727,-768 727,-780 727,-780 727,-786 721,-792 715,-792"/>
<text text-anchor="middle" x="700" y="-770.4" font-family="Helvetica,sans-Serif" font-size="12.00">all_util</text>
</g>
<!-- all_util&#45;&gt;inq_last_12m -->
<g id="edge10" class="edge">
<title>all_util&#45;&gt;inq_last_12m</title>
<path fill="none" stroke="black" d="M674.38,-755.96C667.81,-750.75 661.15,-744.63 656,-738 634.75,-710.68 624,-701.61 624,-667 624,-667 624,-667 624,-557 624,-525.56 602.96,-495.58 584.82,-475.57"/>
<polygon fill="black" stroke="black" points="587.21,-473.02 577.8,-468.16 582.13,-477.83 587.21,-473.02"/>
</g>
<!-- all_util&#45;&gt;loan_age -->
<g id="edge8" class="edge">
<title>all_util&#45;&gt;loan_age</title>
<path fill="none" stroke="black" d="M693.3,-755.67C685.9,-734.91 675,-698.95 675,-667 675,-667 675,-667 675,-503 675,-457.17 625.8,-427.52 588.17,-411.54"/>
<polygon fill="black" stroke="black" points="589.47,-408.29 578.89,-407.77 586.83,-414.78 589.47,-408.29"/>
</g>
<!-- open_act_il -->
<g id="node9" class="node">
<title>open_act_il</title>
<path fill="#e1f5fe" stroke="black" d="M957.88,-198C957.88,-198 904.12,-198 904.12,-198 898.12,-198 892.12,-192 892.12,-186 892.12,-186 892.12,-174 892.12,-174 892.12,-168 898.12,-162 904.12,-162 904.12,-162 957.88,-162 957.88,-162 963.88,-162 969.88,-168 969.88,-174 969.88,-174 969.88,-186 969.88,-186 969.88,-192 963.88,-198 957.88,-198"/>
<text text-anchor="middle" x="931" y="-176.4" font-family="Helvetica,sans-Serif" font-size="12.00">open_act_il</text>
</g>
<!-- all_util&#45;&gt;open_act_il -->
<g id="edge9" class="edge">
<title>all_util&#45;&gt;open_act_il</title>
<path fill="none" stroke="black" d="M723.1,-755.88C745.78,-736.91 777,-704.08 777,-667 777,-667 777,-667 777,-395 777,-301.6 893.67,-337.62 931,-252 936.91,-238.45 937.28,-222.01 936.01,-208.37"/>
<polygon fill="black" stroke="black" points="939.44,-207.61 934.71,-198.13 932.5,-208.49 939.44,-207.61"/>
</g>
<!-- bc_util -->
<g id="node10" class="node">
<title>bc_util</title>
<path fill="#e1f5fe" stroke="black" d="M321,-738C321,-738 291,-738 291,-738 285,-738 279,-732 279,-726 279,-726 279,-714 279,-714 279,-708 285,-702 291,-702 291,-702 321,-702 321,-702 327,-702 333,-708 333,-714 333,-714 333,-726 333,-726 333,-732 327,-738 321,-738"/>
<text text-anchor="middle" x="306" y="-716.4" font-family="Helvetica,sans-Serif" font-size="12.00">bc_util</text>
</g>
<!-- all_util&#45;&gt;bc_util -->
<g id="edge11" class="edge">
<title>all_util&#45;&gt;bc_util</title>
<path fill="none" stroke="black" d="M672.92,-769.43C603.95,-760.32 421.6,-736.26 342.96,-725.88"/>
<polygon fill="black" stroke="black" points="343.38,-722.4 333.01,-724.56 342.47,-729.34 343.38,-722.4"/>
</g>
<!-- avg_cur_bal -->
<g id="node11" class="node">
<title>avg_cur_bal</title>
<path fill="#e1f5fe" stroke="black" d="M803.88,-198C803.88,-198 746.12,-198 746.12,-198 740.12,-198 734.12,-192 734.12,-186 734.12,-186 734.12,-174 734.12,-174 734.12,-168 740.12,-162 746.12,-162 746.12,-162 803.88,-162 803.88,-162 809.88,-162 815.88,-168 815.88,-174 815.88,-174 815.88,-186 815.88,-186 815.88,-192 809.88,-198 803.88,-198"/>
<text text-anchor="middle" x="775" y="-176.4" font-family="Helvetica,sans-Serif" font-size="12.00">avg_cur_bal</text>
</g>
<!-- all_util&#45;&gt;avg_cur_bal -->
<g id="edge12" class="edge">
<title>all_util&#45;&gt;avg_cur_bal</title>
<path fill="none" stroke="black" d="M706.97,-755.69C714.67,-734.96 726,-699.02 726,-667 726,-667 726,-667 726,-287 726,-257.51 741.82,-227.3 755.49,-206.72"/>
<polygon fill="black" stroke="black" points="758.54,-208.46 761.35,-198.25 752.78,-204.48 758.54,-208.46"/>
</g>
<!-- time_since_last_payment -->
<g id="node12" class="node">
<title>time_since_last_payment</title>
<path fill="#e1f5fe" stroke="black" d="M255.9,-360C255.9,-360 128.1,-360 128.1,-360 122.1,-360 116.1,-354 116.1,-348 116.1,-348 116.1,-336 116.1,-336 116.1,-330 122.1,-324 128.1,-324 128.1,-324 255.9,-324 255.9,-324 261.9,-324 267.9,-330 267.9,-336 267.9,-336 267.9,-348 267.9,-348 267.9,-354 261.9,-360 255.9,-360"/>
<text text-anchor="middle" x="192" y="-338.4" font-family="Helvetica,sans-Serif" font-size="12.00">time_since_last_payment</text>
</g>
<!-- loan_age&#45;&gt;time_since_last_payment -->
<g id="edge13" class="edge">
<title>loan_age&#45;&gt;time_since_last_payment</title>
<path fill="none" stroke="black" d="M513.15,-391.32C462.82,-385.54 363.68,-373.58 280,-360 279.25,-359.88 278.5,-359.76 277.74,-359.63"/>
<polygon fill="black" stroke="black" points="278.24,-356.16 267.79,-357.94 277.06,-363.07 278.24,-356.16"/>
</g>
<!-- loan_age&#45;&gt;int_rate% -->
<g id="edge14" class="edge">
<title>loan_age&#45;&gt;int_rate%</title>
<path fill="none" stroke="black" d="M578.7,-379.4C589.29,-374.35 601.18,-368.68 612.37,-363.34"/>
<polygon fill="black" stroke="black" points="614.05,-366.42 621.56,-358.95 611.03,-360.1 614.05,-366.42"/>
</g>
<!-- debt_settlement_flag -->
<g id="node14" class="node">
<title>debt_settlement_flag</title>
<path fill="#e1f5fe" stroke="black" d="M407.91,-360C407.91,-360 304.09,-360 304.09,-360 298.09,-360 292.09,-354 292.09,-348 292.09,-348 292.09,-336 292.09,-336 292.09,-330 298.09,-324 304.09,-324 304.09,-324 407.91,-324 407.91,-324 413.91,-324 419.91,-330 419.91,-336 419.91,-336 419.91,-348 419.91,-348 419.91,-354 413.91,-360 407.91,-360"/>
<text text-anchor="middle" x="356" y="-338.4" font-family="Helvetica,sans-Serif" font-size="12.00">debt_settlement_flag</text>
</g>
<!-- loan_age&#45;&gt;debt_settlement_flag -->
<g id="edge15" class="edge">
<title>loan_age&#45;&gt;debt_settlement_flag</title>
<path fill="none" stroke="black" d="M512.9,-385.94C489.5,-379.54 457.22,-370.7 428.02,-362.71"/>
<polygon fill="black" stroke="black" points="428.82,-359.3 418.25,-360.04 426.98,-366.05 428.82,-359.3"/>
</g>
<!-- hardship_status -->
<g id="node15" class="node">
<title>hardship_status</title>
<path fill="#e1f5fe" stroke="black" d="M584.22,-360C584.22,-360 507.78,-360 507.78,-360 501.78,-360 495.78,-354 495.78,-348 495.78,-348 495.78,-336 495.78,-336 495.78,-330 501.78,-324 507.78,-324 507.78,-324 584.22,-324 584.22,-324 590.22,-324 596.22,-330 596.22,-336 596.22,-336 596.22,-348 596.22,-348 596.22,-354 590.22,-360 584.22,-360"/>
<text text-anchor="middle" x="546" y="-338.4" font-family="Helvetica,sans-Serif" font-size="12.00">hardship_status</text>
</g>
<!-- loan_age&#45;&gt;hardship_status -->
<g id="edge16" class="edge">
<title>loan_age&#45;&gt;hardship_status</title>
<path fill="none" stroke="black" d="M546,-377.97C546,-375.57 546,-373.06 546,-370.52"/>
<polygon fill="black" stroke="black" points="549.5,-370.24 546,-360.24 542.5,-370.24 549.5,-370.24"/>
</g>
<!-- loan_age&#45;&gt;binary_loan_status -->
<g id="edge17" class="edge">
<title>loan_age&#45;&gt;binary_loan_status</title>
<path fill="none" stroke="black" d="M513.56,-377.85C503.63,-372.37 492.75,-366.12 483,-360 459.51,-345.24 457.37,-335.22 432,-324 403.84,-311.55 370.84,-303.34 342.3,-298.03"/>
<polygon fill="black" stroke="black" points="342.87,-294.58 332.41,-296.27 341.64,-301.47 342.87,-294.58"/>
</g>
<!-- emp_length -->
<g id="node17" class="node">
<title>emp_length</title>
<path fill="#e1f5fe" stroke="black" d="M881.21,-144C881.21,-144 826.79,-144 826.79,-144 820.79,-144 814.79,-138 814.79,-132 814.79,-132 814.79,-120 814.79,-120 814.79,-114 820.79,-108 826.79,-108 826.79,-108 881.21,-108 881.21,-108 887.21,-108 893.21,-114 893.21,-120 893.21,-120 893.21,-132 893.21,-132 893.21,-138 887.21,-144 881.21,-144"/>
<text text-anchor="middle" x="854" y="-122.4" font-family="Helvetica,sans-Serif" font-size="12.00">emp_length</text>
</g>
<!-- open_act_il&#45;&gt;emp_length -->
<g id="edge18" class="edge">
<title>open_act_il&#45;&gt;emp_length</title>
<path fill="none" stroke="black" d="M905.79,-161.97C900.07,-158.11 893.91,-153.95 887.9,-149.89"/>
<polygon fill="black" stroke="black" points="889.52,-146.76 879.27,-144.06 885.6,-152.56 889.52,-146.76"/>
</g>
<!-- bc_util&#45;&gt;acc_open_past_24mths -->
<g id="edge22" class="edge">
<title>bc_util&#45;&gt;acc_open_past_24mths</title>
<path fill="none" stroke="black" d="M333.33,-710.06C352.62,-703.75 379.23,-695.05 403.49,-687.12"/>
<polygon fill="black" stroke="black" points="404.58,-690.44 413,-684.01 402.41,-683.79 404.58,-690.44"/>
</g>
<!-- bc_util&#45;&gt;grade -->
<g id="edge21" class="edge">
<title>bc_util&#45;&gt;grade</title>
<path fill="none" stroke="black" d="M306,-701.74C306,-680.76 306,-644.28 306,-613 306,-613 306,-613 306,-557 306,-530.24 306,-499.67 306,-478.26"/>
<polygon fill="black" stroke="black" points="309.5,-478.26 306,-468.26 302.5,-478.26 309.5,-478.26"/>
</g>
<!-- percent_bc_gt_75 -->
<g id="node18" class="node">
<title>percent_bc_gt_75</title>
<path fill="#e1f5fe" stroke="black" d="M256.08,-684C256.08,-684 167.92,-684 167.92,-684 161.92,-684 155.92,-678 155.92,-672 155.92,-672 155.92,-660 155.92,-660 155.92,-654 161.92,-648 167.92,-648 167.92,-648 256.08,-648 256.08,-648 262.08,-648 268.08,-654 268.08,-660 268.08,-660 268.08,-672 268.08,-672 268.08,-678 262.08,-684 256.08,-684"/>
<text text-anchor="middle" x="212" y="-662.4" font-family="Helvetica,sans-Serif" font-size="12.00">percent_bc_gt_75</text>
</g>
<!-- bc_util&#45;&gt;percent_bc_gt_75 -->
<g id="edge20" class="edge">
<title>bc_util&#45;&gt;percent_bc_gt_75</title>
<path fill="none" stroke="black" d="M278.81,-703.96C270.35,-699.28 260.85,-694.02 251.72,-688.97"/>
<polygon fill="black" stroke="black" points="253.21,-685.8 242.76,-684.02 249.82,-691.92 253.21,-685.8"/>
</g>
<!-- home_ownership -->
<g id="node19" class="node">
<title>home_ownership</title>
<path fill="#e1f5fe" stroke="black" d="M816.89,-90C816.89,-90 733.11,-90 733.11,-90 727.11,-90 721.11,-84 721.11,-78 721.11,-78 721.11,-66 721.11,-66 721.11,-60 727.11,-54 733.11,-54 733.11,-54 816.89,-54 816.89,-54 822.89,-54 828.89,-60 828.89,-66 828.89,-66 828.89,-78 828.89,-78 828.89,-84 822.89,-90 816.89,-90"/>
<text text-anchor="middle" x="775" y="-68.4" font-family="Helvetica,sans-Serif" font-size="12.00">home_ownership</text>
</g>
<!-- avg_cur_bal&#45;&gt;home_ownership -->
<g id="edge23" class="edge">
<title>avg_cur_bal&#45;&gt;home_ownership</title>
<path fill="none" stroke="black" d="M775,-161.97C775,-145.38 775,-119.88 775,-100.43"/>
<polygon fill="black" stroke="black" points="778.5,-100.34 775,-90.34 771.5,-100.34 778.5,-100.34"/>
</g>
<!-- time_since_last_payment&#45;&gt;binary_loan_status -->
<g id="edge51" class="edge">
<title>time_since_last_payment&#45;&gt;binary_loan_status</title>
<path fill="none" stroke="black" d="M218.85,-323.97C225.08,-320.02 231.81,-315.76 238.35,-311.61"/>
<polygon fill="black" stroke="black" points="240.52,-314.38 247.09,-306.06 236.77,-308.46 240.52,-314.38"/>
</g>
<!-- dti -->
<g id="node24" class="node">
<title>dti</title>
<path fill="#e1f5fe" stroke="black" d="M829,-306C829,-306 799,-306 799,-306 793,-306 787,-300 787,-294 787,-294 787,-282 787,-282 787,-276 793,-270 799,-270 799,-270 829,-270 829,-270 835,-270 841,-276 841,-282 841,-282 841,-294 841,-294 841,-300 835,-306 829,-306"/>
<text text-anchor="middle" x="814" y="-284.4" font-family="Helvetica,sans-Serif" font-size="12.00">dti</text>
</g>
<!-- int_rate%&#45;&gt;dti -->
<g id="edge50" class="edge">
<title>int_rate%&#45;&gt;dti</title>
<path fill="none" stroke="black" d="M688.33,-330.1C714.25,-321.62 750.19,-309.87 777,-301.1"/>
<polygon fill="black" stroke="black" points="778.37,-304.34 786.79,-297.9 776.19,-297.68 778.37,-304.34"/>
</g>
<!-- debt_settlement_flag&#45;&gt;binary_loan_status -->
<g id="edge52" class="edge">
<title>debt_settlement_flag&#45;&gt;binary_loan_status</title>
<path fill="none" stroke="black" d="M329.15,-323.97C322.92,-320.02 316.19,-315.76 309.65,-311.61"/>
<polygon fill="black" stroke="black" points="311.23,-308.46 300.91,-306.06 307.48,-314.38 311.23,-308.46"/>
</g>
<!-- hardship_type -->
<g id="node27" class="node">
<title>hardship_type</title>
<path fill="#e1f5fe" stroke="black" d="M579.89,-306C579.89,-306 512.11,-306 512.11,-306 506.11,-306 500.11,-300 500.11,-294 500.11,-294 500.11,-282 500.11,-282 500.11,-276 506.11,-270 512.11,-270 512.11,-270 579.89,-270 579.89,-270 585.89,-270 591.89,-276 591.89,-282 591.89,-282 591.89,-294 591.89,-294 591.89,-300 585.89,-306 579.89,-306"/>
<text text-anchor="middle" x="546" y="-284.4" font-family="Helvetica,sans-Serif" font-size="12.00">hardship_type</text>
</g>
<!-- hardship_status&#45;&gt;hardship_type -->
<g id="edge53" class="edge">
<title>hardship_status&#45;&gt;hardship_type</title>
<path fill="none" stroke="black" d="M546,-323.97C546,-321.57 546,-319.06 546,-316.52"/>
<polygon fill="black" stroke="black" points="549.5,-316.24 546,-306.24 542.5,-316.24 549.5,-316.24"/>
</g>
<!-- emp_length&#45;&gt;home_ownership -->
<g id="edge28" class="edge">
<title>emp_length&#45;&gt;home_ownership</title>
<path fill="none" stroke="black" d="M828.13,-107.97C822.13,-104.02 815.65,-99.76 809.35,-95.61"/>
<polygon fill="black" stroke="black" points="811.2,-92.64 800.93,-90.06 807.35,-98.49 811.2,-92.64"/>
</g>
<!-- percent_bc_gt_75&#45;&gt;mths_since_recent_bc -->
<g id="edge31" class="edge">
<title>percent_bc_gt_75&#45;&gt;mths_since_recent_bc</title>
<path fill="none" stroke="black" d="M268.27,-650.52C289.82,-644.97 314.78,-638.54 337.89,-632.59"/>
<polygon fill="black" stroke="black" points="338.85,-635.96 347.66,-630.08 337.1,-629.18 338.85,-635.96"/>
</g>
<!-- purpose -->
<g id="node22" class="node">
<title>purpose</title>
<path fill="#e1f5fe" stroke="black" d="M738.87,-36C738.87,-36 703.13,-36 703.13,-36 697.13,-36 691.13,-30 691.13,-24 691.13,-24 691.13,-12 691.13,-12 691.13,-6 697.13,0 703.13,0 703.13,0 738.87,0 738.87,0 744.87,0 750.87,-6 750.87,-12 750.87,-12 750.87,-24 750.87,-24 750.87,-30 744.87,-36 738.87,-36"/>
<text text-anchor="middle" x="721" y="-14.4" font-family="Helvetica,sans-Serif" font-size="12.00">purpose</text>
</g>
<!-- home_ownership&#45;&gt;purpose -->
<g id="edge30" class="edge">
<title>home_ownership&#45;&gt;purpose</title>
<path fill="none" stroke="black" d="M757.32,-53.97C753.81,-50.6 750.07,-46.99 746.36,-43.42"/>
<polygon fill="black" stroke="black" points="748.54,-40.66 738.91,-36.24 743.68,-45.7 748.54,-40.66"/>
</g>
<!-- annual_inc -->
<g id="node20" class="node">
<title>annual_inc</title>
<path fill="#e1f5fe" stroke="black" d="M877.05,-252C877.05,-252 826.95,-252 826.95,-252 820.95,-252 814.95,-246 814.95,-240 814.95,-240 814.95,-228 814.95,-228 814.95,-222 820.95,-216 826.95,-216 826.95,-216 877.05,-216 877.05,-216 883.05,-216 889.05,-222 889.05,-228 889.05,-228 889.05,-240 889.05,-240 889.05,-246 883.05,-252 877.05,-252"/>
<text text-anchor="middle" x="852" y="-230.4" font-family="Helvetica,sans-Serif" font-size="12.00">annual_inc</text>
</g>
<!-- annual_inc&#45;&gt;open_act_il -->
<g id="edge26" class="edge">
<title>annual_inc&#45;&gt;open_act_il</title>
<path fill="none" stroke="black" d="M877.87,-215.97C883.87,-212.02 890.35,-207.76 896.65,-203.61"/>
<polygon fill="black" stroke="black" points="898.65,-206.49 905.07,-198.06 894.8,-200.64 898.65,-206.49"/>
</g>
<!-- annual_inc&#45;&gt;avg_cur_bal -->
<g id="edge24" class="edge">
<title>annual_inc&#45;&gt;avg_cur_bal</title>
<path fill="none" stroke="black" d="M826.79,-215.97C821.07,-212.11 814.91,-207.95 808.9,-203.89"/>
<polygon fill="black" stroke="black" points="810.52,-200.76 800.27,-198.06 806.6,-206.56 810.52,-200.76"/>
</g>
<!-- annual_inc&#45;&gt;emp_length -->
<g id="edge25" class="edge">
<title>annual_inc&#45;&gt;emp_length</title>
<path fill="none" stroke="black" d="M852.32,-215.97C852.63,-199.38 853.12,-173.88 853.48,-154.43"/>
<polygon fill="black" stroke="black" points="856.98,-154.4 853.67,-144.34 849.98,-154.27 856.98,-154.4"/>
</g>
<!-- funded_amnt -->
<g id="node21" class="node">
<title>funded_amnt</title>
<path fill="#e1f5fe" stroke="black" d="M697.05,-198C697.05,-198 634.95,-198 634.95,-198 628.95,-198 622.95,-192 622.95,-186 622.95,-186 622.95,-174 622.95,-174 622.95,-168 628.95,-162 634.95,-162 634.95,-162 697.05,-162 697.05,-162 703.05,-162 709.05,-168 709.05,-174 709.05,-174 709.05,-186 709.05,-186 709.05,-192 703.05,-198 697.05,-198"/>
<text text-anchor="middle" x="666" y="-176.4" font-family="Helvetica,sans-Serif" font-size="12.00">funded_amnt</text>
</g>
<!-- annual_inc&#45;&gt;funded_amnt -->
<g id="edge27" class="edge">
<title>annual_inc&#45;&gt;funded_amnt</title>
<path fill="none" stroke="black" d="M814.93,-223.35C788.88,-216.49 753.23,-206.94 722,-198 720.95,-197.7 719.89,-197.39 718.82,-197.08"/>
<polygon fill="black" stroke="black" points="719.65,-193.68 709.07,-194.22 717.68,-200.4 719.65,-193.68"/>
</g>
<!-- funded_amnt&#45;&gt;purpose -->
<g id="edge29" class="edge">
<title>funded_amnt&#45;&gt;purpose</title>
<path fill="none" stroke="black" d="M671.89,-161.88C681.43,-134.11 700.35,-79.06 711.72,-45.99"/>
<polygon fill="black" stroke="black" points="715.05,-47.08 714.99,-36.48 708.43,-44.8 715.05,-47.08"/>
</g>
<!-- term&#45;&gt;time_since_last_payment -->
<g id="edge49" class="edge">
<title>term&#45;&gt;time_since_last_payment</title>
<path fill="none" stroke="black" d="M54.25,-386.41C74.37,-380.07 102.62,-371.17 128.31,-363.07"/>
<polygon fill="black" stroke="black" points="129.52,-366.36 138,-360.02 127.41,-359.69 129.52,-366.36"/>
</g>
<!-- term&#45;&gt;funded_amnt -->
<g id="edge48" class="edge">
<title>term&#45;&gt;funded_amnt</title>
<path fill="none" stroke="black" d="M39.41,-377.77C51.3,-362.2 70.42,-339.43 91,-324 135.22,-290.86 150.63,-287.65 203,-270 346.85,-221.51 525.28,-196.57 612.68,-186.5"/>
<polygon fill="black" stroke="black" points="613.34,-189.95 622.88,-185.35 612.55,-183 613.34,-189.95"/>
</g>
<!-- dti&#45;&gt;open_act_il -->
<g id="edge35" class="edge">
<title>dti&#45;&gt;open_act_il</title>
<path fill="none" stroke="black" d="M841.33,-276.72C866.29,-267.24 899.68,-254.3 902,-252 913.95,-240.16 921.17,-222.71 925.41,-208.08"/>
<polygon fill="black" stroke="black" points="928.89,-208.6 928.01,-198.04 922.12,-206.85 928.89,-208.6"/>
</g>
<!-- dti&#45;&gt;avg_cur_bal -->
<g id="edge36" class="edge">
<title>dti&#45;&gt;avg_cur_bal</title>
<path fill="none" stroke="black" d="M807.73,-269.97C801.57,-253.22 792.08,-227.41 784.89,-207.89"/>
<polygon fill="black" stroke="black" points="788.12,-206.52 781.38,-198.34 781.55,-208.93 788.12,-206.52"/>
</g>
<!-- dti&#45;&gt;annual_inc -->
<g id="edge37" class="edge">
<title>dti&#45;&gt;annual_inc</title>
<path fill="none" stroke="black" d="M826.44,-269.97C828.65,-266.95 830.99,-263.75 833.33,-260.55"/>
<polygon fill="black" stroke="black" points="836.33,-262.38 839.4,-252.24 830.67,-258.25 836.33,-262.38"/>
</g>
<!-- total_bc_limit -->
<g id="node25" class="node">
<title>total_bc_limit</title>
<path fill="#e1f5fe" stroke="black" d="M301.03,-900C301.03,-900 238.97,-900 238.97,-900 232.97,-900 226.97,-894 226.97,-888 226.97,-888 226.97,-876 226.97,-876 226.97,-870 232.97,-864 238.97,-864 238.97,-864 301.03,-864 301.03,-864 307.03,-864 313.03,-870 313.03,-876 313.03,-876 313.03,-888 313.03,-888 313.03,-894 307.03,-900 301.03,-900"/>
<text text-anchor="middle" x="270" y="-878.4" font-family="Helvetica,sans-Serif" font-size="12.00">total_bc_limit</text>
</g>
<!-- total_bc_limit&#45;&gt;bc_util -->
<g id="edge40" class="edge">
<title>total_bc_limit&#45;&gt;bc_util</title>
<path fill="none" stroke="black" d="M273.85,-863.88C280.07,-836.23 292.38,-781.54 299.83,-748.42"/>
<polygon fill="black" stroke="black" points="303.29,-749.01 302.07,-738.48 296.46,-747.47 303.29,-749.01"/>
</g>
<!-- total_bc_limit&#45;&gt;percent_bc_gt_75 -->
<g id="edge42" class="edge">
<title>total_bc_limit&#45;&gt;percent_bc_gt_75</title>
<path fill="none" stroke="black" d="M265.35,-863.85C255.3,-826.75 231.46,-738.81 219.35,-694.1"/>
<polygon fill="black" stroke="black" points="222.66,-692.97 216.67,-684.23 215.91,-694.8 222.66,-692.97"/>
</g>
<!-- total_bc_limit&#45;&gt;term -->
<g id="edge41" class="edge">
<title>total_bc_limit&#45;&gt;term</title>
<path fill="none" stroke="black" d="M226.77,-876.8C168.78,-868.51 73,-844.33 73,-775 73,-775 73,-775 73,-503 73,-473.64 57.97,-443.21 45.09,-422.53"/>
<polygon fill="black" stroke="black" points="47.95,-420.5 39.57,-414.02 42.08,-424.31 47.95,-420.5"/>
</g>
<!-- total_rev_hi_lim -->
<g id="node26" class="node">
<title>total_rev_hi_lim</title>
<path fill="#e1f5fe" stroke="black" d="M802.04,-846C802.04,-846 725.96,-846 725.96,-846 719.96,-846 713.96,-840 713.96,-834 713.96,-834 713.96,-822 713.96,-822 713.96,-816 719.96,-810 725.96,-810 725.96,-810 802.04,-810 802.04,-810 808.04,-810 814.04,-816 814.04,-822 814.04,-822 814.04,-834 814.04,-834 814.04,-840 808.04,-846 802.04,-846"/>
<text text-anchor="middle" x="764" y="-824.4" font-family="Helvetica,sans-Serif" font-size="12.00">total_rev_hi_lim</text>
</g>
<!-- total_bc_limit&#45;&gt;total_rev_hi_lim -->
<g id="edge39" class="edge">
<title>total_bc_limit&#45;&gt;total_rev_hi_lim</title>
<path fill="none" stroke="black" d="M313.41,-876.43C401.84,-867.12 603.02,-845.95 703.93,-835.32"/>
<polygon fill="black" stroke="black" points="704.38,-838.79 713.96,-834.27 703.65,-831.83 704.38,-838.79"/>
</g>
<!-- total_rev_hi_lim&#45;&gt;acc_open_past_24mths -->
<g id="edge47" class="edge">
<title>total_rev_hi_lim&#45;&gt;acc_open_past_24mths</title>
<path fill="none" stroke="black" d="M713.79,-812.62C696.69,-807.02 677.68,-800.01 661,-792 599.53,-762.49 533.83,-717.48 496.25,-690.29"/>
<polygon fill="black" stroke="black" points="497.92,-687.17 487.77,-684.11 493.79,-692.83 497.92,-687.17"/>
</g>
<!-- total_rev_hi_lim&#45;&gt;all_util -->
<g id="edge44" class="edge">
<title>total_rev_hi_lim&#45;&gt;all_util</title>
<path fill="none" stroke="black" d="M743.04,-809.97C738.56,-806.33 733.75,-802.42 729.02,-798.58"/>
<polygon fill="black" stroke="black" points="731.19,-795.83 721.22,-792.24 726.78,-801.27 731.19,-795.83"/>
</g>
<!-- total_rev_hi_lim&#45;&gt;annual_inc -->
<g id="edge46" class="edge">
<title>total_rev_hi_lim&#45;&gt;annual_inc</title>
<path fill="none" stroke="black" d="M814.26,-817.15C863.11,-804.3 930,-776.57 930,-721 930,-721 930,-721 930,-341 930,-307.83 904.92,-278.19 883.2,-258.75"/>
<polygon fill="black" stroke="black" points="885.27,-255.91 875.4,-252.06 880.71,-261.23 885.27,-255.91"/>
</g>
<!-- total_rev_hi_lim&#45;&gt;funded_amnt -->
<g id="edge43" class="edge">
<title>total_rev_hi_lim&#45;&gt;funded_amnt</title>
<path fill="none" stroke="black" d="M782.51,-809.79C801.41,-790.25 828,-756.47 828,-721 828,-721 828,-721 828,-395 828,-372 731.64,-257.19 687.55,-205.86"/>
<polygon fill="black" stroke="black" points="690.13,-203.49 680.95,-198.19 684.82,-208.05 690.13,-203.49"/>
</g>
<!-- total_rev_hi_lim&#45;&gt;dti -->
<g id="edge45" class="edge">
<title>total_rev_hi_lim&#45;&gt;dti</title>
<path fill="none" stroke="black" d="M814.19,-812.89C826.01,-807.77 837.82,-800.96 847,-792 871.77,-767.83 879,-755.61 879,-721 879,-721 879,-721 879,-395 879,-363.56 857.96,-333.58 839.82,-313.57"/>
<polygon fill="black" stroke="black" points="842.21,-311.02 832.8,-306.16 837.13,-315.83 842.21,-311.02"/>
</g>
<!-- hardship_loan_status -->
<g id="node28" class="node">
<title>hardship_loan_status</title>
<path fill="#e1f5fe" stroke="black" d="M599.08,-252C599.08,-252 492.92,-252 492.92,-252 486.92,-252 480.92,-246 480.92,-240 480.92,-240 480.92,-228 480.92,-228 480.92,-222 486.92,-216 492.92,-216 492.92,-216 599.08,-216 599.08,-216 605.08,-216 611.08,-222 611.08,-228 611.08,-228 611.08,-240 611.08,-240 611.08,-246 605.08,-252 599.08,-252"/>
<text text-anchor="middle" x="546" y="-230.4" font-family="Helvetica,sans-Serif" font-size="12.00">hardship_loan_status</text>
</g>
<!-- hardship_type&#45;&gt;hardship_loan_status -->
<g id="edge54" class="edge">
<title>hardship_type&#45;&gt;hardship_loan_status</title>
<path fill="none" stroke="black" d="M546,-269.97C546,-267.57 546,-265.06 546,-262.52"/>
<polygon fill="black" stroke="black" points="549.5,-262.24 546,-252.24 542.5,-262.24 549.5,-262.24"/>
</g>
</g>
</svg>
