<?xml version="1.0" encoding="UTF-8" standalone="no"?>
<!DOCTYPE svg PUBLIC "-//W3C//DTD SVG 1.1//EN"
 "http://www.w3.org/Graphics/SVG/1.1/DTD/svg11.dtd">
<!-- Generated by graphviz version 2.50.0 (0)
 -->
<!-- Pages: 1 -->
<svg width="576pt" height="358pt"
 viewBox="0.00 0.00 576.00 357.59" xmlns="http://www.w3.org/2000/svg" xmlns:xlink="http://www.w3.org/1999/xlink">
<g id="graph0" class="graph" transform="scale(0.75 0.75) rotate(0) translate(4 472)">
<polygon fill="white" stroke="transparent" points="-4,4 -4,-472 762.73,-472 762.73,4 -4,4"/>
<!-- acc_open_past_24mths -->
<g id="node1" class="node">
<title>acc_open_past_24mths</title>
<path fill="#e1f5fe" stroke="black" d="M310.63,-144C310.63,-144 190.78,-144 190.78,-144 184.78,-144 178.78,-138 178.78,-132 178.78,-132 178.78,-120 178.78,-120 178.78,-114 184.78,-108 190.78,-108 190.78,-108 310.63,-108 310.63,-108 316.63,-108 322.63,-114 322.63,-120 322.63,-120 322.63,-132 322.63,-132 322.63,-138 316.63,-144 310.63,-144"/>
<text text-anchor="middle" x="250.7" y="-122.4" font-family="Helvetica,sans-Serif" font-size="12.00">acc_open_past_24mths</text>
</g>
<!-- num_tl_op_past_12m -->
<g id="node2" class="node">
<title>num_tl_op_past_12m</title>
<path fill="#e1f5fe" stroke="black" d="M304.61,-90C304.61,-90 196.79,-90 196.79,-90 190.79,-90 184.79,-84 184.79,-78 184.79,-78 184.79,-66 184.79,-66 184.79,-60 190.79,-54 196.79,-54 196.79,-54 304.61,-54 304.61,-54 310.61,-54 316.61,-60 316.61,-66 316.61,-66 316.61,-78 316.61,-78 316.61,-84 310.61,-90 304.61,-90"/>
<text text-anchor="middle" x="250.7" y="-68.4" font-family="Helvetica,sans-Serif" font-size="12.00">num_tl_op_past_12m</text>
</g>
<!-- acc_open_past_24mths&#45;&gt;num_tl_op_past_12m -->
<g id="edge1" class="edge">
<title>acc_open_past_24mths&#45;&gt;num_tl_op_past_12m</title>
<path fill="none" stroke="black" d="M250.7,-107.97C250.7,-105.57 250.7,-103.06 250.7,-100.52"/>
<polygon fill="black" stroke="black" points="254.2,-100.24 250.7,-90.24 247.2,-100.24 254.2,-100.24"/>
</g>
<!-- mths_since_recent_bc -->
<g id="node3" class="node">
<title>mths_since_recent_bc</title>
<path fill="#e1f5fe" stroke="black" d="M306.77,-36C306.77,-36 194.64,-36 194.64,-36 188.64,-36 182.64,-30 182.64,-24 182.64,-24 182.64,-12 182.64,-12 182.64,-6 188.64,0 194.64,0 194.64,0 306.77,0 306.77,0 312.77,0 318.77,-6 318.77,-12 318.77,-12 318.77,-24 318.77,-24 318.77,-30 312.77,-36 306.77,-36"/>
<text text-anchor="middle" x="250.7" y="-14.4" font-family="Helvetica,sans-Serif" font-size="12.00">mths_since_recent_bc</text>
</g>
<!-- num_tl_op_past_12m&#45;&gt;mths_since_recent_bc -->
<g id="edge2" class="edge">
<title>num_tl_op_past_12m&#45;&gt;mths_since_recent_bc</title>
<path fill="none" stroke="black" d="M250.7,-53.97C250.7,-51.57 250.7,-49.06 250.7,-46.52"/>
<polygon fill="black" stroke="black" points="254.2,-46.24 250.7,-36.24 247.2,-46.24 254.2,-46.24"/>
</g>
<!-- all_util -->
<g id="node4" class="node">
<title>all_util</title>
<path fill="#e1f5fe" stroke="black" d="M251.7,-252C251.7,-252 221.7,-252 221.7,-252 215.7,-252 209.7,-246 209.7,-240 209.7,-240 209.7,-228 209.7,-228 209.7,-222 215.7,-216 221.7,-216 221.7,-216 251.7,-216 251.7,-216 257.7,-216 263.7,-222 263.7,-228 263.7,-228 263.7,-240 263.7,-240 263.7,-246 257.7,-252 251.7,-252"/>
<text text-anchor="middle" x="236.7" y="-230.4" font-family="Helvetica,sans-Serif" font-size="12.00">all_util</text>
</g>
<!-- open_rv_24m -->
<g id="node5" class="node">
<title>open_rv_24m</title>
<path fill="#e1f5fe" stroke="black" d="M215.59,-198C215.59,-198 149.82,-198 149.82,-198 143.82,-198 137.82,-192 137.82,-186 137.82,-186 137.82,-174 137.82,-174 137.82,-168 143.82,-162 149.82,-162 149.82,-162 215.59,-162 215.59,-162 221.59,-162 227.59,-168 227.59,-174 227.59,-174 227.59,-186 227.59,-186 227.59,-192 221.59,-198 215.59,-198"/>
<text text-anchor="middle" x="182.7" y="-176.4" font-family="Helvetica,sans-Serif" font-size="12.00">open_rv_24m</text>
</g>
<!-- all_util&#45;&gt;open_rv_24m -->
<g id="edge3" class="edge">
<title>all_util&#45;&gt;open_rv_24m</title>
<path fill="none" stroke="black" d="M219.02,-215.97C215.51,-212.6 211.77,-208.99 208.06,-205.42"/>
<polygon fill="black" stroke="black" points="210.24,-202.66 200.61,-198.24 205.38,-207.7 210.24,-202.66"/>
</g>
<!-- open_act_il -->
<g id="node6" class="node">
<title>open_act_il</title>
<path fill="#e1f5fe" stroke="black" d="M317.59,-198C317.59,-198 263.82,-198 263.82,-198 257.82,-198 251.82,-192 251.82,-186 251.82,-186 251.82,-174 251.82,-174 251.82,-168 257.82,-162 263.82,-162 263.82,-162 317.59,-162 317.59,-162 323.59,-162 329.59,-168 329.59,-174 329.59,-174 329.59,-186 329.59,-186 329.59,-192 323.59,-198 317.59,-198"/>
<text text-anchor="middle" x="290.7" y="-176.4" font-family="Helvetica,sans-Serif" font-size="12.00">open_act_il</text>
</g>
<!-- all_util&#45;&gt;open_act_il -->
<g id="edge4" class="edge">
<title>all_util&#45;&gt;open_act_il</title>
<path fill="none" stroke="black" d="M254.38,-215.97C257.89,-212.6 261.64,-208.99 265.34,-205.42"/>
<polygon fill="black" stroke="black" points="268.02,-207.7 272.8,-198.24 263.16,-202.66 268.02,-207.7"/>
</g>
<!-- inq_last_12m -->
<g id="node7" class="node">
<title>inq_last_12m</title>
<path fill="#e1f5fe" stroke="black" d="M101.58,-198C101.58,-198 37.82,-198 37.82,-198 31.82,-198 25.82,-192 25.82,-186 25.82,-186 25.82,-174 25.82,-174 25.82,-168 31.82,-162 37.82,-162 37.82,-162 101.58,-162 101.58,-162 107.58,-162 113.58,-168 113.58,-174 113.58,-174 113.58,-186 113.58,-186 113.58,-192 107.58,-198 101.58,-198"/>
<text text-anchor="middle" x="69.7" y="-176.4" font-family="Helvetica,sans-Serif" font-size="12.00">inq_last_12m</text>
</g>
<!-- all_util&#45;&gt;inq_last_12m -->
<g id="edge5" class="edge">
<title>all_util&#45;&gt;inq_last_12m</title>
<path fill="none" stroke="black" d="M209.37,-220.73C205.17,-219.03 200.85,-217.4 196.7,-216 165.85,-205.6 157.06,-206.73 125.7,-198 124.97,-197.8 124.23,-197.59 123.49,-197.38"/>
<polygon fill="black" stroke="black" points="124.24,-193.96 113.67,-194.56 122.31,-200.68 124.24,-193.96"/>
</g>
<!-- total_rev_hi_lim -->
<g id="node8" class="node">
<title>total_rev_hi_lim</title>
<path fill="#e1f5fe" stroke="black" d="M442.74,-198C442.74,-198 366.66,-198 366.66,-198 360.66,-198 354.66,-192 354.66,-186 354.66,-186 354.66,-174 354.66,-174 354.66,-168 360.66,-162 366.66,-162 366.66,-162 442.74,-162 442.74,-162 448.74,-162 454.74,-168 454.74,-174 454.74,-174 454.74,-186 454.74,-186 454.74,-192 448.74,-198 442.74,-198"/>
<text text-anchor="middle" x="404.7" y="-176.4" font-family="Helvetica,sans-Serif" font-size="12.00">total_rev_hi_lim</text>
</g>
<!-- all_util&#45;&gt;total_rev_hi_lim -->
<g id="edge6" class="edge">
<title>all_util&#45;&gt;total_rev_hi_lim</title>
<path fill="none" stroke="black" d="M264.07,-224.53C285.94,-217.76 317.41,-208.02 345.03,-199.47"/>
<polygon fill="black" stroke="black" points="346.1,-202.8 354.62,-196.5 344.03,-196.12 346.1,-202.8"/>
</g>
<!-- open_rv_24m&#45;&gt;acc_open_past_24mths -->
<g id="edge7" class="edge">
<title>open_rv_24m&#45;&gt;acc_open_past_24mths</title>
<path fill="none" stroke="black" d="M204.97,-161.97C209.73,-158.33 214.85,-154.42 219.87,-150.58"/>
<polygon fill="black" stroke="black" points="222.34,-153.1 228.15,-144.24 218.08,-147.54 222.34,-153.1"/>
</g>
<!-- open_act_il&#45;&gt;acc_open_past_24mths -->
<g id="edge8" class="edge">
<title>open_act_il&#45;&gt;acc_open_past_24mths</title>
<path fill="none" stroke="black" d="M277.6,-161.97C275.21,-158.86 272.67,-155.56 270.14,-152.27"/>
<polygon fill="black" stroke="black" points="272.84,-150.04 263.97,-144.24 267.29,-154.3 272.84,-150.04"/>
</g>
<!-- mths_since_recent_inq -->
<g id="node9" class="node">
<title>mths_since_recent_inq</title>
<path fill="#e1f5fe" stroke="black" d="M127.61,-144C127.61,-144 11.8,-144 11.8,-144 5.8,-144 -0.2,-138 -0.2,-132 -0.2,-132 -0.2,-120 -0.2,-120 -0.2,-114 5.8,-108 11.8,-108 11.8,-108 127.61,-108 127.61,-108 133.61,-108 139.61,-114 139.61,-120 139.61,-120 139.61,-132 139.61,-132 139.61,-138 133.61,-144 127.61,-144"/>
<text text-anchor="middle" x="69.7" y="-122.4" font-family="Helvetica,sans-Serif" font-size="12.00">mths_since_recent_inq</text>
</g>
<!-- inq_last_12m&#45;&gt;mths_since_recent_inq -->
<g id="edge9" class="edge">
<title>inq_last_12m&#45;&gt;mths_since_recent_inq</title>
<path fill="none" stroke="black" d="M69.7,-161.97C69.7,-159.57 69.7,-157.06 69.7,-154.52"/>
<polygon fill="black" stroke="black" points="73.2,-154.24 69.7,-144.24 66.2,-154.24 73.2,-154.24"/>
</g>
<!-- total_bc_limit -->
<g id="node10" class="node">
<title>total_bc_limit</title>
<path fill="#e1f5fe" stroke="black" d="M435.73,-144C435.73,-144 373.67,-144 373.67,-144 367.67,-144 361.67,-138 361.67,-132 361.67,-132 361.67,-120 361.67,-120 361.67,-114 367.67,-108 373.67,-108 373.67,-108 435.73,-108 435.73,-108 441.73,-108 447.73,-114 447.73,-120 447.73,-120 447.73,-132 447.73,-132 447.73,-138 441.73,-144 435.73,-144"/>
<text text-anchor="middle" x="404.7" y="-122.4" font-family="Helvetica,sans-Serif" font-size="12.00">total_bc_limit</text>
</g>
<!-- total_rev_hi_lim&#45;&gt;total_bc_limit -->
<g id="edge10" class="edge">
<title>total_rev_hi_lim&#45;&gt;total_bc_limit</title>
<path fill="none" stroke="black" d="M404.7,-161.97C404.7,-159.57 404.7,-157.06 404.7,-154.52"/>
<polygon fill="black" stroke="black" points="408.2,-154.24 404.7,-144.24 401.2,-154.24 408.2,-154.24"/>
</g>
<!-- annual_inc -->
<g id="node11" class="node">
<title>annual_inc</title>
<path fill="#e1f5fe" stroke="black" d="M740.75,-468C740.75,-468 690.65,-468 690.65,-468 684.65,-468 678.65,-462 678.65,-456 678.65,-456 678.65,-444 678.65,-444 678.65,-438 684.65,-432 690.65,-432 690.65,-432 740.75,-432 740.75,-432 746.75,-432 752.75,-438 752.75,-444 752.75,-444 752.75,-456 752.75,-456 752.75,-462 746.75,-468 740.75,-468"/>
<text text-anchor="middle" x="715.7" y="-446.4" font-family="Helvetica,sans-Serif" font-size="12.00">annual_inc</text>
</g>
<!-- funded_amnt -->
<g id="node12" class="node">
<title>funded_amnt</title>
<path fill="#e1f5fe" stroke="black" d="M746.76,-414C746.76,-414 684.65,-414 684.65,-414 678.65,-414 672.65,-408 672.65,-402 672.65,-402 672.65,-390 672.65,-390 672.65,-384 678.65,-378 684.65,-378 684.65,-378 746.76,-378 746.76,-378 752.76,-378 758.76,-384 758.76,-390 758.76,-390 758.76,-402 758.76,-402 758.76,-408 752.76,-414 746.76,-414"/>
<text text-anchor="middle" x="715.7" y="-392.4" font-family="Helvetica,sans-Serif" font-size="12.00">funded_amnt</text>
</g>
<!-- annual_inc&#45;&gt;funded_amnt -->
<g id="edge11" class="edge">
<title>annual_inc&#45;&gt;funded_amnt</title>
<path fill="none" stroke="black" d="M715.7,-431.97C715.7,-429.57 715.7,-427.06 715.7,-424.52"/>
<polygon fill="black" stroke="black" points="719.2,-424.24 715.7,-414.24 712.2,-424.24 719.2,-424.24"/>
</g>
<!-- term -->
<g id="node13" class="node">
<title>term</title>
<path fill="#e1f5fe" stroke="black" d="M730.7,-360C730.7,-360 700.7,-360 700.7,-360 694.7,-360 688.7,-354 688.7,-348 688.7,-348 688.7,-336 688.7,-336 688.7,-330 694.7,-324 700.7,-324 700.7,-324 730.7,-324 730.7,-324 736.7,-324 742.7,-330 742.7,-336 742.7,-336 742.7,-348 742.7,-348 742.7,-354 736.7,-360 730.7,-360"/>
<text text-anchor="middle" x="715.7" y="-338.4" font-family="Helvetica,sans-Serif" font-size="12.00">term</text>
</g>
<!-- funded_amnt&#45;&gt;term -->
<g id="edge12" class="edge">
<title>funded_amnt&#45;&gt;term</title>
<path fill="none" stroke="black" d="M715.7,-377.97C715.7,-375.57 715.7,-373.06 715.7,-370.52"/>
<polygon fill="black" stroke="black" points="719.2,-370.24 715.7,-360.24 712.2,-370.24 719.2,-370.24"/>
</g>
<!-- grade -->
<g id="node14" class="node">
<title>grade</title>
<path fill="#e1f5fe" stroke="black" d="M730.7,-306C730.7,-306 700.7,-306 700.7,-306 694.7,-306 688.7,-300 688.7,-294 688.7,-294 688.7,-282 688.7,-282 688.7,-276 694.7,-270 700.7,-270 700.7,-270 730.7,-270 730.7,-270 736.7,-270 742.7,-276 742.7,-282 742.7,-282 742.7,-294 742.7,-294 742.7,-300 736.7,-306 730.7,-306"/>
<text text-anchor="middle" x="715.7" y="-284.4" font-family="Helvetica,sans-Serif" font-size="12.00">grade</text>
</g>
<!-- term&#45;&gt;grade -->
<g id="edge13" class="edge">
<title>term&#45;&gt;grade</title>
<path fill="none" stroke="black" d="M715.7,-323.97C715.7,-321.57 715.7,-319.06 715.7,-316.52"/>
<polygon fill="black" stroke="black" points="719.2,-316.24 715.7,-306.24 712.2,-316.24 719.2,-316.24"/>
</g>
<!-- int_rate% -->
<g id="node17" class="node">
<title>int_rate%</title>
<path fill="#e1f5fe" stroke="black" d="M737.9,-252C737.9,-252 695.51,-252 695.51,-252 689.51,-252 683.51,-246 683.51,-240 683.51,-240 683.51,-228 683.51,-228 683.51,-222 689.51,-216 695.51,-216 695.51,-216 737.9,-216 737.9,-216 743.9,-216 749.9,-222 749.9,-228 749.9,-228 749.9,-240 749.9,-240 749.9,-246 743.9,-252 737.9,-252"/>
<text text-anchor="middle" x="716.7" y="-230.4" font-family="Helvetica,sans-Serif" font-size="12.00">int_rate%</text>
</g>
<!-- grade&#45;&gt;int_rate% -->
<g id="edge16" class="edge">
<title>grade&#45;&gt;int_rate%</title>
<path fill="none" stroke="black" d="M716.03,-269.97C716.08,-267.49 716.13,-264.87 716.18,-262.24"/>
<polygon fill="black" stroke="black" points="719.68,-262.31 716.37,-252.24 712.68,-262.17 719.68,-262.31"/>
</g>
<!-- binary_loan_status -->
<g id="node18" class="node">
<title>binary_loan_status</title>
<path fill="#e1f5fe" stroke="black" d="M645.94,-252C645.94,-252 553.47,-252 553.47,-252 547.47,-252 541.47,-246 541.47,-240 541.47,-240 541.47,-228 541.47,-228 541.47,-222 547.47,-216 553.47,-216 553.47,-216 645.94,-216 645.94,-216 651.94,-216 657.94,-222 657.94,-228 657.94,-228 657.94,-240 657.94,-240 657.94,-246 651.94,-252 645.94,-252"/>
<text text-anchor="middle" x="599.7" y="-230.4" font-family="Helvetica,sans-Serif" font-size="12.00">binary_loan_status</text>
</g>
<!-- grade&#45;&gt;binary_loan_status -->
<g id="edge17" class="edge">
<title>grade&#45;&gt;binary_loan_status</title>
<path fill="none" stroke="black" d="M688.51,-274.81C676.09,-269.24 661.02,-262.49 646.85,-256.14"/>
<polygon fill="black" stroke="black" points="648.26,-252.93 637.71,-252.04 645.4,-259.32 648.26,-252.93"/>
</g>
<!-- loan_age -->
<g id="node15" class="node">
<title>loan_age</title>
<path fill="#e1f5fe" stroke="black" d="M193.59,-306C193.59,-306 151.82,-306 151.82,-306 145.82,-306 139.82,-300 139.82,-294 139.82,-294 139.82,-282 139.82,-282 139.82,-276 145.82,-270 151.82,-270 151.82,-270 193.59,-270 193.59,-270 199.59,-270 205.59,-276 205.59,-282 205.59,-282 205.59,-294 205.59,-294 205.59,-300 199.59,-306 193.59,-306"/>
<text text-anchor="middle" x="172.7" y="-284.4" font-family="Helvetica,sans-Serif" font-size="12.00">loan_age</text>
</g>
<!-- loan_age&#45;&gt;all_util -->
<g id="edge14" class="edge">
<title>loan_age&#45;&gt;all_util</title>
<path fill="none" stroke="black" d="M193.66,-269.97C198.14,-266.33 202.96,-262.42 207.68,-258.58"/>
<polygon fill="black" stroke="black" points="209.93,-261.27 215.48,-252.24 205.51,-255.83 209.93,-261.27"/>
</g>
<!-- time_since_last_payment -->
<g id="node16" class="node">
<title>time_since_last_payment</title>
<path fill="#e1f5fe" stroke="black" d="M172.61,-252C172.61,-252 44.8,-252 44.8,-252 38.8,-252 32.8,-246 32.8,-240 32.8,-240 32.8,-228 32.8,-228 32.8,-222 38.8,-216 44.8,-216 44.8,-216 172.61,-216 172.61,-216 178.61,-216 184.61,-222 184.61,-228 184.61,-228 184.61,-240 184.61,-240 184.61,-246 178.61,-252 172.61,-252"/>
<text text-anchor="middle" x="108.7" y="-230.4" font-family="Helvetica,sans-Serif" font-size="12.00">time_since_last_payment</text>
</g>
<!-- loan_age&#45;&gt;time_since_last_payment -->
<g id="edge15" class="edge">
<title>loan_age&#45;&gt;time_since_last_payment</title>
<path fill="none" stroke="black" d="M151.75,-269.97C147.26,-266.33 142.45,-262.42 137.72,-258.58"/>
<polygon fill="black" stroke="black" points="139.89,-255.83 129.92,-252.24 135.48,-261.27 139.89,-255.83"/>
</g>
<!-- home_ownership -->
<g id="node19" class="node">
<title>home_ownership</title>
<path fill="#e1f5fe" stroke="black" d="M504.59,-252C504.59,-252 420.81,-252 420.81,-252 414.81,-252 408.81,-246 408.81,-240 408.81,-240 408.81,-228 408.81,-228 408.81,-222 414.81,-216 420.81,-216 420.81,-216 504.59,-216 504.59,-216 510.59,-216 516.59,-222 516.59,-228 516.59,-228 516.59,-240 516.59,-240 516.59,-246 510.59,-252 504.59,-252"/>
<text text-anchor="middle" x="462.7" y="-230.4" font-family="Helvetica,sans-Serif" font-size="12.00">home_ownership</text>
</g>
<!-- home_ownership&#45;&gt;total_rev_hi_lim -->
<g id="edge19" class="edge">
<title>home_ownership&#45;&gt;total_rev_hi_lim</title>
<path fill="none" stroke="black" d="M443.71,-215.97C439.85,-212.51 435.71,-208.8 431.63,-205.14"/>
<polygon fill="black" stroke="black" points="433.72,-202.31 423.93,-198.24 429.04,-207.52 433.72,-202.31"/>
</g>
<!-- avg_cur_bal -->
<g id="node20" class="node">
<title>avg_cur_bal</title>
<path fill="#e1f5fe" stroke="black" d="M549.58,-198C549.58,-198 491.82,-198 491.82,-198 485.82,-198 479.82,-192 479.82,-186 479.82,-186 479.82,-174 479.82,-174 479.82,-168 485.82,-162 491.82,-162 491.82,-162 549.58,-162 549.58,-162 555.58,-162 561.58,-168 561.58,-174 561.58,-174 561.58,-186 561.58,-186 561.58,-192 555.58,-198 549.58,-198"/>
<text text-anchor="middle" x="520.7" y="-176.4" font-family="Helvetica,sans-Serif" font-size="12.00">avg_cur_bal</text>
</g>
<!-- home_ownership&#45;&gt;avg_cur_bal -->
<g id="edge18" class="edge">
<title>home_ownership&#45;&gt;avg_cur_bal</title>
<path fill="none" stroke="black" d="M481.69,-215.97C485.56,-212.51 489.69,-208.8 493.78,-205.14"/>
<polygon fill="black" stroke="black" points="496.36,-207.52 501.47,-198.24 491.69,-202.31 496.36,-207.52"/>
</g>
<!-- debt_settlement_flag -->
<g id="node21" class="node">
<title>debt_settlement_flag</title>
<path fill="#e1f5fe" stroke="black" d="M651.61,-306C651.61,-306 547.79,-306 547.79,-306 541.79,-306 535.79,-300 535.79,-294 535.79,-294 535.79,-282 535.79,-282 535.79,-276 541.79,-270 547.79,-270 547.79,-270 651.61,-270 651.61,-270 657.61,-270 663.61,-276 663.61,-282 663.61,-282 663.61,-294 663.61,-294 663.61,-300 657.61,-306 651.61,-306"/>
<text text-anchor="middle" x="599.7" y="-284.4" font-family="Helvetica,sans-Serif" font-size="12.00">debt_settlement_flag</text>
</g>
<!-- debt_settlement_flag&#45;&gt;int_rate% -->
<g id="edge21" class="edge">
<title>debt_settlement_flag&#45;&gt;int_rate%</title>
<path fill="none" stroke="black" d="M638.01,-269.97C649.58,-264.83 662.35,-259.16 674.18,-253.9"/>
<polygon fill="black" stroke="black" points="675.7,-257.05 683.42,-249.79 672.86,-250.66 675.7,-257.05"/>
</g>
<!-- debt_settlement_flag&#45;&gt;binary_loan_status -->
<g id="edge20" class="edge">
<title>debt_settlement_flag&#45;&gt;binary_loan_status</title>
<path fill="none" stroke="black" d="M599.7,-269.97C599.7,-267.57 599.7,-265.06 599.7,-262.52"/>
<polygon fill="black" stroke="black" points="603.2,-262.24 599.7,-252.24 596.2,-262.24 603.2,-262.24"/>
</g>
<!-- debt_settlement_flag&#45;&gt;home_ownership -->
<g id="edge22" class="edge">
<title>debt_settlement_flag&#45;&gt;home_ownership</title>
<path fill="none" stroke="black" d="M554.84,-269.97C542.78,-265.39 529.6,-260.39 517.08,-255.64"/>
<polygon fill="black" stroke="black" points="518.25,-252.34 507.66,-252.06 515.77,-258.89 518.25,-252.34"/>
</g>
</g>
</svg>
