<?xml version="1.0" encoding="UTF-8" standalone="no"?>
<!DOCTYPE svg PUBLIC "-//W3C//DTD SVG 1.1//EN"
 "http://www.w3.org/Graphics/SVG/1.1/DTD/svg11.dtd">
<!-- Generated by graphviz version 2.50.0 (0)
 -->
<!-- Pages: 1 -->
<svg width="576pt" height="65pt"
 viewBox="0.00 0.00 576.00 65.30" xmlns="http://www.w3.org/2000/svg" xmlns:xlink="http://www.w3.org/1999/xlink">
<g id="graph0" class="graph" transform="scale(0.43 0.43) rotate(0) translate(4 148)">
<polygon fill="white" stroke="transparent" points="-4,4 -4,-148 1336.73,-148 1336.73,4 -4,4"/>
<!-- dti -->
<g id="node1" class="node">
<title>dti</title>
<path fill="#e1f5fe" stroke="black" d="M289.69,-90C289.69,-90 259.69,-90 259.69,-90 253.69,-90 247.69,-84 247.69,-78 247.69,-78 247.69,-66 247.69,-66 247.69,-60 253.69,-54 259.69,-54 259.69,-54 289.69,-54 289.69,-54 295.69,-54 301.69,-60 301.69,-66 301.69,-66 301.69,-78 301.69,-78 301.69,-84 295.69,-90 289.69,-90"/>
<text text-anchor="middle" x="274.69" y="-68.4" font-family="Helvetica,sans-Serif" font-size="12.00">dti</text>
</g>
<!-- total_rev_hi_lim -->
<g id="node2" class="node">
<title>total_rev_hi_lim</title>
<path fill="#e1f5fe" stroke="black" d="M318.74,-36C318.74,-36 242.65,-36 242.65,-36 236.65,-36 230.65,-30 230.65,-24 230.65,-24 230.65,-12 230.65,-12 230.65,-6 236.65,0 242.65,0 242.65,0 318.74,0 318.74,0 324.74,0 330.74,-6 330.74,-12 330.74,-12 330.74,-24 330.74,-24 330.74,-30 324.74,-36 318.74,-36"/>
<text text-anchor="middle" x="280.69" y="-14.4" font-family="Helvetica,sans-Serif" font-size="12.00">total_rev_hi_lim</text>
</g>
<!-- dti&#45;&gt;total_rev_hi_lim -->
<g id="edge1" class="edge">
<title>dti&#45;&gt;total_rev_hi_lim</title>
<path fill="none" stroke="black" d="M276.66,-53.97C276.95,-51.49 277.25,-48.87 277.55,-46.24"/>
<polygon fill="black" stroke="black" points="281.04,-46.58 278.7,-36.24 274.08,-45.78 281.04,-46.58"/>
</g>
<!-- avg_cur_bal -->
<g id="node3" class="node">
<title>avg_cur_bal</title>
<path fill="#e1f5fe" stroke="black" d="M193.57,-36C193.57,-36 135.81,-36 135.81,-36 129.81,-36 123.81,-30 123.81,-24 123.81,-24 123.81,-12 123.81,-12 123.81,-6 129.81,0 135.81,0 135.81,0 193.57,0 193.57,0 199.57,0 205.57,-6 205.57,-12 205.57,-12 205.57,-24 205.57,-24 205.57,-30 199.57,-36 193.57,-36"/>
<text text-anchor="middle" x="164.69" y="-14.4" font-family="Helvetica,sans-Serif" font-size="12.00">avg_cur_bal</text>
</g>
<!-- dti&#45;&gt;avg_cur_bal -->
<g id="edge2" class="edge">
<title>dti&#45;&gt;avg_cur_bal</title>
<path fill="none" stroke="black" d="M247.5,-58.15C236.14,-52.77 222.62,-46.38 209.84,-40.34"/>
<polygon fill="black" stroke="black" points="211.24,-37.13 200.71,-36.02 208.25,-43.46 211.24,-37.13"/>
</g>
<!-- term -->
<g id="node4" class="node">
<title>term</title>
<path fill="#e1f5fe" stroke="black" d="M436.69,-144C436.69,-144 406.69,-144 406.69,-144 400.69,-144 394.69,-138 394.69,-132 394.69,-132 394.69,-120 394.69,-120 394.69,-114 400.69,-108 406.69,-108 406.69,-108 436.69,-108 436.69,-108 442.69,-108 448.69,-114 448.69,-120 448.69,-120 448.69,-132 448.69,-132 448.69,-138 442.69,-144 436.69,-144"/>
<text text-anchor="middle" x="421.69" y="-122.4" font-family="Helvetica,sans-Serif" font-size="12.00">term</text>
</g>
<!-- funded_amnt -->
<g id="node5" class="node">
<title>funded_amnt</title>
<path fill="#e1f5fe" stroke="black" d="M400.75,-90C400.75,-90 338.64,-90 338.64,-90 332.64,-90 326.64,-84 326.64,-78 326.64,-78 326.64,-66 326.64,-66 326.64,-60 332.64,-54 338.64,-54 338.64,-54 400.75,-54 400.75,-54 406.75,-54 412.75,-60 412.75,-66 412.75,-66 412.75,-78 412.75,-78 412.75,-84 406.75,-90 400.75,-90"/>
<text text-anchor="middle" x="369.69" y="-68.4" font-family="Helvetica,sans-Serif" font-size="12.00">funded_amnt</text>
</g>
<!-- term&#45;&gt;funded_amnt -->
<g id="edge3" class="edge">
<title>term&#45;&gt;funded_amnt</title>
<path fill="none" stroke="black" d="M404.67,-107.97C401.29,-104.6 397.68,-100.99 394.12,-97.42"/>
<polygon fill="black" stroke="black" points="396.48,-94.84 386.94,-90.24 391.53,-99.79 396.48,-94.84"/>
</g>
<!-- annual_inc -->
<g id="node6" class="node">
<title>annual_inc</title>
<path fill="#e1f5fe" stroke="black" d="M499.74,-90C499.74,-90 449.65,-90 449.65,-90 443.65,-90 437.65,-84 437.65,-78 437.65,-78 437.65,-66 437.65,-66 437.65,-60 443.65,-54 449.65,-54 449.65,-54 499.74,-54 499.74,-54 505.74,-54 511.74,-60 511.74,-66 511.74,-66 511.74,-78 511.74,-78 511.74,-84 505.74,-90 499.74,-90"/>
<text text-anchor="middle" x="474.69" y="-68.4" font-family="Helvetica,sans-Serif" font-size="12.00">annual_inc</text>
</g>
<!-- term&#45;&gt;annual_inc -->
<g id="edge4" class="edge">
<title>term&#45;&gt;annual_inc</title>
<path fill="none" stroke="black" d="M439.05,-107.97C442.49,-104.6 446.17,-100.99 449.8,-97.42"/>
<polygon fill="black" stroke="black" points="452.43,-99.74 457.12,-90.24 447.53,-94.75 452.43,-99.74"/>
</g>
<!-- home_ownership -->
<g id="node7" class="node">
<title>home_ownership</title>
<path fill="#e1f5fe" stroke="black" d="M95.58,-90C95.58,-90 11.8,-90 11.8,-90 5.8,-90 -0.2,-84 -0.2,-78 -0.2,-78 -0.2,-66 -0.2,-66 -0.2,-60 5.8,-54 11.8,-54 11.8,-54 95.58,-54 95.58,-54 101.58,-54 107.58,-60 107.58,-66 107.58,-66 107.58,-78 107.58,-78 107.58,-84 101.58,-90 95.58,-90"/>
<text text-anchor="middle" x="53.69" y="-68.4" font-family="Helvetica,sans-Serif" font-size="12.00">home_ownership</text>
</g>
<!-- home_ownership&#45;&gt;avg_cur_bal -->
<g id="edge5" class="edge">
<title>home_ownership&#45;&gt;avg_cur_bal</title>
<path fill="none" stroke="black" d="M90.04,-53.97C99.34,-49.62 109.45,-44.88 119.14,-40.34"/>
<polygon fill="black" stroke="black" points="120.7,-43.48 128.27,-36.06 117.73,-37.14 120.7,-43.48"/>
</g>
<!-- debt_settlement_flag -->
<g id="node8" class="node">
<title>debt_settlement_flag</title>
<path fill="#e1f5fe" stroke="black" d="M698.61,-144C698.61,-144 594.78,-144 594.78,-144 588.78,-144 582.78,-138 582.78,-132 582.78,-132 582.78,-120 582.78,-120 582.78,-114 588.78,-108 594.78,-108 594.78,-108 698.61,-108 698.61,-108 704.61,-108 710.61,-114 710.61,-120 710.61,-120 710.61,-132 710.61,-132 710.61,-138 704.61,-144 698.61,-144"/>
<text text-anchor="middle" x="646.69" y="-122.4" font-family="Helvetica,sans-Serif" font-size="12.00">debt_settlement_flag</text>
</g>
<!-- time_since_last_payment -->
<g id="node9" class="node">
<title>time_since_last_payment</title>
<path fill="#e1f5fe" stroke="black" d="M676.6,-90C676.6,-90 548.79,-90 548.79,-90 542.79,-90 536.79,-84 536.79,-78 536.79,-78 536.79,-66 536.79,-66 536.79,-60 542.79,-54 548.79,-54 548.79,-54 676.6,-54 676.6,-54 682.6,-54 688.6,-60 688.6,-66 688.6,-66 688.6,-78 688.6,-78 688.6,-84 682.6,-90 676.6,-90"/>
<text text-anchor="middle" x="612.69" y="-68.4" font-family="Helvetica,sans-Serif" font-size="12.00">time_since_last_payment</text>
</g>
<!-- debt_settlement_flag&#45;&gt;time_since_last_payment -->
<g id="edge6" class="edge">
<title>debt_settlement_flag&#45;&gt;time_since_last_payment</title>
<path fill="none" stroke="black" d="M635.56,-107.97C633.64,-105.04 631.61,-101.93 629.58,-98.83"/>
<polygon fill="black" stroke="black" points="632.37,-96.7 623.97,-90.24 626.51,-100.53 632.37,-96.7"/>
</g>
<!-- binary_loan_status -->
<g id="node10" class="node">
<title>binary_loan_status</title>
<path fill="#e1f5fe" stroke="black" d="M759.93,-36C759.93,-36 667.46,-36 667.46,-36 661.46,-36 655.46,-30 655.46,-24 655.46,-24 655.46,-12 655.46,-12 655.46,-6 661.46,0 667.46,0 667.46,0 759.93,0 759.93,0 765.93,0 771.93,-6 771.93,-12 771.93,-12 771.93,-24 771.93,-24 771.93,-30 765.93,-36 759.93,-36"/>
<text text-anchor="middle" x="713.69" y="-14.4" font-family="Helvetica,sans-Serif" font-size="12.00">binary_loan_status</text>
</g>
<!-- debt_settlement_flag&#45;&gt;binary_loan_status -->
<g id="edge7" class="edge">
<title>debt_settlement_flag&#45;&gt;binary_loan_status</title>
<path fill="none" stroke="black" d="M682.25,-107.9C689.31,-103.02 695.98,-97.06 700.69,-90 709.23,-77.21 712.57,-60.36 713.73,-46.29"/>
<polygon fill="black" stroke="black" points="717.23,-46.35 714.25,-36.19 710.24,-46 717.23,-46.35"/>
</g>
<!-- time_since_last_payment&#45;&gt;binary_loan_status -->
<g id="edge8" class="edge">
<title>time_since_last_payment&#45;&gt;binary_loan_status</title>
<path fill="none" stroke="black" d="M645.77,-53.97C653.96,-49.75 662.86,-45.17 671.43,-40.76"/>
<polygon fill="black" stroke="black" points="673.26,-43.75 680.55,-36.06 670.06,-37.53 673.26,-43.75"/>
</g>
<!-- hardship_type -->
<g id="node11" class="node">
<title>hardship_type</title>
<path fill="#e1f5fe" stroke="black" d="M869.58,-90C869.58,-90 801.81,-90 801.81,-90 795.81,-90 789.81,-84 789.81,-78 789.81,-78 789.81,-66 789.81,-66 789.81,-60 795.81,-54 801.81,-54 801.81,-54 869.58,-54 869.58,-54 875.58,-54 881.58,-60 881.58,-66 881.58,-66 881.58,-78 881.58,-78 881.58,-84 875.58,-90 869.58,-90"/>
<text text-anchor="middle" x="835.69" y="-68.4" font-family="Helvetica,sans-Serif" font-size="12.00">hardship_type</text>
</g>
<!-- hardship_type&#45;&gt;binary_loan_status -->
<g id="edge9" class="edge">
<title>hardship_type&#45;&gt;binary_loan_status</title>
<path fill="none" stroke="black" d="M795.75,-53.97C785.32,-49.53 773.96,-44.69 763.1,-40.06"/>
<polygon fill="black" stroke="black" points="764.3,-36.77 753.73,-36.06 761.56,-43.21 764.3,-36.77"/>
</g>
<!-- hardship_status -->
<g id="node12" class="node">
<title>hardship_status</title>
<path fill="#e1f5fe" stroke="black" d="M885.92,-36C885.92,-36 809.47,-36 809.47,-36 803.47,-36 797.47,-30 797.47,-24 797.47,-24 797.47,-12 797.47,-12 797.47,-6 803.47,0 809.47,0 809.47,0 885.92,0 885.92,0 891.92,0 897.92,-6 897.92,-12 897.92,-12 897.92,-24 897.92,-24 897.92,-30 891.92,-36 885.92,-36"/>
<text text-anchor="middle" x="847.69" y="-14.4" font-family="Helvetica,sans-Serif" font-size="12.00">hardship_status</text>
</g>
<!-- hardship_type&#45;&gt;hardship_status -->
<g id="edge10" class="edge">
<title>hardship_type&#45;&gt;hardship_status</title>
<path fill="none" stroke="black" d="M839.62,-53.97C840.2,-51.49 840.8,-48.87 841.41,-46.24"/>
<polygon fill="black" stroke="black" points="844.88,-46.77 843.72,-36.24 838.06,-45.2 844.88,-46.77"/>
</g>
<!-- total_bc_limit -->
<g id="node13" class="node">
<title>total_bc_limit</title>
<path fill="#e1f5fe" stroke="black" d="M1005.73,-144C1005.73,-144 943.66,-144 943.66,-144 937.66,-144 931.66,-138 931.66,-132 931.66,-132 931.66,-120 931.66,-120 931.66,-114 937.66,-108 943.66,-108 943.66,-108 1005.73,-108 1005.73,-108 1011.73,-108 1017.73,-114 1017.73,-120 1017.73,-120 1017.73,-132 1017.73,-132 1017.73,-138 1011.73,-144 1005.73,-144"/>
<text text-anchor="middle" x="974.69" y="-122.4" font-family="Helvetica,sans-Serif" font-size="12.00">total_bc_limit</text>
</g>
<!-- mths_since_recent_bc -->
<g id="node14" class="node">
<title>mths_since_recent_bc</title>
<path fill="#e1f5fe" stroke="black" d="M1030.76,-90C1030.76,-90 918.63,-90 918.63,-90 912.63,-90 906.63,-84 906.63,-78 906.63,-78 906.63,-66 906.63,-66 906.63,-60 912.63,-54 918.63,-54 918.63,-54 1030.76,-54 1030.76,-54 1036.76,-54 1042.76,-60 1042.76,-66 1042.76,-66 1042.76,-78 1042.76,-78 1042.76,-84 1036.76,-90 1030.76,-90"/>
<text text-anchor="middle" x="974.69" y="-68.4" font-family="Helvetica,sans-Serif" font-size="12.00">mths_since_recent_bc</text>
</g>
<!-- total_bc_limit&#45;&gt;mths_since_recent_bc -->
<g id="edge11" class="edge">
<title>total_bc_limit&#45;&gt;mths_since_recent_bc</title>
<path fill="none" stroke="black" d="M974.69,-107.97C974.69,-105.57 974.69,-103.06 974.69,-100.52"/>
<polygon fill="black" stroke="black" points="978.19,-100.24 974.69,-90.24 971.19,-100.24 978.19,-100.24"/>
</g>
<!-- emp_length -->
<g id="node15" class="node">
<title>emp_length</title>
<path fill="#e1f5fe" stroke="black" d="M198.91,-90C198.91,-90 144.48,-90 144.48,-90 138.48,-90 132.48,-84 132.48,-78 132.48,-78 132.48,-66 132.48,-66 132.48,-60 138.48,-54 144.48,-54 144.48,-54 198.91,-54 198.91,-54 204.91,-54 210.91,-60 210.91,-66 210.91,-66 210.91,-78 210.91,-78 210.91,-84 204.91,-90 198.91,-90"/>
<text text-anchor="middle" x="171.69" y="-68.4" font-family="Helvetica,sans-Serif" font-size="12.00">emp_length</text>
</g>
<!-- emp_length&#45;&gt;avg_cur_bal -->
<g id="edge12" class="edge">
<title>emp_length&#45;&gt;avg_cur_bal</title>
<path fill="none" stroke="black" d="M169.4,-53.97C169.07,-51.49 168.72,-48.87 168.36,-46.24"/>
<polygon fill="black" stroke="black" points="171.82,-45.69 167.02,-36.24 164.88,-46.62 171.82,-45.69"/>
</g>
<!-- num_tl_op_past_12m -->
<g id="node16" class="node">
<title>num_tl_op_past_12m</title>
<path fill="#e1f5fe" stroke="black" d="M1179.61,-144C1179.61,-144 1071.78,-144 1071.78,-144 1065.78,-144 1059.78,-138 1059.78,-132 1059.78,-132 1059.78,-120 1059.78,-120 1059.78,-114 1065.78,-108 1071.78,-108 1071.78,-108 1179.61,-108 1179.61,-108 1185.61,-108 1191.61,-114 1191.61,-120 1191.61,-120 1191.61,-132 1191.61,-132 1191.61,-138 1185.61,-144 1179.61,-144"/>
<text text-anchor="middle" x="1125.69" y="-122.4" font-family="Helvetica,sans-Serif" font-size="12.00">num_tl_op_past_12m</text>
</g>
<!-- num_tl_op_past_12m&#45;&gt;mths_since_recent_bc -->
<g id="edge13" class="edge">
<title>num_tl_op_past_12m&#45;&gt;mths_since_recent_bc</title>
<path fill="none" stroke="black" d="M1076.25,-107.97C1062.69,-103.3 1047.86,-98.2 1033.82,-93.36"/>
<polygon fill="black" stroke="black" points="1034.84,-90.01 1024.25,-90.06 1032.56,-96.63 1034.84,-90.01"/>
</g>
<!-- acc_open_past_24mths -->
<g id="node17" class="node">
<title>acc_open_past_24mths</title>
<path fill="#e1f5fe" stroke="black" d="M1199.62,-90C1199.62,-90 1079.77,-90 1079.77,-90 1073.77,-90 1067.77,-84 1067.77,-78 1067.77,-78 1067.77,-66 1067.77,-66 1067.77,-60 1073.77,-54 1079.77,-54 1079.77,-54 1199.62,-54 1199.62,-54 1205.62,-54 1211.62,-60 1211.62,-66 1211.62,-66 1211.62,-78 1211.62,-78 1211.62,-84 1205.62,-90 1199.62,-90"/>
<text text-anchor="middle" x="1139.69" y="-68.4" font-family="Helvetica,sans-Serif" font-size="12.00">acc_open_past_24mths</text>
</g>
<!-- num_tl_op_past_12m&#45;&gt;acc_open_past_24mths -->
<g id="edge14" class="edge">
<title>num_tl_op_past_12m&#45;&gt;acc_open_past_24mths</title>
<path fill="none" stroke="black" d="M1130.28,-107.97C1130.97,-105.4 1131.7,-102.69 1132.44,-99.96"/>
<polygon fill="black" stroke="black" points="1135.83,-100.81 1135.05,-90.24 1129.07,-98.99 1135.83,-100.81"/>
</g>
<!-- hardship_loan_status -->
<g id="node18" class="node">
<title>hardship_loan_status</title>
<path fill="#e1f5fe" stroke="black" d="M888.78,-144C888.78,-144 782.61,-144 782.61,-144 776.61,-144 770.61,-138 770.61,-132 770.61,-132 770.61,-120 770.61,-120 770.61,-114 776.61,-108 782.61,-108 782.61,-108 888.78,-108 888.78,-108 894.78,-108 900.78,-114 900.78,-120 900.78,-120 900.78,-132 900.78,-132 900.78,-138 894.78,-144 888.78,-144"/>
<text text-anchor="middle" x="835.69" y="-122.4" font-family="Helvetica,sans-Serif" font-size="12.00">hardship_loan_status</text>
</g>
<!-- hardship_loan_status&#45;&gt;hardship_type -->
<g id="edge15" class="edge">
<title>hardship_loan_status&#45;&gt;hardship_type</title>
<path fill="none" stroke="black" d="M835.69,-107.97C835.69,-105.57 835.69,-103.06 835.69,-100.52"/>
<polygon fill="black" stroke="black" points="839.19,-100.24 835.69,-90.24 832.19,-100.24 839.19,-100.24"/>
</g>
<!-- percent_bc_gt_75 -->
<g id="node19" class="node">
<title>percent_bc_gt_75</title>
<path fill="#e1f5fe" stroke="black" d="M1320.77,-144C1320.77,-144 1232.62,-144 1232.62,-144 1226.62,-144 1220.62,-138 1220.62,-132 1220.62,-132 1220.62,-120 1220.62,-120 1220.62,-114 1226.62,-108 1232.62,-108 1232.62,-108 1320.77,-108 1320.77,-108 1326.77,-108 1332.77,-114 1332.77,-120 1332.77,-120 1332.77,-132 1332.77,-132 1332.77,-138 1326.77,-144 1320.77,-144"/>
<text text-anchor="middle" x="1276.69" y="-122.4" font-family="Helvetica,sans-Serif" font-size="12.00">percent_bc_gt_75</text>
</g>
<!-- bc_util -->
<g id="node20" class="node">
<title>bc_util</title>
<path fill="#e1f5fe" stroke="black" d="M1291.69,-90C1291.69,-90 1261.69,-90 1261.69,-90 1255.69,-90 1249.69,-84 1249.69,-78 1249.69,-78 1249.69,-66 1249.69,-66 1249.69,-60 1255.69,-54 1261.69,-54 1261.69,-54 1291.69,-54 1291.69,-54 1297.69,-54 1303.69,-60 1303.69,-66 1303.69,-66 1303.69,-78 1303.69,-78 1303.69,-84 1297.69,-90 1291.69,-90"/>
<text text-anchor="middle" x="1276.69" y="-68.4" font-family="Helvetica,sans-Serif" font-size="12.00">bc_util</text>
</g>
<!-- percent_bc_gt_75&#45;&gt;bc_util -->
<g id="edge16" class="edge">
<title>percent_bc_gt_75&#45;&gt;bc_util</title>
<path fill="none" stroke="black" d="M1276.69,-107.97C1276.69,-105.57 1276.69,-103.06 1276.69,-100.52"/>
<polygon fill="black" stroke="black" points="1280.19,-100.24 1276.69,-90.24 1273.19,-100.24 1280.19,-100.24"/>
</g>
<!-- open_act_il -->
<g id="node21" class="node">
<title>open_act_il</title>
<path fill="#e1f5fe" stroke="black" d="M301.58,-144C301.58,-144 247.81,-144 247.81,-144 241.81,-144 235.81,-138 235.81,-132 235.81,-132 235.81,-120 235.81,-120 235.81,-114 241.81,-108 247.81,-108 247.81,-108 301.58,-108 301.58,-108 307.58,-108 313.58,-114 313.58,-120 313.58,-120 313.58,-132 313.58,-132 313.58,-138 307.58,-144 301.58,-144"/>
<text text-anchor="middle" x="274.69" y="-122.4" font-family="Helvetica,sans-Serif" font-size="12.00">open_act_il</text>
</g>
<!-- open_act_il&#45;&gt;dti -->
<g id="edge17" class="edge">
<title>open_act_il&#45;&gt;dti</title>
<path fill="none" stroke="black" d="M274.69,-107.97C274.69,-105.57 274.69,-103.06 274.69,-100.52"/>
<polygon fill="black" stroke="black" points="278.19,-100.24 274.69,-90.24 271.19,-100.24 278.19,-100.24"/>
</g>
</g>
</svg>
