<?xml version="1.0" encoding="UTF-8" standalone="no"?>
<!DOCTYPE svg PUBLIC "-//W3C//DTD SVG 1.1//EN"
 "http://www.w3.org/Graphics/SVG/1.1/DTD/svg11.dtd">
<!-- Generated by graphviz version 2.50.0 (0)
 -->
<!-- Pages: 1 -->
<svg width="576pt" height="532pt"
 viewBox="0.00 0.00 576.00 532.08" xmlns="http://www.w3.org/2000/svg" xmlns:xlink="http://www.w3.org/1999/xlink">
<g id="graph0" class="graph" transform="scale(0.67 0.67) rotate(0) translate(4 796)">
<polygon fill="white" stroke="transparent" points="-4,4 -4,-796 862.04,-796 862.04,4 -4,4"/>
<!-- acc_open_past_24mths -->
<g id="node1" class="node">
<title>acc_open_past_24mths</title>
<path fill="#e1f5fe" stroke="black" d="M494.92,-576C494.92,-576 375.08,-576 375.08,-576 369.08,-576 363.08,-570 363.08,-564 363.08,-564 363.08,-552 363.08,-552 363.08,-546 369.08,-540 375.08,-540 375.08,-540 494.92,-540 494.92,-540 500.92,-540 506.92,-546 506.92,-552 506.92,-552 506.92,-564 506.92,-564 506.92,-570 500.92,-576 494.92,-576"/>
<text text-anchor="middle" x="435" y="-554.4" font-family="Helvetica,sans-Serif" font-size="12.00">acc_open_past_24mths</text>
</g>
<!-- total_rev_hi_lim -->
<g id="node2" class="node">
<title>total_rev_hi_lim</title>
<path fill="#e1f5fe" stroke="black" d="M400.04,-468C400.04,-468 323.96,-468 323.96,-468 317.96,-468 311.96,-462 311.96,-456 311.96,-456 311.96,-444 311.96,-444 311.96,-438 317.96,-432 323.96,-432 323.96,-432 400.04,-432 400.04,-432 406.04,-432 412.04,-438 412.04,-444 412.04,-444 412.04,-456 412.04,-456 412.04,-462 406.04,-468 400.04,-468"/>
<text text-anchor="middle" x="362" y="-446.4" font-family="Helvetica,sans-Serif" font-size="12.00">total_rev_hi_lim</text>
</g>
<!-- acc_open_past_24mths&#45;&gt;total_rev_hi_lim -->
<g id="edge1" class="edge">
<title>acc_open_past_24mths&#45;&gt;total_rev_hi_lim</title>
<path fill="none" stroke="black" d="M432.29,-539.83C429.2,-524.52 422.94,-502.09 411,-486 407.93,-481.86 404.22,-478.01 400.23,-474.5"/>
<polygon fill="black" stroke="black" points="402.31,-471.68 392.31,-468.17 397.94,-477.15 402.31,-471.68"/>
</g>
<!-- funded_amnt -->
<g id="node3" class="node">
<title>funded_amnt</title>
<path fill="#e1f5fe" stroke="black" d="M309.05,-414C309.05,-414 246.95,-414 246.95,-414 240.95,-414 234.95,-408 234.95,-402 234.95,-402 234.95,-390 234.95,-390 234.95,-384 240.95,-378 246.95,-378 246.95,-378 309.05,-378 309.05,-378 315.05,-378 321.05,-384 321.05,-390 321.05,-390 321.05,-402 321.05,-402 321.05,-408 315.05,-414 309.05,-414"/>
<text text-anchor="middle" x="278" y="-392.4" font-family="Helvetica,sans-Serif" font-size="12.00">funded_amnt</text>
</g>
<!-- total_rev_hi_lim&#45;&gt;funded_amnt -->
<g id="edge2" class="edge">
<title>total_rev_hi_lim&#45;&gt;funded_amnt</title>
<path fill="none" stroke="black" d="M334.5,-431.97C328.11,-428.02 321.22,-423.76 314.52,-419.61"/>
<polygon fill="black" stroke="black" points="315.91,-416.35 305.57,-414.06 312.23,-422.3 315.91,-416.35"/>
</g>
<!-- annual_inc -->
<g id="node4" class="node">
<title>annual_inc</title>
<path fill="#e1f5fe" stroke="black" d="M411.05,-360C411.05,-360 360.95,-360 360.95,-360 354.95,-360 348.95,-354 348.95,-348 348.95,-348 348.95,-336 348.95,-336 348.95,-330 354.95,-324 360.95,-324 360.95,-324 411.05,-324 411.05,-324 417.05,-324 423.05,-330 423.05,-336 423.05,-336 423.05,-348 423.05,-348 423.05,-354 417.05,-360 411.05,-360"/>
<text text-anchor="middle" x="386" y="-338.4" font-family="Helvetica,sans-Serif" font-size="12.00">annual_inc</text>
</g>
<!-- total_rev_hi_lim&#45;&gt;annual_inc -->
<g id="edge3" class="edge">
<title>total_rev_hi_lim&#45;&gt;annual_inc</title>
<path fill="none" stroke="black" d="M365.86,-431.97C369.63,-415.3 375.44,-389.65 379.85,-370.16"/>
<polygon fill="black" stroke="black" points="383.28,-370.87 382.07,-360.34 376.45,-369.32 383.28,-370.87"/>
</g>
<!-- funded_amnt&#45;&gt;annual_inc -->
<g id="edge38" class="edge">
<title>funded_amnt&#45;&gt;annual_inc</title>
<path fill="none" stroke="black" d="M313.36,-377.97C322.31,-373.66 332.04,-368.98 341.39,-364.48"/>
<polygon fill="black" stroke="black" points="343.07,-367.56 350.56,-360.06 340.03,-361.25 343.07,-367.56"/>
</g>
<!-- purpose -->
<g id="node17" class="node">
<title>purpose</title>
<path fill="#e1f5fe" stroke="black" d="M219.87,-252C219.87,-252 184.13,-252 184.13,-252 178.13,-252 172.13,-246 172.13,-240 172.13,-240 172.13,-228 172.13,-228 172.13,-222 178.13,-216 184.13,-216 184.13,-216 219.87,-216 219.87,-216 225.87,-216 231.87,-222 231.87,-228 231.87,-228 231.87,-240 231.87,-240 231.87,-246 225.87,-252 219.87,-252"/>
<text text-anchor="middle" x="202" y="-230.4" font-family="Helvetica,sans-Serif" font-size="12.00">purpose</text>
</g>
<!-- funded_amnt&#45;&gt;purpose -->
<g id="edge39" class="edge">
<title>funded_amnt&#45;&gt;purpose</title>
<path fill="none" stroke="black" d="M247.92,-377.84C224.26,-362.44 193.02,-337.45 179,-306 172.49,-291.39 174.41,-285.33 179,-270 179.91,-266.96 181.17,-263.95 182.65,-261.03"/>
<polygon fill="black" stroke="black" points="185.82,-262.55 187.9,-252.16 179.79,-258.98 185.82,-262.55"/>
</g>
<!-- open_act_il -->
<g id="node8" class="node">
<title>open_act_il</title>
<path fill="#e1f5fe" stroke="black" d="M264.88,-144C264.88,-144 211.12,-144 211.12,-144 205.12,-144 199.12,-138 199.12,-132 199.12,-132 199.12,-120 199.12,-120 199.12,-114 205.12,-108 211.12,-108 211.12,-108 264.88,-108 264.88,-108 270.88,-108 276.88,-114 276.88,-120 276.88,-120 276.88,-132 276.88,-132 276.88,-138 270.88,-144 264.88,-144"/>
<text text-anchor="middle" x="238" y="-122.4" font-family="Helvetica,sans-Serif" font-size="12.00">open_act_il</text>
</g>
<!-- annual_inc&#45;&gt;open_act_il -->
<g id="edge16" class="edge">
<title>annual_inc&#45;&gt;open_act_il</title>
<path fill="none" stroke="black" d="M397.47,-323.9C400.54,-318.42 403.43,-312.17 405,-306 415.02,-266.54 413.28,-247.9 388,-216 361.72,-182.84 319.45,-159.37 286.47,-144.89"/>
<polygon fill="black" stroke="black" points="287.57,-141.55 277,-140.86 284.83,-147.99 287.57,-141.55"/>
</g>
<!-- avg_cur_bal -->
<g id="node9" class="node">
<title>avg_cur_bal</title>
<path fill="#e1f5fe" stroke="black" d="M132.88,-252C132.88,-252 75.12,-252 75.12,-252 69.12,-252 63.12,-246 63.12,-240 63.12,-240 63.12,-228 63.12,-228 63.12,-222 69.12,-216 75.12,-216 75.12,-216 132.88,-216 132.88,-216 138.88,-216 144.88,-222 144.88,-228 144.88,-228 144.88,-240 144.88,-240 144.88,-246 138.88,-252 132.88,-252"/>
<text text-anchor="middle" x="104" y="-230.4" font-family="Helvetica,sans-Serif" font-size="12.00">avg_cur_bal</text>
</g>
<!-- annual_inc&#45;&gt;avg_cur_bal -->
<g id="edge14" class="edge">
<title>annual_inc&#45;&gt;avg_cur_bal</title>
<path fill="none" stroke="black" d="M348.86,-341.13C305.82,-339.87 233.79,-333.33 179,-306 157.14,-295.09 137.3,-275.69 123.53,-259.91"/>
<polygon fill="black" stroke="black" points="126.03,-257.45 116.9,-252.06 120.68,-261.96 126.03,-257.45"/>
</g>
<!-- dti -->
<g id="node14" class="node">
<title>dti</title>
<path fill="#e1f5fe" stroke="black" d="M253,-198C253,-198 223,-198 223,-198 217,-198 211,-192 211,-186 211,-186 211,-174 211,-174 211,-168 217,-162 223,-162 223,-162 253,-162 253,-162 259,-162 265,-168 265,-174 265,-174 265,-186 265,-186 265,-192 259,-198 253,-198"/>
<text text-anchor="middle" x="238" y="-176.4" font-family="Helvetica,sans-Serif" font-size="12.00">dti</text>
</g>
<!-- annual_inc&#45;&gt;dti -->
<g id="edge15" class="edge">
<title>annual_inc&#45;&gt;dti</title>
<path fill="none" stroke="black" d="M387.25,-323.98C388.22,-297.36 386,-245.84 358,-216 336.83,-193.44 302.02,-185.15 275.33,-182.24"/>
<polygon fill="black" stroke="black" points="275.45,-178.73 265.18,-181.34 274.83,-185.71 275.45,-178.73"/>
</g>
<!-- home_ownership -->
<g id="node15" class="node">
<title>home_ownership</title>
<path fill="#e1f5fe" stroke="black" d="M286.89,-306C286.89,-306 203.11,-306 203.11,-306 197.11,-306 191.11,-300 191.11,-294 191.11,-294 191.11,-282 191.11,-282 191.11,-276 197.11,-270 203.11,-270 203.11,-270 286.89,-270 286.89,-270 292.89,-270 298.89,-276 298.89,-282 298.89,-282 298.89,-294 298.89,-294 298.89,-300 292.89,-306 286.89,-306"/>
<text text-anchor="middle" x="245" y="-284.4" font-family="Helvetica,sans-Serif" font-size="12.00">home_ownership</text>
</g>
<!-- annual_inc&#45;&gt;home_ownership -->
<g id="edge17" class="edge">
<title>annual_inc&#45;&gt;home_ownership</title>
<path fill="none" stroke="black" d="M348.95,-327.34C334.15,-321.88 316.79,-315.48 300.54,-309.48"/>
<polygon fill="black" stroke="black" points="301.72,-306.19 291.13,-306.01 299.3,-312.76 301.72,-306.19"/>
</g>
<!-- emp_length -->
<g id="node16" class="node">
<title>emp_length</title>
<path fill="#e1f5fe" stroke="black" d="M333.21,-252C333.21,-252 278.79,-252 278.79,-252 272.79,-252 266.79,-246 266.79,-240 266.79,-240 266.79,-228 266.79,-228 266.79,-222 272.79,-216 278.79,-216 278.79,-216 333.21,-216 333.21,-216 339.21,-216 345.21,-222 345.21,-228 345.21,-228 345.21,-240 345.21,-240 345.21,-246 339.21,-252 333.21,-252"/>
<text text-anchor="middle" x="306" y="-230.4" font-family="Helvetica,sans-Serif" font-size="12.00">emp_length</text>
</g>
<!-- annual_inc&#45;&gt;emp_length -->
<g id="edge18" class="edge">
<title>annual_inc&#45;&gt;emp_length</title>
<path fill="none" stroke="black" d="M373.15,-323.97C360.22,-306.84 340.13,-280.22 325.29,-260.56"/>
<polygon fill="black" stroke="black" points="327.91,-258.21 319.09,-252.34 322.32,-262.43 327.91,-258.21"/>
</g>
<!-- all_util -->
<g id="node5" class="node">
<title>all_util</title>
<path fill="#e1f5fe" stroke="black" d="M220,-468C220,-468 190,-468 190,-468 184,-468 178,-462 178,-456 178,-456 178,-444 178,-444 178,-438 184,-432 190,-432 190,-432 220,-432 220,-432 226,-432 232,-438 232,-444 232,-444 232,-456 232,-456 232,-462 226,-468 220,-468"/>
<text text-anchor="middle" x="205" y="-446.4" font-family="Helvetica,sans-Serif" font-size="12.00">all_util</text>
</g>
<!-- loan_age -->
<g id="node6" class="node">
<title>loan_age</title>
<path fill="#e1f5fe" stroke="black" d="M766.88,-360C766.88,-360 725.12,-360 725.12,-360 719.12,-360 713.12,-354 713.12,-348 713.12,-348 713.12,-336 713.12,-336 713.12,-330 719.12,-324 725.12,-324 725.12,-324 766.88,-324 766.88,-324 772.88,-324 778.88,-330 778.88,-336 778.88,-336 778.88,-348 778.88,-348 778.88,-354 772.88,-360 766.88,-360"/>
<text text-anchor="middle" x="746" y="-338.4" font-family="Helvetica,sans-Serif" font-size="12.00">loan_age</text>
</g>
<!-- all_util&#45;&gt;loan_age -->
<g id="edge4" class="edge">
<title>all_util&#45;&gt;loan_age</title>
<path fill="none" stroke="black" d="M203.84,-431.74C203.77,-415.24 206.6,-391 222,-378 231.16,-370.27 579.11,-351.61 702.86,-345.2"/>
<polygon fill="black" stroke="black" points="703.29,-348.69 713.1,-344.67 702.93,-341.69 703.29,-348.69"/>
</g>
<!-- inq_last_12m -->
<g id="node7" class="node">
<title>inq_last_12m</title>
<path fill="#e1f5fe" stroke="black" d="M777.88,-414C777.88,-414 714.12,-414 714.12,-414 708.12,-414 702.12,-408 702.12,-402 702.12,-402 702.12,-390 702.12,-390 702.12,-384 708.12,-378 714.12,-378 714.12,-378 777.88,-378 777.88,-378 783.88,-378 789.88,-384 789.88,-390 789.88,-390 789.88,-402 789.88,-402 789.88,-408 783.88,-414 777.88,-414"/>
<text text-anchor="middle" x="746" y="-392.4" font-family="Helvetica,sans-Serif" font-size="12.00">inq_last_12m</text>
</g>
<!-- all_util&#45;&gt;inq_last_12m -->
<g id="edge5" class="edge">
<title>all_util&#45;&gt;inq_last_12m</title>
<path fill="none" stroke="black" d="M232.04,-443.36C250.76,-439.64 276.3,-434.93 299,-432 440.18,-413.75 607.76,-403.72 691.97,-399.47"/>
<polygon fill="black" stroke="black" points="692.26,-402.96 702.07,-398.97 691.91,-395.97 692.26,-402.96"/>
</g>
<!-- all_util&#45;&gt;open_act_il -->
<g id="edge6" class="edge">
<title>all_util&#45;&gt;open_act_il</title>
<path fill="none" stroke="black" d="M177.78,-447.32C122.01,-442.26 0,-422.13 0,-343 0,-343 0,-343 0,-233 0,-151.04 119.24,-132 188.92,-127.87"/>
<polygon fill="black" stroke="black" points="189.42,-131.35 199.23,-127.34 189.07,-124.36 189.42,-131.35"/>
</g>
<!-- all_util&#45;&gt;avg_cur_bal -->
<g id="edge7" class="edge">
<title>all_util&#45;&gt;avg_cur_bal</title>
<path fill="none" stroke="black" d="M194.55,-431.86C178.74,-405.49 148.45,-353.07 128,-306 121.8,-291.74 116.16,-275.31 111.9,-261.86"/>
<polygon fill="black" stroke="black" points="115.23,-260.76 108.94,-252.23 108.54,-262.82 115.23,-260.76"/>
</g>
<!-- time_since_last_payment -->
<g id="node10" class="node">
<title>time_since_last_payment</title>
<path fill="#e1f5fe" stroke="black" d="M732.9,-252C732.9,-252 605.1,-252 605.1,-252 599.1,-252 593.1,-246 593.1,-240 593.1,-240 593.1,-228 593.1,-228 593.1,-222 599.1,-216 605.1,-216 605.1,-216 732.9,-216 732.9,-216 738.9,-216 744.9,-222 744.9,-228 744.9,-228 744.9,-240 744.9,-240 744.9,-246 738.9,-252 732.9,-252"/>
<text text-anchor="middle" x="669" y="-230.4" font-family="Helvetica,sans-Serif" font-size="12.00">time_since_last_payment</text>
</g>
<!-- loan_age&#45;&gt;time_since_last_payment -->
<g id="edge8" class="edge">
<title>loan_age&#45;&gt;time_since_last_payment</title>
<path fill="none" stroke="black" d="M752,-323.74C756.2,-308.36 759.4,-285.9 749,-270 746.07,-265.52 742.42,-261.6 738.31,-258.19"/>
<polygon fill="black" stroke="black" points="740.08,-255.16 729.9,-252.22 736.03,-260.86 740.08,-255.16"/>
</g>
<!-- int_rate% -->
<g id="node11" class="node">
<title>int_rate%</title>
<path fill="#e1f5fe" stroke="black" d="M582.2,-306C582.2,-306 539.8,-306 539.8,-306 533.8,-306 527.8,-300 527.8,-294 527.8,-294 527.8,-282 527.8,-282 527.8,-276 533.8,-270 539.8,-270 539.8,-270 582.2,-270 582.2,-270 588.2,-270 594.2,-276 594.2,-282 594.2,-282 594.2,-294 594.2,-294 594.2,-300 588.2,-306 582.2,-306"/>
<text text-anchor="middle" x="561" y="-284.4" font-family="Helvetica,sans-Serif" font-size="12.00">int_rate%</text>
</g>
<!-- loan_age&#45;&gt;int_rate% -->
<g id="edge9" class="edge">
<title>loan_age&#45;&gt;int_rate%</title>
<path fill="none" stroke="black" d="M713.15,-333.78C684.81,-327.3 642.89,-317.12 607,-306 605.96,-305.68 604.92,-305.35 603.86,-305.01"/>
<polygon fill="black" stroke="black" points="604.87,-301.65 594.27,-301.77 602.63,-308.29 604.87,-301.65"/>
</g>
<!-- binary_loan_status -->
<g id="node12" class="node">
<title>binary_loan_status</title>
<path fill="#fed2d6" stroke="black" d="M724.23,-306C724.23,-306 631.77,-306 631.77,-306 625.77,-306 619.77,-300 619.77,-294 619.77,-294 619.77,-282 619.77,-282 619.77,-276 625.77,-270 631.77,-270 631.77,-270 724.23,-270 724.23,-270 730.23,-270 736.23,-276 736.23,-282 736.23,-282 736.23,-294 736.23,-294 736.23,-300 730.23,-306 724.23,-306"/>
<text text-anchor="middle" x="678" y="-284.4" font-family="Helvetica,sans-Serif" font-size="12.00">binary_loan_status</text>
</g>
<!-- loan_age&#45;&gt;binary_loan_status -->
<g id="edge10" class="edge">
<title>loan_age&#45;&gt;binary_loan_status</title>
<path fill="none" stroke="black" d="M723.73,-323.97C718.97,-320.33 713.86,-316.42 708.83,-312.58"/>
<polygon fill="black" stroke="black" points="710.62,-309.54 700.55,-306.24 706.37,-315.1 710.62,-309.54"/>
</g>
<!-- hardship_status -->
<g id="node13" class="node">
<title>hardship_status</title>
<path fill="#e1f5fe" stroke="black" d="M821.22,-198C821.22,-198 744.78,-198 744.78,-198 738.78,-198 732.78,-192 732.78,-186 732.78,-186 732.78,-174 732.78,-174 732.78,-168 738.78,-162 744.78,-162 744.78,-162 821.22,-162 821.22,-162 827.22,-162 833.22,-168 833.22,-174 833.22,-174 833.22,-186 833.22,-186 833.22,-192 827.22,-198 821.22,-198"/>
<text text-anchor="middle" x="783" y="-176.4" font-family="Helvetica,sans-Serif" font-size="12.00">hardship_status</text>
</g>
<!-- loan_age&#45;&gt;hardship_status -->
<g id="edge11" class="edge">
<title>loan_age&#45;&gt;hardship_status</title>
<path fill="none" stroke="black" d="M760.91,-323.69C764.97,-318.3 769.06,-312.15 772,-306 789.47,-269.48 787.73,-256.44 786,-216 785.89,-213.44 785.74,-210.78 785.55,-208.12"/>
<polygon fill="black" stroke="black" points="789.04,-207.76 784.76,-198.07 782.06,-208.32 789.04,-207.76"/>
</g>
<!-- inq_last_12m&#45;&gt;loan_age -->
<g id="edge12" class="edge">
<title>inq_last_12m&#45;&gt;loan_age</title>
<path fill="none" stroke="black" d="M746,-377.97C746,-375.57 746,-373.06 746,-370.52"/>
<polygon fill="black" stroke="black" points="749.5,-370.24 746,-360.24 742.5,-370.24 749.5,-370.24"/>
</g>
<!-- avg_cur_bal&#45;&gt;dti -->
<g id="edge13" class="edge">
<title>avg_cur_bal&#45;&gt;dti</title>
<path fill="none" stroke="black" d="M144.93,-217.12C162.82,-210.17 183.64,-202.09 201.05,-195.34"/>
<polygon fill="black" stroke="black" points="202.8,-198.41 210.86,-191.53 200.27,-191.89 202.8,-198.41"/>
</g>
<!-- time_since_last_payment&#45;&gt;hardship_status -->
<g id="edge55" class="edge">
<title>time_since_last_payment&#45;&gt;hardship_status</title>
<path fill="none" stroke="black" d="M706.33,-215.97C715.87,-211.62 726.26,-206.88 736.22,-202.34"/>
<polygon fill="black" stroke="black" points="737.94,-205.4 745.59,-198.06 735.04,-199.03 737.94,-205.4"/>
</g>
<!-- debt_settlement_flag -->
<g id="node27" class="node">
<title>debt_settlement_flag</title>
<path fill="#e1f5fe" stroke="black" d="M668.91,-36C668.91,-36 565.09,-36 565.09,-36 559.09,-36 553.09,-30 553.09,-24 553.09,-24 553.09,-12 553.09,-12 553.09,-6 559.09,0 565.09,0 565.09,0 668.91,0 668.91,0 674.91,0 680.91,-6 680.91,-12 680.91,-12 680.91,-24 680.91,-24 680.91,-30 674.91,-36 668.91,-36"/>
<text text-anchor="middle" x="617" y="-14.4" font-family="Helvetica,sans-Serif" font-size="12.00">debt_settlement_flag</text>
</g>
<!-- time_since_last_payment&#45;&gt;debt_settlement_flag -->
<g id="edge54" class="edge">
<title>time_since_last_payment&#45;&gt;debt_settlement_flag</title>
<path fill="none" stroke="black" d="M664.83,-215.85C655.82,-178.75 634.45,-90.81 623.59,-46.1"/>
<polygon fill="black" stroke="black" points="626.95,-45.12 621.19,-36.23 620.15,-46.78 626.95,-45.12"/>
</g>
<!-- binary_loan_status&#45;&gt;time_since_last_payment -->
<g id="edge56" class="edge">
<title>binary_loan_status&#45;&gt;time_since_last_payment</title>
<path fill="none" stroke="black" d="M675.05,-269.97C674.62,-267.49 674.17,-264.87 673.71,-262.24"/>
<polygon fill="black" stroke="black" points="677.14,-261.5 671.98,-252.24 670.24,-262.69 677.14,-261.5"/>
</g>
<!-- binary_loan_status&#45;&gt;hardship_status -->
<g id="edge57" class="edge">
<title>binary_loan_status&#45;&gt;hardship_status</title>
<path fill="none" stroke="black" d="M732.37,-269.94C741.45,-265.23 750.13,-259.34 757,-252 768.26,-239.97 774.73,-222.67 778.4,-208.15"/>
<polygon fill="black" stroke="black" points="781.86,-208.71 780.6,-198.19 775.02,-207.2 781.86,-208.71"/>
</g>
<!-- binary_loan_status&#45;&gt;debt_settlement_flag -->
<g id="edge58" class="edge">
<title>binary_loan_status&#45;&gt;debt_settlement_flag</title>
<path fill="none" stroke="black" d="M619.66,-275.11C605.6,-269.94 591.6,-262.55 581,-252 557.18,-228.29 555,-214.6 555,-181 555,-181 555,-181 555,-125 555,-93.95 575.07,-63.91 592.38,-43.79"/>
<polygon fill="black" stroke="black" points="595,-46.11 599.07,-36.32 589.79,-41.44 595,-46.11"/>
</g>
<!-- hardship_loan_status -->
<g id="node28" class="node">
<title>hardship_loan_status</title>
<path fill="#e1f5fe" stroke="black" d="M846.08,-144C846.08,-144 739.92,-144 739.92,-144 733.92,-144 727.92,-138 727.92,-132 727.92,-132 727.92,-120 727.92,-120 727.92,-114 733.92,-108 739.92,-108 739.92,-108 846.08,-108 846.08,-108 852.08,-108 858.08,-114 858.08,-120 858.08,-120 858.08,-132 858.08,-132 858.08,-138 852.08,-144 846.08,-144"/>
<text text-anchor="middle" x="793" y="-122.4" font-family="Helvetica,sans-Serif" font-size="12.00">hardship_loan_status</text>
</g>
<!-- hardship_status&#45;&gt;hardship_loan_status -->
<g id="edge59" class="edge">
<title>hardship_status&#45;&gt;hardship_loan_status</title>
<path fill="none" stroke="black" d="M786.27,-161.97C786.75,-159.49 787.26,-156.87 787.76,-154.24"/>
<polygon fill="black" stroke="black" points="791.23,-154.72 789.68,-144.24 784.36,-153.4 791.23,-154.72"/>
</g>
<!-- hardship_type -->
<g id="node29" class="node">
<title>hardship_type</title>
<path fill="#e1f5fe" stroke="black" d="M734.89,-90C734.89,-90 667.11,-90 667.11,-90 661.11,-90 655.11,-84 655.11,-78 655.11,-78 655.11,-66 655.11,-66 655.11,-60 661.11,-54 667.11,-54 667.11,-54 734.89,-54 734.89,-54 740.89,-54 746.89,-60 746.89,-66 746.89,-66 746.89,-78 746.89,-78 746.89,-84 740.89,-90 734.89,-90"/>
<text text-anchor="middle" x="701" y="-68.4" font-family="Helvetica,sans-Serif" font-size="12.00">hardship_type</text>
</g>
<!-- hardship_status&#45;&gt;hardship_type -->
<g id="edge60" class="edge">
<title>hardship_status&#45;&gt;hardship_type</title>
<path fill="none" stroke="black" d="M735.97,-161.98C727.99,-157.24 720.51,-151.32 715,-144 705.67,-131.6 702.08,-114.64 700.87,-100.4"/>
<polygon fill="black" stroke="black" points="704.35,-99.98 700.35,-90.17 697.36,-100.33 704.35,-99.98"/>
</g>
<!-- dti&#45;&gt;open_act_il -->
<g id="edge19" class="edge">
<title>dti&#45;&gt;open_act_il</title>
<path fill="none" stroke="black" d="M238,-161.97C238,-159.57 238,-157.06 238,-154.52"/>
<polygon fill="black" stroke="black" points="241.5,-154.24 238,-144.24 234.5,-154.24 241.5,-154.24"/>
</g>
<!-- home_ownership&#45;&gt;avg_cur_bal -->
<g id="edge20" class="edge">
<title>home_ownership&#45;&gt;avg_cur_bal</title>
<path fill="none" stroke="black" d="M198.83,-269.97C184.74,-264.77 169.16,-259.03 154.78,-253.73"/>
<polygon fill="black" stroke="black" points="155.64,-250.31 145.04,-250.14 153.21,-256.88 155.64,-250.31"/>
</g>
<!-- home_ownership&#45;&gt;emp_length -->
<g id="edge21" class="edge">
<title>home_ownership&#45;&gt;emp_length</title>
<path fill="none" stroke="black" d="M264.97,-269.97C269.14,-266.42 273.61,-262.61 278.01,-258.86"/>
<polygon fill="black" stroke="black" points="280.43,-261.39 285.77,-252.24 275.89,-256.07 280.43,-261.39"/>
</g>
<!-- home_ownership&#45;&gt;purpose -->
<g id="edge22" class="edge">
<title>home_ownership&#45;&gt;purpose</title>
<path fill="none" stroke="black" d="M230.92,-269.97C228.27,-266.77 225.46,-263.37 222.66,-259.99"/>
<polygon fill="black" stroke="black" points="225.33,-257.72 216.26,-252.24 219.93,-262.18 225.33,-257.72"/>
</g>
<!-- bc_util -->
<g id="node18" class="node">
<title>bc_util</title>
<path fill="#e1f5fe" stroke="black" d="M366,-738C366,-738 336,-738 336,-738 330,-738 324,-732 324,-726 324,-726 324,-714 324,-714 324,-708 330,-702 336,-702 336,-702 366,-702 366,-702 372,-702 378,-708 378,-714 378,-714 378,-726 378,-726 378,-732 372,-738 366,-738"/>
<text text-anchor="middle" x="351" y="-716.4" font-family="Helvetica,sans-Serif" font-size="12.00">bc_util</text>
</g>
<!-- bc_util&#45;&gt;funded_amnt -->
<g id="edge27" class="edge">
<title>bc_util&#45;&gt;funded_amnt</title>
<path fill="none" stroke="black" d="M327.9,-701.88C305.22,-682.91 274,-650.08 274,-613 274,-613 274,-613 274,-503 274,-476.22 275.29,-445.66 276.41,-424.25"/>
<polygon fill="black" stroke="black" points="279.9,-424.43 276.95,-414.25 272.91,-424.05 279.9,-424.43"/>
</g>
<!-- bc_util&#45;&gt;all_util -->
<g id="edge23" class="edge">
<title>bc_util&#45;&gt;all_util</title>
<path fill="none" stroke="black" d="M323.62,-714.29C302.88,-709.57 274.7,-700.54 255,-684 227.09,-660.57 214,-649.44 214,-613 214,-613 214,-613 214,-557 214,-530.14 211.1,-499.59 208.59,-478.21"/>
<polygon fill="black" stroke="black" points="212.05,-477.72 207.36,-468.22 205.1,-478.57 212.05,-477.72"/>
</g>
<!-- grade -->
<g id="node19" class="node">
<title>grade</title>
<path fill="#e1f5fe" stroke="black" d="M574,-576C574,-576 544,-576 544,-576 538,-576 532,-570 532,-564 532,-564 532,-552 532,-552 532,-546 538,-540 544,-540 544,-540 574,-540 574,-540 580,-540 586,-546 586,-552 586,-552 586,-564 586,-564 586,-570 580,-576 574,-576"/>
<text text-anchor="middle" x="559" y="-554.4" font-family="Helvetica,sans-Serif" font-size="12.00">grade</text>
</g>
<!-- bc_util&#45;&gt;grade -->
<g id="edge24" class="edge">
<title>bc_util&#45;&gt;grade</title>
<path fill="none" stroke="black" d="M361.07,-701.89C370.6,-686.62 385.95,-664.22 403,-648 434.61,-617.92 446.96,-615.38 485,-594 496.93,-587.3 510.35,-580.69 522.45,-575.05"/>
<polygon fill="black" stroke="black" points="524.19,-578.1 531.82,-570.75 521.28,-571.73 524.19,-578.1"/>
</g>
<!-- total_bc_limit -->
<g id="node20" class="node">
<title>total_bc_limit</title>
<path fill="#e1f5fe" stroke="black" d="M386.03,-522C386.03,-522 323.97,-522 323.97,-522 317.97,-522 311.97,-516 311.97,-510 311.97,-510 311.97,-498 311.97,-498 311.97,-492 317.97,-486 323.97,-486 323.97,-486 386.03,-486 386.03,-486 392.03,-486 398.03,-492 398.03,-498 398.03,-498 398.03,-510 398.03,-510 398.03,-516 392.03,-522 386.03,-522"/>
<text text-anchor="middle" x="355" y="-500.4" font-family="Helvetica,sans-Serif" font-size="12.00">total_bc_limit</text>
</g>
<!-- bc_util&#45;&gt;total_bc_limit -->
<g id="edge25" class="edge">
<title>bc_util&#45;&gt;total_bc_limit</title>
<path fill="none" stroke="black" d="M350.36,-701.95C349.29,-670.1 347.62,-599.41 351,-540 351.15,-537.44 351.35,-534.77 351.59,-532.11"/>
<polygon fill="black" stroke="black" points="355.09,-532.37 352.66,-522.06 348.12,-531.63 355.09,-532.37"/>
</g>
<!-- mths_since_recent_bc -->
<g id="node21" class="node">
<title>mths_since_recent_bc</title>
<path fill="#e1f5fe" stroke="black" d="M540.06,-684C540.06,-684 427.94,-684 427.94,-684 421.94,-684 415.94,-678 415.94,-672 415.94,-672 415.94,-660 415.94,-660 415.94,-654 421.94,-648 427.94,-648 427.94,-648 540.06,-648 540.06,-648 546.06,-648 552.06,-654 552.06,-660 552.06,-660 552.06,-672 552.06,-672 552.06,-678 546.06,-684 540.06,-684"/>
<text text-anchor="middle" x="484" y="-662.4" font-family="Helvetica,sans-Serif" font-size="12.00">mths_since_recent_bc</text>
</g>
<!-- bc_util&#45;&gt;mths_since_recent_bc -->
<g id="edge26" class="edge">
<title>bc_util&#45;&gt;mths_since_recent_bc</title>
<path fill="none" stroke="black" d="M378.24,-708.35C393.3,-702.46 412.56,-694.93 430.51,-687.91"/>
<polygon fill="black" stroke="black" points="432.27,-690.98 440.31,-684.08 429.72,-684.46 432.27,-690.98"/>
</g>
<!-- grade&#45;&gt;int_rate% -->
<g id="edge28" class="edge">
<title>grade&#45;&gt;int_rate%</title>
<path fill="none" stroke="black" d="M559.13,-539.83C559.47,-494.45 560.39,-371.06 560.8,-316.07"/>
<polygon fill="black" stroke="black" points="564.3,-316.06 560.87,-306.03 557.3,-316 564.3,-316.06"/>
</g>
<!-- grade&#45;&gt;binary_loan_status -->
<g id="edge30" class="edge">
<title>grade&#45;&gt;binary_loan_status</title>
<path fill="none" stroke="black" d="M569.38,-539.77C572.6,-534.18 576.08,-527.89 579,-522 615.24,-448.94 650.95,-359.39 667.87,-315.63"/>
<polygon fill="black" stroke="black" points="671.14,-316.86 671.47,-306.27 664.61,-314.34 671.14,-316.86"/>
</g>
<!-- grade&#45;&gt;total_bc_limit -->
<g id="edge31" class="edge">
<title>grade&#45;&gt;total_bc_limit</title>
<path fill="none" stroke="black" d="M531.72,-544.59C527.51,-542.91 523.17,-541.32 519,-540 482.68,-528.52 440.64,-519.63 408.23,-513.69"/>
<polygon fill="black" stroke="black" points="408.52,-510.18 398.06,-511.86 407.28,-517.07 408.52,-510.18"/>
</g>
<!-- term -->
<g id="node22" class="node">
<title>term</title>
<path fill="#e1f5fe" stroke="black" d="M479,-468C479,-468 449,-468 449,-468 443,-468 437,-462 437,-456 437,-456 437,-444 437,-444 437,-438 443,-432 449,-432 449,-432 479,-432 479,-432 485,-432 491,-438 491,-444 491,-444 491,-456 491,-456 491,-462 485,-468 479,-468"/>
<text text-anchor="middle" x="464" y="-446.4" font-family="Helvetica,sans-Serif" font-size="12.00">term</text>
</g>
<!-- grade&#45;&gt;term -->
<g id="edge29" class="edge">
<title>grade&#45;&gt;term</title>
<path fill="none" stroke="black" d="M543.74,-539.97C528.25,-522.69 504.1,-495.74 486.43,-476.03"/>
<polygon fill="black" stroke="black" points="488.82,-473.45 479.54,-468.34 483.61,-478.12 488.82,-473.45"/>
</g>
<!-- total_bc_limit&#45;&gt;total_rev_hi_lim -->
<g id="edge32" class="edge">
<title>total_bc_limit&#45;&gt;total_rev_hi_lim</title>
<path fill="none" stroke="black" d="M357.29,-485.97C357.63,-483.49 357.98,-480.87 358.33,-478.24"/>
<polygon fill="black" stroke="black" points="361.81,-478.62 359.68,-468.24 354.88,-477.69 361.81,-478.62"/>
</g>
<!-- total_bc_limit&#45;&gt;all_util -->
<g id="edge34" class="edge">
<title>total_bc_limit&#45;&gt;all_util</title>
<path fill="none" stroke="black" d="M311.61,-487.96C289.5,-480.29 262.91,-471.07 241.81,-463.76"/>
<polygon fill="black" stroke="black" points="242.83,-460.41 232.24,-460.44 240.54,-467.03 242.83,-460.41"/>
</g>
<!-- total_bc_limit&#45;&gt;term -->
<g id="edge33" class="edge">
<title>total_bc_limit&#45;&gt;term</title>
<path fill="none" stroke="black" d="M390.69,-485.97C402.55,-480.32 415.76,-474.02 427.66,-468.34"/>
<polygon fill="black" stroke="black" points="429.36,-471.4 436.88,-463.94 426.34,-465.09 429.36,-471.4"/>
</g>
<!-- mths_since_recent_bc&#45;&gt;acc_open_past_24mths -->
<g id="edge36" class="edge">
<title>mths_since_recent_bc&#45;&gt;acc_open_past_24mths</title>
<path fill="none" stroke="black" d="M475.6,-647.96C472.83,-642.26 469.75,-635.87 467,-630 460.13,-615.32 452.67,-598.81 446.69,-585.42"/>
<polygon fill="black" stroke="black" points="449.89,-583.99 442.62,-576.28 443.49,-586.84 449.89,-583.99"/>
</g>
<!-- num_tl_op_past_12m -->
<g id="node23" class="node">
<title>num_tl_op_past_12m</title>
<path fill="#e1f5fe" stroke="black" d="M643.91,-630C643.91,-630 536.09,-630 536.09,-630 530.09,-630 524.09,-624 524.09,-618 524.09,-618 524.09,-606 524.09,-606 524.09,-600 530.09,-594 536.09,-594 536.09,-594 643.91,-594 643.91,-594 649.91,-594 655.91,-600 655.91,-606 655.91,-606 655.91,-618 655.91,-618 655.91,-624 649.91,-630 643.91,-630"/>
<text text-anchor="middle" x="590" y="-608.4" font-family="Helvetica,sans-Serif" font-size="12.00">num_tl_op_past_12m</text>
</g>
<!-- mths_since_recent_bc&#45;&gt;num_tl_op_past_12m -->
<g id="edge35" class="edge">
<title>mths_since_recent_bc&#45;&gt;num_tl_op_past_12m</title>
<path fill="none" stroke="black" d="M518.71,-647.97C527.49,-643.66 537.04,-638.98 546.21,-634.48"/>
<polygon fill="black" stroke="black" points="547.78,-637.61 555.21,-630.06 544.69,-631.33 547.78,-637.61"/>
</g>
<!-- mths_since_recent_inq -->
<g id="node24" class="node">
<title>mths_since_recent_inq</title>
<path fill="#e1f5fe" stroke="black" d="M738.9,-576C738.9,-576 623.1,-576 623.1,-576 617.1,-576 611.1,-570 611.1,-564 611.1,-564 611.1,-552 611.1,-552 611.1,-546 617.1,-540 623.1,-540 623.1,-540 738.9,-540 738.9,-540 744.9,-540 750.9,-546 750.9,-552 750.9,-552 750.9,-564 750.9,-564 750.9,-570 744.9,-576 738.9,-576"/>
<text text-anchor="middle" x="681" y="-554.4" font-family="Helvetica,sans-Serif" font-size="12.00">mths_since_recent_inq</text>
</g>
<!-- mths_since_recent_bc&#45;&gt;mths_since_recent_inq -->
<g id="edge37" class="edge">
<title>mths_since_recent_bc&#45;&gt;mths_since_recent_inq</title>
<path fill="none" stroke="black" d="M486.07,-647.99C488.98,-631.67 495.88,-607.57 512,-594 512.24,-593.8 557.49,-584.43 601.1,-575.44"/>
<polygon fill="black" stroke="black" points="601.86,-578.86 610.95,-573.41 600.45,-572 601.86,-578.86"/>
</g>
<!-- term&#45;&gt;funded_amnt -->
<g id="edge51" class="edge">
<title>term&#45;&gt;funded_amnt</title>
<path fill="none" stroke="black" d="M437,-436.39C433.02,-434.78 428.94,-433.26 425,-432 388.22,-420.22 377.53,-423.11 340,-414 337.06,-413.29 334.04,-412.53 331,-411.76"/>
<polygon fill="black" stroke="black" points="331.84,-408.36 321.28,-409.22 330.07,-415.13 331.84,-408.36"/>
</g>
<!-- term&#45;&gt;time_since_last_payment -->
<g id="edge52" class="edge">
<title>term&#45;&gt;time_since_last_payment</title>
<path fill="none" stroke="black" d="M463.42,-431.73C463.22,-395.89 468.19,-313.14 515,-270 525.64,-260.19 553.69,-252.52 582.99,-246.89"/>
<polygon fill="black" stroke="black" points="583.74,-250.31 592.95,-245.06 582.48,-243.43 583.74,-250.31"/>
</g>
<!-- term&#45;&gt;int_rate% -->
<g id="edge53" class="edge">
<title>term&#45;&gt;int_rate%</title>
<path fill="none" stroke="black" d="M474.38,-431.88C491.36,-403.88 525.16,-348.11 545.15,-315.14"/>
<polygon fill="black" stroke="black" points="548.21,-316.85 550.4,-306.48 542.22,-313.22 548.21,-316.85"/>
</g>
<!-- num_tl_op_past_12m&#45;&gt;acc_open_past_24mths -->
<g id="edge40" class="edge">
<title>num_tl_op_past_12m&#45;&gt;acc_open_past_24mths</title>
<path fill="none" stroke="black" d="M539.25,-593.97C525.33,-589.3 510.1,-584.2 495.69,-579.36"/>
<polygon fill="black" stroke="black" points="496.46,-575.93 485.87,-576.06 494.23,-582.56 496.46,-575.93"/>
</g>
<!-- num_tl_op_past_12m&#45;&gt;inq_last_12m -->
<g id="edge42" class="edge">
<title>num_tl_op_past_12m&#45;&gt;inq_last_12m</title>
<path fill="none" stroke="black" d="M656.01,-606.18C698.95,-601.51 749.42,-592.6 763,-576 798.56,-532.53 775.74,-461.74 759.03,-423.51"/>
<polygon fill="black" stroke="black" points="762.07,-421.74 754.75,-414.08 755.7,-424.64 762.07,-421.74"/>
</g>
<!-- num_tl_op_past_12m&#45;&gt;grade -->
<g id="edge43" class="edge">
<title>num_tl_op_past_12m&#45;&gt;grade</title>
<path fill="none" stroke="black" d="M579.85,-593.97C578.15,-591.13 576.36,-588.12 574.57,-585.11"/>
<polygon fill="black" stroke="black" points="577.41,-583.04 569.28,-576.24 571.39,-586.62 577.41,-583.04"/>
</g>
<!-- num_tl_op_past_12m&#45;&gt;mths_since_recent_inq -->
<g id="edge41" class="edge">
<title>num_tl_op_past_12m&#45;&gt;mths_since_recent_inq</title>
<path fill="none" stroke="black" d="M619.8,-593.97C627.02,-589.84 634.85,-585.37 642.42,-581.04"/>
<polygon fill="black" stroke="black" points="644.19,-584.07 651.14,-576.06 640.72,-577.99 644.19,-584.07"/>
</g>
<!-- mths_since_recent_inq&#45;&gt;inq_last_12m -->
<g id="edge44" class="edge">
<title>mths_since_recent_inq&#45;&gt;inq_last_12m</title>
<path fill="none" stroke="black" d="M705.65,-539.92C711.48,-534.78 717.12,-528.71 721,-522 738.54,-491.7 743.95,-451.11 745.52,-424.52"/>
<polygon fill="black" stroke="black" points="749.02,-424.54 745.97,-414.39 742.03,-424.23 749.02,-424.54"/>
</g>
<!-- addr_state -->
<g id="node25" class="node">
<title>addr_state</title>
<path fill="#e1f5fe" stroke="black" d="M696.21,-522C696.21,-522 647.79,-522 647.79,-522 641.79,-522 635.79,-516 635.79,-510 635.79,-510 635.79,-498 635.79,-498 635.79,-492 641.79,-486 647.79,-486 647.79,-486 696.21,-486 696.21,-486 702.21,-486 708.21,-492 708.21,-498 708.21,-498 708.21,-510 708.21,-510 708.21,-516 702.21,-522 696.21,-522"/>
<text text-anchor="middle" x="672" y="-500.4" font-family="Helvetica,sans-Serif" font-size="12.00">addr_state</text>
</g>
<!-- mths_since_recent_inq&#45;&gt;addr_state -->
<g id="edge45" class="edge">
<title>mths_since_recent_inq&#45;&gt;addr_state</title>
<path fill="none" stroke="black" d="M678.05,-539.97C677.62,-537.49 677.17,-534.87 676.71,-532.24"/>
<polygon fill="black" stroke="black" points="680.14,-531.5 674.98,-522.24 673.24,-532.69 680.14,-531.5"/>
</g>
<!-- addr_state&#45;&gt;home_ownership -->
<g id="edge46" class="edge">
<title>addr_state&#45;&gt;home_ownership</title>
<path fill="none" stroke="black" d="M635.65,-487.68C550.15,-451.61 342.93,-364.08 336,-360 313,-346.45 289.3,-327.78 271.85,-312.98"/>
<polygon fill="black" stroke="black" points="273.68,-309.94 263.82,-306.07 269.12,-315.25 273.68,-309.94"/>
</g>
<!-- percent_bc_gt_75 -->
<g id="node26" class="node">
<title>percent_bc_gt_75</title>
<path fill="#e1f5fe" stroke="black" d="M607.08,-792C607.08,-792 518.92,-792 518.92,-792 512.92,-792 506.92,-786 506.92,-780 506.92,-780 506.92,-768 506.92,-768 506.92,-762 512.92,-756 518.92,-756 518.92,-756 607.08,-756 607.08,-756 613.08,-756 619.08,-762 619.08,-768 619.08,-768 619.08,-780 619.08,-780 619.08,-786 613.08,-792 607.08,-792"/>
<text text-anchor="middle" x="563" y="-770.4" font-family="Helvetica,sans-Serif" font-size="12.00">percent_bc_gt_75</text>
</g>
<!-- percent_bc_gt_75&#45;&gt;loan_age -->
<g id="edge50" class="edge">
<title>percent_bc_gt_75&#45;&gt;loan_age</title>
<path fill="none" stroke="black" d="M619.31,-763.84C702.36,-748.71 848,-715.3 848,-667 848,-667 848,-667 848,-449 848,-412.2 815.68,-383.24 787.43,-364.96"/>
<polygon fill="black" stroke="black" points="789.18,-361.93 778.83,-359.63 785.49,-367.88 789.18,-361.93"/>
</g>
<!-- percent_bc_gt_75&#45;&gt;bc_util -->
<g id="edge47" class="edge">
<title>percent_bc_gt_75&#45;&gt;bc_util</title>
<path fill="none" stroke="black" d="M506.74,-759.2C469.22,-750 420.94,-738.16 388.15,-730.11"/>
<polygon fill="black" stroke="black" points="388.63,-726.63 378.08,-727.64 386.96,-733.42 388.63,-726.63"/>
</g>
<!-- percent_bc_gt_75&#45;&gt;mths_since_recent_bc -->
<g id="edge48" class="edge">
<title>percent_bc_gt_75&#45;&gt;mths_since_recent_bc</title>
<path fill="none" stroke="black" d="M550.31,-755.97C537.54,-738.84 517.7,-712.22 503.05,-692.56"/>
<polygon fill="black" stroke="black" points="505.71,-690.27 496.92,-684.34 500.09,-694.45 505.71,-690.27"/>
</g>
<!-- percent_bc_gt_75&#45;&gt;num_tl_op_past_12m -->
<g id="edge49" class="edge">
<title>percent_bc_gt_75&#45;&gt;num_tl_op_past_12m</title>
<path fill="none" stroke="black" d="M565.89,-755.88C570.55,-728.23 579.78,-673.54 585.37,-640.42"/>
<polygon fill="black" stroke="black" points="588.84,-640.93 587.05,-630.48 581.93,-639.76 588.84,-640.93"/>
</g>
<!-- hardship_loan_status&#45;&gt;hardship_type -->
<g id="edge62" class="edge">
<title>hardship_loan_status&#45;&gt;hardship_type</title>
<path fill="none" stroke="black" d="M762.88,-107.97C755.57,-103.84 747.65,-99.37 740,-95.04"/>
<polygon fill="black" stroke="black" points="741.62,-91.94 731.19,-90.06 738.18,-98.03 741.62,-91.94"/>
</g>
<!-- hardship_type&#45;&gt;debt_settlement_flag -->
<g id="edge61" class="edge">
<title>hardship_type&#45;&gt;debt_settlement_flag</title>
<path fill="none" stroke="black" d="M673.5,-53.97C667.11,-50.02 660.22,-45.76 653.52,-41.61"/>
<polygon fill="black" stroke="black" points="654.91,-38.35 644.57,-36.06 651.23,-44.3 654.91,-38.35"/>
</g>
</g>
</svg>
