<?xml version="1.0" encoding="UTF-8" standalone="no"?>
<!DOCTYPE svg PUBLIC "-//W3C//DTD SVG 1.1//EN"
 "http://www.w3.org/Graphics/SVG/1.1/DTD/svg11.dtd">
<!-- Generated by graphviz version 2.50.0 (0)
 -->
<!-- Pages: 1 -->
<svg width="576pt" height="684pt"
 viewBox="0.00 0.00 576.00 683.95" xmlns="http://www.w3.org/2000/svg" xmlns:xlink="http://www.w3.org/1999/xlink">
<g id="graph0" class="graph" transform="scale(0.75 0.75) rotate(0) translate(4 904)">
<polygon fill="white" stroke="transparent" points="-4,4 -4,-904 760.69,-904 760.69,4 -4,4"/>
<!-- acc_open_past_24mths -->
<g id="node1" class="node">
<title>acc_open_past_24mths</title>
<path fill="#e1f5fe" stroke="black" d="M408.92,-684C408.92,-684 289.08,-684 289.08,-684 283.08,-684 277.08,-678 277.08,-672 277.08,-672 277.08,-660 277.08,-660 277.08,-654 283.08,-648 289.08,-648 289.08,-648 408.92,-648 408.92,-648 414.92,-648 420.92,-654 420.92,-660 420.92,-660 420.92,-672 420.92,-672 420.92,-678 414.92,-684 408.92,-684"/>
<text text-anchor="middle" x="349" y="-662.4" font-family="Helvetica,sans-Serif" font-size="12.00">acc_open_past_24mths</text>
</g>
<!-- num_tl_op_past_12m -->
<g id="node2" class="node">
<title>num_tl_op_past_12m</title>
<path fill="#e1f5fe" stroke="black" d="M400.91,-576C400.91,-576 293.09,-576 293.09,-576 287.09,-576 281.09,-570 281.09,-564 281.09,-564 281.09,-552 281.09,-552 281.09,-546 287.09,-540 293.09,-540 293.09,-540 400.91,-540 400.91,-540 406.91,-540 412.91,-546 412.91,-552 412.91,-552 412.91,-564 412.91,-564 412.91,-570 406.91,-576 400.91,-576"/>
<text text-anchor="middle" x="347" y="-554.4" font-family="Helvetica,sans-Serif" font-size="12.00">num_tl_op_past_12m</text>
</g>
<!-- acc_open_past_24mths&#45;&gt;num_tl_op_past_12m -->
<g id="edge1" class="edge">
<title>acc_open_past_24mths&#45;&gt;num_tl_op_past_12m</title>
<path fill="none" stroke="black" d="M348.68,-647.97C348.37,-631.38 347.88,-605.88 347.52,-586.43"/>
<polygon fill="black" stroke="black" points="351.02,-586.27 347.33,-576.34 344.02,-586.4 351.02,-586.27"/>
</g>
<!-- mths_since_recent_bc -->
<g id="node3" class="node">
<title>mths_since_recent_bc</title>
<path fill="#e1f5fe" stroke="black" d="M299.06,-630C299.06,-630 186.94,-630 186.94,-630 180.94,-630 174.94,-624 174.94,-618 174.94,-618 174.94,-606 174.94,-606 174.94,-600 180.94,-594 186.94,-594 186.94,-594 299.06,-594 299.06,-594 305.06,-594 311.06,-600 311.06,-606 311.06,-606 311.06,-618 311.06,-618 311.06,-624 305.06,-630 299.06,-630"/>
<text text-anchor="middle" x="243" y="-608.4" font-family="Helvetica,sans-Serif" font-size="12.00">mths_since_recent_bc</text>
</g>
<!-- acc_open_past_24mths&#45;&gt;mths_since_recent_bc -->
<g id="edge2" class="edge">
<title>acc_open_past_24mths&#45;&gt;mths_since_recent_bc</title>
<path fill="none" stroke="black" d="M314.29,-647.97C305.51,-643.66 295.96,-638.98 286.79,-634.48"/>
<polygon fill="black" stroke="black" points="288.31,-631.33 277.79,-630.06 285.22,-637.61 288.31,-631.33"/>
</g>
<!-- mths_since_recent_inq -->
<g id="node4" class="node">
<title>mths_since_recent_inq</title>
<path fill="#e1f5fe" stroke="black" d="M357.9,-522C357.9,-522 242.1,-522 242.1,-522 236.1,-522 230.1,-516 230.1,-510 230.1,-510 230.1,-498 230.1,-498 230.1,-492 236.1,-486 242.1,-486 242.1,-486 357.9,-486 357.9,-486 363.9,-486 369.9,-492 369.9,-498 369.9,-498 369.9,-510 369.9,-510 369.9,-516 363.9,-522 357.9,-522"/>
<text text-anchor="middle" x="300" y="-500.4" font-family="Helvetica,sans-Serif" font-size="12.00">mths_since_recent_inq</text>
</g>
<!-- num_tl_op_past_12m&#45;&gt;mths_since_recent_inq -->
<g id="edge3" class="edge">
<title>num_tl_op_past_12m&#45;&gt;mths_since_recent_inq</title>
<path fill="none" stroke="black" d="M331.61,-539.97C328.64,-536.69 325.47,-533.18 322.33,-529.7"/>
<polygon fill="black" stroke="black" points="324.89,-527.31 315.59,-522.24 319.69,-532.01 324.89,-527.31"/>
</g>
<!-- inq_last_12m -->
<g id="node5" class="node">
<title>inq_last_12m</title>
<path fill="#e1f5fe" stroke="black" d="M439.88,-468C439.88,-468 376.12,-468 376.12,-468 370.12,-468 364.12,-462 364.12,-456 364.12,-456 364.12,-444 364.12,-444 364.12,-438 370.12,-432 376.12,-432 376.12,-432 439.88,-432 439.88,-432 445.88,-432 451.88,-438 451.88,-444 451.88,-444 451.88,-456 451.88,-456 451.88,-462 445.88,-468 439.88,-468"/>
<text text-anchor="middle" x="408" y="-446.4" font-family="Helvetica,sans-Serif" font-size="12.00">inq_last_12m</text>
</g>
<!-- num_tl_op_past_12m&#45;&gt;inq_last_12m -->
<g id="edge4" class="edge">
<title>num_tl_op_past_12m&#45;&gt;inq_last_12m</title>
<path fill="none" stroke="black" d="M367.18,-539.8C372.52,-534.5 377.93,-528.37 382,-522 390.61,-508.51 396.92,-491.77 401.16,-477.93"/>
<polygon fill="black" stroke="black" points="404.61,-478.59 404.01,-468.01 397.89,-476.66 404.61,-478.59"/>
</g>
<!-- grade -->
<g id="node6" class="node">
<title>grade</title>
<path fill="#e1f5fe" stroke="black" d="M207,-414C207,-414 177,-414 177,-414 171,-414 165,-408 165,-402 165,-402 165,-390 165,-390 165,-384 171,-378 177,-378 177,-378 207,-378 207,-378 213,-378 219,-384 219,-390 219,-390 219,-402 219,-402 219,-408 213,-414 207,-414"/>
<text text-anchor="middle" x="192" y="-392.4" font-family="Helvetica,sans-Serif" font-size="12.00">grade</text>
</g>
<!-- num_tl_op_past_12m&#45;&gt;grade -->
<g id="edge5" class="edge">
<title>num_tl_op_past_12m&#45;&gt;grade</title>
<path fill="none" stroke="black" d="M281.07,-553.02C258.24,-548.38 234.31,-539.31 218,-522 193.31,-495.79 189.49,-452.51 189.99,-424.38"/>
<polygon fill="black" stroke="black" points="193.5,-424.18 190.38,-414.06 186.5,-423.92 193.5,-424.18"/>
</g>
<!-- mths_since_recent_bc&#45;&gt;num_tl_op_past_12m -->
<g id="edge7" class="edge">
<title>mths_since_recent_bc&#45;&gt;num_tl_op_past_12m</title>
<path fill="none" stroke="black" d="M277.05,-593.97C285.58,-589.71 294.85,-585.08 303.76,-580.62"/>
<polygon fill="black" stroke="black" points="305.49,-583.67 312.87,-576.06 302.36,-577.41 305.49,-583.67"/>
</g>
<!-- mths_since_recent_bc&#45;&gt;mths_since_recent_inq -->
<g id="edge6" class="edge">
<title>mths_since_recent_bc&#45;&gt;mths_since_recent_inq</title>
<path fill="none" stroke="black" d="M247.32,-593.85C251.53,-578.95 258.78,-557.13 269,-540 271.05,-536.57 273.45,-533.16 276,-529.9"/>
<polygon fill="black" stroke="black" points="278.76,-532.06 282.52,-522.15 273.41,-527.55 278.76,-532.06"/>
</g>
<!-- mths_since_recent_inq&#45;&gt;inq_last_12m -->
<g id="edge36" class="edge">
<title>mths_since_recent_inq&#45;&gt;inq_last_12m</title>
<path fill="none" stroke="black" d="M335.36,-485.97C344.31,-481.66 354.04,-476.98 363.39,-472.48"/>
<polygon fill="black" stroke="black" points="365.07,-475.56 372.56,-468.06 362.03,-469.25 365.07,-475.56"/>
</g>
<!-- loan_age -->
<g id="node8" class="node">
<title>loan_age</title>
<path fill="#e1f5fe" stroke="black" d="M428.88,-414C428.88,-414 387.12,-414 387.12,-414 381.12,-414 375.12,-408 375.12,-402 375.12,-402 375.12,-390 375.12,-390 375.12,-384 381.12,-378 387.12,-378 387.12,-378 428.88,-378 428.88,-378 434.88,-378 440.88,-384 440.88,-390 440.88,-390 440.88,-402 440.88,-402 440.88,-408 434.88,-414 428.88,-414"/>
<text text-anchor="middle" x="408" y="-392.4" font-family="Helvetica,sans-Serif" font-size="12.00">loan_age</text>
</g>
<!-- inq_last_12m&#45;&gt;loan_age -->
<g id="edge17" class="edge">
<title>inq_last_12m&#45;&gt;loan_age</title>
<path fill="none" stroke="black" d="M408,-431.97C408,-429.57 408,-427.06 408,-424.52"/>
<polygon fill="black" stroke="black" points="411.5,-424.24 408,-414.24 404.5,-424.24 411.5,-424.24"/>
</g>
<!-- int_rate% -->
<g id="node13" class="node">
<title>int_rate%</title>
<path fill="#e1f5fe" stroke="black" d="M423.2,-360C423.2,-360 380.8,-360 380.8,-360 374.8,-360 368.8,-354 368.8,-348 368.8,-348 368.8,-336 368.8,-336 368.8,-330 374.8,-324 380.8,-324 380.8,-324 423.2,-324 423.2,-324 429.2,-324 435.2,-330 435.2,-336 435.2,-336 435.2,-348 435.2,-348 435.2,-354 429.2,-360 423.2,-360"/>
<text text-anchor="middle" x="402" y="-338.4" font-family="Helvetica,sans-Serif" font-size="12.00">int_rate%</text>
</g>
<!-- grade&#45;&gt;int_rate% -->
<g id="edge30" class="edge">
<title>grade&#45;&gt;int_rate%</title>
<path fill="none" stroke="black" d="M219.28,-390.42C252.07,-384.63 308.6,-373.74 356,-360 357.04,-359.7 358.1,-359.38 359.16,-359.06"/>
<polygon fill="black" stroke="black" points="360.35,-362.35 368.77,-355.92 358.18,-355.7 360.35,-362.35"/>
</g>
<!-- binary_loan_status -->
<g id="node14" class="node">
<title>binary_loan_status</title>
<path fill="#e1f5fe" stroke="black" d="M331.23,-360C331.23,-360 238.77,-360 238.77,-360 232.77,-360 226.77,-354 226.77,-348 226.77,-348 226.77,-336 226.77,-336 226.77,-330 232.77,-324 238.77,-324 238.77,-324 331.23,-324 331.23,-324 337.23,-324 343.23,-330 343.23,-336 343.23,-336 343.23,-348 343.23,-348 343.23,-354 337.23,-360 331.23,-360"/>
<text text-anchor="middle" x="285" y="-338.4" font-family="Helvetica,sans-Serif" font-size="12.00">binary_loan_status</text>
</g>
<!-- grade&#45;&gt;binary_loan_status -->
<g id="edge32" class="edge">
<title>grade&#45;&gt;binary_loan_status</title>
<path fill="none" stroke="black" d="M219.4,-379.68C227.59,-375.1 236.74,-369.98 245.54,-365.06"/>
<polygon fill="black" stroke="black" points="247.52,-367.97 254.54,-360.03 244.1,-361.86 247.52,-367.97"/>
</g>
<!-- term -->
<g id="node21" class="node">
<title>term</title>
<path fill="#e1f5fe" stroke="black" d="M178,-360C178,-360 148,-360 148,-360 142,-360 136,-354 136,-348 136,-348 136,-336 136,-336 136,-330 142,-324 148,-324 148,-324 178,-324 178,-324 184,-324 190,-330 190,-336 190,-336 190,-348 190,-348 190,-354 184,-360 178,-360"/>
<text text-anchor="middle" x="163" y="-338.4" font-family="Helvetica,sans-Serif" font-size="12.00">term</text>
</g>
<!-- grade&#45;&gt;term -->
<g id="edge31" class="edge">
<title>grade&#45;&gt;term</title>
<path fill="none" stroke="black" d="M182.5,-377.97C180.92,-375.13 179.24,-372.12 177.56,-369.11"/>
<polygon fill="black" stroke="black" points="180.54,-367.27 172.62,-360.24 174.43,-370.68 180.54,-367.27"/>
</g>
<!-- all_util -->
<g id="node7" class="node">
<title>all_util</title>
<path fill="#e1f5fe" stroke="black" d="M499,-792C499,-792 469,-792 469,-792 463,-792 457,-786 457,-780 457,-780 457,-768 457,-768 457,-762 463,-756 469,-756 469,-756 499,-756 499,-756 505,-756 511,-762 511,-768 511,-768 511,-780 511,-780 511,-786 505,-792 499,-792"/>
<text text-anchor="middle" x="484" y="-770.4" font-family="Helvetica,sans-Serif" font-size="12.00">all_util</text>
</g>
<!-- all_util&#45;&gt;inq_last_12m -->
<g id="edge10" class="edge">
<title>all_util&#45;&gt;inq_last_12m</title>
<path fill="none" stroke="black" d="M477.3,-755.67C469.9,-734.91 459,-698.95 459,-667 459,-667 459,-667 459,-557 459,-527.16 442.38,-496.85 428.12,-476.33"/>
<polygon fill="black" stroke="black" points="430.91,-474.21 422.21,-468.16 425.24,-478.31 430.91,-474.21"/>
</g>
<!-- all_util&#45;&gt;loan_age -->
<g id="edge8" class="edge">
<title>all_util&#45;&gt;loan_age</title>
<path fill="none" stroke="black" d="M490.97,-755.69C498.67,-734.96 510,-699.02 510,-667 510,-667 510,-667 510,-503 510,-466.2 477.68,-437.24 449.43,-418.96"/>
<polygon fill="black" stroke="black" points="451.18,-415.93 440.83,-413.63 447.49,-421.88 451.18,-415.93"/>
</g>
<!-- open_act_il -->
<g id="node9" class="node">
<title>open_act_il</title>
<path fill="#e1f5fe" stroke="black" d="M586.88,-198C586.88,-198 533.12,-198 533.12,-198 527.12,-198 521.12,-192 521.12,-186 521.12,-186 521.12,-174 521.12,-174 521.12,-168 527.12,-162 533.12,-162 533.12,-162 586.88,-162 586.88,-162 592.88,-162 598.88,-168 598.88,-174 598.88,-174 598.88,-186 598.88,-186 598.88,-192 592.88,-198 586.88,-198"/>
<text text-anchor="middle" x="560" y="-176.4" font-family="Helvetica,sans-Serif" font-size="12.00">open_act_il</text>
</g>
<!-- all_util&#45;&gt;open_act_il -->
<g id="edge9" class="edge">
<title>all_util&#45;&gt;open_act_il</title>
<path fill="none" stroke="black" d="M507.1,-755.88C529.78,-736.91 561,-704.08 561,-667 561,-667 561,-667 561,-341 561,-294.53 560.57,-240.48 560.28,-208.59"/>
<polygon fill="black" stroke="black" points="563.77,-208.25 560.18,-198.28 556.77,-208.32 563.77,-208.25"/>
</g>
<!-- bc_util -->
<g id="node10" class="node">
<title>bc_util</title>
<path fill="#e1f5fe" stroke="black" d="M219,-738C219,-738 189,-738 189,-738 183,-738 177,-732 177,-726 177,-726 177,-714 177,-714 177,-708 183,-702 189,-702 189,-702 219,-702 219,-702 225,-702 231,-708 231,-714 231,-714 231,-726 231,-726 231,-732 225,-738 219,-738"/>
<text text-anchor="middle" x="204" y="-716.4" font-family="Helvetica,sans-Serif" font-size="12.00">bc_util</text>
</g>
<!-- all_util&#45;&gt;bc_util -->
<g id="edge11" class="edge">
<title>all_util&#45;&gt;bc_util</title>
<path fill="none" stroke="black" d="M456.9,-767.97C406.51,-758.61 298.34,-738.52 241.17,-727.9"/>
<polygon fill="black" stroke="black" points="241.59,-724.42 231.12,-726.04 240.31,-731.3 241.59,-724.42"/>
</g>
<!-- avg_cur_bal -->
<g id="node11" class="node">
<title>avg_cur_bal</title>
<path fill="#e1f5fe" stroke="black" d="M744.88,-198C744.88,-198 687.12,-198 687.12,-198 681.12,-198 675.12,-192 675.12,-186 675.12,-186 675.12,-174 675.12,-174 675.12,-168 681.12,-162 687.12,-162 687.12,-162 744.88,-162 744.88,-162 750.88,-162 756.88,-168 756.88,-174 756.88,-174 756.88,-186 756.88,-186 756.88,-192 750.88,-198 744.88,-198"/>
<text text-anchor="middle" x="716" y="-176.4" font-family="Helvetica,sans-Serif" font-size="12.00">avg_cur_bal</text>
</g>
<!-- all_util&#45;&gt;avg_cur_bal -->
<g id="edge12" class="edge">
<title>all_util&#45;&gt;avg_cur_bal</title>
<path fill="none" stroke="black" d="M511.15,-764.25C548.72,-750.24 612,-718.94 612,-667 612,-667 612,-667 612,-395 612,-345.49 650.11,-346.21 679,-306 695.98,-282.37 707.39,-279.79 716,-252 720.35,-237.97 720.65,-221.62 719.73,-208.15"/>
<polygon fill="black" stroke="black" points="723.2,-207.69 718.78,-198.06 716.23,-208.34 723.2,-207.69"/>
</g>
<!-- time_since_last_payment -->
<g id="node12" class="node">
<title>time_since_last_payment</title>
<path fill="#e1f5fe" stroke="black" d="M459.9,-306C459.9,-306 332.1,-306 332.1,-306 326.1,-306 320.1,-300 320.1,-294 320.1,-294 320.1,-282 320.1,-282 320.1,-276 326.1,-270 332.1,-270 332.1,-270 459.9,-270 459.9,-270 465.9,-270 471.9,-276 471.9,-282 471.9,-282 471.9,-294 471.9,-294 471.9,-300 465.9,-306 459.9,-306"/>
<text text-anchor="middle" x="396" y="-284.4" font-family="Helvetica,sans-Serif" font-size="12.00">time_since_last_payment</text>
</g>
<!-- loan_age&#45;&gt;time_since_last_payment -->
<g id="edge13" class="edge">
<title>loan_age&#45;&gt;time_since_last_payment</title>
<path fill="none" stroke="black" d="M434.4,-377.65C439.9,-372.66 444.95,-366.72 448,-360 454.61,-345.43 455.52,-338.12 448,-324 445.81,-319.89 442.9,-316.18 439.58,-312.84"/>
<polygon fill="black" stroke="black" points="441.61,-309.98 431.74,-306.14 437.06,-315.3 441.61,-309.98"/>
</g>
<!-- loan_age&#45;&gt;int_rate% -->
<g id="edge14" class="edge">
<title>loan_age&#45;&gt;int_rate%</title>
<path fill="none" stroke="black" d="M406.04,-377.97C405.75,-375.49 405.45,-372.87 405.14,-370.24"/>
<polygon fill="black" stroke="black" points="408.61,-369.78 403.99,-360.24 401.66,-370.58 408.61,-369.78"/>
</g>
<!-- loan_age&#45;&gt;binary_loan_status -->
<g id="edge15" class="edge">
<title>loan_age&#45;&gt;binary_loan_status</title>
<path fill="none" stroke="black" d="M375.04,-381.06C362.67,-375.83 348.31,-369.77 334.75,-364.03"/>
<polygon fill="black" stroke="black" points="336.1,-360.8 325.52,-360.13 333.37,-367.25 336.1,-360.8"/>
</g>
<!-- emp_length -->
<g id="node15" class="node">
<title>emp_length</title>
<path fill="#e1f5fe" stroke="black" d="M607.21,-144C607.21,-144 552.79,-144 552.79,-144 546.79,-144 540.79,-138 540.79,-132 540.79,-132 540.79,-120 540.79,-120 540.79,-114 546.79,-108 552.79,-108 552.79,-108 607.21,-108 607.21,-108 613.21,-108 619.21,-114 619.21,-120 619.21,-120 619.21,-132 619.21,-132 619.21,-138 613.21,-144 607.21,-144"/>
<text text-anchor="middle" x="580" y="-122.4" font-family="Helvetica,sans-Serif" font-size="12.00">emp_length</text>
</g>
<!-- open_act_il&#45;&gt;emp_length -->
<g id="edge16" class="edge">
<title>open_act_il&#45;&gt;emp_length</title>
<path fill="none" stroke="black" d="M566.55,-161.97C567.57,-159.31 568.65,-156.5 569.74,-153.68"/>
<polygon fill="black" stroke="black" points="573.04,-154.83 573.37,-144.24 566.51,-152.32 573.04,-154.83"/>
</g>
<!-- bc_util&#45;&gt;acc_open_past_24mths -->
<g id="edge20" class="edge">
<title>bc_util&#45;&gt;acc_open_past_24mths</title>
<path fill="none" stroke="black" d="M231.27,-709.22C248.42,-703.07 271.18,-694.91 292.12,-687.4"/>
<polygon fill="black" stroke="black" points="293.35,-690.67 301.59,-684 290.99,-684.08 293.35,-690.67"/>
</g>
<!-- bc_util&#45;&gt;grade -->
<g id="edge19" class="edge">
<title>bc_util&#45;&gt;grade</title>
<path fill="none" stroke="black" d="M176.89,-712.5C160.46,-707.29 140.19,-698.4 127,-684 104.41,-659.33 102,-646.45 102,-613 102,-613 102,-613 102,-503 102,-467.65 131.45,-438.05 156.66,-419.2"/>
<polygon fill="black" stroke="black" points="158.91,-421.89 165,-413.22 154.83,-416.2 158.91,-421.89"/>
</g>
<!-- percent_bc_gt_75 -->
<g id="node16" class="node">
<title>percent_bc_gt_75</title>
<path fill="#e1f5fe" stroke="black" d="M240.08,-684C240.08,-684 151.92,-684 151.92,-684 145.92,-684 139.92,-678 139.92,-672 139.92,-672 139.92,-660 139.92,-660 139.92,-654 145.92,-648 151.92,-648 151.92,-648 240.08,-648 240.08,-648 246.08,-648 252.08,-654 252.08,-660 252.08,-660 252.08,-672 252.08,-672 252.08,-678 246.08,-684 240.08,-684"/>
<text text-anchor="middle" x="196" y="-662.4" font-family="Helvetica,sans-Serif" font-size="12.00">percent_bc_gt_75</text>
</g>
<!-- bc_util&#45;&gt;percent_bc_gt_75 -->
<g id="edge18" class="edge">
<title>bc_util&#45;&gt;percent_bc_gt_75</title>
<path fill="none" stroke="black" d="M201.38,-701.97C201,-699.49 200.6,-696.87 200.19,-694.24"/>
<polygon fill="black" stroke="black" points="203.63,-693.59 198.65,-684.24 196.71,-694.66 203.63,-693.59"/>
</g>
<!-- home_ownership -->
<g id="node17" class="node">
<title>home_ownership</title>
<path fill="#e1f5fe" stroke="black" d="M621.89,-90C621.89,-90 538.11,-90 538.11,-90 532.11,-90 526.11,-84 526.11,-78 526.11,-78 526.11,-66 526.11,-66 526.11,-60 532.11,-54 538.11,-54 538.11,-54 621.89,-54 621.89,-54 627.89,-54 633.89,-60 633.89,-66 633.89,-66 633.89,-78 633.89,-78 633.89,-84 627.89,-90 621.89,-90"/>
<text text-anchor="middle" x="580" y="-68.4" font-family="Helvetica,sans-Serif" font-size="12.00">home_ownership</text>
</g>
<!-- avg_cur_bal&#45;&gt;home_ownership -->
<g id="edge21" class="edge">
<title>avg_cur_bal&#45;&gt;home_ownership</title>
<path fill="none" stroke="black" d="M696.81,-161.74C680.1,-146.96 655,-125.38 632,-108 626.57,-103.9 620.7,-99.72 614.92,-95.74"/>
<polygon fill="black" stroke="black" points="616.82,-92.79 606.58,-90.08 612.89,-98.59 616.82,-92.79"/>
</g>
<!-- debt_settlement_flag -->
<g id="node25" class="node">
<title>debt_settlement_flag</title>
<path fill="#e1f5fe" stroke="black" d="M455.91,-252C455.91,-252 352.09,-252 352.09,-252 346.09,-252 340.09,-246 340.09,-240 340.09,-240 340.09,-228 340.09,-228 340.09,-222 346.09,-216 352.09,-216 352.09,-216 455.91,-216 455.91,-216 461.91,-216 467.91,-222 467.91,-228 467.91,-228 467.91,-240 467.91,-240 467.91,-246 461.91,-252 455.91,-252"/>
<text text-anchor="middle" x="404" y="-230.4" font-family="Helvetica,sans-Serif" font-size="12.00">debt_settlement_flag</text>
</g>
<!-- time_since_last_payment&#45;&gt;debt_settlement_flag -->
<g id="edge49" class="edge">
<title>time_since_last_payment&#45;&gt;debt_settlement_flag</title>
<path fill="none" stroke="black" d="M398.62,-269.97C399,-267.49 399.4,-264.87 399.81,-262.24"/>
<polygon fill="black" stroke="black" points="403.29,-262.66 401.35,-252.24 396.37,-261.59 403.29,-262.66"/>
</g>
<!-- dti -->
<g id="node22" class="node">
<title>dti</title>
<path fill="#e1f5fe" stroke="black" d="M654,-306C654,-306 624,-306 624,-306 618,-306 612,-300 612,-294 612,-294 612,-282 612,-282 612,-276 618,-270 624,-270 624,-270 654,-270 654,-270 660,-270 666,-276 666,-282 666,-282 666,-294 666,-294 666,-300 660,-306 654,-306"/>
<text text-anchor="middle" x="639" y="-284.4" font-family="Helvetica,sans-Serif" font-size="12.00">dti</text>
</g>
<!-- int_rate%&#45;&gt;dti -->
<g id="edge48" class="edge">
<title>int_rate%&#45;&gt;dti</title>
<path fill="none" stroke="black" d="M435.2,-333.71C479.14,-324.07 556.37,-307.13 602.09,-297.1"/>
<polygon fill="black" stroke="black" points="602.88,-300.51 611.9,-294.95 601.38,-293.67 602.88,-300.51"/>
</g>
<!-- binary_loan_status&#45;&gt;time_since_last_payment -->
<g id="edge50" class="edge">
<title>binary_loan_status&#45;&gt;time_since_last_payment</title>
<path fill="none" stroke="black" d="M321.35,-323.97C330.64,-319.62 340.75,-314.88 350.45,-310.34"/>
<polygon fill="black" stroke="black" points="352,-313.48 359.57,-306.06 349.03,-307.14 352,-313.48"/>
</g>
<!-- binary_loan_status&#45;&gt;debt_settlement_flag -->
<g id="edge52" class="edge">
<title>binary_loan_status&#45;&gt;debt_settlement_flag</title>
<path fill="none" stroke="black" d="M343.41,-326.55C347.66,-325.64 351.89,-324.78 356,-324 384.22,-318.65 465.16,-327.68 484,-306 494.5,-293.92 492.76,-283.39 484,-270 481.07,-265.52 477.42,-261.6 473.31,-258.19"/>
<polygon fill="black" stroke="black" points="475.08,-255.16 464.9,-252.22 471.03,-260.86 475.08,-255.16"/>
</g>
<!-- hardship_status -->
<g id="node26" class="node">
<title>hardship_status</title>
<path fill="#e1f5fe" stroke="black" d="M283.22,-306C283.22,-306 206.78,-306 206.78,-306 200.78,-306 194.78,-300 194.78,-294 194.78,-294 194.78,-282 194.78,-282 194.78,-276 200.78,-270 206.78,-270 206.78,-270 283.22,-270 283.22,-270 289.22,-270 295.22,-276 295.22,-282 295.22,-282 295.22,-294 295.22,-294 295.22,-300 289.22,-306 283.22,-306"/>
<text text-anchor="middle" x="245" y="-284.4" font-family="Helvetica,sans-Serif" font-size="12.00">hardship_status</text>
</g>
<!-- binary_loan_status&#45;&gt;hardship_status -->
<g id="edge51" class="edge">
<title>binary_loan_status&#45;&gt;hardship_status</title>
<path fill="none" stroke="black" d="M271.9,-323.97C269.51,-320.86 266.97,-317.56 264.44,-314.27"/>
<polygon fill="black" stroke="black" points="267.14,-312.04 258.26,-306.24 261.59,-316.3 267.14,-312.04"/>
</g>
<!-- emp_length&#45;&gt;home_ownership -->
<g id="edge26" class="edge">
<title>emp_length&#45;&gt;home_ownership</title>
<path fill="none" stroke="black" d="M580,-107.97C580,-105.57 580,-103.06 580,-100.52"/>
<polygon fill="black" stroke="black" points="583.5,-100.24 580,-90.24 576.5,-100.24 583.5,-100.24"/>
</g>
<!-- percent_bc_gt_75&#45;&gt;mths_since_recent_bc -->
<g id="edge29" class="edge">
<title>percent_bc_gt_75&#45;&gt;mths_since_recent_bc</title>
<path fill="none" stroke="black" d="M211.39,-647.97C214.36,-644.69 217.53,-641.18 220.67,-637.7"/>
<polygon fill="black" stroke="black" points="223.31,-640.01 227.41,-630.24 218.11,-635.31 223.31,-640.01"/>
</g>
<!-- purpose -->
<g id="node20" class="node">
<title>purpose</title>
<path fill="#e1f5fe" stroke="black" d="M397.87,-36C397.87,-36 362.13,-36 362.13,-36 356.13,-36 350.13,-30 350.13,-24 350.13,-24 350.13,-12 350.13,-12 350.13,-6 356.13,0 362.13,0 362.13,0 397.87,0 397.87,0 403.87,0 409.87,-6 409.87,-12 409.87,-12 409.87,-24 409.87,-24 409.87,-30 403.87,-36 397.87,-36"/>
<text text-anchor="middle" x="380" y="-14.4" font-family="Helvetica,sans-Serif" font-size="12.00">purpose</text>
</g>
<!-- home_ownership&#45;&gt;purpose -->
<g id="edge28" class="edge">
<title>home_ownership&#45;&gt;purpose</title>
<path fill="none" stroke="black" d="M526.14,-57C492.57,-48.27 450.1,-37.23 419.61,-29.3"/>
<polygon fill="black" stroke="black" points="420.32,-25.87 409.76,-26.74 418.56,-32.64 420.32,-25.87"/>
</g>
<!-- annual_inc -->
<g id="node18" class="node">
<title>annual_inc</title>
<path fill="#e1f5fe" stroke="black" d="M664.05,-252C664.05,-252 613.95,-252 613.95,-252 607.95,-252 601.95,-246 601.95,-240 601.95,-240 601.95,-228 601.95,-228 601.95,-222 607.95,-216 613.95,-216 613.95,-216 664.05,-216 664.05,-216 670.05,-216 676.05,-222 676.05,-228 676.05,-228 676.05,-240 676.05,-240 676.05,-246 670.05,-252 664.05,-252"/>
<text text-anchor="middle" x="639" y="-230.4" font-family="Helvetica,sans-Serif" font-size="12.00">annual_inc</text>
</g>
<!-- annual_inc&#45;&gt;open_act_il -->
<g id="edge24" class="edge">
<title>annual_inc&#45;&gt;open_act_il</title>
<path fill="none" stroke="black" d="M613.13,-215.97C607.13,-212.02 600.65,-207.76 594.35,-203.61"/>
<polygon fill="black" stroke="black" points="596.2,-200.64 585.93,-198.06 592.35,-206.49 596.2,-200.64"/>
</g>
<!-- annual_inc&#45;&gt;avg_cur_bal -->
<g id="edge22" class="edge">
<title>annual_inc&#45;&gt;avg_cur_bal</title>
<path fill="none" stroke="black" d="M664.21,-215.97C669.93,-212.11 676.09,-207.95 682.1,-203.89"/>
<polygon fill="black" stroke="black" points="684.4,-206.56 690.73,-198.06 680.48,-200.76 684.4,-206.56"/>
</g>
<!-- annual_inc&#45;&gt;emp_length -->
<g id="edge23" class="edge">
<title>annual_inc&#45;&gt;emp_length</title>
<path fill="none" stroke="black" d="M634.11,-215.87C629.43,-200.98 621.53,-179.17 611,-162 608.91,-158.59 606.48,-155.2 603.91,-151.95"/>
<polygon fill="black" stroke="black" points="606.51,-149.59 597.38,-144.21 601.16,-154.11 606.51,-149.59"/>
</g>
<!-- funded_amnt -->
<g id="node19" class="node">
<title>funded_amnt</title>
<path fill="#e1f5fe" stroke="black" d="M188.05,-198C188.05,-198 125.95,-198 125.95,-198 119.95,-198 113.95,-192 113.95,-186 113.95,-186 113.95,-174 113.95,-174 113.95,-168 119.95,-162 125.95,-162 125.95,-162 188.05,-162 188.05,-162 194.05,-162 200.05,-168 200.05,-174 200.05,-174 200.05,-186 200.05,-186 200.05,-192 194.05,-198 188.05,-198"/>
<text text-anchor="middle" x="157" y="-176.4" font-family="Helvetica,sans-Serif" font-size="12.00">funded_amnt</text>
</g>
<!-- annual_inc&#45;&gt;funded_amnt -->
<g id="edge25" class="edge">
<title>annual_inc&#45;&gt;funded_amnt</title>
<path fill="none" stroke="black" d="M601.77,-228.6C569.58,-224.9 521.76,-219.63 480,-216 361.07,-205.65 329.38,-219.77 212,-198 211.4,-197.89 210.8,-197.77 210.2,-197.65"/>
<polygon fill="black" stroke="black" points="210.83,-194.21 200.3,-195.4 209.27,-201.03 210.83,-194.21"/>
</g>
<!-- funded_amnt&#45;&gt;purpose -->
<g id="edge27" class="edge">
<title>funded_amnt&#45;&gt;purpose</title>
<path fill="none" stroke="black" d="M180.86,-161.88C221.08,-133.02 302.39,-74.68 347.68,-42.19"/>
<polygon fill="black" stroke="black" points="349.88,-44.91 355.97,-36.24 345.8,-39.23 349.88,-44.91"/>
</g>
<!-- term&#45;&gt;time_since_last_payment -->
<g id="edge47" class="edge">
<title>term&#45;&gt;time_since_last_payment</title>
<path fill="none" stroke="black" d="M190.06,-331.24C197.74,-328.67 206.14,-326.05 214,-324 255.16,-313.25 266.23,-314.03 308,-306 308.74,-305.86 309.49,-305.71 310.24,-305.57"/>
<polygon fill="black" stroke="black" points="311,-308.99 320.16,-303.66 309.68,-302.11 311,-308.99"/>
</g>
<!-- term&#45;&gt;funded_amnt -->
<g id="edge46" class="edge">
<title>term&#45;&gt;funded_amnt</title>
<path fill="none" stroke="black" d="M162.36,-323.88C161.33,-296.35 159.29,-242.01 158.04,-208.85"/>
<polygon fill="black" stroke="black" points="161.53,-208.35 157.66,-198.48 154.53,-208.61 161.53,-208.35"/>
</g>
<!-- dti&#45;&gt;open_act_il -->
<g id="edge33" class="edge">
<title>dti&#45;&gt;open_act_il</title>
<path fill="none" stroke="black" d="M611.74,-272.04C603.61,-266.57 595.22,-259.78 589,-252 578.7,-239.11 571.58,-222.06 566.97,-207.9"/>
<polygon fill="black" stroke="black" points="570.28,-206.77 564.05,-198.2 563.58,-208.79 570.28,-206.77"/>
</g>
<!-- dti&#45;&gt;avg_cur_bal -->
<g id="edge34" class="edge">
<title>dti&#45;&gt;avg_cur_bal</title>
<path fill="none" stroke="black" d="M666.11,-272.31C674.33,-266.81 682.81,-259.94 689,-252 699.04,-239.11 705.69,-222.06 709.87,-207.9"/>
<polygon fill="black" stroke="black" points="713.26,-208.77 712.5,-198.2 706.51,-206.94 713.26,-208.77"/>
</g>
<!-- dti&#45;&gt;annual_inc -->
<g id="edge35" class="edge">
<title>dti&#45;&gt;annual_inc</title>
<path fill="none" stroke="black" d="M639,-269.97C639,-267.57 639,-265.06 639,-262.52"/>
<polygon fill="black" stroke="black" points="642.5,-262.24 639,-252.24 635.5,-262.24 642.5,-262.24"/>
</g>
<!-- total_bc_limit -->
<g id="node23" class="node">
<title>total_bc_limit</title>
<path fill="#e1f5fe" stroke="black" d="M184.03,-900C184.03,-900 121.97,-900 121.97,-900 115.97,-900 109.97,-894 109.97,-888 109.97,-888 109.97,-876 109.97,-876 109.97,-870 115.97,-864 121.97,-864 121.97,-864 184.03,-864 184.03,-864 190.03,-864 196.03,-870 196.03,-876 196.03,-876 196.03,-888 196.03,-888 196.03,-894 190.03,-900 184.03,-900"/>
<text text-anchor="middle" x="153" y="-878.4" font-family="Helvetica,sans-Serif" font-size="12.00">total_bc_limit</text>
</g>
<!-- total_bc_limit&#45;&gt;bc_util -->
<g id="edge38" class="edge">
<title>total_bc_limit&#45;&gt;bc_util</title>
<path fill="none" stroke="black" d="M158.46,-863.88C167.27,-836.23 184.7,-781.54 195.26,-748.42"/>
<polygon fill="black" stroke="black" points="198.72,-749.08 198.43,-738.48 192.06,-746.95 198.72,-749.08"/>
</g>
<!-- total_bc_limit&#45;&gt;percent_bc_gt_75 -->
<g id="edge40" class="edge">
<title>total_bc_limit&#45;&gt;percent_bc_gt_75</title>
<path fill="none" stroke="black" d="M150.41,-863.87C146.2,-830.97 140.54,-757.32 164,-702 165.47,-698.54 167.43,-695.2 169.67,-692.04"/>
<polygon fill="black" stroke="black" points="172.47,-694.15 176.06,-684.18 167.04,-689.73 172.47,-694.15"/>
</g>
<!-- total_bc_limit&#45;&gt;term -->
<g id="edge39" class="edge">
<title>total_bc_limit&#45;&gt;term</title>
<path fill="none" stroke="black" d="M109.97,-870.92C64.72,-857.46 0,-828.8 0,-775 0,-775 0,-775 0,-503 0,-432.55 78.5,-382.83 126.55,-358.99"/>
<polygon fill="black" stroke="black" points="128.23,-362.06 135.72,-354.57 125.19,-355.76 128.23,-362.06"/>
</g>
<!-- total_rev_hi_lim -->
<g id="node24" class="node">
<title>total_rev_hi_lim</title>
<path fill="#e1f5fe" stroke="black" d="M483.04,-846C483.04,-846 406.96,-846 406.96,-846 400.96,-846 394.96,-840 394.96,-834 394.96,-834 394.96,-822 394.96,-822 394.96,-816 400.96,-810 406.96,-810 406.96,-810 483.04,-810 483.04,-810 489.04,-810 495.04,-816 495.04,-822 495.04,-822 495.04,-834 495.04,-834 495.04,-840 489.04,-846 483.04,-846"/>
<text text-anchor="middle" x="445" y="-824.4" font-family="Helvetica,sans-Serif" font-size="12.00">total_rev_hi_lim</text>
</g>
<!-- total_bc_limit&#45;&gt;total_rev_hi_lim -->
<g id="edge37" class="edge">
<title>total_bc_limit&#45;&gt;total_rev_hi_lim</title>
<path fill="none" stroke="black" d="M196.09,-873.33C245.97,-864.44 328.46,-849.75 384.69,-839.74"/>
<polygon fill="black" stroke="black" points="385.64,-843.13 394.88,-837.93 384.42,-836.23 385.64,-843.13"/>
</g>
<!-- total_rev_hi_lim&#45;&gt;acc_open_past_24mths -->
<g id="edge45" class="edge">
<title>total_rev_hi_lim&#45;&gt;acc_open_past_24mths</title>
<path fill="none" stroke="black" d="M434.73,-809.88C417.93,-781.88 384.47,-726.11 364.68,-693.14"/>
<polygon fill="black" stroke="black" points="367.64,-691.26 359.49,-684.48 361.63,-694.86 367.64,-691.26"/>
</g>
<!-- total_rev_hi_lim&#45;&gt;all_util -->
<g id="edge42" class="edge">
<title>total_rev_hi_lim&#45;&gt;all_util</title>
<path fill="none" stroke="black" d="M457.77,-809.97C460.1,-806.86 462.58,-803.56 465.05,-800.27"/>
<polygon fill="black" stroke="black" points="467.87,-802.34 471.07,-792.24 462.27,-798.14 467.87,-802.34"/>
</g>
<!-- total_rev_hi_lim&#45;&gt;annual_inc -->
<g id="edge44" class="edge">
<title>total_rev_hi_lim&#45;&gt;annual_inc</title>
<path fill="none" stroke="black" d="M495.4,-822.39C547.83,-816.92 625.84,-806.64 652,-792 688.56,-771.54 714,-762.89 714,-721 714,-721 714,-721 714,-341 714,-308.27 689.88,-278.58 669,-259"/>
<polygon fill="black" stroke="black" points="671.28,-256.34 661.5,-252.26 666.6,-261.54 671.28,-256.34"/>
</g>
<!-- total_rev_hi_lim&#45;&gt;funded_amnt -->
<g id="edge41" class="edge">
<title>total_rev_hi_lim&#45;&gt;funded_amnt</title>
<path fill="none" stroke="black" d="M394.7,-817.58C288.48,-796.25 51,-740.37 51,-667 51,-667 51,-667 51,-287 51,-250.09 83.53,-221.54 112.56,-203.42"/>
<polygon fill="black" stroke="black" points="114.62,-206.26 121.41,-198.13 111.03,-200.25 114.62,-206.26"/>
</g>
<!-- total_rev_hi_lim&#45;&gt;dti -->
<g id="edge43" class="edge">
<title>total_rev_hi_lim&#45;&gt;dti</title>
<path fill="none" stroke="black" d="M495.29,-824.14C559.67,-817.46 663,-795.17 663,-721 663,-721 663,-721 663,-395 663,-367.6 655.28,-337.17 648.59,-315.97"/>
<polygon fill="black" stroke="black" points="651.88,-314.76 645.43,-306.36 645.23,-316.95 651.88,-314.76"/>
</g>
<!-- hardship_type -->
<g id="node27" class="node">
<title>hardship_type</title>
<path fill="#e1f5fe" stroke="black" d="M287.89,-252C287.89,-252 220.11,-252 220.11,-252 214.11,-252 208.11,-246 208.11,-240 208.11,-240 208.11,-228 208.11,-228 208.11,-222 214.11,-216 220.11,-216 220.11,-216 287.89,-216 287.89,-216 293.89,-216 299.89,-222 299.89,-228 299.89,-228 299.89,-240 299.89,-240 299.89,-246 293.89,-252 287.89,-252"/>
<text text-anchor="middle" x="254" y="-230.4" font-family="Helvetica,sans-Serif" font-size="12.00">hardship_type</text>
</g>
<!-- hardship_status&#45;&gt;hardship_type -->
<g id="edge54" class="edge">
<title>hardship_status&#45;&gt;hardship_type</title>
<path fill="none" stroke="black" d="M247.95,-269.97C248.38,-267.49 248.83,-264.87 249.29,-262.24"/>
<polygon fill="black" stroke="black" points="252.76,-262.69 251.02,-252.24 245.86,-261.5 252.76,-262.69"/>
</g>
<!-- hardship_loan_status -->
<g id="node28" class="node">
<title>hardship_loan_status</title>
<path fill="#e1f5fe" stroke="black" d="M343.08,-198C343.08,-198 236.92,-198 236.92,-198 230.92,-198 224.92,-192 224.92,-186 224.92,-186 224.92,-174 224.92,-174 224.92,-168 230.92,-162 236.92,-162 236.92,-162 343.08,-162 343.08,-162 349.08,-162 355.08,-168 355.08,-174 355.08,-174 355.08,-186 355.08,-186 355.08,-192 349.08,-198 343.08,-198"/>
<text text-anchor="middle" x="290" y="-176.4" font-family="Helvetica,sans-Serif" font-size="12.00">hardship_loan_status</text>
</g>
<!-- hardship_type&#45;&gt;hardship_loan_status -->
<g id="edge53" class="edge">
<title>hardship_type&#45;&gt;hardship_loan_status</title>
<path fill="none" stroke="black" d="M265.79,-215.97C267.88,-212.95 270.1,-209.75 272.31,-206.55"/>
<polygon fill="black" stroke="black" points="275.25,-208.46 278.06,-198.24 269.49,-204.47 275.25,-208.46"/>
</g>
</g>
</svg>
