<?xml version="1.0" encoding="UTF-8" standalone="no"?>
<!DOCTYPE svg PUBLIC "-//W3C//DTD SVG 1.1//EN"
 "http://www.w3.org/Graphics/SVG/1.1/DTD/svg11.dtd">
<!-- Generated by graphviz version 2.50.0 (0)
 -->
<!-- Pages: 1 -->
<svg width="576pt" height="85pt"
 viewBox="0.00 0.00 576.00 85.26" xmlns="http://www.w3.org/2000/svg" xmlns:xlink="http://www.w3.org/1999/xlink">
<g id="graph0" class="graph" transform="scale(0.41 0.41) rotate(0) translate(4 202)">
<polygon fill="white" stroke="transparent" points="-4,4 -4,-202 1387.7,-202 1387.7,4 -4,4"/>
<!-- total_bc_limit -->
<g id="node1" class="node">
<title>total_bc_limit</title>
<path fill="#e1f5fe" stroke="black" d="M180.39,-198C180.39,-198 118.33,-198 118.33,-198 112.33,-198 106.33,-192 106.33,-186 106.33,-186 106.33,-174 106.33,-174 106.33,-168 112.33,-162 118.33,-162 118.33,-162 180.39,-162 180.39,-162 186.39,-162 192.39,-168 192.39,-174 192.39,-174 192.39,-186 192.39,-186 192.39,-192 186.39,-198 180.39,-198"/>
<text text-anchor="middle" x="149.36" y="-176.4" font-family="Helvetica,sans-Serif" font-size="12.00">total_bc_limit</text>
</g>
<!-- annual_inc -->
<g id="node2" class="node">
<title>annual_inc</title>
<path fill="#e1f5fe" stroke="black" d="M64.41,-144C64.41,-144 14.31,-144 14.31,-144 8.31,-144 2.31,-138 2.31,-132 2.31,-132 2.31,-120 2.31,-120 2.31,-114 8.31,-108 14.31,-108 14.31,-108 64.41,-108 64.41,-108 70.41,-108 76.41,-114 76.41,-120 76.41,-120 76.41,-132 76.41,-132 76.41,-138 70.41,-144 64.41,-144"/>
<text text-anchor="middle" x="39.36" y="-122.4" font-family="Helvetica,sans-Serif" font-size="12.00">annual_inc</text>
</g>
<!-- total_bc_limit&#45;&gt;annual_inc -->
<g id="edge1" class="edge">
<title>total_bc_limit&#45;&gt;annual_inc</title>
<path fill="none" stroke="black" d="M113.34,-161.97C104.13,-157.62 94.11,-152.88 84.5,-148.34"/>
<polygon fill="black" stroke="black" points="85.99,-145.17 75.46,-144.06 83,-151.5 85.99,-145.17"/>
</g>
<!-- total_rev_hi_lim -->
<g id="node3" class="node">
<title>total_rev_hi_lim</title>
<path fill="#e1f5fe" stroke="black" d="M189.4,-144C189.4,-144 113.32,-144 113.32,-144 107.32,-144 101.32,-138 101.32,-132 101.32,-132 101.32,-120 101.32,-120 101.32,-114 107.32,-108 113.32,-108 113.32,-108 189.4,-108 189.4,-108 195.4,-108 201.4,-114 201.4,-120 201.4,-120 201.4,-132 201.4,-132 201.4,-138 195.4,-144 189.4,-144"/>
<text text-anchor="middle" x="151.36" y="-122.4" font-family="Helvetica,sans-Serif" font-size="12.00">total_rev_hi_lim</text>
</g>
<!-- total_bc_limit&#45;&gt;total_rev_hi_lim -->
<g id="edge2" class="edge">
<title>total_bc_limit&#45;&gt;total_rev_hi_lim</title>
<path fill="none" stroke="black" d="M150.01,-161.97C150.11,-159.49 150.21,-156.87 150.31,-154.24"/>
<polygon fill="black" stroke="black" points="153.81,-154.37 150.69,-144.24 146.81,-154.1 153.81,-154.37"/>
</g>
<!-- term -->
<g id="node4" class="node">
<title>term</title>
<path fill="#e1f5fe" stroke="black" d="M284.36,-198C284.36,-198 254.36,-198 254.36,-198 248.36,-198 242.36,-192 242.36,-186 242.36,-186 242.36,-174 242.36,-174 242.36,-168 248.36,-162 254.36,-162 254.36,-162 284.36,-162 284.36,-162 290.36,-162 296.36,-168 296.36,-174 296.36,-174 296.36,-186 296.36,-186 296.36,-192 290.36,-198 284.36,-198"/>
<text text-anchor="middle" x="269.36" y="-176.4" font-family="Helvetica,sans-Serif" font-size="12.00">term</text>
</g>
<!-- funded_amnt -->
<g id="node5" class="node">
<title>funded_amnt</title>
<path fill="#e1f5fe" stroke="black" d="M300.41,-144C300.41,-144 238.3,-144 238.3,-144 232.3,-144 226.3,-138 226.3,-132 226.3,-132 226.3,-120 226.3,-120 226.3,-114 232.3,-108 238.3,-108 238.3,-108 300.41,-108 300.41,-108 306.41,-108 312.41,-114 312.41,-120 312.41,-120 312.41,-132 312.41,-132 312.41,-138 306.41,-144 300.41,-144"/>
<text text-anchor="middle" x="269.36" y="-122.4" font-family="Helvetica,sans-Serif" font-size="12.00">funded_amnt</text>
</g>
<!-- term&#45;&gt;funded_amnt -->
<g id="edge3" class="edge">
<title>term&#45;&gt;funded_amnt</title>
<path fill="none" stroke="black" d="M269.36,-161.97C269.36,-159.57 269.36,-157.06 269.36,-154.52"/>
<polygon fill="black" stroke="black" points="272.86,-154.24 269.36,-144.24 265.86,-154.24 272.86,-154.24"/>
</g>
<!-- emp_length -->
<g id="node6" class="node">
<title>emp_length</title>
<path fill="#e1f5fe" stroke="black" d="M66.57,-198C66.57,-198 12.14,-198 12.14,-198 6.14,-198 0.14,-192 0.14,-186 0.14,-186 0.14,-174 0.14,-174 0.14,-168 6.14,-162 12.14,-162 12.14,-162 66.57,-162 66.57,-162 72.57,-162 78.57,-168 78.57,-174 78.57,-174 78.57,-186 78.57,-186 78.57,-192 72.57,-198 66.57,-198"/>
<text text-anchor="middle" x="39.36" y="-176.4" font-family="Helvetica,sans-Serif" font-size="12.00">emp_length</text>
</g>
<!-- emp_length&#45;&gt;annual_inc -->
<g id="edge4" class="edge">
<title>emp_length&#45;&gt;annual_inc</title>
<path fill="none" stroke="black" d="M39.36,-161.97C39.36,-159.57 39.36,-157.06 39.36,-154.52"/>
<polygon fill="black" stroke="black" points="42.86,-154.24 39.36,-144.24 35.86,-154.24 42.86,-154.24"/>
</g>
<!-- mths_since_recent_bc -->
<g id="node7" class="node">
<title>mths_since_recent_bc</title>
<path fill="#e1f5fe" stroke="black" d="M829.42,-144C829.42,-144 717.29,-144 717.29,-144 711.29,-144 705.29,-138 705.29,-132 705.29,-132 705.29,-120 705.29,-120 705.29,-114 711.29,-108 717.29,-108 717.29,-108 829.42,-108 829.42,-108 835.42,-108 841.42,-114 841.42,-120 841.42,-120 841.42,-132 841.42,-132 841.42,-138 835.42,-144 829.42,-144"/>
<text text-anchor="middle" x="773.36" y="-122.4" font-family="Helvetica,sans-Serif" font-size="12.00">mths_since_recent_bc</text>
</g>
<!-- mths_since_recent_inq -->
<g id="node8" class="node">
<title>mths_since_recent_inq</title>
<path fill="#e1f5fe" stroke="black" d="M789.26,-36C789.26,-36 673.45,-36 673.45,-36 667.45,-36 661.45,-30 661.45,-24 661.45,-24 661.45,-12 661.45,-12 661.45,-6 667.45,0 673.45,0 673.45,0 789.26,0 789.26,0 795.26,0 801.26,-6 801.26,-12 801.26,-12 801.26,-24 801.26,-24 801.26,-30 795.26,-36 789.26,-36"/>
<text text-anchor="middle" x="731.36" y="-14.4" font-family="Helvetica,sans-Serif" font-size="12.00">mths_since_recent_inq</text>
</g>
<!-- mths_since_recent_bc&#45;&gt;mths_since_recent_inq -->
<g id="edge5" class="edge">
<title>mths_since_recent_bc&#45;&gt;mths_since_recent_inq</title>
<path fill="none" stroke="black" d="M767.52,-107.93C762.48,-93.46 754.84,-72.21 747.36,-54 746.24,-51.28 745.03,-48.45 743.8,-45.65"/>
<polygon fill="black" stroke="black" points="746.9,-44.01 739.6,-36.33 740.52,-46.89 746.9,-44.01"/>
</g>
<!-- num_tl_op_past_12m -->
<g id="node9" class="node">
<title>num_tl_op_past_12m</title>
<path fill="#e1f5fe" stroke="black" d="M723.27,-90C723.27,-90 615.44,-90 615.44,-90 609.44,-90 603.44,-84 603.44,-78 603.44,-78 603.44,-66 603.44,-66 603.44,-60 609.44,-54 615.44,-54 615.44,-54 723.27,-54 723.27,-54 729.27,-54 735.27,-60 735.27,-66 735.27,-66 735.27,-78 735.27,-78 735.27,-84 729.27,-90 723.27,-90"/>
<text text-anchor="middle" x="669.36" y="-68.4" font-family="Helvetica,sans-Serif" font-size="12.00">num_tl_op_past_12m</text>
</g>
<!-- mths_since_recent_bc&#45;&gt;num_tl_op_past_12m -->
<g id="edge6" class="edge">
<title>mths_since_recent_bc&#45;&gt;num_tl_op_past_12m</title>
<path fill="none" stroke="black" d="M739.3,-107.97C730.77,-103.71 721.51,-99.08 712.6,-94.62"/>
<polygon fill="black" stroke="black" points="714,-91.41 703.49,-90.06 710.87,-97.67 714,-91.41"/>
</g>
<!-- num_tl_op_past_12m&#45;&gt;mths_since_recent_inq -->
<g id="edge8" class="edge">
<title>num_tl_op_past_12m&#45;&gt;mths_since_recent_inq</title>
<path fill="none" stroke="black" d="M689.66,-53.97C693.9,-50.42 698.44,-46.61 702.91,-42.86"/>
<polygon fill="black" stroke="black" points="705.38,-45.35 710.8,-36.24 700.89,-39.99 705.38,-45.35"/>
</g>
<!-- inq_last_12m -->
<g id="node10" class="node">
<title>inq_last_12m</title>
<path fill="#e1f5fe" stroke="black" d="M615.24,-36C615.24,-36 551.48,-36 551.48,-36 545.48,-36 539.48,-30 539.48,-24 539.48,-24 539.48,-12 539.48,-12 539.48,-6 545.48,0 551.48,0 551.48,0 615.24,0 615.24,0 621.24,0 627.24,-6 627.24,-12 627.24,-12 627.24,-24 627.24,-24 627.24,-30 621.24,-36 615.24,-36"/>
<text text-anchor="middle" x="583.36" y="-14.4" font-family="Helvetica,sans-Serif" font-size="12.00">inq_last_12m</text>
</g>
<!-- num_tl_op_past_12m&#45;&gt;inq_last_12m -->
<g id="edge7" class="edge">
<title>num_tl_op_past_12m&#45;&gt;inq_last_12m</title>
<path fill="none" stroke="black" d="M641.2,-53.97C634.51,-49.93 627.29,-45.56 620.28,-41.33"/>
<polygon fill="black" stroke="black" points="621.95,-38.24 611.58,-36.06 618.33,-44.23 621.95,-38.24"/>
</g>
<!-- bc_util -->
<g id="node11" class="node">
<title>bc_util</title>
<path fill="#e1f5fe" stroke="black" d="M444.36,-90C444.36,-90 414.36,-90 414.36,-90 408.36,-90 402.36,-84 402.36,-78 402.36,-78 402.36,-66 402.36,-66 402.36,-60 408.36,-54 414.36,-54 414.36,-54 444.36,-54 444.36,-54 450.36,-54 456.36,-60 456.36,-66 456.36,-66 456.36,-78 456.36,-78 456.36,-84 450.36,-90 444.36,-90"/>
<text text-anchor="middle" x="429.36" y="-68.4" font-family="Helvetica,sans-Serif" font-size="12.00">bc_util</text>
</g>
<!-- all_util -->
<g id="node12" class="node">
<title>all_util</title>
<path fill="#e1f5fe" stroke="black" d="M483.36,-36C483.36,-36 453.36,-36 453.36,-36 447.36,-36 441.36,-30 441.36,-24 441.36,-24 441.36,-12 441.36,-12 441.36,-6 447.36,0 453.36,0 453.36,0 483.36,0 483.36,0 489.36,0 495.36,-6 495.36,-12 495.36,-12 495.36,-24 495.36,-24 495.36,-30 489.36,-36 483.36,-36"/>
<text text-anchor="middle" x="468.36" y="-14.4" font-family="Helvetica,sans-Serif" font-size="12.00">all_util</text>
</g>
<!-- bc_util&#45;&gt;all_util -->
<g id="edge9" class="edge">
<title>bc_util&#45;&gt;all_util</title>
<path fill="none" stroke="black" d="M442.13,-53.97C444.46,-50.86 446.94,-47.56 449.41,-44.27"/>
<polygon fill="black" stroke="black" points="452.22,-46.34 455.42,-36.24 446.62,-42.14 452.22,-46.34"/>
</g>
<!-- loan_age -->
<g id="node13" class="node">
<title>loan_age</title>
<path fill="#e1f5fe" stroke="black" d="M567.24,-90C567.24,-90 525.47,-90 525.47,-90 519.47,-90 513.47,-84 513.47,-78 513.47,-78 513.47,-66 513.47,-66 513.47,-60 519.47,-54 525.47,-54 525.47,-54 567.24,-54 567.24,-54 573.24,-54 579.24,-60 579.24,-66 579.24,-66 579.24,-78 579.24,-78 579.24,-84 573.24,-90 567.24,-90"/>
<text text-anchor="middle" x="546.36" y="-68.4" font-family="Helvetica,sans-Serif" font-size="12.00">loan_age</text>
</g>
<!-- loan_age&#45;&gt;inq_last_12m -->
<g id="edge11" class="edge">
<title>loan_age&#45;&gt;inq_last_12m</title>
<path fill="none" stroke="black" d="M558.47,-53.97C560.62,-50.95 562.9,-47.75 565.18,-44.55"/>
<polygon fill="black" stroke="black" points="568.14,-46.42 571.09,-36.24 562.44,-42.36 568.14,-46.42"/>
</g>
<!-- loan_age&#45;&gt;all_util -->
<g id="edge10" class="edge">
<title>loan_age&#45;&gt;all_util</title>
<path fill="none" stroke="black" d="M520.82,-53.97C515.03,-50.11 508.78,-45.95 502.69,-41.89"/>
<polygon fill="black" stroke="black" points="504.22,-38.7 493.95,-36.06 500.33,-44.52 504.22,-38.7"/>
</g>
<!-- dti -->
<g id="node14" class="node">
<title>dti</title>
<path fill="#e1f5fe" stroke="black" d="M920.36,-198C920.36,-198 890.36,-198 890.36,-198 884.36,-198 878.36,-192 878.36,-186 878.36,-186 878.36,-174 878.36,-174 878.36,-168 884.36,-162 890.36,-162 890.36,-162 920.36,-162 920.36,-162 926.36,-162 932.36,-168 932.36,-174 932.36,-174 932.36,-186 932.36,-186 932.36,-192 926.36,-198 920.36,-198"/>
<text text-anchor="middle" x="905.36" y="-176.4" font-family="Helvetica,sans-Serif" font-size="12.00">dti</text>
</g>
<!-- open_act_il -->
<g id="node15" class="node">
<title>open_act_il</title>
<path fill="#e1f5fe" stroke="black" d="M932.24,-144C932.24,-144 878.47,-144 878.47,-144 872.47,-144 866.47,-138 866.47,-132 866.47,-132 866.47,-120 866.47,-120 866.47,-114 872.47,-108 878.47,-108 878.47,-108 932.24,-108 932.24,-108 938.24,-108 944.24,-114 944.24,-120 944.24,-120 944.24,-132 944.24,-132 944.24,-138 938.24,-144 932.24,-144"/>
<text text-anchor="middle" x="905.36" y="-122.4" font-family="Helvetica,sans-Serif" font-size="12.00">open_act_il</text>
</g>
<!-- dti&#45;&gt;open_act_il -->
<g id="edge12" class="edge">
<title>dti&#45;&gt;open_act_il</title>
<path fill="none" stroke="black" d="M905.36,-161.97C905.36,-159.57 905.36,-157.06 905.36,-154.52"/>
<polygon fill="black" stroke="black" points="908.86,-154.24 905.36,-144.24 901.86,-154.24 908.86,-154.24"/>
</g>
<!-- addr_state -->
<g id="node16" class="node">
<title>addr_state</title>
<path fill="#e1f5fe" stroke="black" d="M1017.56,-198C1017.56,-198 969.15,-198 969.15,-198 963.15,-198 957.15,-192 957.15,-186 957.15,-186 957.15,-174 957.15,-174 957.15,-168 963.15,-162 969.15,-162 969.15,-162 1017.56,-162 1017.56,-162 1023.56,-162 1029.56,-168 1029.56,-174 1029.56,-174 1029.56,-186 1029.56,-186 1029.56,-192 1023.56,-198 1017.56,-198"/>
<text text-anchor="middle" x="993.36" y="-176.4" font-family="Helvetica,sans-Serif" font-size="12.00">addr_state</text>
</g>
<!-- home_ownership -->
<g id="node17" class="node">
<title>home_ownership</title>
<path fill="#e1f5fe" stroke="black" d="M1099.25,-144C1099.25,-144 1015.47,-144 1015.47,-144 1009.47,-144 1003.47,-138 1003.47,-132 1003.47,-132 1003.47,-120 1003.47,-120 1003.47,-114 1009.47,-108 1015.47,-108 1015.47,-108 1099.25,-108 1099.25,-108 1105.25,-108 1111.25,-114 1111.25,-120 1111.25,-120 1111.25,-132 1111.25,-132 1111.25,-138 1105.25,-144 1099.25,-144"/>
<text text-anchor="middle" x="1057.36" y="-122.4" font-family="Helvetica,sans-Serif" font-size="12.00">home_ownership</text>
</g>
<!-- addr_state&#45;&gt;home_ownership -->
<g id="edge13" class="edge">
<title>addr_state&#45;&gt;home_ownership</title>
<path fill="none" stroke="black" d="M1014.31,-161.97C1018.8,-158.33 1023.61,-154.42 1028.34,-150.58"/>
<polygon fill="black" stroke="black" points="1030.58,-153.27 1036.13,-144.24 1026.17,-147.83 1030.58,-153.27"/>
</g>
<!-- avg_cur_bal -->
<g id="node18" class="node">
<title>avg_cur_bal</title>
<path fill="#e1f5fe" stroke="black" d="M1124.24,-198C1124.24,-198 1066.48,-198 1066.48,-198 1060.48,-198 1054.48,-192 1054.48,-186 1054.48,-186 1054.48,-174 1054.48,-174 1054.48,-168 1060.48,-162 1066.48,-162 1066.48,-162 1124.24,-162 1124.24,-162 1130.24,-162 1136.24,-168 1136.24,-174 1136.24,-174 1136.24,-186 1136.24,-186 1136.24,-192 1130.24,-198 1124.24,-198"/>
<text text-anchor="middle" x="1095.36" y="-176.4" font-family="Helvetica,sans-Serif" font-size="12.00">avg_cur_bal</text>
</g>
<!-- avg_cur_bal&#45;&gt;home_ownership -->
<g id="edge14" class="edge">
<title>avg_cur_bal&#45;&gt;home_ownership</title>
<path fill="none" stroke="black" d="M1082.91,-161.97C1080.71,-158.95 1078.36,-155.75 1076.03,-152.55"/>
<polygon fill="black" stroke="black" points="1078.68,-150.25 1069.96,-144.24 1073.03,-154.38 1078.68,-150.25"/>
</g>
<!-- percent_bc_gt_75 -->
<g id="node19" class="node">
<title>percent_bc_gt_75</title>
<path fill="#e1f5fe" stroke="black" d="M437.43,-144C437.43,-144 349.28,-144 349.28,-144 343.28,-144 337.28,-138 337.28,-132 337.28,-132 337.28,-120 337.28,-120 337.28,-114 343.28,-108 349.28,-108 349.28,-108 437.43,-108 437.43,-108 443.43,-108 449.43,-114 449.43,-120 449.43,-120 449.43,-132 449.43,-132 449.43,-138 443.43,-144 437.43,-144"/>
<text text-anchor="middle" x="393.36" y="-122.4" font-family="Helvetica,sans-Serif" font-size="12.00">percent_bc_gt_75</text>
</g>
<!-- percent_bc_gt_75&#45;&gt;bc_util -->
<g id="edge15" class="edge">
<title>percent_bc_gt_75&#45;&gt;bc_util</title>
<path fill="none" stroke="black" d="M405.14,-107.97C407.24,-104.95 409.45,-101.75 411.67,-98.55"/>
<polygon fill="black" stroke="black" points="414.6,-100.46 417.42,-90.24 408.85,-96.47 414.6,-100.46"/>
</g>
<!-- debt_settlement_flag -->
<g id="node20" class="node">
<title>debt_settlement_flag</title>
<path fill="#e1f5fe" stroke="black" d="M1280.27,-198C1280.27,-198 1176.45,-198 1176.45,-198 1170.45,-198 1164.45,-192 1164.45,-186 1164.45,-186 1164.45,-174 1164.45,-174 1164.45,-168 1170.45,-162 1176.45,-162 1176.45,-162 1280.27,-162 1280.27,-162 1286.27,-162 1292.27,-168 1292.27,-174 1292.27,-174 1292.27,-186 1292.27,-186 1292.27,-192 1286.27,-198 1280.27,-198"/>
<text text-anchor="middle" x="1228.36" y="-176.4" font-family="Helvetica,sans-Serif" font-size="12.00">debt_settlement_flag</text>
</g>
<!-- binary_loan_status -->
<g id="node21" class="node">
<title>binary_loan_status</title>
<path fill="#fed2d6" stroke="black" d="M1274.59,-144C1274.59,-144 1182.12,-144 1182.12,-144 1176.12,-144 1170.12,-138 1170.12,-132 1170.12,-132 1170.12,-120 1170.12,-120 1170.12,-114 1176.12,-108 1182.12,-108 1182.12,-108 1274.59,-108 1274.59,-108 1280.59,-108 1286.59,-114 1286.59,-120 1286.59,-120 1286.59,-132 1286.59,-132 1286.59,-138 1280.59,-144 1274.59,-144"/>
<text text-anchor="middle" x="1228.36" y="-122.4" font-family="Helvetica,sans-Serif" font-size="12.00">binary_loan_status</text>
</g>
<!-- debt_settlement_flag&#45;&gt;binary_loan_status -->
<g id="edge16" class="edge">
<title>debt_settlement_flag&#45;&gt;binary_loan_status</title>
<path fill="none" stroke="black" d="M1228.36,-161.97C1228.36,-159.57 1228.36,-157.06 1228.36,-154.52"/>
<polygon fill="black" stroke="black" points="1231.86,-154.24 1228.36,-144.24 1224.86,-154.24 1231.86,-154.24"/>
</g>
<!-- int_rate% -->
<g id="node22" class="node">
<title>int_rate%</title>
<path fill="#e1f5fe" stroke="black" d="M1371.55,-198C1371.55,-198 1329.16,-198 1329.16,-198 1323.16,-198 1317.16,-192 1317.16,-186 1317.16,-186 1317.16,-174 1317.16,-174 1317.16,-168 1323.16,-162 1329.16,-162 1329.16,-162 1371.55,-162 1371.55,-162 1377.55,-162 1383.55,-168 1383.55,-174 1383.55,-174 1383.55,-186 1383.55,-186 1383.55,-192 1377.55,-198 1371.55,-198"/>
<text text-anchor="middle" x="1350.36" y="-176.4" font-family="Helvetica,sans-Serif" font-size="12.00">int_rate%</text>
</g>
<!-- grade -->
<g id="node23" class="node">
<title>grade</title>
<path fill="#e1f5fe" stroke="black" d="M1365.36,-144C1365.36,-144 1335.36,-144 1335.36,-144 1329.36,-144 1323.36,-138 1323.36,-132 1323.36,-132 1323.36,-120 1323.36,-120 1323.36,-114 1329.36,-108 1335.36,-108 1335.36,-108 1365.36,-108 1365.36,-108 1371.36,-108 1377.36,-114 1377.36,-120 1377.36,-120 1377.36,-132 1377.36,-132 1377.36,-138 1371.36,-144 1365.36,-144"/>
<text text-anchor="middle" x="1350.36" y="-122.4" font-family="Helvetica,sans-Serif" font-size="12.00">grade</text>
</g>
<!-- int_rate%&#45;&gt;grade -->
<g id="edge17" class="edge">
<title>int_rate%&#45;&gt;grade</title>
<path fill="none" stroke="black" d="M1350.36,-161.97C1350.36,-159.57 1350.36,-157.06 1350.36,-154.52"/>
<polygon fill="black" stroke="black" points="1353.86,-154.24 1350.36,-144.24 1346.86,-154.24 1353.86,-154.24"/>
</g>
<!-- acc_open_past_24mths -->
<g id="node24" class="node">
<title>acc_open_past_24mths</title>
<path fill="#e1f5fe" stroke="black" d="M780.28,-198C780.28,-198 660.43,-198 660.43,-198 654.43,-198 648.43,-192 648.43,-186 648.43,-186 648.43,-174 648.43,-174 648.43,-168 654.43,-162 660.43,-162 660.43,-162 780.28,-162 780.28,-162 786.28,-162 792.28,-168 792.28,-174 792.28,-174 792.28,-186 792.28,-186 792.28,-192 786.28,-198 780.28,-198"/>
<text text-anchor="middle" x="720.36" y="-176.4" font-family="Helvetica,sans-Serif" font-size="12.00">acc_open_past_24mths</text>
</g>
<!-- acc_open_past_24mths&#45;&gt;mths_since_recent_bc -->
<g id="edge19" class="edge">
<title>acc_open_past_24mths&#45;&gt;mths_since_recent_bc</title>
<path fill="none" stroke="black" d="M737.71,-161.97C741.15,-158.6 744.83,-154.99 748.46,-151.42"/>
<polygon fill="black" stroke="black" points="751.09,-153.74 755.78,-144.24 746.19,-148.75 751.09,-153.74"/>
</g>
<!-- acc_open_past_24mths&#45;&gt;num_tl_op_past_12m -->
<g id="edge18" class="edge">
<title>acc_open_past_24mths&#45;&gt;num_tl_op_past_12m</title>
<path fill="none" stroke="black" d="M704.49,-161.71C700.12,-156.32 695.68,-150.17 692.36,-144 684.91,-130.18 679.37,-113.55 675.59,-99.85"/>
<polygon fill="black" stroke="black" points="678.94,-98.84 673.04,-90.05 672.17,-100.61 678.94,-98.84"/>
</g>
<!-- time_since_last_payment -->
<g id="node25" class="node">
<title>time_since_last_payment</title>
<path fill="#e1f5fe" stroke="black" d="M614.26,-144C614.26,-144 486.45,-144 486.45,-144 480.45,-144 474.45,-138 474.45,-132 474.45,-132 474.45,-120 474.45,-120 474.45,-114 480.45,-108 486.45,-108 486.45,-108 614.26,-108 614.26,-108 620.26,-108 626.26,-114 626.26,-120 626.26,-120 626.26,-132 626.26,-132 626.26,-138 620.26,-144 614.26,-144"/>
<text text-anchor="middle" x="550.36" y="-122.4" font-family="Helvetica,sans-Serif" font-size="12.00">time_since_last_payment</text>
</g>
<!-- time_since_last_payment&#45;&gt;loan_age -->
<g id="edge20" class="edge">
<title>time_since_last_payment&#45;&gt;loan_age</title>
<path fill="none" stroke="black" d="M549.05,-107.97C548.86,-105.49 548.65,-102.87 548.45,-100.24"/>
<polygon fill="black" stroke="black" points="551.94,-99.95 547.68,-90.24 544.96,-100.48 551.94,-99.95"/>
</g>
</g>
</svg>
