<?xml version="1.0" encoding="UTF-8" standalone="no"?>
<!DOCTYPE svg PUBLIC "-//W3C//DTD SVG 1.1//EN"
 "http://www.w3.org/Graphics/SVG/1.1/DTD/svg11.dtd">
<!-- Generated by graphviz version 2.50.0 (0)
 -->
<!-- Pages: 1 -->
<svg width="576pt" height="711pt"
 viewBox="0.00 0.00 576.00 710.80" xmlns="http://www.w3.org/2000/svg" xmlns:xlink="http://www.w3.org/1999/xlink">
<g id="graph0" class="graph" transform="scale(0.83 0.83) rotate(0) translate(4 850)">
<polygon fill="white" stroke="transparent" points="-4,4 -4,-850 688.04,-850 688.04,4 -4,4"/>
<!-- acc_open_past_24mths -->
<g id="node1" class="node">
<title>acc_open_past_24mths</title>
<path fill="#e1f5fe" stroke="black" d="M371.92,-468C371.92,-468 252.08,-468 252.08,-468 246.08,-468 240.08,-462 240.08,-456 240.08,-456 240.08,-444 240.08,-444 240.08,-438 246.08,-432 252.08,-432 252.08,-432 371.92,-432 371.92,-432 377.92,-432 383.92,-438 383.92,-444 383.92,-444 383.92,-456 383.92,-456 383.92,-462 377.92,-468 371.92,-468"/>
<text text-anchor="middle" x="312" y="-446.4" font-family="Helvetica,sans-Serif" font-size="12.00">acc_open_past_24mths</text>
</g>
<!-- num_tl_op_past_12m -->
<g id="node2" class="node">
<title>num_tl_op_past_12m</title>
<path fill="#e1f5fe" stroke="black" d="M416.91,-414C416.91,-414 309.09,-414 309.09,-414 303.09,-414 297.09,-408 297.09,-402 297.09,-402 297.09,-390 297.09,-390 297.09,-384 303.09,-378 309.09,-378 309.09,-378 416.91,-378 416.91,-378 422.91,-378 428.91,-384 428.91,-390 428.91,-390 428.91,-402 428.91,-402 428.91,-408 422.91,-414 416.91,-414"/>
<text text-anchor="middle" x="363" y="-392.4" font-family="Helvetica,sans-Serif" font-size="12.00">num_tl_op_past_12m</text>
</g>
<!-- acc_open_past_24mths&#45;&gt;num_tl_op_past_12m -->
<g id="edge1" class="edge">
<title>acc_open_past_24mths&#45;&gt;num_tl_op_past_12m</title>
<path fill="none" stroke="black" d="M328.7,-431.97C332.01,-428.6 335.55,-424.99 339.05,-421.42"/>
<polygon fill="black" stroke="black" points="341.59,-423.83 346.09,-414.24 336.59,-418.93 341.59,-423.83"/>
</g>
<!-- open_rv_24m -->
<g id="node3" class="node">
<title>open_rv_24m</title>
<path fill="#e1f5fe" stroke="black" d="M176.88,-306C176.88,-306 111.12,-306 111.12,-306 105.12,-306 99.12,-300 99.12,-294 99.12,-294 99.12,-282 99.12,-282 99.12,-276 105.12,-270 111.12,-270 111.12,-270 176.88,-270 176.88,-270 182.88,-270 188.88,-276 188.88,-282 188.88,-282 188.88,-294 188.88,-294 188.88,-300 182.88,-306 176.88,-306"/>
<text text-anchor="middle" x="144" y="-284.4" font-family="Helvetica,sans-Serif" font-size="12.00">open_rv_24m</text>
</g>
<!-- acc_open_past_24mths&#45;&gt;open_rv_24m -->
<g id="edge2" class="edge">
<title>acc_open_past_24mths&#45;&gt;open_rv_24m</title>
<path fill="none" stroke="black" d="M275.94,-431.97C246.49,-416.57 205.39,-391.51 178,-360 166.89,-347.22 158.57,-330.17 152.94,-315.99"/>
<polygon fill="black" stroke="black" points="156.09,-314.41 149.32,-306.27 149.53,-316.86 156.09,-314.41"/>
</g>
<!-- mths_since_recent_bc -->
<g id="node4" class="node">
<title>mths_since_recent_bc</title>
<path fill="#e1f5fe" stroke="black" d="M315.06,-360C315.06,-360 202.94,-360 202.94,-360 196.94,-360 190.94,-354 190.94,-348 190.94,-348 190.94,-336 190.94,-336 190.94,-330 196.94,-324 202.94,-324 202.94,-324 315.06,-324 315.06,-324 321.06,-324 327.06,-330 327.06,-336 327.06,-336 327.06,-348 327.06,-348 327.06,-354 321.06,-360 315.06,-360"/>
<text text-anchor="middle" x="259" y="-338.4" font-family="Helvetica,sans-Serif" font-size="12.00">mths_since_recent_bc</text>
</g>
<!-- acc_open_past_24mths&#45;&gt;mths_since_recent_bc -->
<g id="edge3" class="edge">
<title>acc_open_past_24mths&#45;&gt;mths_since_recent_bc</title>
<path fill="none" stroke="black" d="M297.15,-431.92C292.86,-426.44 288.41,-420.18 285,-414 277.37,-400.17 271.17,-383.65 266.74,-370.03"/>
<polygon fill="black" stroke="black" points="270.02,-368.78 263.7,-360.28 263.33,-370.86 270.02,-368.78"/>
</g>
<!-- total_rev_hi_lim -->
<g id="node5" class="node">
<title>total_rev_hi_lim</title>
<path fill="#e1f5fe" stroke="black" d="M535.04,-198C535.04,-198 458.96,-198 458.96,-198 452.96,-198 446.96,-192 446.96,-186 446.96,-186 446.96,-174 446.96,-174 446.96,-168 452.96,-162 458.96,-162 458.96,-162 535.04,-162 535.04,-162 541.04,-162 547.04,-168 547.04,-174 547.04,-174 547.04,-186 547.04,-186 547.04,-192 541.04,-198 535.04,-198"/>
<text text-anchor="middle" x="497" y="-176.4" font-family="Helvetica,sans-Serif" font-size="12.00">total_rev_hi_lim</text>
</g>
<!-- acc_open_past_24mths&#45;&gt;total_rev_hi_lim -->
<g id="edge4" class="edge">
<title>acc_open_past_24mths&#45;&gt;total_rev_hi_lim</title>
<path fill="none" stroke="black" d="M383.96,-442C404.41,-436.92 425.35,-428.35 441,-414 465.76,-391.28 467,-376.6 467,-343 467,-343 467,-343 467,-287 467,-259.1 476.74,-228.57 485.13,-207.47"/>
<polygon fill="black" stroke="black" points="488.37,-208.79 488.96,-198.21 481.9,-206.11 488.37,-208.79"/>
</g>
<!-- num_tl_op_past_12m&#45;&gt;mths_since_recent_bc -->
<g id="edge5" class="edge">
<title>num_tl_op_past_12m&#45;&gt;mths_since_recent_bc</title>
<path fill="none" stroke="black" d="M328.95,-377.97C320.42,-373.71 311.15,-369.08 302.24,-364.62"/>
<polygon fill="black" stroke="black" points="303.64,-361.41 293.13,-360.06 300.51,-367.67 303.64,-361.41"/>
</g>
<!-- mths_since_recent_inq -->
<g id="node6" class="node">
<title>mths_since_recent_inq</title>
<path fill="#e1f5fe" stroke="black" d="M340.9,-306C340.9,-306 225.1,-306 225.1,-306 219.1,-306 213.1,-300 213.1,-294 213.1,-294 213.1,-282 213.1,-282 213.1,-276 219.1,-270 225.1,-270 225.1,-270 340.9,-270 340.9,-270 346.9,-270 352.9,-276 352.9,-282 352.9,-282 352.9,-294 352.9,-294 352.9,-300 346.9,-306 340.9,-306"/>
<text text-anchor="middle" x="283" y="-284.4" font-family="Helvetica,sans-Serif" font-size="12.00">mths_since_recent_inq</text>
</g>
<!-- num_tl_op_past_12m&#45;&gt;mths_since_recent_inq -->
<g id="edge6" class="edge">
<title>num_tl_op_past_12m&#45;&gt;mths_since_recent_inq</title>
<path fill="none" stroke="black" d="M360.88,-377.94C358.23,-362.48 352.42,-339.78 340,-324 336.54,-319.61 332.37,-315.63 327.88,-312.07"/>
<polygon fill="black" stroke="black" points="329.69,-309.06 319.52,-306.1 325.63,-314.76 329.69,-309.06"/>
</g>
<!-- grade -->
<g id="node7" class="node">
<title>grade</title>
<path fill="#e1f5fe" stroke="black" d="M410,-252C410,-252 380,-252 380,-252 374,-252 368,-246 368,-240 368,-240 368,-228 368,-228 368,-222 374,-216 380,-216 380,-216 410,-216 410,-216 416,-216 422,-222 422,-228 422,-228 422,-240 422,-240 422,-246 416,-252 410,-252"/>
<text text-anchor="middle" x="395" y="-230.4" font-family="Helvetica,sans-Serif" font-size="12.00">grade</text>
</g>
<!-- num_tl_op_past_12m&#45;&gt;grade -->
<g id="edge7" class="edge">
<title>num_tl_op_past_12m&#45;&gt;grade</title>
<path fill="none" stroke="black" d="M366.42,-377.88C371.95,-350.23 382.89,-295.54 389.52,-262.42"/>
<polygon fill="black" stroke="black" points="392.97,-262.98 391.5,-252.48 386.11,-261.6 392.97,-262.98"/>
</g>
<!-- loan_age -->
<g id="node8" class="node">
<title>loan_age</title>
<path fill="#e1f5fe" stroke="black" d="M141.88,-252C141.88,-252 100.12,-252 100.12,-252 94.12,-252 88.12,-246 88.12,-240 88.12,-240 88.12,-228 88.12,-228 88.12,-222 94.12,-216 100.12,-216 100.12,-216 141.88,-216 141.88,-216 147.88,-216 153.88,-222 153.88,-228 153.88,-228 153.88,-240 153.88,-240 153.88,-246 147.88,-252 141.88,-252"/>
<text text-anchor="middle" x="121" y="-230.4" font-family="Helvetica,sans-Serif" font-size="12.00">loan_age</text>
</g>
<!-- open_rv_24m&#45;&gt;loan_age -->
<g id="edge8" class="edge">
<title>open_rv_24m&#45;&gt;loan_age</title>
<path fill="none" stroke="black" d="M136.47,-269.97C135.25,-267.22 133.96,-264.31 132.68,-261.4"/>
<polygon fill="black" stroke="black" points="135.87,-259.97 128.63,-252.24 129.47,-262.8 135.87,-259.97"/>
</g>
<!-- inq_last_12m -->
<g id="node9" class="node">
<title>inq_last_12m</title>
<path fill="#e1f5fe" stroke="black" d="M253.88,-252C253.88,-252 190.12,-252 190.12,-252 184.12,-252 178.12,-246 178.12,-240 178.12,-240 178.12,-228 178.12,-228 178.12,-222 184.12,-216 190.12,-216 190.12,-216 253.88,-216 253.88,-216 259.88,-216 265.88,-222 265.88,-228 265.88,-228 265.88,-240 265.88,-240 265.88,-246 259.88,-252 253.88,-252"/>
<text text-anchor="middle" x="222" y="-230.4" font-family="Helvetica,sans-Serif" font-size="12.00">inq_last_12m</text>
</g>
<!-- open_rv_24m&#45;&gt;inq_last_12m -->
<g id="edge9" class="edge">
<title>open_rv_24m&#45;&gt;inq_last_12m</title>
<path fill="none" stroke="black" d="M169.54,-269.97C175.33,-266.11 181.57,-261.95 187.66,-257.89"/>
<polygon fill="black" stroke="black" points="190.02,-260.52 196.4,-252.06 186.14,-254.7 190.02,-260.52"/>
</g>
<!-- mths_since_recent_bc&#45;&gt;open_rv_24m -->
<g id="edge10" class="edge">
<title>mths_since_recent_bc&#45;&gt;open_rv_24m</title>
<path fill="none" stroke="black" d="M221.34,-323.97C211.62,-319.57 201.02,-314.78 190.88,-310.2"/>
<polygon fill="black" stroke="black" points="192.29,-307 181.74,-306.06 189.41,-313.37 192.29,-307"/>
</g>
<!-- mths_since_recent_bc&#45;&gt;mths_since_recent_inq -->
<g id="edge12" class="edge">
<title>mths_since_recent_bc&#45;&gt;mths_since_recent_inq</title>
<path fill="none" stroke="black" d="M266.86,-323.97C268.13,-321.22 269.47,-318.31 270.82,-315.4"/>
<polygon fill="black" stroke="black" points="274.03,-316.79 275.04,-306.24 267.67,-313.86 274.03,-316.79"/>
</g>
<!-- bc_util -->
<g id="node10" class="node">
<title>bc_util</title>
<path fill="#e1f5fe" stroke="black" d="M548,-306C548,-306 518,-306 518,-306 512,-306 506,-300 506,-294 506,-294 506,-282 506,-282 506,-276 512,-270 518,-270 518,-270 548,-270 548,-270 554,-270 560,-276 560,-282 560,-282 560,-294 560,-294 560,-300 554,-306 548,-306"/>
<text text-anchor="middle" x="533" y="-284.4" font-family="Helvetica,sans-Serif" font-size="12.00">bc_util</text>
</g>
<!-- mths_since_recent_bc&#45;&gt;bc_util -->
<g id="edge11" class="edge">
<title>mths_since_recent_bc&#45;&gt;bc_util</title>
<path fill="none" stroke="black" d="M327.08,-328.08C380.38,-317.96 452.49,-304.28 495.72,-296.08"/>
<polygon fill="black" stroke="black" points="496.62,-299.47 505.79,-294.16 495.31,-292.59 496.62,-299.47"/>
</g>
<!-- mths_since_recent_inq&#45;&gt;inq_last_12m -->
<g id="edge43" class="edge">
<title>mths_since_recent_inq&#45;&gt;inq_last_12m</title>
<path fill="none" stroke="black" d="M263.03,-269.97C258.86,-266.42 254.39,-262.61 249.99,-258.86"/>
<polygon fill="black" stroke="black" points="252.11,-256.07 242.23,-252.24 247.57,-261.39 252.11,-256.07"/>
</g>
<!-- int_rate% -->
<g id="node17" class="node">
<title>int_rate%</title>
<path fill="#e1f5fe" stroke="black" d="M331.2,-198C331.2,-198 288.8,-198 288.8,-198 282.8,-198 276.8,-192 276.8,-186 276.8,-186 276.8,-174 276.8,-174 276.8,-168 282.8,-162 288.8,-162 288.8,-162 331.2,-162 331.2,-162 337.2,-162 343.2,-168 343.2,-174 343.2,-174 343.2,-186 343.2,-186 343.2,-192 337.2,-198 331.2,-198"/>
<text text-anchor="middle" x="310" y="-176.4" font-family="Helvetica,sans-Serif" font-size="12.00">int_rate%</text>
</g>
<!-- grade&#45;&gt;int_rate% -->
<g id="edge40" class="edge">
<title>grade&#45;&gt;int_rate%</title>
<path fill="none" stroke="black" d="M367.64,-216.26C360.95,-212.17 353.69,-207.73 346.64,-203.42"/>
<polygon fill="black" stroke="black" points="348.25,-200.3 337.89,-198.06 344.6,-206.27 348.25,-200.3"/>
</g>
<!-- binary_loan_status -->
<g id="node18" class="node">
<title>binary_loan_status</title>
<path fill="#e1f5fe" stroke="black" d="M239.23,-198C239.23,-198 146.77,-198 146.77,-198 140.77,-198 134.77,-192 134.77,-186 134.77,-186 134.77,-174 134.77,-174 134.77,-168 140.77,-162 146.77,-162 146.77,-162 239.23,-162 239.23,-162 245.23,-162 251.23,-168 251.23,-174 251.23,-174 251.23,-186 251.23,-186 251.23,-192 245.23,-198 239.23,-198"/>
<text text-anchor="middle" x="193" y="-176.4" font-family="Helvetica,sans-Serif" font-size="12.00">binary_loan_status</text>
</g>
<!-- grade&#45;&gt;binary_loan_status -->
<g id="edge42" class="edge">
<title>grade&#45;&gt;binary_loan_status</title>
<path fill="none" stroke="black" d="M367.76,-225.99C340.69,-219.02 298.08,-208.05 261.71,-198.69"/>
<polygon fill="black" stroke="black" points="262.19,-195.2 251.63,-196.09 260.44,-201.98 262.19,-195.2"/>
</g>
<!-- term -->
<g id="node21" class="node">
<title>term</title>
<path fill="#e1f5fe" stroke="black" d="M410,-198C410,-198 380,-198 380,-198 374,-198 368,-192 368,-186 368,-186 368,-174 368,-174 368,-168 374,-162 380,-162 380,-162 410,-162 410,-162 416,-162 422,-168 422,-174 422,-174 422,-186 422,-186 422,-192 416,-198 410,-198"/>
<text text-anchor="middle" x="395" y="-176.4" font-family="Helvetica,sans-Serif" font-size="12.00">term</text>
</g>
<!-- grade&#45;&gt;term -->
<g id="edge41" class="edge">
<title>grade&#45;&gt;term</title>
<path fill="none" stroke="black" d="M395,-215.97C395,-213.57 395,-211.06 395,-208.52"/>
<polygon fill="black" stroke="black" points="398.5,-208.24 395,-198.24 391.5,-208.24 398.5,-208.24"/>
</g>
<!-- time_since_last_payment -->
<g id="node16" class="node">
<title>time_since_last_payment</title>
<path fill="#e1f5fe" stroke="black" d="M160.9,-144C160.9,-144 33.1,-144 33.1,-144 27.1,-144 21.1,-138 21.1,-132 21.1,-132 21.1,-120 21.1,-120 21.1,-114 27.1,-108 33.1,-108 33.1,-108 160.9,-108 160.9,-108 166.9,-108 172.9,-114 172.9,-120 172.9,-120 172.9,-132 172.9,-132 172.9,-138 166.9,-144 160.9,-144"/>
<text text-anchor="middle" x="97" y="-122.4" font-family="Helvetica,sans-Serif" font-size="12.00">time_since_last_payment</text>
</g>
<!-- loan_age&#45;&gt;time_since_last_payment -->
<g id="edge22" class="edge">
<title>loan_age&#45;&gt;time_since_last_payment</title>
<path fill="none" stroke="black" d="M117.14,-215.97C113.37,-199.3 107.56,-173.65 103.15,-154.16"/>
<polygon fill="black" stroke="black" points="106.55,-153.32 100.93,-144.34 99.72,-154.87 106.55,-153.32"/>
</g>
<!-- loan_age&#45;&gt;int_rate% -->
<g id="edge23" class="edge">
<title>loan_age&#45;&gt;int_rate%</title>
<path fill="none" stroke="black" d="M153.71,-219.87C157.81,-218.45 161.98,-217.12 166,-216 208.66,-204.13 221.29,-209.72 264,-198 264.9,-197.75 265.8,-197.5 266.71,-197.23"/>
<polygon fill="black" stroke="black" points="268.07,-200.47 276.55,-194.12 265.96,-193.8 268.07,-200.47"/>
</g>
<!-- loan_age&#45;&gt;binary_loan_status -->
<g id="edge24" class="edge">
<title>loan_age&#45;&gt;binary_loan_status</title>
<path fill="none" stroke="black" d="M144.58,-215.97C149.74,-212.24 155.3,-208.23 160.74,-204.3"/>
<polygon fill="black" stroke="black" points="163.07,-206.94 169.13,-198.24 158.97,-201.26 163.07,-206.94"/>
</g>
<!-- bc_util&#45;&gt;grade -->
<g id="edge29" class="edge">
<title>bc_util&#45;&gt;grade</title>
<path fill="none" stroke="black" d="M505.74,-276.73C484.57,-268.75 455,-257.61 431.75,-248.85"/>
<polygon fill="black" stroke="black" points="432.8,-245.5 422.21,-245.25 430.33,-252.05 432.8,-245.5"/>
</g>
<!-- total_bc_limit -->
<g id="node15" class="node">
<title>total_bc_limit</title>
<path fill="#e1f5fe" stroke="black" d="M648.03,-252C648.03,-252 585.97,-252 585.97,-252 579.97,-252 573.97,-246 573.97,-240 573.97,-240 573.97,-228 573.97,-228 573.97,-222 579.97,-216 585.97,-216 585.97,-216 648.03,-216 648.03,-216 654.03,-216 660.03,-222 660.03,-228 660.03,-228 660.03,-240 660.03,-240 660.03,-246 654.03,-252 648.03,-252"/>
<text text-anchor="middle" x="617" y="-230.4" font-family="Helvetica,sans-Serif" font-size="12.00">total_bc_limit</text>
</g>
<!-- bc_util&#45;&gt;total_bc_limit -->
<g id="edge28" class="edge">
<title>bc_util&#45;&gt;total_bc_limit</title>
<path fill="none" stroke="black" d="M560.04,-270.26C566.65,-266.17 573.83,-261.73 580.79,-257.42"/>
<polygon fill="black" stroke="black" points="582.77,-260.3 589.43,-252.06 579.09,-254.35 582.77,-260.3"/>
</g>
<!-- percent_bc_gt_75 -->
<g id="node19" class="node">
<title>percent_bc_gt_75</title>
<path fill="#e1f5fe" stroke="black" d="M672.08,-198C672.08,-198 583.92,-198 583.92,-198 577.92,-198 571.92,-192 571.92,-186 571.92,-186 571.92,-174 571.92,-174 571.92,-168 577.92,-162 583.92,-162 583.92,-162 672.08,-162 672.08,-162 678.08,-162 684.08,-168 684.08,-174 684.08,-174 684.08,-186 684.08,-186 684.08,-192 678.08,-198 672.08,-198"/>
<text text-anchor="middle" x="628" y="-176.4" font-family="Helvetica,sans-Serif" font-size="12.00">percent_bc_gt_75</text>
</g>
<!-- bc_util&#45;&gt;percent_bc_gt_75 -->
<g id="edge27" class="edge">
<title>bc_util&#45;&gt;percent_bc_gt_75</title>
<path fill="none" stroke="black" d="M536.15,-270C539.8,-254.37 547.18,-231.37 561,-216 565.2,-211.33 570.18,-207.18 575.49,-203.52"/>
<polygon fill="black" stroke="black" points="577.43,-206.43 584.06,-198.17 573.72,-200.5 577.43,-206.43"/>
</g>
<!-- all_util -->
<g id="node11" class="node">
<title>all_util</title>
<path fill="#e1f5fe" stroke="black" d="M357,-738C357,-738 327,-738 327,-738 321,-738 315,-732 315,-726 315,-726 315,-714 315,-714 315,-708 321,-702 327,-702 327,-702 357,-702 357,-702 363,-702 369,-708 369,-714 369,-714 369,-726 369,-726 369,-732 363,-738 357,-738"/>
<text text-anchor="middle" x="342" y="-716.4" font-family="Helvetica,sans-Serif" font-size="12.00">all_util</text>
</g>
<!-- all_util&#45;&gt;acc_open_past_24mths -->
<g id="edge19" class="edge">
<title>all_util&#45;&gt;acc_open_past_24mths</title>
<path fill="none" stroke="black" d="M319.2,-701.81C296.81,-682.79 266,-649.91 266,-613 266,-613 266,-613 266,-557 266,-527.64 281.03,-497.21 293.91,-476.53"/>
<polygon fill="black" stroke="black" points="296.92,-478.31 299.43,-468.02 291.05,-474.5 296.92,-478.31"/>
</g>
<!-- all_util&#45;&gt;open_rv_24m -->
<g id="edge15" class="edge">
<title>all_util&#45;&gt;open_rv_24m</title>
<path fill="none" stroke="black" d="M314.72,-717.56C264.92,-714.42 161.84,-705.47 134,-684 106.59,-662.86 102,-647.61 102,-613 102,-613 102,-613 102,-395 102,-366.16 115.6,-335.82 127.33,-315.02"/>
<polygon fill="black" stroke="black" points="130.47,-316.57 132.52,-306.18 124.44,-313.02 130.47,-316.57"/>
</g>
<!-- all_util&#45;&gt;loan_age -->
<g id="edge13" class="edge">
<title>all_util&#45;&gt;loan_age</title>
<path fill="none" stroke="black" d="M314.8,-719.17C268.86,-718.57 173.71,-713.48 100,-684 49.39,-663.76 0,-667.51 0,-613 0,-613 0,-613 0,-341 0,-297.8 44.17,-268.11 79.14,-251.37"/>
<polygon fill="black" stroke="black" points="80.62,-254.54 88.26,-247.19 77.71,-248.18 80.62,-254.54"/>
</g>
<!-- all_util&#45;&gt;inq_last_12m -->
<g id="edge16" class="edge">
<title>all_util&#45;&gt;inq_last_12m</title>
<path fill="none" stroke="black" d="M314.92,-716.31C262.66,-709.46 153,-686.36 153,-613 153,-613 153,-613 153,-503 153,-395.37 19.88,-354.14 87,-270 109.46,-241.85 131.19,-261.24 166,-252 166.74,-251.8 167.48,-251.61 168.22,-251.4"/>
<polygon fill="black" stroke="black" points="169.37,-254.72 178.06,-248.66 167.49,-247.98 169.37,-254.72"/>
</g>
<!-- all_util&#45;&gt;bc_util -->
<g id="edge17" class="edge">
<title>all_util&#45;&gt;bc_util</title>
<path fill="none" stroke="black" d="M369.38,-718.51C429.76,-715.83 569,-700.21 569,-613 569,-613 569,-613 569,-395 569,-366.65 557.31,-336.18 547.25,-315.22"/>
<polygon fill="black" stroke="black" points="550.25,-313.4 542.65,-306.03 543.99,-316.53 550.25,-313.4"/>
</g>
<!-- open_act_il -->
<g id="node12" class="node">
<title>open_act_il</title>
<path fill="#e1f5fe" stroke="black" d="M394.88,-522C394.88,-522 341.12,-522 341.12,-522 335.12,-522 329.12,-516 329.12,-510 329.12,-510 329.12,-498 329.12,-498 329.12,-492 335.12,-486 341.12,-486 341.12,-486 394.88,-486 394.88,-486 400.88,-486 406.88,-492 406.88,-498 406.88,-498 406.88,-510 406.88,-510 406.88,-516 400.88,-522 394.88,-522"/>
<text text-anchor="middle" x="368" y="-500.4" font-family="Helvetica,sans-Serif" font-size="12.00">open_act_il</text>
</g>
<!-- all_util&#45;&gt;open_act_il -->
<g id="edge14" class="edge">
<title>all_util&#45;&gt;open_act_il</title>
<path fill="none" stroke="black" d="M340.71,-701.91C339.21,-677.74 337.57,-632.25 343,-594 346.03,-572.61 352.79,-549.12 358.51,-531.64"/>
<polygon fill="black" stroke="black" points="361.85,-532.7 361.73,-522.1 355.21,-530.46 361.85,-532.7"/>
</g>
<!-- avg_cur_bal -->
<g id="node13" class="node">
<title>avg_cur_bal</title>
<path fill="#e1f5fe" stroke="black" d="M475.88,-684C475.88,-684 418.12,-684 418.12,-684 412.12,-684 406.12,-678 406.12,-672 406.12,-672 406.12,-660 406.12,-660 406.12,-654 412.12,-648 418.12,-648 418.12,-648 475.88,-648 475.88,-648 481.88,-648 487.88,-654 487.88,-660 487.88,-660 487.88,-672 487.88,-672 487.88,-678 481.88,-684 475.88,-684"/>
<text text-anchor="middle" x="447" y="-662.4" font-family="Helvetica,sans-Serif" font-size="12.00">avg_cur_bal</text>
</g>
<!-- all_util&#45;&gt;avg_cur_bal -->
<g id="edge18" class="edge">
<title>all_util&#45;&gt;avg_cur_bal</title>
<path fill="none" stroke="black" d="M369.04,-705.61C379.49,-700.43 391.72,-694.38 403.35,-688.62"/>
<polygon fill="black" stroke="black" points="405.1,-691.66 412.51,-684.08 401.99,-685.38 405.1,-691.66"/>
</g>
<!-- dti -->
<g id="node14" class="node">
<title>dti</title>
<path fill="#e1f5fe" stroke="black" d="M397,-630C397,-630 367,-630 367,-630 361,-630 355,-624 355,-618 355,-618 355,-606 355,-606 355,-600 361,-594 367,-594 367,-594 397,-594 397,-594 403,-594 409,-600 409,-606 409,-606 409,-618 409,-618 409,-624 403,-630 397,-630"/>
<text text-anchor="middle" x="382" y="-608.4" font-family="Helvetica,sans-Serif" font-size="12.00">dti</text>
</g>
<!-- all_util&#45;&gt;dti -->
<g id="edge20" class="edge">
<title>all_util&#45;&gt;dti</title>
<path fill="none" stroke="black" d="M348.43,-701.97C354.75,-685.22 364.49,-659.41 371.85,-639.89"/>
<polygon fill="black" stroke="black" points="375.2,-640.93 375.46,-630.34 368.65,-638.46 375.2,-640.93"/>
</g>
<!-- all_util&#45;&gt;total_bc_limit -->
<g id="edge21" class="edge">
<title>all_util&#45;&gt;total_bc_limit</title>
<path fill="none" stroke="black" d="M369.22,-718.23C411.56,-716.26 495.2,-709.21 561,-684 615.34,-663.18 671,-671.19 671,-613 671,-613 671,-613 671,-341 671,-310.82 653.41,-280.56 638.3,-260.14"/>
<polygon fill="black" stroke="black" points="640.92,-257.8 632.04,-252.02 635.38,-262.08 640.92,-257.8"/>
</g>
<!-- open_act_il&#45;&gt;acc_open_past_24mths -->
<g id="edge25" class="edge">
<title>open_act_il&#45;&gt;acc_open_past_24mths</title>
<path fill="none" stroke="black" d="M349.66,-485.97C345.93,-482.51 341.94,-478.8 338,-475.14"/>
<polygon fill="black" stroke="black" points="340.28,-472.48 330.57,-468.24 335.52,-477.61 340.28,-472.48"/>
</g>
<!-- open_act_il&#45;&gt;bc_util -->
<g id="edge26" class="edge">
<title>open_act_il&#45;&gt;bc_util</title>
<path fill="none" stroke="black" d="M399.82,-485.87C426.15,-470.25 462.87,-444.93 486,-414 508.19,-384.33 520.99,-343 527.48,-316.12"/>
<polygon fill="black" stroke="black" points="530.92,-316.78 529.73,-306.25 524.09,-315.22 530.92,-316.78"/>
</g>
<!-- avg_cur_bal&#45;&gt;num_tl_op_past_12m -->
<g id="edge32" class="edge">
<title>avg_cur_bal&#45;&gt;num_tl_op_past_12m</title>
<path fill="none" stroke="black" d="M467.92,-647.84C488.86,-628.61 518,-595.33 518,-559 518,-559 518,-559 518,-503 518,-460.44 477.7,-433.73 438.2,-417.76"/>
<polygon fill="black" stroke="black" points="439.32,-414.44 428.73,-414.13 436.81,-420.98 439.32,-414.44"/>
</g>
<!-- avg_cur_bal&#45;&gt;dti -->
<g id="edge31" class="edge">
<title>avg_cur_bal&#45;&gt;dti</title>
<path fill="none" stroke="black" d="M425.72,-647.97C421.16,-644.33 416.27,-640.42 411.47,-636.58"/>
<polygon fill="black" stroke="black" points="413.55,-633.76 403.55,-630.24 409.18,-639.22 413.55,-633.76"/>
</g>
<!-- annual_inc -->
<g id="node20" class="node">
<title>annual_inc</title>
<path fill="#e1f5fe" stroke="black" d="M468.05,-576C468.05,-576 417.95,-576 417.95,-576 411.95,-576 405.95,-570 405.95,-564 405.95,-564 405.95,-552 405.95,-552 405.95,-546 411.95,-540 417.95,-540 417.95,-540 468.05,-540 468.05,-540 474.05,-540 480.05,-546 480.05,-552 480.05,-552 480.05,-564 480.05,-564 480.05,-570 474.05,-576 468.05,-576"/>
<text text-anchor="middle" x="443" y="-554.4" font-family="Helvetica,sans-Serif" font-size="12.00">annual_inc</text>
</g>
<!-- avg_cur_bal&#45;&gt;annual_inc -->
<g id="edge30" class="edge">
<title>avg_cur_bal&#45;&gt;annual_inc</title>
<path fill="none" stroke="black" d="M446.36,-647.97C445.73,-631.38 444.77,-605.88 444.04,-586.43"/>
<polygon fill="black" stroke="black" points="447.53,-586.2 443.65,-576.34 440.53,-586.47 447.53,-586.2"/>
</g>
<!-- dti&#45;&gt;open_act_il -->
<g id="edge33" class="edge">
<title>dti&#45;&gt;open_act_il</title>
<path fill="none" stroke="black" d="M379.75,-593.97C377.56,-577.38 374.19,-551.88 371.62,-532.43"/>
<polygon fill="black" stroke="black" points="375.07,-531.8 370.29,-522.34 368.13,-532.71 375.07,-531.8"/>
</g>
<!-- dti&#45;&gt;annual_inc -->
<g id="edge34" class="edge">
<title>dti&#45;&gt;annual_inc</title>
<path fill="none" stroke="black" d="M401.97,-593.97C406.14,-590.42 410.61,-586.61 415.01,-582.86"/>
<polygon fill="black" stroke="black" points="417.43,-585.39 422.77,-576.24 412.89,-580.07 417.43,-585.39"/>
</g>
<!-- total_bc_limit&#45;&gt;total_rev_hi_lim -->
<g id="edge35" class="edge">
<title>total_bc_limit&#45;&gt;total_rev_hi_lim</title>
<path fill="none" stroke="black" d="M577.71,-215.97C567.45,-211.53 556.27,-206.69 545.6,-202.06"/>
<polygon fill="black" stroke="black" points="546.95,-198.83 536.38,-198.06 544.16,-205.25 546.95,-198.83"/>
</g>
<!-- total_bc_limit&#45;&gt;percent_bc_gt_75 -->
<g id="edge37" class="edge">
<title>total_bc_limit&#45;&gt;percent_bc_gt_75</title>
<path fill="none" stroke="black" d="M620.6,-215.97C621.13,-213.49 621.68,-210.87 622.24,-208.24"/>
<polygon fill="black" stroke="black" points="625.71,-208.75 624.35,-198.24 618.86,-207.3 625.71,-208.75"/>
</g>
<!-- total_bc_limit&#45;&gt;term -->
<g id="edge36" class="edge">
<title>total_bc_limit&#45;&gt;term</title>
<path fill="none" stroke="black" d="M573.82,-227.51C536.31,-222.08 480.82,-212.48 434,-198 433.29,-197.78 432.57,-197.55 431.84,-197.31"/>
<polygon fill="black" stroke="black" points="433,-194.01 422.41,-193.85 430.59,-200.58 433,-194.01"/>
</g>
<!-- debt_settlement_flag -->
<g id="node22" class="node">
<title>debt_settlement_flag</title>
<path fill="#e1f5fe" stroke="black" d="M182.91,-90C182.91,-90 79.09,-90 79.09,-90 73.09,-90 67.09,-84 67.09,-78 67.09,-78 67.09,-66 67.09,-66 67.09,-60 73.09,-54 79.09,-54 79.09,-54 182.91,-54 182.91,-54 188.91,-54 194.91,-60 194.91,-66 194.91,-66 194.91,-78 194.91,-78 194.91,-84 188.91,-90 182.91,-90"/>
<text text-anchor="middle" x="131" y="-68.4" font-family="Helvetica,sans-Serif" font-size="12.00">debt_settlement_flag</text>
</g>
<!-- time_since_last_payment&#45;&gt;debt_settlement_flag -->
<g id="edge45" class="edge">
<title>time_since_last_payment&#45;&gt;debt_settlement_flag</title>
<path fill="none" stroke="black" d="M108.13,-107.97C110.05,-105.04 112.08,-101.93 114.11,-98.83"/>
<polygon fill="black" stroke="black" points="117.18,-100.53 119.73,-90.24 111.32,-96.7 117.18,-100.53"/>
</g>
<!-- binary_loan_status&#45;&gt;time_since_last_payment -->
<g id="edge46" class="edge">
<title>binary_loan_status&#45;&gt;time_since_last_payment</title>
<path fill="none" stroke="black" d="M161.57,-161.97C153.86,-157.8 145.5,-153.27 137.44,-148.9"/>
<polygon fill="black" stroke="black" points="138.96,-145.75 128.5,-144.06 135.63,-151.91 138.96,-145.75"/>
</g>
<!-- binary_loan_status&#45;&gt;debt_settlement_flag -->
<g id="edge48" class="edge">
<title>binary_loan_status&#45;&gt;debt_settlement_flag</title>
<path fill="none" stroke="black" d="M194.99,-161.9C195.9,-146.64 195.05,-124.25 185,-108 182.38,-103.77 179.04,-99.95 175.31,-96.53"/>
<polygon fill="black" stroke="black" points="177.2,-93.56 167.2,-90.06 172.84,-99.03 177.2,-93.56"/>
</g>
<!-- hardship_status -->
<g id="node23" class="node">
<title>hardship_status</title>
<path fill="#e1f5fe" stroke="black" d="M337.22,-144C337.22,-144 260.78,-144 260.78,-144 254.78,-144 248.78,-138 248.78,-132 248.78,-132 248.78,-120 248.78,-120 248.78,-114 254.78,-108 260.78,-108 260.78,-108 337.22,-108 337.22,-108 343.22,-108 349.22,-114 349.22,-120 349.22,-120 349.22,-132 349.22,-132 349.22,-138 343.22,-144 337.22,-144"/>
<text text-anchor="middle" x="299" y="-122.4" font-family="Helvetica,sans-Serif" font-size="12.00">hardship_status</text>
</g>
<!-- binary_loan_status&#45;&gt;hardship_status -->
<g id="edge47" class="edge">
<title>binary_loan_status&#45;&gt;hardship_status</title>
<path fill="none" stroke="black" d="M227.71,-161.97C236.49,-157.66 246.04,-152.98 255.21,-148.48"/>
<polygon fill="black" stroke="black" points="256.78,-151.61 264.21,-144.06 253.69,-145.33 256.78,-151.61"/>
</g>
<!-- annual_inc&#45;&gt;open_act_il -->
<g id="edge39" class="edge">
<title>annual_inc&#45;&gt;open_act_il</title>
<path fill="none" stroke="black" d="M418.44,-539.97C412.87,-536.11 406.87,-531.95 401.02,-527.89"/>
<polygon fill="black" stroke="black" points="402.83,-524.89 392.61,-522.06 398.84,-530.64 402.83,-524.89"/>
</g>
<!-- annual_inc&#45;&gt;total_bc_limit -->
<g id="edge38" class="edge">
<title>annual_inc&#45;&gt;total_bc_limit</title>
<path fill="none" stroke="black" d="M480.11,-551.65C532.01,-541.83 620,-515.65 620,-451 620,-451 620,-451 620,-341 620,-314.23 619.03,-283.66 618.2,-262.26"/>
<polygon fill="black" stroke="black" points="621.69,-262.1 617.79,-252.25 614.7,-262.39 621.69,-262.1"/>
</g>
<!-- term&#45;&gt;time_since_last_payment -->
<g id="edge44" class="edge">
<title>term&#45;&gt;time_since_last_payment</title>
<path fill="none" stroke="black" d="M367.65,-165.96C363.8,-164.45 359.84,-163.07 356,-162 339.44,-157.37 251.73,-145.96 182.9,-137.41"/>
<polygon fill="black" stroke="black" points="183.25,-133.93 172.89,-136.17 182.39,-140.88 183.25,-133.93"/>
</g>
<!-- hardship_type -->
<g id="node26" class="node">
<title>hardship_type</title>
<path fill="#e1f5fe" stroke="black" d="M332.89,-90C332.89,-90 265.11,-90 265.11,-90 259.11,-90 253.11,-84 253.11,-78 253.11,-78 253.11,-66 253.11,-66 253.11,-60 259.11,-54 265.11,-54 265.11,-54 332.89,-54 332.89,-54 338.89,-54 344.89,-60 344.89,-66 344.89,-66 344.89,-78 344.89,-78 344.89,-84 338.89,-90 332.89,-90"/>
<text text-anchor="middle" x="299" y="-68.4" font-family="Helvetica,sans-Serif" font-size="12.00">hardship_type</text>
</g>
<!-- hardship_status&#45;&gt;hardship_type -->
<g id="edge53" class="edge">
<title>hardship_status&#45;&gt;hardship_type</title>
<path fill="none" stroke="black" d="M299,-107.97C299,-105.57 299,-103.06 299,-100.52"/>
<polygon fill="black" stroke="black" points="302.5,-100.24 299,-90.24 295.5,-100.24 302.5,-100.24"/>
</g>
<!-- home_ownership -->
<g id="node24" class="node">
<title>home_ownership</title>
<path fill="#e1f5fe" stroke="black" d="M415.89,-792C415.89,-792 332.11,-792 332.11,-792 326.11,-792 320.11,-786 320.11,-780 320.11,-780 320.11,-768 320.11,-768 320.11,-762 326.11,-756 332.11,-756 332.11,-756 415.89,-756 415.89,-756 421.89,-756 427.89,-762 427.89,-768 427.89,-768 427.89,-780 427.89,-780 427.89,-786 421.89,-792 415.89,-792"/>
<text text-anchor="middle" x="374" y="-770.4" font-family="Helvetica,sans-Serif" font-size="12.00">home_ownership</text>
</g>
<!-- home_ownership&#45;&gt;all_util -->
<g id="edge50" class="edge">
<title>home_ownership&#45;&gt;all_util</title>
<path fill="none" stroke="black" d="M363.52,-755.97C361.72,-753.04 359.81,-749.93 357.9,-746.83"/>
<polygon fill="black" stroke="black" points="360.83,-744.93 352.61,-738.24 354.87,-748.59 360.83,-744.93"/>
</g>
<!-- home_ownership&#45;&gt;avg_cur_bal -->
<g id="edge49" class="edge">
<title>home_ownership&#45;&gt;avg_cur_bal</title>
<path fill="none" stroke="black" d="M385.73,-755.97C397.47,-738.92 415.69,-712.46 429.22,-692.82"/>
<polygon fill="black" stroke="black" points="432.27,-694.56 435.06,-684.34 426.5,-690.59 432.27,-694.56"/>
</g>
<!-- purpose -->
<g id="node25" class="node">
<title>purpose</title>
<path fill="#e1f5fe" stroke="black" d="M391.87,-846C391.87,-846 356.13,-846 356.13,-846 350.13,-846 344.13,-840 344.13,-834 344.13,-834 344.13,-822 344.13,-822 344.13,-816 350.13,-810 356.13,-810 356.13,-810 391.87,-810 391.87,-810 397.87,-810 403.87,-816 403.87,-822 403.87,-822 403.87,-834 403.87,-834 403.87,-840 397.87,-846 391.87,-846"/>
<text text-anchor="middle" x="374" y="-824.4" font-family="Helvetica,sans-Serif" font-size="12.00">purpose</text>
</g>
<!-- purpose&#45;&gt;home_ownership -->
<g id="edge51" class="edge">
<title>purpose&#45;&gt;home_ownership</title>
<path fill="none" stroke="black" d="M374,-809.97C374,-807.57 374,-805.06 374,-802.52"/>
<polygon fill="black" stroke="black" points="377.5,-802.24 374,-792.24 370.5,-802.24 377.5,-802.24"/>
</g>
<!-- hardship_loan_status -->
<g id="node27" class="node">
<title>hardship_loan_status</title>
<path fill="#e1f5fe" stroke="black" d="M352.08,-36C352.08,-36 245.92,-36 245.92,-36 239.92,-36 233.92,-30 233.92,-24 233.92,-24 233.92,-12 233.92,-12 233.92,-6 239.92,0 245.92,0 245.92,0 352.08,0 352.08,0 358.08,0 364.08,-6 364.08,-12 364.08,-12 364.08,-24 364.08,-24 364.08,-30 358.08,-36 352.08,-36"/>
<text text-anchor="middle" x="299" y="-14.4" font-family="Helvetica,sans-Serif" font-size="12.00">hardship_loan_status</text>
</g>
<!-- hardship_type&#45;&gt;hardship_loan_status -->
<g id="edge52" class="edge">
<title>hardship_type&#45;&gt;hardship_loan_status</title>
<path fill="none" stroke="black" d="M299,-53.97C299,-51.57 299,-49.06 299,-46.52"/>
<polygon fill="black" stroke="black" points="302.5,-46.24 299,-36.24 295.5,-46.24 302.5,-46.24"/>
</g>
</g>
</svg>
