<?xml version="1.0" encoding="UTF-8" standalone="no"?>
<!DOCTYPE svg PUBLIC "-//W3C//DTD SVG 1.1//EN"
 "http://www.w3.org/Graphics/SVG/1.1/DTD/svg11.dtd">
<!-- Generated by graphviz version 2.50.0 (0)
 -->
<!-- Pages: 1 -->
<svg width="576pt" height="364pt"
 viewBox="0.00 0.00 576.00 363.83" xmlns="http://www.w3.org/2000/svg" xmlns:xlink="http://www.w3.org/1999/xlink">
<g id="graph0" class="graph" transform="scale(0.43 0.43) rotate(0) translate(4 850)">
<polygon fill="white" stroke="transparent" points="-4,4 -4,-850 1348,-850 1348,4 -4,4"/>
<!-- acc_open_past_24mths -->
<g id="node1" class="node">
<title>acc_open_past_24mths</title>
<path fill="#e1f5fe" stroke="black" d="M624.92,-846C624.92,-846 505.08,-846 505.08,-846 499.08,-846 493.08,-840 493.08,-834 493.08,-834 493.08,-822 493.08,-822 493.08,-816 499.08,-810 505.08,-810 505.08,-810 624.92,-810 624.92,-810 630.92,-810 636.92,-816 636.92,-822 636.92,-822 636.92,-834 636.92,-834 636.92,-840 630.92,-846 624.92,-846"/>
<text text-anchor="middle" x="565" y="-824.4" font-family="Helvetica,sans-Serif" font-size="12.00">acc_open_past_24mths</text>
</g>
<!-- num_tl_op_past_12m -->
<g id="node2" class="node">
<title>num_tl_op_past_12m</title>
<path fill="#e1f5fe" stroke="black" d="M565.91,-792C565.91,-792 458.09,-792 458.09,-792 452.09,-792 446.09,-786 446.09,-780 446.09,-780 446.09,-768 446.09,-768 446.09,-762 452.09,-756 458.09,-756 458.09,-756 565.91,-756 565.91,-756 571.91,-756 577.91,-762 577.91,-768 577.91,-768 577.91,-780 577.91,-780 577.91,-786 571.91,-792 565.91,-792"/>
<text text-anchor="middle" x="512" y="-770.4" font-family="Helvetica,sans-Serif" font-size="12.00">num_tl_op_past_12m</text>
</g>
<!-- acc_open_past_24mths&#45;&gt;num_tl_op_past_12m -->
<g id="edge1" class="edge">
<title>acc_open_past_24mths&#45;&gt;num_tl_op_past_12m</title>
<path fill="none" stroke="black" d="M547.65,-809.97C544.2,-806.6 540.53,-802.99 536.89,-799.42"/>
<polygon fill="black" stroke="black" points="539.16,-796.75 529.57,-792.24 534.26,-801.74 539.16,-796.75"/>
</g>
<!-- mths_since_recent_bc -->
<g id="node3" class="node">
<title>mths_since_recent_bc</title>
<path fill="#e1f5fe" stroke="black" d="M674.06,-738C674.06,-738 561.94,-738 561.94,-738 555.94,-738 549.94,-732 549.94,-726 549.94,-726 549.94,-714 549.94,-714 549.94,-708 555.94,-702 561.94,-702 561.94,-702 674.06,-702 674.06,-702 680.06,-702 686.06,-708 686.06,-714 686.06,-714 686.06,-726 686.06,-726 686.06,-732 680.06,-738 674.06,-738"/>
<text text-anchor="middle" x="618" y="-716.4" font-family="Helvetica,sans-Serif" font-size="12.00">mths_since_recent_bc</text>
</g>
<!-- acc_open_past_24mths&#45;&gt;mths_since_recent_bc -->
<g id="edge2" class="edge">
<title>acc_open_past_24mths&#45;&gt;mths_since_recent_bc</title>
<path fill="none" stroke="black" d="M578.59,-809.74C582.57,-804.25 586.72,-798.04 590,-792 597.62,-777.99 604.26,-761.47 609.16,-747.88"/>
<polygon fill="black" stroke="black" points="612.56,-748.76 612.56,-738.16 605.95,-746.45 612.56,-748.76"/>
</g>
<!-- total_rev_hi_lim -->
<g id="node4" class="node">
<title>total_rev_hi_lim</title>
<path fill="#e1f5fe" stroke="black" d="M415.04,-360C415.04,-360 338.96,-360 338.96,-360 332.96,-360 326.96,-354 326.96,-348 326.96,-348 326.96,-336 326.96,-336 326.96,-330 332.96,-324 338.96,-324 338.96,-324 415.04,-324 415.04,-324 421.04,-324 427.04,-330 427.04,-336 427.04,-336 427.04,-348 427.04,-348 427.04,-354 421.04,-360 415.04,-360"/>
<text text-anchor="middle" x="377" y="-338.4" font-family="Helvetica,sans-Serif" font-size="12.00">total_rev_hi_lim</text>
</g>
<!-- acc_open_past_24mths&#45;&gt;total_rev_hi_lim -->
<g id="edge3" class="edge">
<title>acc_open_past_24mths&#45;&gt;total_rev_hi_lim</title>
<path fill="none" stroke="black" d="M493.26,-825.52C361.88,-820.85 96,-801.45 96,-721 96,-721 96,-721 96,-611 96,-485.97 243.48,-401.44 324.75,-364.35"/>
<polygon fill="black" stroke="black" points="326.63,-367.35 334.32,-360.06 323.77,-360.96 326.63,-367.35"/>
</g>
<!-- mths_since_recent_inq -->
<g id="node5" class="node">
<title>mths_since_recent_inq</title>
<path fill="#e1f5fe" stroke="black" d="M312.9,-576C312.9,-576 197.1,-576 197.1,-576 191.1,-576 185.1,-570 185.1,-564 185.1,-564 185.1,-552 185.1,-552 185.1,-546 191.1,-540 197.1,-540 197.1,-540 312.9,-540 312.9,-540 318.9,-540 324.9,-546 324.9,-552 324.9,-552 324.9,-564 324.9,-564 324.9,-570 318.9,-576 312.9,-576"/>
<text text-anchor="middle" x="255" y="-554.4" font-family="Helvetica,sans-Serif" font-size="12.00">mths_since_recent_inq</text>
</g>
<!-- acc_open_past_24mths&#45;&gt;mths_since_recent_inq -->
<g id="edge4" class="edge">
<title>acc_open_past_24mths&#45;&gt;mths_since_recent_inq</title>
<path fill="none" stroke="black" d="M492.96,-812.76C473.32,-807.54 452.4,-800.72 434,-792 362.35,-758.04 344.71,-743.23 292,-684 273.15,-662.81 266.44,-657.08 258,-630 253.63,-615.97 252.67,-599.62 252.91,-586.14"/>
<polygon fill="black" stroke="black" points="256.41,-586.19 253.3,-576.06 249.41,-585.91 256.41,-586.19"/>
</g>
<!-- int_rate% -->
<g id="node6" class="node">
<title>int_rate%</title>
<path fill="#e1f5fe" stroke="black" d="M1137.2,-738C1137.2,-738 1094.8,-738 1094.8,-738 1088.8,-738 1082.8,-732 1082.8,-726 1082.8,-726 1082.8,-714 1082.8,-714 1082.8,-708 1088.8,-702 1094.8,-702 1094.8,-702 1137.2,-702 1137.2,-702 1143.2,-702 1149.2,-708 1149.2,-714 1149.2,-714 1149.2,-726 1149.2,-726 1149.2,-732 1143.2,-738 1137.2,-738"/>
<text text-anchor="middle" x="1116" y="-716.4" font-family="Helvetica,sans-Serif" font-size="12.00">int_rate%</text>
</g>
<!-- acc_open_past_24mths&#45;&gt;int_rate% -->
<g id="edge5" class="edge">
<title>acc_open_past_24mths&#45;&gt;int_rate%</title>
<path fill="none" stroke="black" d="M636.75,-813.2C752.77,-790.88 978.09,-747.53 1072.61,-729.35"/>
<polygon fill="black" stroke="black" points="1073.52,-732.74 1082.68,-727.41 1072.19,-725.86 1073.52,-732.74"/>
</g>
<!-- binary_loan_status -->
<g id="node7" class="node">
<title>binary_loan_status</title>
<path fill="#fed2d6" stroke="black" d="M1124.23,-360C1124.23,-360 1031.77,-360 1031.77,-360 1025.77,-360 1019.77,-354 1019.77,-348 1019.77,-348 1019.77,-336 1019.77,-336 1019.77,-330 1025.77,-324 1031.77,-324 1031.77,-324 1124.23,-324 1124.23,-324 1130.23,-324 1136.23,-330 1136.23,-336 1136.23,-336 1136.23,-348 1136.23,-348 1136.23,-354 1130.23,-360 1124.23,-360"/>
<text text-anchor="middle" x="1078" y="-338.4" font-family="Helvetica,sans-Serif" font-size="12.00">binary_loan_status</text>
</g>
<!-- acc_open_past_24mths&#45;&gt;binary_loan_status -->
<g id="edge6" class="edge">
<title>acc_open_past_24mths&#45;&gt;binary_loan_status</title>
<path fill="none" stroke="black" d="M636.89,-824.7C829.74,-817.59 1344,-791.97 1344,-721 1344,-721 1344,-721 1344,-503 1344,-410.75 1225.07,-370.33 1146.25,-353.67"/>
<polygon fill="black" stroke="black" points="1146.87,-350.23 1136.37,-351.66 1145.48,-357.09 1146.87,-350.23"/>
</g>
<!-- num_tl_op_past_12m&#45;&gt;mths_since_recent_bc -->
<g id="edge7" class="edge">
<title>num_tl_op_past_12m&#45;&gt;mths_since_recent_bc</title>
<path fill="none" stroke="black" d="M546.71,-755.97C555.49,-751.66 565.04,-746.98 574.21,-742.48"/>
<polygon fill="black" stroke="black" points="575.78,-745.61 583.21,-738.06 572.69,-739.33 575.78,-745.61"/>
</g>
<!-- num_tl_op_past_12m&#45;&gt;mths_since_recent_inq -->
<g id="edge9" class="edge">
<title>num_tl_op_past_12m&#45;&gt;mths_since_recent_inq</title>
<path fill="none" stroke="black" d="M466.55,-755.87C414.79,-734.14 331.07,-691.9 282,-630 271.85,-617.19 265.2,-600.15 261.04,-585.97"/>
<polygon fill="black" stroke="black" points="264.4,-585.01 258.44,-576.25 257.64,-586.82 264.4,-585.01"/>
</g>
<!-- num_tl_op_past_12m&#45;&gt;int_rate% -->
<g id="edge10" class="edge">
<title>num_tl_op_past_12m&#45;&gt;int_rate%</title>
<path fill="none" stroke="black" d="M577.79,-767.34C701.94,-756.65 967.69,-733.77 1072.35,-724.76"/>
<polygon fill="black" stroke="black" points="1072.89,-728.22 1082.55,-723.88 1072.29,-721.25 1072.89,-728.22"/>
</g>
<!-- inq_last_12m -->
<g id="node8" class="node">
<title>inq_last_12m</title>
<path fill="#e1f5fe" stroke="black" d="M419.88,-630C419.88,-630 356.12,-630 356.12,-630 350.12,-630 344.12,-624 344.12,-618 344.12,-618 344.12,-606 344.12,-606 344.12,-600 350.12,-594 356.12,-594 356.12,-594 419.88,-594 419.88,-594 425.88,-594 431.88,-600 431.88,-606 431.88,-606 431.88,-618 431.88,-618 431.88,-624 425.88,-630 419.88,-630"/>
<text text-anchor="middle" x="388" y="-608.4" font-family="Helvetica,sans-Serif" font-size="12.00">inq_last_12m</text>
</g>
<!-- num_tl_op_past_12m&#45;&gt;inq_last_12m -->
<g id="edge8" class="edge">
<title>num_tl_op_past_12m&#45;&gt;inq_last_12m</title>
<path fill="none" stroke="black" d="M498.73,-755.88C476.94,-727.76 433.44,-671.63 407.93,-638.72"/>
<polygon fill="black" stroke="black" points="410.44,-636.24 401.55,-630.48 404.91,-640.53 410.44,-636.24"/>
</g>
<!-- bc_util -->
<g id="node9" class="node">
<title>bc_util</title>
<path fill="#e1f5fe" stroke="black" d="M633,-684C633,-684 603,-684 603,-684 597,-684 591,-678 591,-672 591,-672 591,-660 591,-660 591,-654 597,-648 603,-648 603,-648 633,-648 633,-648 639,-648 645,-654 645,-660 645,-660 645,-672 645,-672 645,-678 639,-684 633,-684"/>
<text text-anchor="middle" x="618" y="-662.4" font-family="Helvetica,sans-Serif" font-size="12.00">bc_util</text>
</g>
<!-- num_tl_op_past_12m&#45;&gt;bc_util -->
<g id="edge11" class="edge">
<title>num_tl_op_past_12m&#45;&gt;bc_util</title>
<path fill="none" stroke="black" d="M514.1,-755.79C516.85,-740.01 523.09,-716.91 537,-702 548.66,-689.5 565.54,-681.25 580.88,-675.92"/>
<polygon fill="black" stroke="black" points="582.18,-679.18 590.66,-672.82 580.07,-672.5 582.18,-679.18"/>
</g>
<!-- all_util -->
<g id="node10" class="node">
<title>all_util</title>
<path fill="#e1f5fe" stroke="black" d="M270,-522C270,-522 240,-522 240,-522 234,-522 228,-516 228,-510 228,-510 228,-498 228,-498 228,-492 234,-486 240,-486 240,-486 270,-486 270,-486 276,-486 282,-492 282,-498 282,-498 282,-510 282,-510 282,-516 276,-522 270,-522"/>
<text text-anchor="middle" x="255" y="-500.4" font-family="Helvetica,sans-Serif" font-size="12.00">all_util</text>
</g>
<!-- num_tl_op_past_12m&#45;&gt;all_util -->
<g id="edge12" class="edge">
<title>num_tl_op_past_12m&#45;&gt;all_util</title>
<path fill="none" stroke="black" d="M446.16,-764.67C418.3,-759.46 386.09,-751.14 359,-738 316.56,-717.41 177.43,-586.01 173,-576 166.52,-561.37 164.18,-553.35 173,-540 183.03,-524.81 201.15,-516.19 217.81,-511.31"/>
<polygon fill="black" stroke="black" points="219.08,-514.6 227.91,-508.73 217.35,-507.81 219.08,-514.6"/>
</g>
<!-- mths_since_recent_bc&#45;&gt;mths_since_recent_inq -->
<g id="edge14" class="edge">
<title>mths_since_recent_bc&#45;&gt;mths_since_recent_inq</title>
<path fill="none" stroke="black" d="M549.83,-708.33C489,-696.46 399.4,-673.01 332,-630 311.64,-617.01 291.67,-598.38 277.18,-583.46"/>
<polygon fill="black" stroke="black" points="279.55,-580.88 270.12,-576.05 274.48,-585.71 279.55,-580.88"/>
</g>
<!-- mths_since_recent_bc&#45;&gt;inq_last_12m -->
<g id="edge17" class="edge">
<title>mths_since_recent_bc&#45;&gt;inq_last_12m</title>
<path fill="none" stroke="black" d="M581.05,-701.97C541.18,-683.6 477.61,-654.3 434.41,-634.39"/>
<polygon fill="black" stroke="black" points="435.79,-631.17 425.24,-630.16 432.86,-637.53 435.79,-631.17"/>
</g>
<!-- mths_since_recent_bc&#45;&gt;bc_util -->
<g id="edge13" class="edge">
<title>mths_since_recent_bc&#45;&gt;bc_util</title>
<path fill="none" stroke="black" d="M618,-701.97C618,-699.57 618,-697.06 618,-694.52"/>
<polygon fill="black" stroke="black" points="621.5,-694.24 618,-684.24 614.5,-694.24 621.5,-694.24"/>
</g>
<!-- percent_bc_gt_75 -->
<g id="node11" class="node">
<title>percent_bc_gt_75</title>
<path fill="#e1f5fe" stroke="black" d="M1141.08,-414C1141.08,-414 1052.92,-414 1052.92,-414 1046.92,-414 1040.92,-408 1040.92,-402 1040.92,-402 1040.92,-390 1040.92,-390 1040.92,-384 1046.92,-378 1052.92,-378 1052.92,-378 1141.08,-378 1141.08,-378 1147.08,-378 1153.08,-384 1153.08,-390 1153.08,-390 1153.08,-402 1153.08,-402 1153.08,-408 1147.08,-414 1141.08,-414"/>
<text text-anchor="middle" x="1097" y="-392.4" font-family="Helvetica,sans-Serif" font-size="12.00">percent_bc_gt_75</text>
</g>
<!-- mths_since_recent_bc&#45;&gt;percent_bc_gt_75 -->
<g id="edge15" class="edge">
<title>mths_since_recent_bc&#45;&gt;percent_bc_gt_75</title>
<path fill="none" stroke="black" d="M686.22,-708.49C710.34,-703.16 737.14,-695.33 760,-684 898.16,-615.55 1026.75,-478.11 1075.92,-421.86"/>
<polygon fill="black" stroke="black" points="1078.68,-424.02 1082.58,-414.17 1073.39,-419.43 1078.68,-424.02"/>
</g>
<!-- total_bc_limit -->
<g id="node12" class="node">
<title>total_bc_limit</title>
<path fill="#e1f5fe" stroke="black" d="M802.03,-468C802.03,-468 739.97,-468 739.97,-468 733.97,-468 727.97,-462 727.97,-456 727.97,-456 727.97,-444 727.97,-444 727.97,-438 733.97,-432 739.97,-432 739.97,-432 802.03,-432 802.03,-432 808.03,-432 814.03,-438 814.03,-444 814.03,-444 814.03,-456 814.03,-456 814.03,-462 808.03,-468 802.03,-468"/>
<text text-anchor="middle" x="771" y="-446.4" font-family="Helvetica,sans-Serif" font-size="12.00">total_bc_limit</text>
</g>
<!-- mths_since_recent_bc&#45;&gt;total_bc_limit -->
<g id="edge16" class="edge">
<title>mths_since_recent_bc&#45;&gt;total_bc_limit</title>
<path fill="none" stroke="black" d="M682,-701.96C723.93,-686.48 771,-658.89 771,-613 771,-613 771,-613 771,-557 771,-530.24 771,-499.67 771,-478.26"/>
<polygon fill="black" stroke="black" points="774.5,-478.26 771,-468.26 767.5,-478.26 774.5,-478.26"/>
</g>
<!-- term -->
<g id="node13" class="node">
<title>term</title>
<path fill="#e1f5fe" stroke="black" d="M902,-360C902,-360 872,-360 872,-360 866,-360 860,-354 860,-348 860,-348 860,-336 860,-336 860,-330 866,-324 872,-324 872,-324 902,-324 902,-324 908,-324 914,-330 914,-336 914,-336 914,-348 914,-348 914,-354 908,-360 902,-360"/>
<text text-anchor="middle" x="887" y="-338.4" font-family="Helvetica,sans-Serif" font-size="12.00">term</text>
</g>
<!-- mths_since_recent_bc&#45;&gt;term -->
<g id="edge18" class="edge">
<title>mths_since_recent_bc&#45;&gt;term</title>
<path fill="none" stroke="black" d="M686.1,-713.13C723.4,-708.3 769.85,-699.59 809,-684 926.26,-637.3 1131.15,-485.86 1166,-414 1172.98,-399.6 1176.8,-389.8 1166,-378 1150.71,-361.3 985.38,-363.48 963,-360 950.27,-358.02 936.48,-355.16 924.19,-352.35"/>
<polygon fill="black" stroke="black" points="924.81,-348.9 914.27,-350.01 923.21,-355.71 924.81,-348.9"/>
</g>
<!-- funded_amnt -->
<g id="node14" class="node">
<title>funded_amnt</title>
<path fill="#e1f5fe" stroke="black" d="M568.05,-306C568.05,-306 505.95,-306 505.95,-306 499.95,-306 493.95,-300 493.95,-294 493.95,-294 493.95,-282 493.95,-282 493.95,-276 499.95,-270 505.95,-270 505.95,-270 568.05,-270 568.05,-270 574.05,-270 580.05,-276 580.05,-282 580.05,-282 580.05,-294 580.05,-294 580.05,-300 574.05,-306 568.05,-306"/>
<text text-anchor="middle" x="537" y="-284.4" font-family="Helvetica,sans-Serif" font-size="12.00">funded_amnt</text>
</g>
<!-- total_rev_hi_lim&#45;&gt;funded_amnt -->
<g id="edge19" class="edge">
<title>total_rev_hi_lim&#45;&gt;funded_amnt</title>
<path fill="none" stroke="black" d="M427.19,-324.69C445.29,-318.81 465.76,-312.15 484.09,-306.2"/>
<polygon fill="black" stroke="black" points="485.31,-309.48 493.74,-303.06 483.14,-302.82 485.31,-309.48"/>
</g>
<!-- annual_inc -->
<g id="node15" class="node">
<title>annual_inc</title>
<path fill="#e1f5fe" stroke="black" d="M304.05,-252C304.05,-252 253.95,-252 253.95,-252 247.95,-252 241.95,-246 241.95,-240 241.95,-240 241.95,-228 241.95,-228 241.95,-222 247.95,-216 253.95,-216 253.95,-216 304.05,-216 304.05,-216 310.05,-216 316.05,-222 316.05,-228 316.05,-228 316.05,-240 316.05,-240 316.05,-246 310.05,-252 304.05,-252"/>
<text text-anchor="middle" x="279" y="-230.4" font-family="Helvetica,sans-Serif" font-size="12.00">annual_inc</text>
</g>
<!-- total_rev_hi_lim&#45;&gt;annual_inc -->
<g id="edge20" class="edge">
<title>total_rev_hi_lim&#45;&gt;annual_inc</title>
<path fill="none" stroke="black" d="M354.44,-323.66C347.92,-318.26 340.96,-312.12 335,-306 321.22,-291.84 307.45,-274.44 297.01,-260.41"/>
<polygon fill="black" stroke="black" points="299.71,-258.17 290.98,-252.17 294.06,-262.3 299.71,-258.17"/>
</g>
<!-- dti -->
<g id="node16" class="node">
<title>dti</title>
<path fill="#e1f5fe" stroke="black" d="M253,-306C253,-306 223,-306 223,-306 217,-306 211,-300 211,-294 211,-294 211,-282 211,-282 211,-276 217,-270 223,-270 223,-270 253,-270 253,-270 259,-270 265,-276 265,-282 265,-282 265,-294 265,-294 265,-300 259,-306 253,-306"/>
<text text-anchor="middle" x="238" y="-284.4" font-family="Helvetica,sans-Serif" font-size="12.00">dti</text>
</g>
<!-- total_rev_hi_lim&#45;&gt;dti -->
<g id="edge21" class="edge">
<title>total_rev_hi_lim&#45;&gt;dti</title>
<path fill="none" stroke="black" d="M331.49,-323.97C313.22,-317.14 292.43,-309.36 275.1,-302.88"/>
<polygon fill="black" stroke="black" points="275.94,-299.46 265.35,-299.23 273.49,-306.01 275.94,-299.46"/>
</g>
<!-- avg_cur_bal -->
<g id="node17" class="node">
<title>avg_cur_bal</title>
<path fill="#e1f5fe" stroke="black" d="M297.88,-198C297.88,-198 240.12,-198 240.12,-198 234.12,-198 228.12,-192 228.12,-186 228.12,-186 228.12,-174 228.12,-174 228.12,-168 234.12,-162 240.12,-162 240.12,-162 297.88,-162 297.88,-162 303.88,-162 309.88,-168 309.88,-174 309.88,-174 309.88,-186 309.88,-186 309.88,-192 303.88,-198 297.88,-198"/>
<text text-anchor="middle" x="269" y="-176.4" font-family="Helvetica,sans-Serif" font-size="12.00">avg_cur_bal</text>
</g>
<!-- total_rev_hi_lim&#45;&gt;avg_cur_bal -->
<g id="edge22" class="edge">
<title>total_rev_hi_lim&#45;&gt;avg_cur_bal</title>
<path fill="none" stroke="black" d="M374.16,-323.78C369.11,-297.81 356.41,-248.23 329,-216 325.15,-211.47 320.55,-207.38 315.64,-203.74"/>
<polygon fill="black" stroke="black" points="317.41,-200.71 307.16,-198.03 313.5,-206.52 317.41,-200.71"/>
</g>
<!-- home_ownership -->
<g id="node18" class="node">
<title>home_ownership</title>
<path fill="#e1f5fe" stroke="black" d="M389.89,-90C389.89,-90 306.11,-90 306.11,-90 300.11,-90 294.11,-84 294.11,-78 294.11,-78 294.11,-66 294.11,-66 294.11,-60 300.11,-54 306.11,-54 306.11,-54 389.89,-54 389.89,-54 395.89,-54 401.89,-60 401.89,-66 401.89,-66 401.89,-78 401.89,-78 401.89,-84 395.89,-90 389.89,-90"/>
<text text-anchor="middle" x="348" y="-68.4" font-family="Helvetica,sans-Serif" font-size="12.00">home_ownership</text>
</g>
<!-- total_rev_hi_lim&#45;&gt;home_ownership -->
<g id="edge23" class="edge">
<title>total_rev_hi_lim&#45;&gt;home_ownership</title>
<path fill="none" stroke="black" d="M384.42,-323.71C400.55,-283.33 434.43,-180.74 397,-108 394.9,-103.92 392.07,-100.2 388.84,-96.85"/>
<polygon fill="black" stroke="black" points="391.02,-94.11 381.22,-90.1 386.38,-99.35 391.02,-94.11"/>
</g>
<!-- mths_since_recent_inq&#45;&gt;all_util -->
<g id="edge24" class="edge">
<title>mths_since_recent_inq&#45;&gt;all_util</title>
<path fill="none" stroke="black" d="M255,-539.97C255,-537.57 255,-535.06 255,-532.52"/>
<polygon fill="black" stroke="black" points="258.5,-532.24 255,-522.24 251.5,-532.24 258.5,-532.24"/>
</g>
<!-- int_rate%&#45;&gt;bc_util -->
<g id="edge26" class="edge">
<title>int_rate%&#45;&gt;bc_util</title>
<path fill="none" stroke="black" d="M1082.55,-715.51C993.1,-706.17 748.8,-680.66 655.19,-670.88"/>
<polygon fill="black" stroke="black" points="655.36,-667.38 645.05,-669.82 654.64,-674.34 655.36,-667.38"/>
</g>
<!-- int_rate%&#45;&gt;total_bc_limit -->
<g id="edge27" class="edge">
<title>int_rate%&#45;&gt;total_bc_limit</title>
<path fill="none" stroke="black" d="M1093.89,-701.83C1034.14,-655.41 869.3,-527.36 801.12,-474.4"/>
<polygon fill="black" stroke="black" points="802.97,-471.4 792.92,-468.03 798.67,-476.93 802.97,-471.4"/>
</g>
<!-- grade -->
<g id="node19" class="node">
<title>grade</title>
<path fill="#e1f5fe" stroke="black" d="M902,-414C902,-414 872,-414 872,-414 866,-414 860,-408 860,-402 860,-402 860,-390 860,-390 860,-384 866,-378 872,-378 872,-378 902,-378 902,-378 908,-378 914,-384 914,-390 914,-390 914,-402 914,-402 914,-408 908,-414 902,-414"/>
<text text-anchor="middle" x="887" y="-392.4" font-family="Helvetica,sans-Serif" font-size="12.00">grade</text>
</g>
<!-- int_rate%&#45;&gt;grade -->
<g id="edge25" class="edge">
<title>int_rate%&#45;&gt;grade</title>
<path fill="none" stroke="black" d="M1103.9,-701.76C1093.8,-687.37 1078.99,-666.33 1066,-648 1007.39,-565.3 937.54,-467.6 905.15,-422.35"/>
<polygon fill="black" stroke="black" points="907.86,-420.11 899.19,-414.02 902.16,-424.19 907.86,-420.11"/>
</g>
<!-- purpose -->
<g id="node20" class="node">
<title>purpose</title>
<path fill="#e1f5fe" stroke="black" d="M554.87,-36C554.87,-36 519.13,-36 519.13,-36 513.13,-36 507.13,-30 507.13,-24 507.13,-24 507.13,-12 507.13,-12 507.13,-6 513.13,0 519.13,0 519.13,0 554.87,0 554.87,0 560.87,0 566.87,-6 566.87,-12 566.87,-12 566.87,-24 566.87,-24 566.87,-30 560.87,-36 554.87,-36"/>
<text text-anchor="middle" x="537" y="-14.4" font-family="Helvetica,sans-Serif" font-size="12.00">purpose</text>
</g>
<!-- int_rate%&#45;&gt;purpose -->
<g id="edge28" class="edge">
<title>int_rate%&#45;&gt;purpose</title>
<path fill="none" stroke="black" d="M1149.29,-714.35C1200.56,-705.11 1293,-679.26 1293,-613 1293,-613 1293,-613 1293,-503 1293,-428.36 1344,-417.64 1344,-343 1344,-343 1344,-343 1344,-125 1344,-46.79 740.46,-24.58 577.26,-20"/>
<polygon fill="black" stroke="black" points="577.25,-16.5 567.16,-19.72 577.06,-23.5 577.25,-16.5"/>
</g>
<!-- time_since_last_payment -->
<g id="node21" class="node">
<title>time_since_last_payment</title>
<path fill="#e1f5fe" stroke="black" d="M950.9,-306C950.9,-306 823.1,-306 823.1,-306 817.1,-306 811.1,-300 811.1,-294 811.1,-294 811.1,-282 811.1,-282 811.1,-276 817.1,-270 823.1,-270 823.1,-270 950.9,-270 950.9,-270 956.9,-270 962.9,-276 962.9,-282 962.9,-282 962.9,-294 962.9,-294 962.9,-300 956.9,-306 950.9,-306"/>
<text text-anchor="middle" x="887" y="-284.4" font-family="Helvetica,sans-Serif" font-size="12.00">time_since_last_payment</text>
</g>
<!-- int_rate%&#45;&gt;time_since_last_payment -->
<g id="edge29" class="edge">
<title>int_rate%&#45;&gt;time_since_last_payment</title>
<path fill="none" stroke="black" d="M1149.43,-707.47C1186.76,-692.21 1242,-661.45 1242,-613 1242,-613 1242,-613 1242,-449 1242,-409.35 1222.6,-397.35 1188,-378 1117.44,-338.55 1083.82,-385.18 1007,-360 974.16,-349.24 940.63,-328.4 917.39,-312.07"/>
<polygon fill="black" stroke="black" points="919.18,-309.04 909.01,-306.06 915.1,-314.73 919.18,-309.04"/>
</g>
<!-- binary_loan_status&#45;&gt;time_since_last_payment -->
<g id="edge30" class="edge">
<title>binary_loan_status&#45;&gt;time_since_last_payment</title>
<path fill="none" stroke="black" d="M1019.66,-325.12C1000.61,-319.93 979.23,-314.11 959.29,-308.68"/>
<polygon fill="black" stroke="black" points="960.2,-305.3 949.63,-306.05 958.36,-312.06 960.2,-305.3"/>
</g>
<!-- debt_settlement_flag -->
<g id="node22" class="node">
<title>debt_settlement_flag</title>
<path fill="#e1f5fe" stroke="black" d="M936.91,-252C936.91,-252 833.09,-252 833.09,-252 827.09,-252 821.09,-246 821.09,-240 821.09,-240 821.09,-228 821.09,-228 821.09,-222 827.09,-216 833.09,-216 833.09,-216 936.91,-216 936.91,-216 942.91,-216 948.91,-222 948.91,-228 948.91,-228 948.91,-240 948.91,-240 948.91,-246 942.91,-252 936.91,-252"/>
<text text-anchor="middle" x="885" y="-230.4" font-family="Helvetica,sans-Serif" font-size="12.00">debt_settlement_flag</text>
</g>
<!-- binary_loan_status&#45;&gt;debt_settlement_flag -->
<g id="edge31" class="edge">
<title>binary_loan_status&#45;&gt;debt_settlement_flag</title>
<path fill="none" stroke="black" d="M1056.44,-323.93C1036.23,-308.46 1004.75,-285.76 975,-270 965.36,-264.89 954.8,-260.12 944.42,-255.84"/>
<polygon fill="black" stroke="black" points="945.55,-252.52 934.97,-252.06 942.95,-259.02 945.55,-252.52"/>
</g>
<!-- hardship_type -->
<g id="node23" class="node">
<title>hardship_type</title>
<path fill="#e1f5fe" stroke="black" d="M1052.89,-252C1052.89,-252 985.11,-252 985.11,-252 979.11,-252 973.11,-246 973.11,-240 973.11,-240 973.11,-228 973.11,-228 973.11,-222 979.11,-216 985.11,-216 985.11,-216 1052.89,-216 1052.89,-216 1058.89,-216 1064.89,-222 1064.89,-228 1064.89,-228 1064.89,-240 1064.89,-240 1064.89,-246 1058.89,-252 1052.89,-252"/>
<text text-anchor="middle" x="1019" y="-230.4" font-family="Helvetica,sans-Serif" font-size="12.00">hardship_type</text>
</g>
<!-- binary_loan_status&#45;&gt;hardship_type -->
<g id="edge32" class="edge">
<title>binary_loan_status&#45;&gt;hardship_type</title>
<path fill="none" stroke="black" d="M1068.52,-323.97C1059.07,-306.99 1044.44,-280.7 1033.52,-261.09"/>
<polygon fill="black" stroke="black" points="1036.57,-259.38 1028.65,-252.34 1030.46,-262.78 1036.57,-259.38"/>
</g>
<!-- hardship_status -->
<g id="node24" class="node">
<title>hardship_status</title>
<path fill="#e1f5fe" stroke="black" d="M1099.22,-198C1099.22,-198 1022.78,-198 1022.78,-198 1016.78,-198 1010.78,-192 1010.78,-186 1010.78,-186 1010.78,-174 1010.78,-174 1010.78,-168 1016.78,-162 1022.78,-162 1022.78,-162 1099.22,-162 1099.22,-162 1105.22,-162 1111.22,-168 1111.22,-174 1111.22,-174 1111.22,-186 1111.22,-186 1111.22,-192 1105.22,-198 1099.22,-198"/>
<text text-anchor="middle" x="1061" y="-176.4" font-family="Helvetica,sans-Serif" font-size="12.00">hardship_status</text>
</g>
<!-- binary_loan_status&#45;&gt;hardship_status -->
<g id="edge33" class="edge">
<title>binary_loan_status&#45;&gt;hardship_status</title>
<path fill="none" stroke="black" d="M1080.11,-323.76C1082.58,-299.41 1085.37,-253.71 1077,-216 1076.4,-213.28 1075.57,-210.52 1074.6,-207.8"/>
<polygon fill="black" stroke="black" points="1077.72,-206.19 1070.65,-198.3 1071.25,-208.88 1077.72,-206.19"/>
</g>
<!-- inq_last_12m&#45;&gt;mths_since_recent_inq -->
<g id="edge74" class="edge">
<title>inq_last_12m&#45;&gt;mths_since_recent_inq</title>
<path fill="none" stroke="black" d="M344.45,-593.97C332.85,-589.44 320.2,-584.49 308.15,-579.78"/>
<polygon fill="black" stroke="black" points="309.23,-576.45 298.65,-576.06 306.69,-582.97 309.23,-576.45"/>
</g>
<!-- inq_last_12m&#45;&gt;all_util -->
<g id="edge73" class="edge">
<title>inq_last_12m&#45;&gt;all_util</title>
<path fill="none" stroke="black" d="M379.19,-593.74C370.37,-577.93 355.47,-554.81 337,-540 323.72,-529.36 306.73,-521.4 291.66,-515.79"/>
<polygon fill="black" stroke="black" points="292.69,-512.44 282.09,-512.43 290.37,-519.05 292.69,-512.44"/>
</g>
<!-- loan_age -->
<g id="node25" class="node">
<title>loan_age</title>
<path fill="#e1f5fe" stroke="black" d="M689.88,-468C689.88,-468 648.12,-468 648.12,-468 642.12,-468 636.12,-462 636.12,-456 636.12,-456 636.12,-444 636.12,-444 636.12,-438 642.12,-432 648.12,-432 648.12,-432 689.88,-432 689.88,-432 695.88,-432 701.88,-438 701.88,-444 701.88,-444 701.88,-456 701.88,-456 701.88,-462 695.88,-468 689.88,-468"/>
<text text-anchor="middle" x="669" y="-446.4" font-family="Helvetica,sans-Serif" font-size="12.00">loan_age</text>
</g>
<!-- inq_last_12m&#45;&gt;loan_age -->
<g id="edge75" class="edge">
<title>inq_last_12m&#45;&gt;loan_age</title>
<path fill="none" stroke="black" d="M431.91,-606.55C462.29,-602.07 502.86,-593.23 535,-576 582.21,-550.69 625.29,-504.59 649.24,-476.01"/>
<polygon fill="black" stroke="black" points="652.11,-478.04 655.77,-468.09 646.71,-473.59 652.11,-478.04"/>
</g>
<!-- addr_state -->
<g id="node28" class="node">
<title>addr_state</title>
<path fill="#e1f5fe" stroke="black" d="M372.21,-144C372.21,-144 323.79,-144 323.79,-144 317.79,-144 311.79,-138 311.79,-132 311.79,-132 311.79,-120 311.79,-120 311.79,-114 317.79,-108 323.79,-108 323.79,-108 372.21,-108 372.21,-108 378.21,-108 384.21,-114 384.21,-120 384.21,-120 384.21,-132 384.21,-132 384.21,-138 378.21,-144 372.21,-144"/>
<text text-anchor="middle" x="348" y="-122.4" font-family="Helvetica,sans-Serif" font-size="12.00">addr_state</text>
</g>
<!-- inq_last_12m&#45;&gt;addr_state -->
<g id="edge76" class="edge">
<title>inq_last_12m&#45;&gt;addr_state</title>
<path fill="none" stroke="black" d="M395.9,-593.76C415.39,-549.02 462.55,-425.59 440,-324 425.48,-258.61 386.88,-189.21 364.57,-152.78"/>
<polygon fill="black" stroke="black" points="367.52,-150.9 359.27,-144.26 361.57,-154.6 367.52,-150.9"/>
</g>
<!-- bc_util&#45;&gt;inq_last_12m -->
<g id="edge69" class="edge">
<title>bc_util&#45;&gt;inq_last_12m</title>
<path fill="none" stroke="black" d="M590.82,-657.5C578.95,-654.36 564.83,-650.79 552,-648 507.45,-638.31 495.5,-639.95 451,-630 448,-629.33 444.93,-628.61 441.84,-627.86"/>
<polygon fill="black" stroke="black" points="442.49,-624.42 431.94,-625.38 440.79,-631.21 442.49,-624.42"/>
</g>
<!-- bc_util&#45;&gt;all_util -->
<g id="edge65" class="edge">
<title>bc_util&#45;&gt;all_util</title>
<path fill="none" stroke="black" d="M590.86,-659.35C566.76,-653.75 530.99,-643.98 502,-630 438.7,-599.48 435.33,-570.45 372,-540 346.53,-527.76 315.87,-518.78 292.33,-512.98"/>
<polygon fill="black" stroke="black" points="292.92,-509.52 282.38,-510.61 291.3,-516.33 292.92,-509.52"/>
</g>
<!-- bc_util&#45;&gt;percent_bc_gt_75 -->
<g id="edge64" class="edge">
<title>bc_util&#45;&gt;percent_bc_gt_75</title>
<path fill="none" stroke="black" d="M645.32,-652.72C659.4,-646.23 676.76,-637.97 692,-630 830.27,-557.68 989.42,-462.48 1060,-419.63"/>
<polygon fill="black" stroke="black" points="1062.23,-422.36 1068.96,-414.18 1058.59,-416.38 1062.23,-422.36"/>
</g>
<!-- bc_util&#45;&gt;total_bc_limit -->
<g id="edge66" class="edge">
<title>bc_util&#45;&gt;total_bc_limit</title>
<path fill="none" stroke="black" d="M642.04,-647.8C648.59,-642.5 655.42,-636.37 661,-630 683.56,-604.25 732.18,-520.01 756.51,-476.91"/>
<polygon fill="black" stroke="black" points="759.6,-478.56 761.46,-468.13 753.5,-475.12 759.6,-478.56"/>
</g>
<!-- bc_util&#45;&gt;funded_amnt -->
<g id="edge67" class="edge">
<title>bc_util&#45;&gt;funded_amnt</title>
<path fill="none" stroke="black" d="M614.31,-647.87C601.45,-588.17 558.54,-388.97 542.83,-316.04"/>
<polygon fill="black" stroke="black" points="546.24,-315.27 540.71,-306.23 539.4,-316.75 546.24,-315.27"/>
</g>
<!-- bc_util&#45;&gt;loan_age -->
<g id="edge70" class="edge">
<title>bc_util&#45;&gt;loan_age</title>
<path fill="none" stroke="black" d="M628.81,-647.7C631.85,-642.21 634.9,-636 637,-630 655.17,-578.16 663.42,-514.1 666.85,-478.38"/>
<polygon fill="black" stroke="black" points="670.35,-478.52 667.76,-468.24 663.38,-477.89 670.35,-478.52"/>
</g>
<!-- open_act_il -->
<g id="node26" class="node">
<title>open_act_il</title>
<path fill="#e1f5fe" stroke="black" d="M128.88,-198C128.88,-198 75.12,-198 75.12,-198 69.12,-198 63.12,-192 63.12,-186 63.12,-186 63.12,-174 63.12,-174 63.12,-168 69.12,-162 75.12,-162 75.12,-162 128.88,-162 128.88,-162 134.88,-162 140.88,-168 140.88,-174 140.88,-174 140.88,-186 140.88,-186 140.88,-192 134.88,-198 128.88,-198"/>
<text text-anchor="middle" x="102" y="-176.4" font-family="Helvetica,sans-Serif" font-size="12.00">open_act_il</text>
</g>
<!-- bc_util&#45;&gt;open_act_il -->
<g id="edge68" class="edge">
<title>bc_util&#45;&gt;open_act_il</title>
<path fill="none" stroke="black" d="M596.52,-647.64C533.77,-596.73 345.9,-442.77 198,-306 173.08,-282.96 164.8,-278.82 144,-252 133.16,-238.02 123,-221.01 115.39,-207.14"/>
<polygon fill="black" stroke="black" points="118.37,-205.28 110.56,-198.12 112.2,-208.58 118.37,-205.28"/>
</g>
<!-- all_util&#45;&gt;total_rev_hi_lim -->
<g id="edge40" class="edge">
<title>all_util&#45;&gt;total_rev_hi_lim</title>
<path fill="none" stroke="black" d="M268.06,-485.88C289.5,-457.76 332.29,-401.63 357.39,-368.72"/>
<polygon fill="black" stroke="black" points="360.39,-370.56 363.67,-360.48 354.82,-366.31 360.39,-370.56"/>
</g>
<!-- all_util&#45;&gt;total_bc_limit -->
<g id="edge36" class="edge">
<title>all_util&#45;&gt;total_bc_limit</title>
<path fill="none" stroke="black" d="M282.16,-502.94C353.55,-502.36 552.12,-497.96 714,-468 715.29,-467.76 716.58,-467.51 717.89,-467.23"/>
<polygon fill="black" stroke="black" points="719.03,-470.56 727.98,-464.89 717.44,-463.74 719.03,-470.56"/>
</g>
<!-- all_util&#45;&gt;annual_inc -->
<g id="edge39" class="edge">
<title>all_util&#45;&gt;annual_inc</title>
<path fill="none" stroke="black" d="M242.5,-485.96C214.31,-445.24 151.68,-340.47 198,-270 205.85,-258.05 218.75,-250.16 231.97,-244.96"/>
<polygon fill="black" stroke="black" points="233.28,-248.21 241.58,-241.63 230.98,-241.6 233.28,-248.21"/>
</g>
<!-- all_util&#45;&gt;dti -->
<g id="edge38" class="edge">
<title>all_util&#45;&gt;dti</title>
<path fill="none" stroke="black" d="M253.64,-485.85C250.7,-448.83 243.73,-361.18 240.18,-316.39"/>
<polygon fill="black" stroke="black" points="243.65,-315.92 239.37,-306.23 236.67,-316.48 243.65,-315.92"/>
</g>
<!-- all_util&#45;&gt;avg_cur_bal -->
<g id="edge37" class="edge">
<title>all_util&#45;&gt;avg_cur_bal</title>
<path fill="none" stroke="black" d="M227.92,-488.28C219.7,-482.78 211.22,-475.92 205,-468 150.2,-398.18 148.86,-353.48 179,-270 188.84,-242.75 212.41,-219.96 232.97,-204.27"/>
<polygon fill="black" stroke="black" points="235.25,-206.93 241.25,-198.19 231.11,-201.29 235.25,-206.93"/>
</g>
<!-- all_util&#45;&gt;loan_age -->
<g id="edge34" class="edge">
<title>all_util&#45;&gt;loan_age</title>
<path fill="none" stroke="black" d="M282.16,-499.59C352.45,-490.76 540.72,-467.11 625.99,-456.4"/>
<polygon fill="black" stroke="black" points="626.62,-459.85 636.1,-455.13 625.74,-452.91 626.62,-459.85"/>
</g>
<!-- all_util&#45;&gt;open_act_il -->
<g id="edge35" class="edge">
<title>all_util&#45;&gt;open_act_il</title>
<path fill="none" stroke="black" d="M227.71,-503.76C161.93,-504.04 0,-494.8 0,-397 0,-397 0,-397 0,-287 0,-252.39 8.02,-240.96 32,-216 38.36,-209.38 46.24,-203.82 54.39,-199.21"/>
<polygon fill="black" stroke="black" points="56.03,-202.31 63.29,-194.59 52.8,-196.1 56.03,-202.31"/>
</g>
<!-- total_bc_limit&#45;&gt;total_rev_hi_lim -->
<g id="edge48" class="edge">
<title>total_bc_limit&#45;&gt;total_rev_hi_lim</title>
<path fill="none" stroke="black" d="M727.78,-435.95C723.14,-434.6 718.47,-433.26 714,-432 617.45,-404.86 504.66,-375.56 437.13,-358.27"/>
<polygon fill="black" stroke="black" points="437.65,-354.79 427.09,-355.7 435.92,-361.57 437.65,-354.79"/>
</g>
<!-- total_bc_limit&#45;&gt;percent_bc_gt_75 -->
<g id="edge50" class="edge">
<title>total_bc_limit&#45;&gt;percent_bc_gt_75</title>
<path fill="none" stroke="black" d="M814.26,-444.09C864.42,-438.14 949.5,-427.25 1022,-414 1024.83,-413.48 1027.72,-412.93 1030.63,-412.36"/>
<polygon fill="black" stroke="black" points="1031.49,-415.75 1040.59,-410.32 1030.09,-408.89 1031.49,-415.75"/>
</g>
<!-- total_bc_limit&#45;&gt;term -->
<g id="edge49" class="edge">
<title>total_bc_limit&#45;&gt;term</title>
<path fill="none" stroke="black" d="M814.12,-445.28C855.3,-440.73 913.08,-431.39 927,-414 937,-401.51 933.61,-392.57 927,-378 925.33,-374.32 923.07,-370.88 920.45,-367.7"/>
<polygon fill="black" stroke="black" points="922.85,-365.14 913.4,-360.35 917.8,-369.99 922.85,-365.14"/>
</g>
<!-- total_bc_limit&#45;&gt;funded_amnt -->
<g id="edge51" class="edge">
<title>total_bc_limit&#45;&gt;funded_amnt</title>
<path fill="none" stroke="black" d="M745.96,-431.88C703.67,-402.96 618.08,-344.44 570.62,-311.99"/>
<polygon fill="black" stroke="black" points="572.45,-309 562.22,-306.24 568.5,-314.78 572.45,-309"/>
</g>
<!-- term&#45;&gt;funded_amnt -->
<g id="edge77" class="edge">
<title>term&#45;&gt;funded_amnt</title>
<path fill="none" stroke="black" d="M859.83,-336.96C802.07,-328.38 666.21,-308.2 590.44,-296.94"/>
<polygon fill="black" stroke="black" points="590.56,-293.42 580.16,-295.41 589.53,-300.34 590.56,-293.42"/>
</g>
<!-- term&#45;&gt;time_since_last_payment -->
<g id="edge78" class="edge">
<title>term&#45;&gt;time_since_last_payment</title>
<path fill="none" stroke="black" d="M887,-323.97C887,-321.57 887,-319.06 887,-316.52"/>
<polygon fill="black" stroke="black" points="890.5,-316.24 887,-306.24 883.5,-316.24 890.5,-316.24"/>
</g>
<!-- funded_amnt&#45;&gt;annual_inc -->
<g id="edge71" class="edge">
<title>funded_amnt&#45;&gt;annual_inc</title>
<path fill="none" stroke="black" d="M493.82,-278.3C447.44,-268.95 373.99,-254.14 326.14,-244.5"/>
<polygon fill="black" stroke="black" points="326.54,-241.01 316.04,-242.47 325.15,-247.87 326.54,-241.01"/>
</g>
<!-- funded_amnt&#45;&gt;purpose -->
<g id="edge72" class="edge">
<title>funded_amnt&#45;&gt;purpose</title>
<path fill="none" stroke="black" d="M537,-269.74C537,-248.76 537,-212.28 537,-181 537,-181 537,-181 537,-125 537,-98.24 537,-67.67 537,-46.26"/>
<polygon fill="black" stroke="black" points="540.5,-46.26 537,-36.26 533.5,-46.26 540.5,-46.26"/>
</g>
<!-- annual_inc&#45;&gt;avg_cur_bal -->
<g id="edge57" class="edge">
<title>annual_inc&#45;&gt;avg_cur_bal</title>
<path fill="none" stroke="black" d="M275.73,-215.97C275.25,-213.49 274.74,-210.87 274.24,-208.24"/>
<polygon fill="black" stroke="black" points="277.64,-207.4 272.32,-198.24 270.77,-208.72 277.64,-207.4"/>
</g>
<!-- annual_inc&#45;&gt;open_act_il -->
<g id="edge58" class="edge">
<title>annual_inc&#45;&gt;open_act_il</title>
<path fill="none" stroke="black" d="M241.89,-222.1C215.42,-214.32 179.54,-203.78 150.76,-195.32"/>
<polygon fill="black" stroke="black" points="151.48,-191.89 140.89,-192.43 149.5,-198.6 151.48,-191.89"/>
</g>
<!-- emp_length -->
<g id="node27" class="node">
<title>emp_length</title>
<path fill="#e1f5fe" stroke="black" d="M217.21,-36C217.21,-36 162.79,-36 162.79,-36 156.79,-36 150.79,-30 150.79,-24 150.79,-24 150.79,-12 150.79,-12 150.79,-6 156.79,0 162.79,0 162.79,0 217.21,0 217.21,0 223.21,0 229.21,-6 229.21,-12 229.21,-12 229.21,-24 229.21,-24 229.21,-30 223.21,-36 217.21,-36"/>
<text text-anchor="middle" x="190" y="-14.4" font-family="Helvetica,sans-Serif" font-size="12.00">emp_length</text>
</g>
<!-- annual_inc&#45;&gt;emp_length -->
<g id="edge59" class="edge">
<title>annual_inc&#45;&gt;emp_length</title>
<path fill="none" stroke="black" d="M241.95,-219.63C232.08,-214.35 222.4,-207.27 216,-198 184.35,-152.13 184.09,-83.82 186.9,-46.24"/>
<polygon fill="black" stroke="black" points="190.41,-46.33 187.8,-36.06 183.44,-45.72 190.41,-46.33"/>
</g>
<!-- annual_inc&#45;&gt;addr_state -->
<g id="edge60" class="edge">
<title>annual_inc&#45;&gt;addr_state</title>
<path fill="none" stroke="black" d="M304.79,-215.75C311.06,-210.62 317.31,-204.58 322,-198 331.29,-184.97 337.63,-168.24 341.72,-154.3"/>
<polygon fill="black" stroke="black" points="345.2,-154.86 344.42,-144.29 338.44,-153.03 345.2,-154.86"/>
</g>
<!-- dti&#45;&gt;annual_inc -->
<g id="edge56" class="edge">
<title>dti&#45;&gt;annual_inc</title>
<path fill="none" stroke="black" d="M251.42,-269.97C253.88,-266.86 256.48,-263.56 259.08,-260.27"/>
<polygon fill="black" stroke="black" points="261.96,-262.26 265.4,-252.24 256.46,-257.93 261.96,-262.26"/>
</g>
<!-- dti&#45;&gt;avg_cur_bal -->
<g id="edge55" class="edge">
<title>dti&#45;&gt;avg_cur_bal</title>
<path fill="none" stroke="black" d="M230.89,-269.88C225.83,-255 221.2,-233.2 229,-216 230.67,-212.32 232.93,-208.88 235.55,-205.7"/>
<polygon fill="black" stroke="black" points="238.2,-207.99 242.6,-198.35 233.15,-203.14 238.2,-207.99"/>
</g>
<!-- dti&#45;&gt;open_act_il -->
<g id="edge54" class="edge">
<title>dti&#45;&gt;open_act_il</title>
<path fill="none" stroke="black" d="M216.15,-269.97C193.48,-252.3 157.86,-224.54 132.44,-204.73"/>
<polygon fill="black" stroke="black" points="134.29,-201.73 124.25,-198.34 129.98,-207.25 134.29,-201.73"/>
</g>
<!-- avg_cur_bal&#45;&gt;home_ownership -->
<g id="edge52" class="edge">
<title>avg_cur_bal&#45;&gt;home_ownership</title>
<path fill="none" stroke="black" d="M273.36,-161.83C277.88,-146.51 286.12,-124.09 299,-108 302.3,-103.87 306.22,-100.01 310.37,-96.47"/>
<polygon fill="black" stroke="black" points="312.83,-98.99 318.54,-90.07 308.51,-93.48 312.83,-98.99"/>
</g>
<!-- avg_cur_bal&#45;&gt;addr_state -->
<g id="edge53" class="edge">
<title>avg_cur_bal&#45;&gt;addr_state</title>
<path fill="none" stroke="black" d="M294.87,-161.97C300.87,-158.02 307.35,-153.76 313.65,-149.61"/>
<polygon fill="black" stroke="black" points="315.65,-152.49 322.07,-144.06 311.8,-146.64 315.65,-152.49"/>
</g>
<!-- home_ownership&#45;&gt;purpose -->
<g id="edge62" class="edge">
<title>home_ownership&#45;&gt;purpose</title>
<path fill="none" stroke="black" d="M401.91,-56.17C432.32,-47.8 469.66,-37.53 497.37,-29.9"/>
<polygon fill="black" stroke="black" points="498.4,-33.25 507.12,-27.22 496.55,-26.5 498.4,-33.25"/>
</g>
<!-- home_ownership&#45;&gt;emp_length -->
<g id="edge63" class="edge">
<title>home_ownership&#45;&gt;emp_length</title>
<path fill="none" stroke="black" d="M296.26,-53.97C277.8,-47.9 257.08,-41.08 238.86,-35.08"/>
<polygon fill="black" stroke="black" points="239.91,-31.74 229.32,-31.94 237.72,-38.39 239.91,-31.74"/>
</g>
<!-- grade&#45;&gt;binary_loan_status -->
<g id="edge80" class="edge">
<title>grade&#45;&gt;binary_loan_status</title>
<path fill="none" stroke="black" d="M914.37,-387.55C939.14,-380.81 976.67,-370.59 1009.55,-361.64"/>
<polygon fill="black" stroke="black" points="1010.85,-364.91 1019.58,-358.9 1009.01,-358.15 1010.85,-364.91"/>
</g>
<!-- grade&#45;&gt;term -->
<g id="edge79" class="edge">
<title>grade&#45;&gt;term</title>
<path fill="none" stroke="black" d="M887,-377.97C887,-375.57 887,-373.06 887,-370.52"/>
<polygon fill="black" stroke="black" points="890.5,-370.24 887,-360.24 883.5,-370.24 890.5,-370.24"/>
</g>
<!-- grade&#45;&gt;dti -->
<g id="edge81" class="edge">
<title>grade&#45;&gt;dti</title>
<path fill="none" stroke="black" d="M859.91,-394.42C753.1,-391.99 364.47,-381.71 314,-360 291.12,-350.16 270.83,-330.31 256.98,-314.09"/>
<polygon fill="black" stroke="black" points="259.4,-311.52 250.35,-306.01 253.99,-315.96 259.4,-311.52"/>
</g>
<!-- time_since_last_payment&#45;&gt;debt_settlement_flag -->
<g id="edge82" class="edge">
<title>time_since_last_payment&#45;&gt;debt_settlement_flag</title>
<path fill="none" stroke="black" d="M886.35,-269.97C886.25,-267.49 886.15,-264.87 886.05,-262.24"/>
<polygon fill="black" stroke="black" points="889.55,-262.1 885.66,-252.24 882.55,-262.37 889.55,-262.1"/>
</g>
<!-- time_since_last_payment&#45;&gt;hardship_type -->
<g id="edge83" class="edge">
<title>time_since_last_payment&#45;&gt;hardship_type</title>
<path fill="none" stroke="black" d="M930.22,-269.97C941.73,-265.44 954.29,-260.49 966.25,-255.78"/>
<polygon fill="black" stroke="black" points="967.66,-258.99 975.68,-252.06 965.09,-252.47 967.66,-258.99"/>
</g>
<!-- hardship_type&#45;&gt;hardship_status -->
<g id="edge84" class="edge">
<title>hardship_type&#45;&gt;hardship_status</title>
<path fill="none" stroke="black" d="M1032.75,-215.97C1035.26,-212.86 1037.93,-209.56 1040.59,-206.27"/>
<polygon fill="black" stroke="black" points="1043.51,-208.22 1047.07,-198.24 1038.07,-203.82 1043.51,-208.22"/>
</g>
<!-- hardship_loan_status -->
<g id="node29" class="node">
<title>hardship_loan_status</title>
<path fill="#e1f5fe" stroke="black" d="M1114.08,-144C1114.08,-144 1007.92,-144 1007.92,-144 1001.92,-144 995.92,-138 995.92,-132 995.92,-132 995.92,-120 995.92,-120 995.92,-114 1001.92,-108 1007.92,-108 1007.92,-108 1114.08,-108 1114.08,-108 1120.08,-108 1126.08,-114 1126.08,-120 1126.08,-120 1126.08,-132 1126.08,-132 1126.08,-138 1120.08,-144 1114.08,-144"/>
<text text-anchor="middle" x="1061" y="-122.4" font-family="Helvetica,sans-Serif" font-size="12.00">hardship_loan_status</text>
</g>
<!-- hardship_status&#45;&gt;hardship_loan_status -->
<g id="edge85" class="edge">
<title>hardship_status&#45;&gt;hardship_loan_status</title>
<path fill="none" stroke="black" d="M1061,-161.97C1061,-159.57 1061,-157.06 1061,-154.52"/>
<polygon fill="black" stroke="black" points="1064.5,-154.24 1061,-144.24 1057.5,-154.24 1064.5,-154.24"/>
</g>
<!-- loan_age&#45;&gt;binary_loan_status -->
<g id="edge43" class="edge">
<title>loan_age&#45;&gt;binary_loan_status</title>
<path fill="none" stroke="black" d="M701.85,-435.65C706.22,-434.24 710.68,-432.96 715,-432 807.3,-411.42 835.67,-438.5 927,-414 967.82,-403.05 1011.16,-381.52 1040.89,-365.02"/>
<polygon fill="black" stroke="black" points="1042.66,-368.04 1049.66,-360.08 1039.23,-361.94 1042.66,-368.04"/>
</g>
<!-- loan_age&#45;&gt;term -->
<g id="edge44" class="edge">
<title>loan_age&#45;&gt;term</title>
<path fill="none" stroke="black" d="M702.11,-432.9C742.11,-413.45 809.19,-380.84 850.61,-360.7"/>
<polygon fill="black" stroke="black" points="852.33,-363.75 859.79,-356.23 849.27,-357.45 852.33,-363.75"/>
</g>
<!-- loan_age&#45;&gt;grade -->
<g id="edge42" class="edge">
<title>loan_age&#45;&gt;grade</title>
<path fill="none" stroke="black" d="M701.9,-435.89C706.26,-434.43 710.71,-433.09 715,-432 769.84,-418.12 786.16,-427.88 841,-414 843.96,-413.25 846.99,-412.38 850.02,-411.43"/>
<polygon fill="black" stroke="black" points="851.21,-414.72 859.57,-408.22 848.98,-408.09 851.21,-414.72"/>
</g>
<!-- loan_age&#45;&gt;time_since_last_payment -->
<g id="edge41" class="edge">
<title>loan_age&#45;&gt;time_since_last_payment</title>
<path fill="none" stroke="black" d="M683.77,-431.72C697.25,-416.54 718.19,-394.38 739,-378 772.2,-351.86 813.69,-327.53 844.29,-310.94"/>
<polygon fill="black" stroke="black" points="846.26,-313.86 853.42,-306.05 842.95,-307.69 846.26,-313.86"/>
</g>
<!-- loan_age&#45;&gt;debt_settlement_flag -->
<g id="edge46" class="edge">
<title>loan_age&#45;&gt;debt_settlement_flag</title>
<path fill="none" stroke="black" d="M636.16,-440.94C622.17,-435.7 607.21,-427.29 599,-414 569.32,-365.97 626.36,-287.56 650,-270 674.97,-251.46 752.04,-242.62 811.19,-238.48"/>
<polygon fill="black" stroke="black" points="811.51,-241.97 821.26,-237.81 811.05,-234.98 811.51,-241.97"/>
</g>
<!-- loan_age&#45;&gt;hardship_type -->
<g id="edge45" class="edge">
<title>loan_age&#45;&gt;hardship_type</title>
<path fill="none" stroke="black" d="M672.84,-431.73C676.68,-416.75 683.53,-394.88 694,-378 729.27,-321.1 738.87,-299.42 799,-270 864.07,-238.16 889.97,-266.24 961,-252 961.75,-251.85 962.51,-251.69 963.27,-251.53"/>
<polygon fill="black" stroke="black" points="964.33,-254.88 973.28,-249.2 962.74,-248.06 964.33,-254.88"/>
</g>
<!-- open_act_il&#45;&gt;emp_length -->
<g id="edge47" class="edge">
<title>open_act_il&#45;&gt;emp_length</title>
<path fill="none" stroke="black" d="M111.42,-161.88C126.75,-134 157.23,-78.59 175.39,-45.56"/>
<polygon fill="black" stroke="black" points="178.63,-46.93 180.38,-36.48 172.5,-43.56 178.63,-46.93"/>
</g>
<!-- addr_state&#45;&gt;home_ownership -->
<g id="edge61" class="edge">
<title>addr_state&#45;&gt;home_ownership</title>
<path fill="none" stroke="black" d="M348,-107.97C348,-105.57 348,-103.06 348,-100.52"/>
<polygon fill="black" stroke="black" points="351.5,-100.24 348,-90.24 344.5,-100.24 351.5,-100.24"/>
</g>
</g>
</svg>
