<?xml version="1.0" encoding="UTF-8" standalone="no"?>
<!DOCTYPE svg PUBLIC "-//W3C//DTD SVG 1.1//EN"
 "http://www.w3.org/Graphics/SVG/1.1/DTD/svg11.dtd">
<!-- Generated by graphviz version 2.50.0 (0)
 -->
<!-- Pages: 1 -->
<svg width="442pt" height="720pt"
 viewBox="0.00 0.00 441.59 720.00" xmlns="http://www.w3.org/2000/svg" xmlns:xlink="http://www.w3.org/1999/xlink">
<g id="graph0" class="graph" transform="scale(0.64 0.64) rotate(0) translate(4 1120)">
<polygon fill="white" stroke="transparent" points="-4,4 -4,-1120 685.37,-1120 685.37,4 -4,4"/>
<!-- acc_open_past_24mths -->
<g id="node1" class="node">
<title>acc_open_past_24mths</title>
<path fill="#e1f5fe" stroke="black" d="M637.29,-1116C637.29,-1116 517.44,-1116 517.44,-1116 511.44,-1116 505.44,-1110 505.44,-1104 505.44,-1104 505.44,-1092 505.44,-1092 505.44,-1086 511.44,-1080 517.44,-1080 517.44,-1080 637.29,-1080 637.29,-1080 643.29,-1080 649.29,-1086 649.29,-1092 649.29,-1092 649.29,-1104 649.29,-1104 649.29,-1110 643.29,-1116 637.29,-1116"/>
<text text-anchor="middle" x="577.37" y="-1094.4" font-family="Helvetica,sans-Serif" font-size="12.00">acc_open_past_24mths</text>
</g>
<!-- num_tl_op_past_12m -->
<g id="node2" class="node">
<title>num_tl_op_past_12m</title>
<path fill="#e1f5fe" stroke="black" d="M631.28,-1062C631.28,-1062 523.45,-1062 523.45,-1062 517.45,-1062 511.45,-1056 511.45,-1050 511.45,-1050 511.45,-1038 511.45,-1038 511.45,-1032 517.45,-1026 523.45,-1026 523.45,-1026 631.28,-1026 631.28,-1026 637.28,-1026 643.28,-1032 643.28,-1038 643.28,-1038 643.28,-1050 643.28,-1050 643.28,-1056 637.28,-1062 631.28,-1062"/>
<text text-anchor="middle" x="577.37" y="-1040.4" font-family="Helvetica,sans-Serif" font-size="12.00">num_tl_op_past_12m</text>
</g>
<!-- acc_open_past_24mths&#45;&gt;num_tl_op_past_12m -->
<g id="edge1" class="edge">
<title>acc_open_past_24mths&#45;&gt;num_tl_op_past_12m</title>
<path fill="none" stroke="black" d="M577.37,-1079.97C577.37,-1077.57 577.37,-1075.06 577.37,-1072.52"/>
<polygon fill="black" stroke="black" points="580.87,-1072.24 577.37,-1062.24 573.87,-1072.24 580.87,-1072.24"/>
</g>
<!-- open_rv_24m -->
<g id="node3" class="node">
<title>open_rv_24m</title>
<path fill="#e1f5fe" stroke="black" d="M435.25,-414C435.25,-414 369.48,-414 369.48,-414 363.48,-414 357.48,-408 357.48,-402 357.48,-402 357.48,-390 357.48,-390 357.48,-384 363.48,-378 369.48,-378 369.48,-378 435.25,-378 435.25,-378 441.25,-378 447.25,-384 447.25,-390 447.25,-390 447.25,-402 447.25,-402 447.25,-408 441.25,-414 435.25,-414"/>
<text text-anchor="middle" x="402.37" y="-392.4" font-family="Helvetica,sans-Serif" font-size="12.00">open_rv_24m</text>
</g>
<!-- acc_open_past_24mths&#45;&gt;open_rv_24m -->
<g id="edge2" class="edge">
<title>acc_open_past_24mths&#45;&gt;open_rv_24m</title>
<path fill="none" stroke="black" d="M631.05,-1079.84C640.02,-1075.14 648.59,-1069.28 655.37,-1062 678.27,-1037.41 681.37,-1024.6 681.37,-991 681.37,-991 681.37,-991 681.37,-557 681.37,-454.73 538.54,-416.9 457.27,-403.65"/>
<polygon fill="black" stroke="black" points="457.61,-400.16 447.19,-402.08 456.54,-407.08 457.61,-400.16"/>
</g>
<!-- total_rev_hi_lim -->
<g id="node4" class="node">
<title>total_rev_hi_lim</title>
<path fill="#e1f5fe" stroke="black" d="M421.41,-738C421.41,-738 345.33,-738 345.33,-738 339.33,-738 333.33,-732 333.33,-726 333.33,-726 333.33,-714 333.33,-714 333.33,-708 339.33,-702 345.33,-702 345.33,-702 421.41,-702 421.41,-702 427.41,-702 433.41,-708 433.41,-714 433.41,-714 433.41,-726 433.41,-726 433.41,-732 427.41,-738 421.41,-738"/>
<text text-anchor="middle" x="383.37" y="-716.4" font-family="Helvetica,sans-Serif" font-size="12.00">total_rev_hi_lim</text>
</g>
<!-- acc_open_past_24mths&#45;&gt;total_rev_hi_lim -->
<g id="edge3" class="edge">
<title>acc_open_past_24mths&#45;&gt;total_rev_hi_lim</title>
<path fill="none" stroke="black" d="M523.68,-1079.84C514.72,-1075.14 506.15,-1069.28 499.37,-1062 476.46,-1037.41 473.37,-1024.6 473.37,-991 473.37,-991 473.37,-991 473.37,-827 473.37,-792.01 462.68,-782.09 439.37,-756 435.45,-751.62 430.86,-747.59 426.02,-743.95"/>
<polygon fill="black" stroke="black" points="427.92,-741.01 417.71,-738.19 423.93,-746.76 427.92,-741.01"/>
</g>
<!-- mths_since_recent_bc -->
<g id="node5" class="node">
<title>mths_since_recent_bc</title>
<path fill="#e1f5fe" stroke="black" d="M554.43,-360C554.43,-360 442.3,-360 442.3,-360 436.3,-360 430.3,-354 430.3,-348 430.3,-348 430.3,-336 430.3,-336 430.3,-330 436.3,-324 442.3,-324 442.3,-324 554.43,-324 554.43,-324 560.43,-324 566.43,-330 566.43,-336 566.43,-336 566.43,-348 566.43,-348 566.43,-354 560.43,-360 554.43,-360"/>
<text text-anchor="middle" x="498.37" y="-338.4" font-family="Helvetica,sans-Serif" font-size="12.00">mths_since_recent_bc</text>
</g>
<!-- num_tl_op_past_12m&#45;&gt;mths_since_recent_bc -->
<g id="edge4" class="edge">
<title>num_tl_op_past_12m&#45;&gt;mths_since_recent_bc</title>
<path fill="none" stroke="black" d="M566.44,-1025.75C554.59,-1005.37 537.37,-970.04 537.37,-937 537.37,-937 537.37,-937 537.37,-449 537.37,-420.43 524.74,-390.05 513.85,-369.17"/>
<polygon fill="black" stroke="black" points="516.87,-367.4 509.02,-360.29 510.72,-370.74 516.87,-367.4"/>
</g>
<!-- mths_since_recent_inq -->
<g id="node6" class="node">
<title>mths_since_recent_inq</title>
<path fill="#e1f5fe" stroke="black" d="M557.27,-306C557.27,-306 441.46,-306 441.46,-306 435.46,-306 429.46,-300 429.46,-294 429.46,-294 429.46,-282 429.46,-282 429.46,-276 435.46,-270 441.46,-270 441.46,-270 557.27,-270 557.27,-270 563.27,-270 569.27,-276 569.27,-282 569.27,-282 569.27,-294 569.27,-294 569.27,-300 563.27,-306 557.27,-306"/>
<text text-anchor="middle" x="499.37" y="-284.4" font-family="Helvetica,sans-Serif" font-size="12.00">mths_since_recent_inq</text>
</g>
<!-- num_tl_op_past_12m&#45;&gt;mths_since_recent_inq -->
<g id="edge5" class="edge">
<title>num_tl_op_past_12m&#45;&gt;mths_since_recent_inq</title>
<path fill="none" stroke="black" d="M592.13,-1025.93C607.81,-1006 630.37,-971.36 630.37,-937 630.37,-937 630.37,-937 630.37,-557 630.37,-450.99 646.59,-405.96 579.37,-324 575.49,-319.27 570.84,-315.16 565.77,-311.59"/>
<polygon fill="black" stroke="black" points="567.23,-308.38 556.89,-306.09 563.55,-314.33 567.23,-308.38"/>
</g>
<!-- bc_util -->
<g id="node7" class="node">
<title>bc_util</title>
<path fill="#e1f5fe" stroke="black" d="M343.37,-1008C343.37,-1008 313.37,-1008 313.37,-1008 307.37,-1008 301.37,-1002 301.37,-996 301.37,-996 301.37,-984 301.37,-984 301.37,-978 307.37,-972 313.37,-972 313.37,-972 343.37,-972 343.37,-972 349.37,-972 355.37,-978 355.37,-984 355.37,-984 355.37,-996 355.37,-996 355.37,-1002 349.37,-1008 343.37,-1008"/>
<text text-anchor="middle" x="328.37" y="-986.4" font-family="Helvetica,sans-Serif" font-size="12.00">bc_util</text>
</g>
<!-- num_tl_op_past_12m&#45;&gt;bc_util -->
<g id="edge6" class="edge">
<title>num_tl_op_past_12m&#45;&gt;bc_util</title>
<path fill="none" stroke="black" d="M511.62,-1029.27C465,-1019.53 404.11,-1006.82 365.61,-998.78"/>
<polygon fill="black" stroke="black" points="365.88,-995.26 355.38,-996.64 364.45,-1002.11 365.88,-995.26"/>
</g>
<!-- grade -->
<g id="node8" class="node">
<title>grade</title>
<path fill="#e1f5fe" stroke="black" d="M184.37,-954C184.37,-954 154.37,-954 154.37,-954 148.37,-954 142.37,-948 142.37,-942 142.37,-942 142.37,-930 142.37,-930 142.37,-924 148.37,-918 154.37,-918 154.37,-918 184.37,-918 184.37,-918 190.37,-918 196.37,-924 196.37,-930 196.37,-930 196.37,-942 196.37,-942 196.37,-948 190.37,-954 184.37,-954"/>
<text text-anchor="middle" x="169.37" y="-932.4" font-family="Helvetica,sans-Serif" font-size="12.00">grade</text>
</g>
<!-- num_tl_op_past_12m&#45;&gt;grade -->
<g id="edge7" class="edge">
<title>num_tl_op_past_12m&#45;&gt;grade</title>
<path fill="none" stroke="black" d="M511.66,-1042.75C451.93,-1040.74 362.14,-1033.21 288.37,-1008 256.07,-996.96 223.02,-976.35 199.97,-960.17"/>
<polygon fill="black" stroke="black" points="201.82,-957.19 191.65,-954.21 197.75,-962.88 201.82,-957.19"/>
</g>
<!-- open_rv_24m&#45;&gt;mths_since_recent_bc -->
<g id="edge8" class="edge">
<title>open_rv_24m&#45;&gt;mths_since_recent_bc</title>
<path fill="none" stroke="black" d="M433.8,-377.97C441.51,-373.8 449.87,-369.27 457.93,-364.9"/>
<polygon fill="black" stroke="black" points="459.74,-367.91 466.86,-360.06 456.4,-361.75 459.74,-367.91"/>
</g>
<!-- loan_age -->
<g id="node9" class="node">
<title>loan_age</title>
<path fill="#e1f5fe" stroke="black" d="M267.25,-360C267.25,-360 225.48,-360 225.48,-360 219.48,-360 213.48,-354 213.48,-348 213.48,-348 213.48,-336 213.48,-336 213.48,-330 219.48,-324 225.48,-324 225.48,-324 267.25,-324 267.25,-324 273.25,-324 279.25,-330 279.25,-336 279.25,-336 279.25,-348 279.25,-348 279.25,-354 273.25,-360 267.25,-360"/>
<text text-anchor="middle" x="246.37" y="-338.4" font-family="Helvetica,sans-Serif" font-size="12.00">loan_age</text>
</g>
<!-- open_rv_24m&#45;&gt;loan_age -->
<g id="edge9" class="edge">
<title>open_rv_24m&#45;&gt;loan_age</title>
<path fill="none" stroke="black" d="M357.66,-380.1C336.06,-372.9 310.25,-364.29 288.93,-357.19"/>
<polygon fill="black" stroke="black" points="289.77,-353.78 279.18,-353.94 287.56,-360.42 289.77,-353.78"/>
</g>
<!-- inq_last_12m -->
<g id="node10" class="node">
<title>inq_last_12m</title>
<path fill="#e1f5fe" stroke="black" d="M423.25,-252C423.25,-252 359.49,-252 359.49,-252 353.49,-252 347.49,-246 347.49,-240 347.49,-240 347.49,-228 347.49,-228 347.49,-222 353.49,-216 359.49,-216 359.49,-216 423.25,-216 423.25,-216 429.25,-216 435.25,-222 435.25,-228 435.25,-228 435.25,-240 435.25,-240 435.25,-246 429.25,-252 423.25,-252"/>
<text text-anchor="middle" x="391.37" y="-230.4" font-family="Helvetica,sans-Serif" font-size="12.00">inq_last_12m</text>
</g>
<!-- open_rv_24m&#45;&gt;inq_last_12m -->
<g id="edge10" class="edge">
<title>open_rv_24m&#45;&gt;inq_last_12m</title>
<path fill="none" stroke="black" d="M401.19,-377.88C399.3,-350.35 395.56,-296.01 393.28,-262.85"/>
<polygon fill="black" stroke="black" points="396.75,-262.22 392.57,-252.48 389.76,-262.7 396.75,-262.22"/>
</g>
<!-- annual_inc -->
<g id="node11" class="node">
<title>annual_inc</title>
<path fill="#e1f5fe" stroke="black" d="M405.42,-684C405.42,-684 355.32,-684 355.32,-684 349.32,-684 343.32,-678 343.32,-672 343.32,-672 343.32,-660 343.32,-660 343.32,-654 349.32,-648 355.32,-648 355.32,-648 405.42,-648 405.42,-648 411.42,-648 417.42,-654 417.42,-660 417.42,-660 417.42,-672 417.42,-672 417.42,-678 411.42,-684 405.42,-684"/>
<text text-anchor="middle" x="380.37" y="-662.4" font-family="Helvetica,sans-Serif" font-size="12.00">annual_inc</text>
</g>
<!-- total_rev_hi_lim&#45;&gt;annual_inc -->
<g id="edge11" class="edge">
<title>total_rev_hi_lim&#45;&gt;annual_inc</title>
<path fill="none" stroke="black" d="M382.38,-701.97C382.24,-699.49 382.09,-696.87 381.94,-694.24"/>
<polygon fill="black" stroke="black" points="385.43,-694.02 381.36,-684.24 378.44,-694.43 385.43,-694.02"/>
</g>
<!-- mths_since_recent_bc&#45;&gt;mths_since_recent_inq -->
<g id="edge38" class="edge">
<title>mths_since_recent_bc&#45;&gt;mths_since_recent_inq</title>
<path fill="none" stroke="black" d="M498.69,-323.97C498.74,-321.49 498.79,-318.87 498.84,-316.24"/>
<polygon fill="black" stroke="black" points="502.34,-316.31 499.04,-306.24 495.34,-316.17 502.34,-316.31"/>
</g>
<!-- mths_since_recent_inq&#45;&gt;inq_last_12m -->
<g id="edge39" class="edge">
<title>mths_since_recent_inq&#45;&gt;inq_last_12m</title>
<path fill="none" stroke="black" d="M464,-269.97C455.05,-265.66 445.32,-260.98 435.98,-256.48"/>
<polygon fill="black" stroke="black" points="437.34,-253.25 426.81,-252.06 434.3,-259.56 437.34,-253.25"/>
</g>
<!-- bc_util&#45;&gt;grade -->
<g id="edge29" class="edge">
<title>bc_util&#45;&gt;grade</title>
<path fill="none" stroke="black" d="M301.29,-981.06C278.32,-974.22 244.54,-963.9 215.37,-954 212.3,-952.96 209.14,-951.85 205.96,-950.73"/>
<polygon fill="black" stroke="black" points="207.12,-947.42 196.52,-947.31 204.74,-954 207.12,-947.42"/>
</g>
<!-- all_util -->
<g id="node12" class="node">
<title>all_util</title>
<path fill="#e1f5fe" stroke="black" d="M334.37,-468C334.37,-468 304.37,-468 304.37,-468 298.37,-468 292.37,-462 292.37,-456 292.37,-456 292.37,-444 292.37,-444 292.37,-438 298.37,-432 304.37,-432 304.37,-432 334.37,-432 334.37,-432 340.37,-432 346.37,-438 346.37,-444 346.37,-444 346.37,-456 346.37,-456 346.37,-462 340.37,-468 334.37,-468"/>
<text text-anchor="middle" x="319.37" y="-446.4" font-family="Helvetica,sans-Serif" font-size="12.00">all_util</text>
</g>
<!-- bc_util&#45;&gt;all_util -->
<g id="edge28" class="edge">
<title>bc_util&#45;&gt;all_util</title>
<path fill="none" stroke="black" d="M301.1,-982.17C286.26,-976.98 269.01,-968.23 259.37,-954 223.31,-900.81 254.36,-873.76 246.37,-810 238.36,-746.13 223.37,-731.37 223.37,-667 223.37,-667 223.37,-667 223.37,-557 223.37,-519.81 256.23,-489.85 283.51,-471.39"/>
<polygon fill="black" stroke="black" points="285.63,-474.19 292.11,-465.81 281.82,-468.31 285.63,-474.19"/>
</g>
<!-- percent_bc_gt_75 -->
<g id="node20" class="node">
<title>percent_bc_gt_75</title>
<path fill="#e1f5fe" stroke="black" d="M372.44,-954C372.44,-954 284.29,-954 284.29,-954 278.29,-954 272.29,-948 272.29,-942 272.29,-942 272.29,-930 272.29,-930 272.29,-924 278.29,-918 284.29,-918 284.29,-918 372.44,-918 372.44,-918 378.44,-918 384.44,-924 384.44,-930 384.44,-930 384.44,-942 384.44,-942 384.44,-948 378.44,-954 372.44,-954"/>
<text text-anchor="middle" x="328.37" y="-932.4" font-family="Helvetica,sans-Serif" font-size="12.00">percent_bc_gt_75</text>
</g>
<!-- bc_util&#45;&gt;percent_bc_gt_75 -->
<g id="edge27" class="edge">
<title>bc_util&#45;&gt;percent_bc_gt_75</title>
<path fill="none" stroke="black" d="M328.37,-971.97C328.37,-969.57 328.37,-967.06 328.37,-964.52"/>
<polygon fill="black" stroke="black" points="331.87,-964.24 328.37,-954.24 324.87,-964.24 331.87,-964.24"/>
</g>
<!-- total_bc_limit -->
<g id="node21" class="node">
<title>total_bc_limit</title>
<path fill="#e1f5fe" stroke="black" d="M414.4,-792C414.4,-792 352.34,-792 352.34,-792 346.34,-792 340.34,-786 340.34,-780 340.34,-780 340.34,-768 340.34,-768 340.34,-762 346.34,-756 352.34,-756 352.34,-756 414.4,-756 414.4,-756 420.4,-756 426.4,-762 426.4,-768 426.4,-768 426.4,-780 426.4,-780 426.4,-786 420.4,-792 414.4,-792"/>
<text text-anchor="middle" x="383.37" y="-770.4" font-family="Helvetica,sans-Serif" font-size="12.00">total_bc_limit</text>
</g>
<!-- bc_util&#45;&gt;total_bc_limit -->
<g id="edge30" class="edge">
<title>bc_util&#45;&gt;total_bc_limit</title>
<path fill="none" stroke="black" d="M355.42,-982.72C370.58,-977.67 388.23,-968.88 397.37,-954 426.37,-906.77 408.33,-838.81 394.61,-801.69"/>
<polygon fill="black" stroke="black" points="397.77,-800.15 390.9,-792.08 391.24,-802.67 397.77,-800.15"/>
</g>
<!-- int_rate% -->
<g id="node14" class="node">
<title>int_rate%</title>
<path fill="#e1f5fe" stroke="black" d="M196.56,-306C196.56,-306 154.17,-306 154.17,-306 148.17,-306 142.17,-300 142.17,-294 142.17,-294 142.17,-282 142.17,-282 142.17,-276 148.17,-270 154.17,-270 154.17,-270 196.56,-270 196.56,-270 202.56,-270 208.56,-276 208.56,-282 208.56,-282 208.56,-294 208.56,-294 208.56,-300 202.56,-306 196.56,-306"/>
<text text-anchor="middle" x="175.37" y="-284.4" font-family="Helvetica,sans-Serif" font-size="12.00">int_rate%</text>
</g>
<!-- grade&#45;&gt;int_rate% -->
<g id="edge31" class="edge">
<title>grade&#45;&gt;int_rate%</title>
<path fill="none" stroke="black" d="M149.99,-917.96C130.2,-898.57 102.37,-864.92 102.37,-829 102.37,-829 102.37,-829 102.37,-395 102.37,-362.51 125.92,-332.72 146.27,-313.06"/>
<polygon fill="black" stroke="black" points="148.9,-315.39 153.86,-306.03 144.14,-310.26 148.9,-315.39"/>
</g>
<!-- binary_loan_status -->
<g id="node15" class="node">
<title>binary_loan_status</title>
<path fill="#e1f5fe" stroke="black" d="M104.6,-306C104.6,-306 12.13,-306 12.13,-306 6.13,-306 0.13,-300 0.13,-294 0.13,-294 0.13,-282 0.13,-282 0.13,-276 6.13,-270 12.13,-270 12.13,-270 104.6,-270 104.6,-270 110.6,-270 116.6,-276 116.6,-282 116.6,-282 116.6,-294 116.6,-294 116.6,-300 110.6,-306 104.6,-306"/>
<text text-anchor="middle" x="58.37" y="-284.4" font-family="Helvetica,sans-Serif" font-size="12.00">binary_loan_status</text>
</g>
<!-- grade&#45;&gt;binary_loan_status -->
<g id="edge33" class="edge">
<title>grade&#45;&gt;binary_loan_status</title>
<path fill="none" stroke="black" d="M142.3,-924.74C107.46,-909.57 51.37,-877.6 51.37,-829 51.37,-829 51.37,-829 51.37,-395 51.37,-368.18 53.63,-337.62 55.58,-316.23"/>
<polygon fill="black" stroke="black" points="59.07,-316.52 56.53,-306.24 52.1,-315.86 59.07,-316.52"/>
</g>
<!-- term -->
<g id="node22" class="node">
<title>term</title>
<path fill="#e1f5fe" stroke="black" d="M195.37,-900C195.37,-900 165.37,-900 165.37,-900 159.37,-900 153.37,-894 153.37,-888 153.37,-888 153.37,-876 153.37,-876 153.37,-870 159.37,-864 165.37,-864 165.37,-864 195.37,-864 195.37,-864 201.37,-864 207.37,-870 207.37,-876 207.37,-876 207.37,-888 207.37,-888 207.37,-894 201.37,-900 195.37,-900"/>
<text text-anchor="middle" x="180.37" y="-878.4" font-family="Helvetica,sans-Serif" font-size="12.00">term</text>
</g>
<!-- grade&#45;&gt;term -->
<g id="edge32" class="edge">
<title>grade&#45;&gt;term</title>
<path fill="none" stroke="black" d="M172.97,-917.97C173.5,-915.49 174.05,-912.87 174.6,-910.24"/>
<polygon fill="black" stroke="black" points="178.07,-910.75 176.72,-900.24 171.23,-909.3 178.07,-910.75"/>
</g>
<!-- time_since_last_payment -->
<g id="node13" class="node">
<title>time_since_last_payment</title>
<path fill="#e1f5fe" stroke="black" d="M179.27,-252C179.27,-252 51.46,-252 51.46,-252 45.46,-252 39.46,-246 39.46,-240 39.46,-240 39.46,-228 39.46,-228 39.46,-222 45.46,-216 51.46,-216 51.46,-216 179.27,-216 179.27,-216 185.27,-216 191.27,-222 191.27,-228 191.27,-228 191.27,-240 191.27,-240 191.27,-246 185.27,-252 179.27,-252"/>
<text text-anchor="middle" x="115.37" y="-230.4" font-family="Helvetica,sans-Serif" font-size="12.00">time_since_last_payment</text>
</g>
<!-- loan_age&#45;&gt;time_since_last_payment -->
<g id="edge15" class="edge">
<title>loan_age&#45;&gt;time_since_last_payment</title>
<path fill="none" stroke="black" d="M244.62,-323.8C242.1,-307.81 236.02,-284.36 221.37,-270 215.25,-264 208.09,-259.03 200.42,-254.91"/>
<polygon fill="black" stroke="black" points="201.74,-251.67 191.22,-250.46 198.69,-257.97 201.74,-251.67"/>
</g>
<!-- loan_age&#45;&gt;int_rate% -->
<g id="edge16" class="edge">
<title>loan_age&#45;&gt;int_rate%</title>
<path fill="none" stroke="black" d="M223.12,-323.97C218.02,-320.24 212.54,-316.23 207.18,-312.3"/>
<polygon fill="black" stroke="black" points="209.05,-309.33 198.91,-306.24 204.91,-314.98 209.05,-309.33"/>
</g>
<!-- loan_age&#45;&gt;binary_loan_status -->
<g id="edge17" class="edge">
<title>loan_age&#45;&gt;binary_loan_status</title>
<path fill="none" stroke="black" d="M213.62,-331.94C189.71,-325.33 156.43,-316.12 126.81,-307.93"/>
<polygon fill="black" stroke="black" points="127.5,-304.49 116.93,-305.2 125.63,-311.24 127.5,-304.49"/>
</g>
<!-- avg_cur_bal -->
<g id="node16" class="node">
<title>avg_cur_bal</title>
<path fill="#e1f5fe" stroke="black" d="M409.25,-630C409.25,-630 351.49,-630 351.49,-630 345.49,-630 339.49,-624 339.49,-618 339.49,-618 339.49,-606 339.49,-606 339.49,-600 345.49,-594 351.49,-594 351.49,-594 409.25,-594 409.25,-594 415.25,-594 421.25,-600 421.25,-606 421.25,-606 421.25,-618 421.25,-618 421.25,-624 415.25,-630 409.25,-630"/>
<text text-anchor="middle" x="380.37" y="-608.4" font-family="Helvetica,sans-Serif" font-size="12.00">avg_cur_bal</text>
</g>
<!-- annual_inc&#45;&gt;avg_cur_bal -->
<g id="edge18" class="edge">
<title>annual_inc&#45;&gt;avg_cur_bal</title>
<path fill="none" stroke="black" d="M380.37,-647.97C380.37,-645.57 380.37,-643.06 380.37,-640.52"/>
<polygon fill="black" stroke="black" points="383.87,-640.24 380.37,-630.24 376.87,-640.24 383.87,-640.24"/>
</g>
<!-- open_act_il -->
<g id="node17" class="node">
<title>open_act_il</title>
<path fill="#e1f5fe" stroke="black" d="M429.25,-522C429.25,-522 375.48,-522 375.48,-522 369.48,-522 363.48,-516 363.48,-510 363.48,-510 363.48,-498 363.48,-498 363.48,-492 369.48,-486 375.48,-486 375.48,-486 429.25,-486 429.25,-486 435.25,-486 441.25,-492 441.25,-498 441.25,-498 441.25,-510 441.25,-510 441.25,-516 435.25,-522 429.25,-522"/>
<text text-anchor="middle" x="402.37" y="-500.4" font-family="Helvetica,sans-Serif" font-size="12.00">open_act_il</text>
</g>
<!-- annual_inc&#45;&gt;open_act_il -->
<g id="edge19" class="edge">
<title>annual_inc&#45;&gt;open_act_il</title>
<path fill="none" stroke="black" d="M348.51,-647.85C340.96,-642.79 333.37,-636.77 327.37,-630 299.66,-598.75 276.1,-573.99 300.37,-540 312.61,-522.86 333.79,-514.03 353.68,-509.51"/>
<polygon fill="black" stroke="black" points="354.47,-512.92 363.61,-507.57 353.12,-506.05 354.47,-512.92"/>
</g>
<!-- dti -->
<g id="node18" class="node">
<title>dti</title>
<path fill="#e1f5fe" stroke="black" d="M487.37,-576C487.37,-576 457.37,-576 457.37,-576 451.37,-576 445.37,-570 445.37,-564 445.37,-564 445.37,-552 445.37,-552 445.37,-546 451.37,-540 457.37,-540 457.37,-540 487.37,-540 487.37,-540 493.37,-540 499.37,-546 499.37,-552 499.37,-552 499.37,-564 499.37,-564 499.37,-570 493.37,-576 487.37,-576"/>
<text text-anchor="middle" x="472.37" y="-554.4" font-family="Helvetica,sans-Serif" font-size="12.00">dti</text>
</g>
<!-- annual_inc&#45;&gt;dti -->
<g id="edge20" class="edge">
<title>annual_inc&#45;&gt;dti</title>
<path fill="none" stroke="black" d="M411.77,-647.87C419.41,-642.77 427.16,-636.73 433.37,-630 445.29,-617.06 454.88,-599.81 461.56,-585.55"/>
<polygon fill="black" stroke="black" points="464.83,-586.81 465.72,-576.25 458.44,-583.95 464.83,-586.81"/>
</g>
<!-- all_util&#45;&gt;open_rv_24m -->
<g id="edge13" class="edge">
<title>all_util&#45;&gt;open_rv_24m</title>
<path fill="none" stroke="black" d="M346.54,-431.97C352.85,-428.02 359.66,-423.76 366.28,-419.61"/>
<polygon fill="black" stroke="black" points="368.51,-422.34 375.13,-414.06 364.8,-416.41 368.51,-422.34"/>
</g>
<!-- all_util&#45;&gt;loan_age -->
<g id="edge12" class="edge">
<title>all_util&#45;&gt;loan_age</title>
<path fill="none" stroke="black" d="M307.64,-431.97C295.9,-414.92 277.67,-388.46 264.15,-368.82"/>
<polygon fill="black" stroke="black" points="266.86,-366.59 258.31,-360.34 261.1,-370.56 266.86,-366.59"/>
</g>
<!-- all_util&#45;&gt;inq_last_12m -->
<g id="edge14" class="edge">
<title>all_util&#45;&gt;inq_last_12m</title>
<path fill="none" stroke="black" d="M325.14,-431.85C337.64,-394.68 367.33,-306.44 382.34,-261.82"/>
<polygon fill="black" stroke="black" points="385.7,-262.83 385.57,-252.23 379.06,-260.59 385.7,-262.83"/>
</g>
<!-- debt_settlement_flag -->
<g id="node25" class="node">
<title>debt_settlement_flag</title>
<path fill="#e1f5fe" stroke="black" d="M167.28,-198C167.28,-198 63.46,-198 63.46,-198 57.46,-198 51.46,-192 51.46,-186 51.46,-186 51.46,-174 51.46,-174 51.46,-168 57.46,-162 63.46,-162 63.46,-162 167.28,-162 167.28,-162 173.28,-162 179.28,-168 179.28,-174 179.28,-174 179.28,-186 179.28,-186 179.28,-192 173.28,-198 167.28,-198"/>
<text text-anchor="middle" x="115.37" y="-176.4" font-family="Helvetica,sans-Serif" font-size="12.00">debt_settlement_flag</text>
</g>
<!-- time_since_last_payment&#45;&gt;debt_settlement_flag -->
<g id="edge40" class="edge">
<title>time_since_last_payment&#45;&gt;debt_settlement_flag</title>
<path fill="none" stroke="black" d="M115.37,-215.97C115.37,-213.57 115.37,-211.06 115.37,-208.52"/>
<polygon fill="black" stroke="black" points="118.87,-208.24 115.37,-198.24 111.87,-208.24 118.87,-208.24"/>
</g>
<!-- binary_loan_status&#45;&gt;time_since_last_payment -->
<g id="edge42" class="edge">
<title>binary_loan_status&#45;&gt;time_since_last_payment</title>
<path fill="none" stroke="black" d="M77.03,-269.97C80.83,-266.51 84.89,-262.8 88.9,-259.14"/>
<polygon fill="black" stroke="black" points="91.44,-261.57 96.47,-252.24 86.72,-256.4 91.44,-261.57"/>
</g>
<!-- binary_loan_status&#45;&gt;debt_settlement_flag -->
<g id="edge41" class="edge">
<title>binary_loan_status&#45;&gt;debt_settlement_flag</title>
<path fill="none" stroke="black" d="M38.79,-269.83C34.15,-264.62 29.84,-258.53 27.37,-252 21.69,-237.04 18.38,-229.24 27.37,-216 31.49,-209.92 36.86,-204.9 42.91,-200.74"/>
<polygon fill="black" stroke="black" points="44.73,-203.73 51.53,-195.61 41.14,-197.72 44.73,-203.73"/>
</g>
<!-- hardship_loan_status -->
<g id="node26" class="node">
<title>hardship_loan_status</title>
<path fill="#e1f5fe" stroke="black" d="M271.45,-144C271.45,-144 165.29,-144 165.29,-144 159.29,-144 153.29,-138 153.29,-132 153.29,-132 153.29,-120 153.29,-120 153.29,-114 159.29,-108 165.29,-108 165.29,-108 271.45,-108 271.45,-108 277.45,-108 283.45,-114 283.45,-120 283.45,-120 283.45,-132 283.45,-132 283.45,-138 277.45,-144 271.45,-144"/>
<text text-anchor="middle" x="218.37" y="-122.4" font-family="Helvetica,sans-Serif" font-size="12.00">hardship_loan_status</text>
</g>
<!-- binary_loan_status&#45;&gt;hardship_loan_status -->
<g id="edge43" class="edge">
<title>binary_loan_status&#45;&gt;hardship_loan_status</title>
<path fill="none" stroke="black" d="M116.82,-272.99C157,-263.34 203.17,-252.22 203.37,-252 226.93,-225.49 226.65,-182.37 223.28,-154.34"/>
<polygon fill="black" stroke="black" points="226.75,-153.82 221.89,-144.4 219.81,-154.79 226.75,-153.82"/>
</g>
<!-- avg_cur_bal&#45;&gt;dti -->
<g id="edge22" class="edge">
<title>avg_cur_bal&#45;&gt;dti</title>
<path fill="none" stroke="black" d="M410.49,-593.97C418.81,-589.27 427.93,-584.12 436.54,-579.25"/>
<polygon fill="black" stroke="black" points="438.3,-582.28 445.28,-574.31 434.85,-576.18 438.3,-582.28"/>
</g>
<!-- home_ownership -->
<g id="node19" class="node">
<title>home_ownership</title>
<path fill="#e1f5fe" stroke="black" d="M408.26,-576C408.26,-576 324.48,-576 324.48,-576 318.48,-576 312.48,-570 312.48,-564 312.48,-564 312.48,-552 312.48,-552 312.48,-546 318.48,-540 324.48,-540 324.48,-540 408.26,-540 408.26,-540 414.26,-540 420.26,-546 420.26,-552 420.26,-552 420.26,-564 420.26,-564 420.26,-570 414.26,-576 408.26,-576"/>
<text text-anchor="middle" x="366.37" y="-554.4" font-family="Helvetica,sans-Serif" font-size="12.00">home_ownership</text>
</g>
<!-- avg_cur_bal&#45;&gt;home_ownership -->
<g id="edge21" class="edge">
<title>avg_cur_bal&#45;&gt;home_ownership</title>
<path fill="none" stroke="black" d="M375.78,-593.97C375.09,-591.4 374.36,-588.69 373.63,-585.96"/>
<polygon fill="black" stroke="black" points="376.99,-584.99 371.01,-576.24 370.23,-586.81 376.99,-584.99"/>
</g>
<!-- open_act_il&#45;&gt;open_rv_24m -->
<g id="edge24" class="edge">
<title>open_act_il&#45;&gt;open_rv_24m</title>
<path fill="none" stroke="black" d="M402.37,-485.97C402.37,-469.38 402.37,-443.88 402.37,-424.43"/>
<polygon fill="black" stroke="black" points="405.87,-424.34 402.37,-414.34 398.87,-424.34 405.87,-424.34"/>
</g>
<!-- open_act_il&#45;&gt;mths_since_recent_bc -->
<g id="edge25" class="edge">
<title>open_act_il&#45;&gt;mths_since_recent_bc</title>
<path fill="none" stroke="black" d="M413.86,-485.82C425.63,-468.05 444.28,-439.4 459.37,-414 468.04,-399.41 477.2,-382.79 484.47,-369.3"/>
<polygon fill="black" stroke="black" points="487.75,-370.58 489.39,-360.11 481.58,-367.27 487.75,-370.58"/>
</g>
<!-- open_act_il&#45;&gt;all_util -->
<g id="edge23" class="edge">
<title>open_act_il&#45;&gt;all_util</title>
<path fill="none" stroke="black" d="M375.19,-485.97C368.88,-482.02 362.08,-477.76 355.45,-473.61"/>
<polygon fill="black" stroke="black" points="356.94,-470.41 346.61,-468.06 353.22,-476.34 356.94,-470.41"/>
</g>
<!-- dti&#45;&gt;open_act_il -->
<g id="edge26" class="edge">
<title>dti&#45;&gt;open_act_il</title>
<path fill="none" stroke="black" d="M449.45,-539.97C444.42,-536.24 439.02,-532.23 433.73,-528.3"/>
<polygon fill="black" stroke="black" points="435.69,-525.4 425.58,-522.24 431.52,-531.02 435.69,-525.4"/>
</g>
<!-- total_bc_limit&#45;&gt;total_rev_hi_lim -->
<g id="edge34" class="edge">
<title>total_bc_limit&#45;&gt;total_rev_hi_lim</title>
<path fill="none" stroke="black" d="M383.37,-755.97C383.37,-753.57 383.37,-751.06 383.37,-748.52"/>
<polygon fill="black" stroke="black" points="386.87,-748.24 383.37,-738.24 379.87,-748.24 386.87,-748.24"/>
</g>
<!-- funded_amnt -->
<g id="node23" class="node">
<title>funded_amnt</title>
<path fill="#e1f5fe" stroke="black" d="M221.42,-846C221.42,-846 159.31,-846 159.31,-846 153.31,-846 147.31,-840 147.31,-834 147.31,-834 147.31,-822 147.31,-822 147.31,-816 153.31,-810 159.31,-810 159.31,-810 221.42,-810 221.42,-810 227.42,-810 233.42,-816 233.42,-822 233.42,-822 233.42,-834 233.42,-834 233.42,-840 227.42,-846 221.42,-846"/>
<text text-anchor="middle" x="190.37" y="-824.4" font-family="Helvetica,sans-Serif" font-size="12.00">funded_amnt</text>
</g>
<!-- term&#45;&gt;funded_amnt -->
<g id="edge46" class="edge">
<title>term&#45;&gt;funded_amnt</title>
<path fill="none" stroke="black" d="M183.64,-863.97C184.12,-861.49 184.62,-858.87 185.13,-856.24"/>
<polygon fill="black" stroke="black" points="188.6,-856.72 187.05,-846.24 181.73,-855.4 188.6,-856.72"/>
</g>
<!-- funded_amnt&#45;&gt;annual_inc -->
<g id="edge35" class="edge">
<title>funded_amnt&#45;&gt;annual_inc</title>
<path fill="none" stroke="black" d="M205.66,-809.9C228.88,-784.5 275.15,-736.16 320.37,-702 326.19,-697.6 332.61,-693.33 339.02,-689.37"/>
<polygon fill="black" stroke="black" points="340.92,-692.31 347.7,-684.17 337.32,-686.3 340.92,-692.31"/>
</g>
<!-- funded_amnt&#45;&gt;total_bc_limit -->
<g id="edge36" class="edge">
<title>funded_amnt&#45;&gt;total_bc_limit</title>
<path fill="none" stroke="black" d="M233.68,-815.33C262.24,-807.64 299.83,-797.51 330.2,-789.32"/>
<polygon fill="black" stroke="black" points="331.45,-792.61 340.2,-786.63 329.63,-785.85 331.45,-792.61"/>
</g>
<!-- purpose -->
<g id="node24" class="node">
<title>purpose</title>
<path fill="#e1f5fe" stroke="black" d="M188.23,-792C188.23,-792 152.5,-792 152.5,-792 146.5,-792 140.5,-786 140.5,-780 140.5,-780 140.5,-768 140.5,-768 140.5,-762 146.5,-756 152.5,-756 152.5,-756 188.23,-756 188.23,-756 194.23,-756 200.23,-762 200.23,-768 200.23,-768 200.23,-780 200.23,-780 200.23,-786 194.23,-792 188.23,-792"/>
<text text-anchor="middle" x="170.37" y="-770.4" font-family="Helvetica,sans-Serif" font-size="12.00">purpose</text>
</g>
<!-- funded_amnt&#45;&gt;purpose -->
<g id="edge37" class="edge">
<title>funded_amnt&#45;&gt;purpose</title>
<path fill="none" stroke="black" d="M183.82,-809.97C182.79,-807.31 181.71,-804.5 180.63,-801.68"/>
<polygon fill="black" stroke="black" points="183.86,-800.32 177,-792.24 177.32,-802.83 183.86,-800.32"/>
</g>
<!-- debt_settlement_flag&#45;&gt;hardship_loan_status -->
<g id="edge44" class="edge">
<title>debt_settlement_flag&#45;&gt;hardship_loan_status</title>
<path fill="none" stroke="black" d="M149.09,-161.97C157.54,-157.71 166.72,-153.08 175.54,-148.62"/>
<polygon fill="black" stroke="black" points="177.22,-151.7 184.57,-144.06 174.06,-145.45 177.22,-151.7"/>
</g>
<!-- hardship_type -->
<g id="node27" class="node">
<title>hardship_type</title>
<path fill="#e1f5fe" stroke="black" d="M168.25,-90C168.25,-90 100.48,-90 100.48,-90 94.48,-90 88.48,-84 88.48,-78 88.48,-78 88.48,-66 88.48,-66 88.48,-60 94.48,-54 100.48,-54 100.48,-54 168.25,-54 168.25,-54 174.25,-54 180.25,-60 180.25,-66 180.25,-66 180.25,-78 180.25,-78 180.25,-84 174.25,-90 168.25,-90"/>
<text text-anchor="middle" x="134.37" y="-68.4" font-family="Helvetica,sans-Serif" font-size="12.00">hardship_type</text>
</g>
<!-- debt_settlement_flag&#45;&gt;hardship_type -->
<g id="edge45" class="edge">
<title>debt_settlement_flag&#45;&gt;hardship_type</title>
<path fill="none" stroke="black" d="M118.42,-161.97C121.39,-145.38 125.96,-119.88 129.45,-100.43"/>
<polygon fill="black" stroke="black" points="132.94,-100.8 131.26,-90.34 126.05,-99.57 132.94,-100.8"/>
</g>
<!-- hardship_loan_status&#45;&gt;hardship_type -->
<g id="edge49" class="edge">
<title>hardship_loan_status&#45;&gt;hardship_type</title>
<path fill="none" stroke="black" d="M190.86,-107.97C184.48,-104.02 177.59,-99.76 170.89,-95.61"/>
<polygon fill="black" stroke="black" points="172.28,-92.35 161.93,-90.06 168.59,-98.3 172.28,-92.35"/>
</g>
<!-- hardship_status -->
<g id="node28" class="node">
<title>hardship_status</title>
<path fill="#e1f5fe" stroke="black" d="M214.59,-36C214.59,-36 138.15,-36 138.15,-36 132.15,-36 126.15,-30 126.15,-24 126.15,-24 126.15,-12 126.15,-12 126.15,-6 132.15,0 138.15,0 138.15,0 214.59,0 214.59,0 220.59,0 226.59,-6 226.59,-12 226.59,-12 226.59,-24 226.59,-24 226.59,-30 220.59,-36 214.59,-36"/>
<text text-anchor="middle" x="176.37" y="-14.4" font-family="Helvetica,sans-Serif" font-size="12.00">hardship_status</text>
</g>
<!-- hardship_loan_status&#45;&gt;hardship_status -->
<g id="edge48" class="edge">
<title>hardship_loan_status&#45;&gt;hardship_status</title>
<path fill="none" stroke="black" d="M212.54,-107.93C207.49,-93.46 199.85,-72.21 192.37,-54 191.25,-51.28 190.04,-48.45 188.81,-45.65"/>
<polygon fill="black" stroke="black" points="191.91,-44.01 184.61,-36.33 185.53,-46.89 191.91,-44.01"/>
</g>
<!-- hardship_type&#45;&gt;hardship_status -->
<g id="edge47" class="edge">
<title>hardship_type&#45;&gt;hardship_status</title>
<path fill="none" stroke="black" d="M148.12,-53.97C150.63,-50.86 153.3,-47.56 155.96,-44.27"/>
<polygon fill="black" stroke="black" points="158.88,-46.22 162.44,-36.24 153.43,-41.82 158.88,-46.22"/>
</g>
</g>
</svg>
