<?xml version="1.0" encoding="UTF-8" standalone="no"?>
<!DOCTYPE svg PUBLIC "-//W3C//DTD SVG 1.1//EN"
 "http://www.w3.org/Graphics/SVG/1.1/DTD/svg11.dtd">
<!-- Generated by graphviz version 2.50.0 (0)
 -->
<!-- Pages: 1 -->
<svg width="576pt" height="90pt"
 viewBox="0.00 0.00 576.00 90.39" xmlns="http://www.w3.org/2000/svg" xmlns:xlink="http://www.w3.org/1999/xlink">
<g id="graph0" class="graph" transform="scale(0.44 0.44) rotate(0) translate(4 202)">
<polygon fill="white" stroke="transparent" points="-4,4 -4,-202 1308.74,-202 1308.74,4 -4,4"/>
<!-- loan_age -->
<g id="node1" class="node">
<title>loan_age</title>
<path fill="#e1f5fe" stroke="black" d="M215.92,-90C215.92,-90 174.15,-90 174.15,-90 168.15,-90 162.15,-84 162.15,-78 162.15,-78 162.15,-66 162.15,-66 162.15,-60 168.15,-54 174.15,-54 174.15,-54 215.92,-54 215.92,-54 221.92,-54 227.92,-60 227.92,-66 227.92,-66 227.92,-78 227.92,-78 227.92,-84 221.92,-90 215.92,-90"/>
<text text-anchor="middle" x="195.04" y="-68.4" font-family="Helvetica,sans-Serif" font-size="12.00">loan_age</text>
</g>
<!-- all_util -->
<g id="node2" class="node">
<title>all_util</title>
<path fill="#e1f5fe" stroke="black" d="M168.04,-36C168.04,-36 138.04,-36 138.04,-36 132.04,-36 126.04,-30 126.04,-24 126.04,-24 126.04,-12 126.04,-12 126.04,-6 132.04,0 138.04,0 138.04,0 168.04,0 168.04,0 174.04,0 180.04,-6 180.04,-12 180.04,-12 180.04,-24 180.04,-24 180.04,-30 174.04,-36 168.04,-36"/>
<text text-anchor="middle" x="153.04" y="-14.4" font-family="Helvetica,sans-Serif" font-size="12.00">all_util</text>
</g>
<!-- loan_age&#45;&gt;all_util -->
<g id="edge1" class="edge">
<title>loan_age&#45;&gt;all_util</title>
<path fill="none" stroke="black" d="M181.29,-53.97C178.77,-50.86 176.1,-47.56 173.45,-44.27"/>
<polygon fill="black" stroke="black" points="175.97,-41.82 166.97,-36.24 170.53,-46.22 175.97,-41.82"/>
</g>
<!-- open_rv_24m -->
<g id="node3" class="node">
<title>open_rv_24m</title>
<path fill="#e1f5fe" stroke="black" d="M361.92,-36C361.92,-36 296.15,-36 296.15,-36 290.15,-36 284.15,-30 284.15,-24 284.15,-24 284.15,-12 284.15,-12 284.15,-6 290.15,0 296.15,0 296.15,0 361.92,0 361.92,0 367.92,0 373.92,-6 373.92,-12 373.92,-12 373.92,-24 373.92,-24 373.92,-30 367.92,-36 361.92,-36"/>
<text text-anchor="middle" x="329.04" y="-14.4" font-family="Helvetica,sans-Serif" font-size="12.00">open_rv_24m</text>
</g>
<!-- loan_age&#45;&gt;open_rv_24m -->
<g id="edge2" class="edge">
<title>loan_age&#45;&gt;open_rv_24m</title>
<path fill="none" stroke="black" d="M227.82,-58.28C242.26,-52.67 259.61,-45.94 275.82,-39.65"/>
<polygon fill="black" stroke="black" points="277.16,-42.89 285.21,-36.01 274.62,-36.36 277.16,-42.89"/>
</g>
<!-- acc_open_past_24mths -->
<g id="node4" class="node">
<title>acc_open_past_24mths</title>
<path fill="#e1f5fe" stroke="black" d="M495.96,-90C495.96,-90 376.11,-90 376.11,-90 370.11,-90 364.11,-84 364.11,-78 364.11,-78 364.11,-66 364.11,-66 364.11,-60 370.11,-54 376.11,-54 376.11,-54 495.96,-54 495.96,-54 501.96,-54 507.96,-60 507.96,-66 507.96,-66 507.96,-78 507.96,-78 507.96,-84 501.96,-90 495.96,-90"/>
<text text-anchor="middle" x="436.04" y="-68.4" font-family="Helvetica,sans-Serif" font-size="12.00">acc_open_past_24mths</text>
</g>
<!-- acc_open_past_24mths&#45;&gt;open_rv_24m -->
<g id="edge4" class="edge">
<title>acc_open_past_24mths&#45;&gt;open_rv_24m</title>
<path fill="none" stroke="black" d="M401,-53.97C392.13,-49.66 382.49,-44.98 373.24,-40.48"/>
<polygon fill="black" stroke="black" points="374.68,-37.29 364.15,-36.06 371.62,-43.58 374.68,-37.29"/>
</g>
<!-- mths_since_recent_bc -->
<g id="node5" class="node">
<title>mths_since_recent_bc</title>
<path fill="#e1f5fe" stroke="black" d="M547.1,-36C547.1,-36 434.97,-36 434.97,-36 428.97,-36 422.97,-30 422.97,-24 422.97,-24 422.97,-12 422.97,-12 422.97,-6 428.97,0 434.97,0 434.97,0 547.1,0 547.1,0 553.1,0 559.1,-6 559.1,-12 559.1,-12 559.1,-24 559.1,-24 559.1,-30 553.1,-36 547.1,-36"/>
<text text-anchor="middle" x="491.04" y="-14.4" font-family="Helvetica,sans-Serif" font-size="12.00">mths_since_recent_bc</text>
</g>
<!-- acc_open_past_24mths&#45;&gt;mths_since_recent_bc -->
<g id="edge3" class="edge">
<title>acc_open_past_24mths&#45;&gt;mths_since_recent_bc</title>
<path fill="none" stroke="black" d="M454.05,-53.97C457.71,-50.51 461.63,-46.8 465.5,-43.14"/>
<polygon fill="black" stroke="black" points="467.94,-45.66 472.8,-36.24 463.13,-40.57 467.94,-45.66"/>
</g>
<!-- avg_cur_bal -->
<g id="node6" class="node">
<title>avg_cur_bal</title>
<path fill="#e1f5fe" stroke="black" d="M608.92,-198C608.92,-198 551.16,-198 551.16,-198 545.16,-198 539.16,-192 539.16,-186 539.16,-186 539.16,-174 539.16,-174 539.16,-168 545.16,-162 551.16,-162 551.16,-162 608.92,-162 608.92,-162 614.92,-162 620.92,-168 620.92,-174 620.92,-174 620.92,-186 620.92,-186 620.92,-192 614.92,-198 608.92,-198"/>
<text text-anchor="middle" x="580.04" y="-176.4" font-family="Helvetica,sans-Serif" font-size="12.00">avg_cur_bal</text>
</g>
<!-- home_ownership -->
<g id="node7" class="node">
<title>home_ownership</title>
<path fill="#e1f5fe" stroke="black" d="M621.93,-144C621.93,-144 538.15,-144 538.15,-144 532.15,-144 526.15,-138 526.15,-132 526.15,-132 526.15,-120 526.15,-120 526.15,-114 532.15,-108 538.15,-108 538.15,-108 621.93,-108 621.93,-108 627.93,-108 633.93,-114 633.93,-120 633.93,-120 633.93,-132 633.93,-132 633.93,-138 627.93,-144 621.93,-144"/>
<text text-anchor="middle" x="580.04" y="-122.4" font-family="Helvetica,sans-Serif" font-size="12.00">home_ownership</text>
</g>
<!-- avg_cur_bal&#45;&gt;home_ownership -->
<g id="edge5" class="edge">
<title>avg_cur_bal&#45;&gt;home_ownership</title>
<path fill="none" stroke="black" d="M580.04,-161.97C580.04,-159.57 580.04,-157.06 580.04,-154.52"/>
<polygon fill="black" stroke="black" points="583.54,-154.24 580.04,-144.24 576.54,-154.24 583.54,-154.24"/>
</g>
<!-- total_bc_limit -->
<g id="node8" class="node">
<title>total_bc_limit</title>
<path fill="#e1f5fe" stroke="black" d="M796.07,-198C796.07,-198 734.01,-198 734.01,-198 728.01,-198 722.01,-192 722.01,-186 722.01,-186 722.01,-174 722.01,-174 722.01,-168 728.01,-162 734.01,-162 734.01,-162 796.07,-162 796.07,-162 802.07,-162 808.07,-168 808.07,-174 808.07,-174 808.07,-186 808.07,-186 808.07,-192 802.07,-198 796.07,-198"/>
<text text-anchor="middle" x="765.04" y="-176.4" font-family="Helvetica,sans-Serif" font-size="12.00">total_bc_limit</text>
</g>
<!-- total_rev_hi_lim -->
<g id="node9" class="node">
<title>total_rev_hi_lim</title>
<path fill="#e1f5fe" stroke="black" d="M747.08,-144C747.08,-144 671,-144 671,-144 665,-144 659,-138 659,-132 659,-132 659,-120 659,-120 659,-114 665,-108 671,-108 671,-108 747.08,-108 747.08,-108 753.08,-108 759.08,-114 759.08,-120 759.08,-120 759.08,-132 759.08,-132 759.08,-138 753.08,-144 747.08,-144"/>
<text text-anchor="middle" x="709.04" y="-122.4" font-family="Helvetica,sans-Serif" font-size="12.00">total_rev_hi_lim</text>
</g>
<!-- total_bc_limit&#45;&gt;total_rev_hi_lim -->
<g id="edge6" class="edge">
<title>total_bc_limit&#45;&gt;total_rev_hi_lim</title>
<path fill="none" stroke="black" d="M746.7,-161.97C742.97,-158.51 738.98,-154.8 735.04,-151.14"/>
<polygon fill="black" stroke="black" points="737.32,-148.48 727.61,-144.24 732.55,-153.61 737.32,-148.48"/>
</g>
<!-- annual_inc -->
<g id="node10" class="node">
<title>annual_inc</title>
<path fill="#e1f5fe" stroke="black" d="M846.09,-144C846.09,-144 795.99,-144 795.99,-144 789.99,-144 783.99,-138 783.99,-132 783.99,-132 783.99,-120 783.99,-120 783.99,-114 789.99,-108 795.99,-108 795.99,-108 846.09,-108 846.09,-108 852.09,-108 858.09,-114 858.09,-120 858.09,-120 858.09,-132 858.09,-132 858.09,-138 852.09,-144 846.09,-144"/>
<text text-anchor="middle" x="821.04" y="-122.4" font-family="Helvetica,sans-Serif" font-size="12.00">annual_inc</text>
</g>
<!-- total_bc_limit&#45;&gt;annual_inc -->
<g id="edge7" class="edge">
<title>total_bc_limit&#45;&gt;annual_inc</title>
<path fill="none" stroke="black" d="M783.37,-161.97C787.11,-158.51 791.1,-154.8 795.04,-151.14"/>
<polygon fill="black" stroke="black" points="797.52,-153.61 802.47,-144.24 792.76,-148.48 797.52,-153.61"/>
</g>
<!-- num_tl_op_past_12m -->
<g id="node11" class="node">
<title>num_tl_op_past_12m</title>
<path fill="#e1f5fe" stroke="black" d="M489.95,-144C489.95,-144 382.13,-144 382.13,-144 376.13,-144 370.13,-138 370.13,-132 370.13,-132 370.13,-120 370.13,-120 370.13,-114 376.13,-108 382.13,-108 382.13,-108 489.95,-108 489.95,-108 495.95,-108 501.95,-114 501.95,-120 501.95,-120 501.95,-132 501.95,-132 501.95,-138 495.95,-144 489.95,-144"/>
<text text-anchor="middle" x="436.04" y="-122.4" font-family="Helvetica,sans-Serif" font-size="12.00">num_tl_op_past_12m</text>
</g>
<!-- num_tl_op_past_12m&#45;&gt;acc_open_past_24mths -->
<g id="edge10" class="edge">
<title>num_tl_op_past_12m&#45;&gt;acc_open_past_24mths</title>
<path fill="none" stroke="black" d="M436.04,-107.97C436.04,-105.57 436.04,-103.06 436.04,-100.52"/>
<polygon fill="black" stroke="black" points="439.54,-100.24 436.04,-90.24 432.54,-100.24 439.54,-100.24"/>
</g>
<!-- num_tl_op_past_12m&#45;&gt;mths_since_recent_bc -->
<g id="edge9" class="edge">
<title>num_tl_op_past_12m&#45;&gt;mths_since_recent_bc</title>
<path fill="none" stroke="black" d="M500.75,-107.77C508.35,-103.18 515.13,-97.36 520.04,-90 528.91,-76.69 525.46,-69.05 520.04,-54 518.85,-50.71 517.21,-47.51 515.3,-44.46"/>
<polygon fill="black" stroke="black" points="518.1,-42.37 509.37,-36.36 512.45,-46.5 518.1,-42.37"/>
</g>
<!-- inq_last_12m -->
<g id="node12" class="node">
<title>inq_last_12m</title>
<path fill="#e1f5fe" stroke="black" d="M327.92,-90C327.92,-90 264.16,-90 264.16,-90 258.16,-90 252.16,-84 252.16,-78 252.16,-78 252.16,-66 252.16,-66 252.16,-60 258.16,-54 264.16,-54 264.16,-54 327.92,-54 327.92,-54 333.92,-54 339.92,-60 339.92,-66 339.92,-66 339.92,-78 339.92,-78 339.92,-84 333.92,-90 327.92,-90"/>
<text text-anchor="middle" x="296.04" y="-68.4" font-family="Helvetica,sans-Serif" font-size="12.00">inq_last_12m</text>
</g>
<!-- num_tl_op_past_12m&#45;&gt;inq_last_12m -->
<g id="edge8" class="edge">
<title>num_tl_op_past_12m&#45;&gt;inq_last_12m</title>
<path fill="none" stroke="black" d="M390.2,-107.97C377.23,-103.16 363.01,-97.88 349.64,-92.91"/>
<polygon fill="black" stroke="black" points="350.67,-89.56 340.08,-89.36 348.23,-96.12 350.67,-89.56"/>
</g>
<!-- term -->
<g id="node13" class="node">
<title>term</title>
<path fill="#e1f5fe" stroke="black" d="M941.04,-198C941.04,-198 911.04,-198 911.04,-198 905.04,-198 899.04,-192 899.04,-186 899.04,-186 899.04,-174 899.04,-174 899.04,-168 905.04,-162 911.04,-162 911.04,-162 941.04,-162 941.04,-162 947.04,-162 953.04,-168 953.04,-174 953.04,-174 953.04,-186 953.04,-186 953.04,-192 947.04,-198 941.04,-198"/>
<text text-anchor="middle" x="926.04" y="-176.4" font-family="Helvetica,sans-Serif" font-size="12.00">term</text>
</g>
<!-- funded_amnt -->
<g id="node14" class="node">
<title>funded_amnt</title>
<path fill="#e1f5fe" stroke="black" d="M957.09,-144C957.09,-144 894.98,-144 894.98,-144 888.98,-144 882.98,-138 882.98,-132 882.98,-132 882.98,-120 882.98,-120 882.98,-114 888.98,-108 894.98,-108 894.98,-108 957.09,-108 957.09,-108 963.09,-108 969.09,-114 969.09,-120 969.09,-120 969.09,-132 969.09,-132 969.09,-138 963.09,-144 957.09,-144"/>
<text text-anchor="middle" x="926.04" y="-122.4" font-family="Helvetica,sans-Serif" font-size="12.00">funded_amnt</text>
</g>
<!-- term&#45;&gt;funded_amnt -->
<g id="edge11" class="edge">
<title>term&#45;&gt;funded_amnt</title>
<path fill="none" stroke="black" d="M926.04,-161.97C926.04,-159.57 926.04,-157.06 926.04,-154.52"/>
<polygon fill="black" stroke="black" points="929.54,-154.24 926.04,-144.24 922.54,-154.24 929.54,-154.24"/>
</g>
<!-- bc_util -->
<g id="node15" class="node">
<title>bc_util</title>
<path fill="#e1f5fe" stroke="black" d="M107.04,-90C107.04,-90 77.04,-90 77.04,-90 71.04,-90 65.04,-84 65.04,-78 65.04,-78 65.04,-66 65.04,-66 65.04,-60 71.04,-54 77.04,-54 77.04,-54 107.04,-54 107.04,-54 113.04,-54 119.04,-60 119.04,-66 119.04,-66 119.04,-78 119.04,-78 119.04,-84 113.04,-90 107.04,-90"/>
<text text-anchor="middle" x="92.04" y="-68.4" font-family="Helvetica,sans-Serif" font-size="12.00">bc_util</text>
</g>
<!-- bc_util&#45;&gt;all_util -->
<g id="edge12" class="edge">
<title>bc_util&#45;&gt;all_util</title>
<path fill="none" stroke="black" d="M112.01,-53.97C116.18,-50.42 120.65,-46.61 125.05,-42.86"/>
<polygon fill="black" stroke="black" points="127.47,-45.39 132.81,-36.24 122.93,-40.07 127.47,-45.39"/>
</g>
<!-- dti -->
<g id="node16" class="node">
<title>dti</title>
<path fill="#e1f5fe" stroke="black" d="M1048.04,-198C1048.04,-198 1018.04,-198 1018.04,-198 1012.04,-198 1006.04,-192 1006.04,-186 1006.04,-186 1006.04,-174 1006.04,-174 1006.04,-168 1012.04,-162 1018.04,-162 1018.04,-162 1048.04,-162 1048.04,-162 1054.04,-162 1060.04,-168 1060.04,-174 1060.04,-174 1060.04,-186 1060.04,-186 1060.04,-192 1054.04,-198 1048.04,-198"/>
<text text-anchor="middle" x="1033.04" y="-176.4" font-family="Helvetica,sans-Serif" font-size="12.00">dti</text>
</g>
<!-- open_act_il -->
<g id="node17" class="node">
<title>open_act_il</title>
<path fill="#e1f5fe" stroke="black" d="M1059.92,-144C1059.92,-144 1006.15,-144 1006.15,-144 1000.15,-144 994.15,-138 994.15,-132 994.15,-132 994.15,-120 994.15,-120 994.15,-114 1000.15,-108 1006.15,-108 1006.15,-108 1059.92,-108 1059.92,-108 1065.92,-108 1071.92,-114 1071.92,-120 1071.92,-120 1071.92,-132 1071.92,-132 1071.92,-138 1065.92,-144 1059.92,-144"/>
<text text-anchor="middle" x="1033.04" y="-122.4" font-family="Helvetica,sans-Serif" font-size="12.00">open_act_il</text>
</g>
<!-- dti&#45;&gt;open_act_il -->
<g id="edge13" class="edge">
<title>dti&#45;&gt;open_act_il</title>
<path fill="none" stroke="black" d="M1033.04,-161.97C1033.04,-159.57 1033.04,-157.06 1033.04,-154.52"/>
<polygon fill="black" stroke="black" points="1036.54,-154.24 1033.04,-144.24 1029.54,-154.24 1036.54,-154.24"/>
</g>
<!-- time_since_last_payment -->
<g id="node18" class="node">
<title>time_since_last_payment</title>
<path fill="#e1f5fe" stroke="black" d="M276.94,-144C276.94,-144 149.13,-144 149.13,-144 143.13,-144 137.13,-138 137.13,-132 137.13,-132 137.13,-120 137.13,-120 137.13,-114 143.13,-108 149.13,-108 149.13,-108 276.94,-108 276.94,-108 282.94,-108 288.94,-114 288.94,-120 288.94,-120 288.94,-132 288.94,-132 288.94,-138 282.94,-144 276.94,-144"/>
<text text-anchor="middle" x="213.04" y="-122.4" font-family="Helvetica,sans-Serif" font-size="12.00">time_since_last_payment</text>
</g>
<!-- time_since_last_payment&#45;&gt;loan_age -->
<g id="edge14" class="edge">
<title>time_since_last_payment&#45;&gt;loan_age</title>
<path fill="none" stroke="black" d="M207.14,-107.97C206.25,-105.4 205.31,-102.69 204.37,-99.96"/>
<polygon fill="black" stroke="black" points="207.59,-98.55 201.01,-90.24 200.97,-100.84 207.59,-98.55"/>
</g>
<!-- int_rate% -->
<g id="node19" class="node">
<title>int_rate%</title>
<path fill="#e1f5fe" stroke="black" d="M1145.23,-198C1145.23,-198 1102.84,-198 1102.84,-198 1096.84,-198 1090.84,-192 1090.84,-186 1090.84,-186 1090.84,-174 1090.84,-174 1090.84,-168 1096.84,-162 1102.84,-162 1102.84,-162 1145.23,-162 1145.23,-162 1151.23,-162 1157.23,-168 1157.23,-174 1157.23,-174 1157.23,-186 1157.23,-186 1157.23,-192 1151.23,-198 1145.23,-198"/>
<text text-anchor="middle" x="1124.04" y="-176.4" font-family="Helvetica,sans-Serif" font-size="12.00">int_rate%</text>
</g>
<!-- grade -->
<g id="node20" class="node">
<title>grade</title>
<path fill="#e1f5fe" stroke="black" d="M1139.04,-144C1139.04,-144 1109.04,-144 1109.04,-144 1103.04,-144 1097.04,-138 1097.04,-132 1097.04,-132 1097.04,-120 1097.04,-120 1097.04,-114 1103.04,-108 1109.04,-108 1109.04,-108 1139.04,-108 1139.04,-108 1145.04,-108 1151.04,-114 1151.04,-120 1151.04,-120 1151.04,-132 1151.04,-132 1151.04,-138 1145.04,-144 1139.04,-144"/>
<text text-anchor="middle" x="1124.04" y="-122.4" font-family="Helvetica,sans-Serif" font-size="12.00">grade</text>
</g>
<!-- int_rate%&#45;&gt;grade -->
<g id="edge15" class="edge">
<title>int_rate%&#45;&gt;grade</title>
<path fill="none" stroke="black" d="M1124.04,-161.97C1124.04,-159.57 1124.04,-157.06 1124.04,-154.52"/>
<polygon fill="black" stroke="black" points="1127.54,-154.24 1124.04,-144.24 1120.54,-154.24 1127.54,-154.24"/>
</g>
<!-- mths_since_recent_inq -->
<g id="node21" class="node">
<title>mths_since_recent_inq</title>
<path fill="#e1f5fe" stroke="black" d="M493.94,-198C493.94,-198 378.13,-198 378.13,-198 372.13,-198 366.13,-192 366.13,-186 366.13,-186 366.13,-174 366.13,-174 366.13,-168 372.13,-162 378.13,-162 378.13,-162 493.94,-162 493.94,-162 499.94,-162 505.94,-168 505.94,-174 505.94,-174 505.94,-186 505.94,-186 505.94,-192 499.94,-198 493.94,-198"/>
<text text-anchor="middle" x="436.04" y="-176.4" font-family="Helvetica,sans-Serif" font-size="12.00">mths_since_recent_inq</text>
</g>
<!-- mths_since_recent_inq&#45;&gt;num_tl_op_past_12m -->
<g id="edge16" class="edge">
<title>mths_since_recent_inq&#45;&gt;num_tl_op_past_12m</title>
<path fill="none" stroke="black" d="M436.04,-161.97C436.04,-159.57 436.04,-157.06 436.04,-154.52"/>
<polygon fill="black" stroke="black" points="439.54,-154.24 436.04,-144.24 432.54,-154.24 439.54,-154.24"/>
</g>
<!-- percent_bc_gt_75 -->
<g id="node22" class="node">
<title>percent_bc_gt_75</title>
<path fill="#e1f5fe" stroke="black" d="M100.11,-144C100.11,-144 11.96,-144 11.96,-144 5.96,-144 -0.04,-138 -0.04,-132 -0.04,-132 -0.04,-120 -0.04,-120 -0.04,-114 5.96,-108 11.96,-108 11.96,-108 100.11,-108 100.11,-108 106.11,-108 112.11,-114 112.11,-120 112.11,-120 112.11,-132 112.11,-132 112.11,-138 106.11,-144 100.11,-144"/>
<text text-anchor="middle" x="56.04" y="-122.4" font-family="Helvetica,sans-Serif" font-size="12.00">percent_bc_gt_75</text>
</g>
<!-- percent_bc_gt_75&#45;&gt;bc_util -->
<g id="edge17" class="edge">
<title>percent_bc_gt_75&#45;&gt;bc_util</title>
<path fill="none" stroke="black" d="M67.83,-107.97C69.92,-104.95 72.14,-101.75 74.35,-98.55"/>
<polygon fill="black" stroke="black" points="77.29,-100.46 80.1,-90.24 71.53,-96.47 77.29,-100.46"/>
</g>
<!-- binary_loan_status -->
<g id="node23" class="node">
<title>binary_loan_status</title>
<path fill="#e1f5fe" stroke="black" d="M1287.27,-198C1287.27,-198 1194.8,-198 1194.8,-198 1188.8,-198 1182.8,-192 1182.8,-186 1182.8,-186 1182.8,-174 1182.8,-174 1182.8,-168 1188.8,-162 1194.8,-162 1194.8,-162 1287.27,-162 1287.27,-162 1293.27,-162 1299.27,-168 1299.27,-174 1299.27,-174 1299.27,-186 1299.27,-186 1299.27,-192 1293.27,-198 1287.27,-198"/>
<text text-anchor="middle" x="1241.04" y="-176.4" font-family="Helvetica,sans-Serif" font-size="12.00">binary_loan_status</text>
</g>
<!-- debt_settlement_flag -->
<g id="node24" class="node">
<title>debt_settlement_flag</title>
<path fill="#e1f5fe" stroke="black" d="M1292.95,-144C1292.95,-144 1189.13,-144 1189.13,-144 1183.13,-144 1177.13,-138 1177.13,-132 1177.13,-132 1177.13,-120 1177.13,-120 1177.13,-114 1183.13,-108 1189.13,-108 1189.13,-108 1292.95,-108 1292.95,-108 1298.95,-108 1304.95,-114 1304.95,-120 1304.95,-120 1304.95,-132 1304.95,-132 1304.95,-138 1298.95,-144 1292.95,-144"/>
<text text-anchor="middle" x="1241.04" y="-122.4" font-family="Helvetica,sans-Serif" font-size="12.00">debt_settlement_flag</text>
</g>
<!-- binary_loan_status&#45;&gt;debt_settlement_flag -->
<g id="edge18" class="edge">
<title>binary_loan_status&#45;&gt;debt_settlement_flag</title>
<path fill="none" stroke="black" d="M1241.04,-161.97C1241.04,-159.57 1241.04,-157.06 1241.04,-154.52"/>
<polygon fill="black" stroke="black" points="1244.54,-154.24 1241.04,-144.24 1237.54,-154.24 1244.54,-154.24"/>
</g>
</g>
</svg>
