<?xml version="1.0" encoding="UTF-8" standalone="no"?>
<!DOCTYPE svg PUBLIC "-//W3C//DTD SVG 1.1//EN"
 "http://www.w3.org/Graphics/SVG/1.1/DTD/svg11.dtd">
<!-- Generated by graphviz version 2.50.0 (0)
 -->
<!-- Pages: 1 -->
<svg width="576pt" height="708pt"
 viewBox="0.00 0.00 576.00 708.09" xmlns="http://www.w3.org/2000/svg" xmlns:xlink="http://www.w3.org/1999/xlink">
<g id="graph0" class="graph" transform="scale(0.83 0.83) rotate(0) translate(4 850)">
<polygon fill="white" stroke="transparent" points="-4,4 -4,-850 690.69,-850 690.69,4 -4,4"/>
<!-- acc_open_past_24mths -->
<g id="node1" class="node">
<title>acc_open_past_24mths</title>
<path fill="#e1f5fe" stroke="black" d="M368.92,-846C368.92,-846 249.08,-846 249.08,-846 243.08,-846 237.08,-840 237.08,-834 237.08,-834 237.08,-822 237.08,-822 237.08,-816 243.08,-810 249.08,-810 249.08,-810 368.92,-810 368.92,-810 374.92,-810 380.92,-816 380.92,-822 380.92,-822 380.92,-834 380.92,-834 380.92,-840 374.92,-846 368.92,-846"/>
<text text-anchor="middle" x="309" y="-824.4" font-family="Helvetica,sans-Serif" font-size="12.00">acc_open_past_24mths</text>
</g>
<!-- num_tl_op_past_12m -->
<g id="node2" class="node">
<title>num_tl_op_past_12m</title>
<path fill="#e1f5fe" stroke="black" d="M256.91,-792C256.91,-792 149.09,-792 149.09,-792 143.09,-792 137.09,-786 137.09,-780 137.09,-780 137.09,-768 137.09,-768 137.09,-762 143.09,-756 149.09,-756 149.09,-756 256.91,-756 256.91,-756 262.91,-756 268.91,-762 268.91,-768 268.91,-768 268.91,-780 268.91,-780 268.91,-786 262.91,-792 256.91,-792"/>
<text text-anchor="middle" x="203" y="-770.4" font-family="Helvetica,sans-Serif" font-size="12.00">num_tl_op_past_12m</text>
</g>
<!-- acc_open_past_24mths&#45;&gt;num_tl_op_past_12m -->
<g id="edge1" class="edge">
<title>acc_open_past_24mths&#45;&gt;num_tl_op_past_12m</title>
<path fill="none" stroke="black" d="M274.29,-809.97C265.51,-805.66 255.96,-800.98 246.79,-796.48"/>
<polygon fill="black" stroke="black" points="248.31,-793.33 237.79,-792.06 245.22,-799.61 248.31,-793.33"/>
</g>
<!-- mths_since_recent_bc -->
<g id="node3" class="node">
<title>mths_since_recent_bc</title>
<path fill="#e1f5fe" stroke="black" d="M365.06,-738C365.06,-738 252.94,-738 252.94,-738 246.94,-738 240.94,-732 240.94,-726 240.94,-726 240.94,-714 240.94,-714 240.94,-708 246.94,-702 252.94,-702 252.94,-702 365.06,-702 365.06,-702 371.06,-702 377.06,-708 377.06,-714 377.06,-714 377.06,-726 377.06,-726 377.06,-732 371.06,-738 365.06,-738"/>
<text text-anchor="middle" x="309" y="-716.4" font-family="Helvetica,sans-Serif" font-size="12.00">mths_since_recent_bc</text>
</g>
<!-- acc_open_past_24mths&#45;&gt;mths_since_recent_bc -->
<g id="edge2" class="edge">
<title>acc_open_past_24mths&#45;&gt;mths_since_recent_bc</title>
<path fill="none" stroke="black" d="M309,-809.97C309,-793.38 309,-767.88 309,-748.43"/>
<polygon fill="black" stroke="black" points="312.5,-748.34 309,-738.34 305.5,-748.34 312.5,-748.34"/>
</g>
<!-- total_rev_hi_lim -->
<g id="node4" class="node">
<title>total_rev_hi_lim</title>
<path fill="#e1f5fe" stroke="black" d="M544.04,-576C544.04,-576 467.96,-576 467.96,-576 461.96,-576 455.96,-570 455.96,-564 455.96,-564 455.96,-552 455.96,-552 455.96,-546 461.96,-540 467.96,-540 467.96,-540 544.04,-540 544.04,-540 550.04,-540 556.04,-546 556.04,-552 556.04,-552 556.04,-564 556.04,-564 556.04,-570 550.04,-576 544.04,-576"/>
<text text-anchor="middle" x="506" y="-554.4" font-family="Helvetica,sans-Serif" font-size="12.00">total_rev_hi_lim</text>
</g>
<!-- acc_open_past_24mths&#45;&gt;total_rev_hi_lim -->
<g id="edge3" class="edge">
<title>acc_open_past_24mths&#45;&gt;total_rev_hi_lim</title>
<path fill="none" stroke="black" d="M380.89,-825.12C452.86,-818.94 553,-796.74 553,-721 553,-721 553,-721 553,-665 553,-635.72 537.82,-605.48 524.72,-584.84"/>
<polygon fill="black" stroke="black" points="527.53,-582.75 519.09,-576.34 521.69,-586.61 527.53,-582.75"/>
</g>
<!-- num_tl_op_past_12m&#45;&gt;mths_since_recent_bc -->
<g id="edge4" class="edge">
<title>num_tl_op_past_12m&#45;&gt;mths_since_recent_bc</title>
<path fill="none" stroke="black" d="M237.71,-755.97C246.49,-751.66 256.04,-746.98 265.21,-742.48"/>
<polygon fill="black" stroke="black" points="266.78,-745.61 274.21,-738.06 263.69,-739.33 266.78,-745.61"/>
</g>
<!-- mths_since_recent_inq -->
<g id="node5" class="node">
<title>mths_since_recent_inq</title>
<path fill="#e1f5fe" stroke="black" d="M152.9,-684C152.9,-684 37.1,-684 37.1,-684 31.1,-684 25.1,-678 25.1,-672 25.1,-672 25.1,-660 25.1,-660 25.1,-654 31.1,-648 37.1,-648 37.1,-648 152.9,-648 152.9,-648 158.9,-648 164.9,-654 164.9,-660 164.9,-660 164.9,-672 164.9,-672 164.9,-678 158.9,-684 152.9,-684"/>
<text text-anchor="middle" x="95" y="-662.4" font-family="Helvetica,sans-Serif" font-size="12.00">mths_since_recent_inq</text>
</g>
<!-- num_tl_op_past_12m&#45;&gt;mths_since_recent_inq -->
<g id="edge5" class="edge">
<title>num_tl_op_past_12m&#45;&gt;mths_since_recent_inq</title>
<path fill="none" stroke="black" d="M185.65,-755.97C167.88,-738.53 140.1,-711.26 119.97,-691.51"/>
<polygon fill="black" stroke="black" points="122.26,-688.85 112.67,-684.34 117.35,-693.84 122.26,-688.85"/>
</g>
<!-- inq_last_12m -->
<g id="node6" class="node">
<title>inq_last_12m</title>
<path fill="#e1f5fe" stroke="black" d="M229.88,-306C229.88,-306 166.12,-306 166.12,-306 160.12,-306 154.12,-300 154.12,-294 154.12,-294 154.12,-282 154.12,-282 154.12,-276 160.12,-270 166.12,-270 166.12,-270 229.88,-270 229.88,-270 235.88,-270 241.88,-276 241.88,-282 241.88,-282 241.88,-294 241.88,-294 241.88,-300 235.88,-306 229.88,-306"/>
<text text-anchor="middle" x="198" y="-284.4" font-family="Helvetica,sans-Serif" font-size="12.00">inq_last_12m</text>
</g>
<!-- num_tl_op_past_12m&#45;&gt;inq_last_12m -->
<g id="edge6" class="edge">
<title>num_tl_op_past_12m&#45;&gt;inq_last_12m</title>
<path fill="none" stroke="black" d="M203,-755.74C203,-734.76 203,-698.28 203,-667 203,-667 203,-667 203,-395 203,-368.21 201.39,-337.65 199.99,-316.25"/>
<polygon fill="black" stroke="black" points="203.48,-315.99 199.31,-306.25 196.5,-316.46 203.48,-315.99"/>
</g>
<!-- grade -->
<g id="node7" class="node">
<title>grade</title>
<path fill="#e1f5fe" stroke="black" d="M86,-630C86,-630 56,-630 56,-630 50,-630 44,-624 44,-618 44,-618 44,-606 44,-606 44,-600 50,-594 56,-594 56,-594 86,-594 86,-594 92,-594 98,-600 98,-606 98,-606 98,-618 98,-618 98,-624 92,-630 86,-630"/>
<text text-anchor="middle" x="71" y="-608.4" font-family="Helvetica,sans-Serif" font-size="12.00">grade</text>
</g>
<!-- num_tl_op_past_12m&#45;&gt;grade -->
<g id="edge7" class="edge">
<title>num_tl_op_past_12m&#45;&gt;grade</title>
<path fill="none" stroke="black" d="M137.23,-761C93.83,-749.3 40.15,-726.74 13,-684 4.42,-670.49 5.13,-661.93 13,-648 17.98,-639.18 26.17,-632.34 34.85,-627.14"/>
<polygon fill="black" stroke="black" points="36.76,-630.08 43.95,-622.29 33.48,-623.9 36.76,-630.08"/>
</g>
<!-- mths_since_recent_bc&#45;&gt;mths_since_recent_inq -->
<g id="edge9" class="edge">
<title>mths_since_recent_bc&#45;&gt;mths_since_recent_inq</title>
<path fill="none" stroke="black" d="M240.7,-702.4C219.7,-697.3 196.4,-691.64 174.7,-686.37"/>
<polygon fill="black" stroke="black" points="175.4,-682.93 164.86,-683.97 173.75,-689.74 175.4,-682.93"/>
</g>
<!-- bc_util -->
<g id="node8" class="node">
<title>bc_util</title>
<path fill="#e1f5fe" stroke="black" d="M324,-684C324,-684 294,-684 294,-684 288,-684 282,-678 282,-672 282,-672 282,-660 282,-660 282,-654 288,-648 294,-648 294,-648 324,-648 324,-648 330,-648 336,-654 336,-660 336,-660 336,-672 336,-672 336,-678 330,-684 324,-684"/>
<text text-anchor="middle" x="309" y="-662.4" font-family="Helvetica,sans-Serif" font-size="12.00">bc_util</text>
</g>
<!-- mths_since_recent_bc&#45;&gt;bc_util -->
<g id="edge8" class="edge">
<title>mths_since_recent_bc&#45;&gt;bc_util</title>
<path fill="none" stroke="black" d="M309,-701.97C309,-699.57 309,-697.06 309,-694.52"/>
<polygon fill="black" stroke="black" points="312.5,-694.24 309,-684.24 305.5,-694.24 312.5,-694.24"/>
</g>
<!-- tot_cur_bal -->
<g id="node9" class="node">
<title>tot_cur_bal</title>
<path fill="#e1f5fe" stroke="black" d="M561.87,-468C561.87,-468 510.13,-468 510.13,-468 504.13,-468 498.13,-462 498.13,-456 498.13,-456 498.13,-444 498.13,-444 498.13,-438 504.13,-432 510.13,-432 510.13,-432 561.87,-432 561.87,-432 567.87,-432 573.87,-438 573.87,-444 573.87,-444 573.87,-456 573.87,-456 573.87,-462 567.87,-468 561.87,-468"/>
<text text-anchor="middle" x="536" y="-446.4" font-family="Helvetica,sans-Serif" font-size="12.00">tot_cur_bal</text>
</g>
<!-- total_rev_hi_lim&#45;&gt;tot_cur_bal -->
<g id="edge10" class="edge">
<title>total_rev_hi_lim&#45;&gt;tot_cur_bal</title>
<path fill="none" stroke="black" d="M510.82,-539.97C515.54,-523.3 522.8,-497.65 528.31,-478.16"/>
<polygon fill="black" stroke="black" points="531.74,-478.92 531.09,-468.34 525,-477.01 531.74,-478.92"/>
</g>
<!-- avg_cur_bal -->
<g id="node10" class="node">
<title>avg_cur_bal</title>
<path fill="#e1f5fe" stroke="black" d="M487.88,-522C487.88,-522 430.12,-522 430.12,-522 424.12,-522 418.12,-516 418.12,-510 418.12,-510 418.12,-498 418.12,-498 418.12,-492 424.12,-486 430.12,-486 430.12,-486 487.88,-486 487.88,-486 493.88,-486 499.88,-492 499.88,-498 499.88,-498 499.88,-510 499.88,-510 499.88,-516 493.88,-522 487.88,-522"/>
<text text-anchor="middle" x="459" y="-500.4" font-family="Helvetica,sans-Serif" font-size="12.00">avg_cur_bal</text>
</g>
<!-- total_rev_hi_lim&#45;&gt;avg_cur_bal -->
<g id="edge11" class="edge">
<title>total_rev_hi_lim&#45;&gt;avg_cur_bal</title>
<path fill="none" stroke="black" d="M490.61,-539.97C487.64,-536.69 484.47,-533.18 481.33,-529.7"/>
<polygon fill="black" stroke="black" points="483.89,-527.31 474.59,-522.24 478.69,-532.01 483.89,-527.31"/>
</g>
<!-- mths_since_recent_inq&#45;&gt;inq_last_12m -->
<g id="edge40" class="edge">
<title>mths_since_recent_inq&#45;&gt;inq_last_12m</title>
<path fill="none" stroke="black" d="M108.65,-647.75C123.15,-627.65 144,-592.86 144,-559 144,-559 144,-559 144,-395 144,-364.82 161.59,-334.56 176.7,-314.14"/>
<polygon fill="black" stroke="black" points="179.62,-316.08 182.96,-306.02 174.08,-311.8 179.62,-316.08"/>
</g>
<!-- loan_age -->
<g id="node12" class="node">
<title>loan_age</title>
<path fill="#e1f5fe" stroke="black" d="M225.88,-252C225.88,-252 184.12,-252 184.12,-252 178.12,-252 172.12,-246 172.12,-240 172.12,-240 172.12,-228 172.12,-228 172.12,-222 178.12,-216 184.12,-216 184.12,-216 225.88,-216 225.88,-216 231.88,-216 237.88,-222 237.88,-228 237.88,-228 237.88,-240 237.88,-240 237.88,-246 231.88,-252 225.88,-252"/>
<text text-anchor="middle" x="205" y="-230.4" font-family="Helvetica,sans-Serif" font-size="12.00">loan_age</text>
</g>
<!-- inq_last_12m&#45;&gt;loan_age -->
<g id="edge17" class="edge">
<title>inq_last_12m&#45;&gt;loan_age</title>
<path fill="none" stroke="black" d="M200.29,-269.97C200.63,-267.49 200.98,-264.87 201.33,-262.24"/>
<polygon fill="black" stroke="black" points="204.81,-262.62 202.68,-252.24 197.88,-261.69 204.81,-262.62"/>
</g>
<!-- int_rate% -->
<g id="node14" class="node">
<title>int_rate%</title>
<path fill="#e1f5fe" stroke="black" d="M92.2,-198C92.2,-198 49.8,-198 49.8,-198 43.8,-198 37.8,-192 37.8,-186 37.8,-186 37.8,-174 37.8,-174 37.8,-168 43.8,-162 49.8,-162 49.8,-162 92.2,-162 92.2,-162 98.2,-162 104.2,-168 104.2,-174 104.2,-174 104.2,-186 104.2,-186 104.2,-192 98.2,-198 92.2,-198"/>
<text text-anchor="middle" x="71" y="-176.4" font-family="Helvetica,sans-Serif" font-size="12.00">int_rate%</text>
</g>
<!-- grade&#45;&gt;int_rate% -->
<g id="edge34" class="edge">
<title>grade&#45;&gt;int_rate%</title>
<path fill="none" stroke="black" d="M71,-593.74C71,-572.76 71,-536.28 71,-505 71,-505 71,-505 71,-287 71,-260.24 71,-229.67 71,-208.26"/>
<polygon fill="black" stroke="black" points="74.5,-208.26 71,-198.26 67.5,-208.26 74.5,-208.26"/>
</g>
<!-- term -->
<g id="node25" class="node">
<title>term</title>
<path fill="#e1f5fe" stroke="black" d="M411,-576C411,-576 381,-576 381,-576 375,-576 369,-570 369,-564 369,-564 369,-552 369,-552 369,-546 375,-540 381,-540 381,-540 411,-540 411,-540 417,-540 423,-546 423,-552 423,-552 423,-564 423,-564 423,-570 417,-576 411,-576"/>
<text text-anchor="middle" x="396" y="-554.4" font-family="Helvetica,sans-Serif" font-size="12.00">term</text>
</g>
<!-- grade&#45;&gt;term -->
<g id="edge35" class="edge">
<title>grade&#45;&gt;term</title>
<path fill="none" stroke="black" d="M98.15,-606.66C156.22,-597.36 292.57,-575.55 358.71,-564.97"/>
<polygon fill="black" stroke="black" points="359.38,-568.4 368.7,-563.37 358.27,-561.49 359.38,-568.4"/>
</g>
<!-- binary_loan_status -->
<g id="node26" class="node">
<title>binary_loan_status</title>
<path fill="#e1f5fe" stroke="black" d="M298.23,-36C298.23,-36 205.77,-36 205.77,-36 199.77,-36 193.77,-30 193.77,-24 193.77,-24 193.77,-12 193.77,-12 193.77,-6 199.77,0 205.77,0 205.77,0 298.23,0 298.23,0 304.23,0 310.23,-6 310.23,-12 310.23,-12 310.23,-24 310.23,-24 310.23,-30 304.23,-36 298.23,-36"/>
<text text-anchor="middle" x="252" y="-14.4" font-family="Helvetica,sans-Serif" font-size="12.00">binary_loan_status</text>
</g>
<!-- grade&#45;&gt;binary_loan_status -->
<g id="edge36" class="edge">
<title>grade&#45;&gt;binary_loan_status</title>
<path fill="none" stroke="black" d="M50.08,-593.84C29.14,-574.61 0,-541.33 0,-505 0,-505 0,-505 0,-125 0,-45.22 108.65,-24.51 183.26,-19.69"/>
<polygon fill="black" stroke="black" points="183.77,-23.17 193.55,-19.11 183.37,-16.18 183.77,-23.17"/>
</g>
<!-- bc_util&#45;&gt;grade -->
<g id="edge32" class="edge">
<title>bc_util&#45;&gt;grade</title>
<path fill="none" stroke="black" d="M281.7,-659.03C239.04,-649.71 156.5,-631.68 108.36,-621.16"/>
<polygon fill="black" stroke="black" points="108.87,-617.69 98.35,-618.98 107.37,-624.53 108.87,-617.69"/>
</g>
<!-- all_util -->
<g id="node11" class="node">
<title>all_util</title>
<path fill="#e1f5fe" stroke="black" d="M287,-360C287,-360 257,-360 257,-360 251,-360 245,-354 245,-348 245,-348 245,-336 245,-336 245,-330 251,-324 257,-324 257,-324 287,-324 287,-324 293,-324 299,-330 299,-336 299,-336 299,-348 299,-348 299,-354 293,-360 287,-360"/>
<text text-anchor="middle" x="272" y="-338.4" font-family="Helvetica,sans-Serif" font-size="12.00">all_util</text>
</g>
<!-- bc_util&#45;&gt;all_util -->
<g id="edge31" class="edge">
<title>bc_util&#45;&gt;all_util</title>
<path fill="none" stroke="black" d="M292.06,-647.8C287.38,-642.42 282.6,-636.24 279,-630 262.27,-601.03 254,-592.45 254,-559 254,-559 254,-559 254,-449 254,-421.85 259.81,-391.34 264.83,-370.05"/>
<polygon fill="black" stroke="black" points="268.28,-370.65 267.27,-360.11 261.48,-368.98 268.28,-370.65"/>
</g>
<!-- percent_bc_gt_75 -->
<g id="node23" class="node">
<title>percent_bc_gt_75</title>
<path fill="#e1f5fe" stroke="black" d="M392.08,-630C392.08,-630 303.92,-630 303.92,-630 297.92,-630 291.92,-624 291.92,-618 291.92,-618 291.92,-606 291.92,-606 291.92,-600 297.92,-594 303.92,-594 303.92,-594 392.08,-594 392.08,-594 398.08,-594 404.08,-600 404.08,-606 404.08,-606 404.08,-618 404.08,-618 404.08,-624 398.08,-630 392.08,-630"/>
<text text-anchor="middle" x="348" y="-608.4" font-family="Helvetica,sans-Serif" font-size="12.00">percent_bc_gt_75</text>
</g>
<!-- bc_util&#45;&gt;percent_bc_gt_75 -->
<g id="edge30" class="edge">
<title>bc_util&#45;&gt;percent_bc_gt_75</title>
<path fill="none" stroke="black" d="M321.77,-647.97C324.1,-644.86 326.58,-641.56 329.05,-638.27"/>
<polygon fill="black" stroke="black" points="331.87,-640.34 335.07,-630.24 326.27,-636.14 331.87,-640.34"/>
</g>
<!-- total_bc_limit -->
<g id="node24" class="node">
<title>total_bc_limit</title>
<path fill="#e1f5fe" stroke="black" d="M503.03,-630C503.03,-630 440.97,-630 440.97,-630 434.97,-630 428.97,-624 428.97,-618 428.97,-618 428.97,-606 428.97,-606 428.97,-600 434.97,-594 440.97,-594 440.97,-594 503.03,-594 503.03,-594 509.03,-594 515.03,-600 515.03,-606 515.03,-606 515.03,-618 515.03,-618 515.03,-624 509.03,-630 503.03,-630"/>
<text text-anchor="middle" x="472" y="-608.4" font-family="Helvetica,sans-Serif" font-size="12.00">total_bc_limit</text>
</g>
<!-- bc_util&#45;&gt;total_bc_limit -->
<g id="edge33" class="edge">
<title>bc_util&#45;&gt;total_bc_limit</title>
<path fill="none" stroke="black" d="M336.28,-656.3C358.9,-649.08 391.72,-638.61 419.41,-629.78"/>
<polygon fill="black" stroke="black" points="420.51,-633.1 428.97,-626.73 418.38,-626.43 420.51,-633.1"/>
</g>
<!-- annual_inc -->
<g id="node16" class="node">
<title>annual_inc</title>
<path fill="#e1f5fe" stroke="black" d="M565.05,-306C565.05,-306 514.95,-306 514.95,-306 508.95,-306 502.95,-300 502.95,-294 502.95,-294 502.95,-282 502.95,-282 502.95,-276 508.95,-270 514.95,-270 514.95,-270 565.05,-270 565.05,-270 571.05,-270 577.05,-276 577.05,-282 577.05,-282 577.05,-294 577.05,-294 577.05,-300 571.05,-306 565.05,-306"/>
<text text-anchor="middle" x="540" y="-284.4" font-family="Helvetica,sans-Serif" font-size="12.00">annual_inc</text>
</g>
<!-- tot_cur_bal&#45;&gt;annual_inc -->
<g id="edge25" class="edge">
<title>tot_cur_bal&#45;&gt;annual_inc</title>
<path fill="none" stroke="black" d="M544.48,-431.83C555.32,-407.57 571.52,-361.96 561,-324 560.18,-321.02 559.02,-318.04 557.68,-315.15"/>
<polygon fill="black" stroke="black" points="560.73,-313.44 552.89,-306.31 554.57,-316.77 560.73,-313.44"/>
</g>
<!-- home_ownership -->
<g id="node20" class="node">
<title>home_ownership</title>
<path fill="#e1f5fe" stroke="black" d="M674.89,-198C674.89,-198 591.11,-198 591.11,-198 585.11,-198 579.11,-192 579.11,-186 579.11,-186 579.11,-174 579.11,-174 579.11,-168 585.11,-162 591.11,-162 591.11,-162 674.89,-162 674.89,-162 680.89,-162 686.89,-168 686.89,-174 686.89,-174 686.89,-186 686.89,-186 686.89,-192 680.89,-198 674.89,-198"/>
<text text-anchor="middle" x="633" y="-176.4" font-family="Helvetica,sans-Serif" font-size="12.00">home_ownership</text>
</g>
<!-- tot_cur_bal&#45;&gt;home_ownership -->
<g id="edge24" class="edge">
<title>tot_cur_bal&#45;&gt;home_ownership</title>
<path fill="none" stroke="black" d="M569.07,-431.95C598.53,-414.13 637,-383.16 637,-343 637,-343 637,-343 637,-287 637,-260.22 635.71,-229.66 634.59,-208.25"/>
<polygon fill="black" stroke="black" points="638.09,-208.05 634.05,-198.25 631.1,-208.43 638.09,-208.05"/>
</g>
<!-- open_act_il -->
<g id="node21" class="node">
<title>open_act_il</title>
<path fill="#e1f5fe" stroke="black" d="M484.88,-414C484.88,-414 431.12,-414 431.12,-414 425.12,-414 419.12,-408 419.12,-402 419.12,-402 419.12,-390 419.12,-390 419.12,-384 425.12,-378 431.12,-378 431.12,-378 484.88,-378 484.88,-378 490.88,-378 496.88,-384 496.88,-390 496.88,-390 496.88,-402 496.88,-402 496.88,-408 490.88,-414 484.88,-414"/>
<text text-anchor="middle" x="458" y="-392.4" font-family="Helvetica,sans-Serif" font-size="12.00">open_act_il</text>
</g>
<!-- tot_cur_bal&#45;&gt;open_act_il -->
<g id="edge27" class="edge">
<title>tot_cur_bal&#45;&gt;open_act_il</title>
<path fill="none" stroke="black" d="M510.46,-431.97C504.67,-428.11 498.43,-423.95 492.34,-419.89"/>
<polygon fill="black" stroke="black" points="493.86,-416.7 483.6,-414.06 489.98,-422.52 493.86,-416.7"/>
</g>
<!-- dti -->
<g id="node22" class="node">
<title>dti</title>
<path fill="#e1f5fe" stroke="black" d="M536,-360C536,-360 506,-360 506,-360 500,-360 494,-354 494,-348 494,-348 494,-336 494,-336 494,-330 500,-324 506,-324 506,-324 536,-324 536,-324 542,-324 548,-330 548,-336 548,-336 548,-348 548,-348 548,-354 542,-360 536,-360"/>
<text text-anchor="middle" x="521" y="-338.4" font-family="Helvetica,sans-Serif" font-size="12.00">dti</text>
</g>
<!-- tot_cur_bal&#45;&gt;dti -->
<g id="edge26" class="edge">
<title>tot_cur_bal&#45;&gt;dti</title>
<path fill="none" stroke="black" d="M533.59,-431.97C531.24,-415.38 527.63,-389.88 524.88,-370.43"/>
<polygon fill="black" stroke="black" points="528.32,-369.75 523.45,-360.34 521.39,-370.73 528.32,-369.75"/>
</g>
<!-- avg_cur_bal&#45;&gt;tot_cur_bal -->
<g id="edge22" class="edge">
<title>avg_cur_bal&#45;&gt;tot_cur_bal</title>
<path fill="none" stroke="black" d="M484.21,-485.97C489.93,-482.11 496.09,-477.95 502.1,-473.89"/>
<polygon fill="black" stroke="black" points="504.4,-476.56 510.73,-468.06 500.48,-470.76 504.4,-476.56"/>
</g>
<!-- avg_cur_bal&#45;&gt;open_act_il -->
<g id="edge23" class="edge">
<title>avg_cur_bal&#45;&gt;open_act_il</title>
<path fill="none" stroke="black" d="M458.84,-485.97C458.68,-469.38 458.44,-443.88 458.26,-424.43"/>
<polygon fill="black" stroke="black" points="461.76,-424.31 458.16,-414.34 454.76,-424.37 461.76,-424.31"/>
</g>
<!-- all_util&#45;&gt;inq_last_12m -->
<g id="edge13" class="edge">
<title>all_util&#45;&gt;inq_last_12m</title>
<path fill="none" stroke="black" d="M247.77,-323.97C242.28,-320.11 236.35,-315.95 230.58,-311.89"/>
<polygon fill="black" stroke="black" points="232.48,-308.95 222.28,-306.06 228.45,-314.68 232.48,-308.95"/>
</g>
<!-- all_util&#45;&gt;loan_age -->
<g id="edge12" class="edge">
<title>all_util&#45;&gt;loan_age</title>
<path fill="none" stroke="black" d="M270.97,-323.87C269.32,-308.58 265.05,-286.17 254,-270 251.2,-265.9 247.75,-262.12 243.99,-258.67"/>
<polygon fill="black" stroke="black" points="245.9,-255.71 235.94,-252.09 241.47,-261.13 245.9,-255.71"/>
</g>
<!-- time_since_last_payment -->
<g id="node13" class="node">
<title>time_since_last_payment</title>
<path fill="#e1f5fe" stroke="black" d="M268.9,-198C268.9,-198 141.1,-198 141.1,-198 135.1,-198 129.1,-192 129.1,-186 129.1,-186 129.1,-174 129.1,-174 129.1,-168 135.1,-162 141.1,-162 141.1,-162 268.9,-162 268.9,-162 274.9,-162 280.9,-168 280.9,-174 280.9,-174 280.9,-186 280.9,-186 280.9,-192 274.9,-198 268.9,-198"/>
<text text-anchor="middle" x="205" y="-176.4" font-family="Helvetica,sans-Serif" font-size="12.00">time_since_last_payment</text>
</g>
<!-- loan_age&#45;&gt;time_since_last_payment -->
<g id="edge14" class="edge">
<title>loan_age&#45;&gt;time_since_last_payment</title>
<path fill="none" stroke="black" d="M205,-215.97C205,-213.57 205,-211.06 205,-208.52"/>
<polygon fill="black" stroke="black" points="208.5,-208.24 205,-198.24 201.5,-208.24 208.5,-208.24"/>
</g>
<!-- loan_age&#45;&gt;int_rate% -->
<g id="edge15" class="edge">
<title>loan_age&#45;&gt;int_rate%</title>
<path fill="none" stroke="black" d="M172.22,-220.28C154.67,-213.47 132.84,-205 113.94,-197.67"/>
<polygon fill="black" stroke="black" points="114.96,-194.31 104.37,-193.95 112.43,-200.83 114.96,-194.31"/>
</g>
<!-- debt_settlement_flag -->
<g id="node15" class="node">
<title>debt_settlement_flag</title>
<path fill="#e1f5fe" stroke="black" d="M420.91,-198C420.91,-198 317.09,-198 317.09,-198 311.09,-198 305.09,-192 305.09,-186 305.09,-186 305.09,-174 305.09,-174 305.09,-168 311.09,-162 317.09,-162 317.09,-162 420.91,-162 420.91,-162 426.91,-162 432.91,-168 432.91,-174 432.91,-174 432.91,-186 432.91,-186 432.91,-192 426.91,-198 420.91,-198"/>
<text text-anchor="middle" x="369" y="-176.4" font-family="Helvetica,sans-Serif" font-size="12.00">debt_settlement_flag</text>
</g>
<!-- loan_age&#45;&gt;debt_settlement_flag -->
<g id="edge16" class="edge">
<title>loan_age&#45;&gt;debt_settlement_flag</title>
<path fill="none" stroke="black" d="M237.79,-222.6C257.18,-216.46 282.38,-208.46 305.52,-201.13"/>
<polygon fill="black" stroke="black" points="306.81,-204.39 315.28,-198.03 304.69,-197.72 306.81,-204.39"/>
</g>
<!-- debt_settlement_flag&#45;&gt;binary_loan_status -->
<g id="edge43" class="edge">
<title>debt_settlement_flag&#45;&gt;binary_loan_status</title>
<path fill="none" stroke="black" d="M346.1,-161.97C325.58,-145.61 296.02,-119.13 278,-90 269.64,-76.48 263.37,-59.86 259.08,-46.1"/>
<polygon fill="black" stroke="black" points="262.36,-44.84 256.19,-36.23 255.64,-46.81 262.36,-44.84"/>
</g>
<!-- hardship_loan_status -->
<g id="node27" class="node">
<title>hardship_loan_status</title>
<path fill="#e1f5fe" stroke="black" d="M473.08,-144C473.08,-144 366.92,-144 366.92,-144 360.92,-144 354.92,-138 354.92,-132 354.92,-132 354.92,-120 354.92,-120 354.92,-114 360.92,-108 366.92,-108 366.92,-108 473.08,-108 473.08,-108 479.08,-108 485.08,-114 485.08,-120 485.08,-120 485.08,-132 485.08,-132 485.08,-138 479.08,-144 473.08,-144"/>
<text text-anchor="middle" x="420" y="-122.4" font-family="Helvetica,sans-Serif" font-size="12.00">hardship_loan_status</text>
</g>
<!-- debt_settlement_flag&#45;&gt;hardship_loan_status -->
<g id="edge44" class="edge">
<title>debt_settlement_flag&#45;&gt;hardship_loan_status</title>
<path fill="none" stroke="black" d="M385.7,-161.97C389.01,-158.6 392.55,-154.99 396.05,-151.42"/>
<polygon fill="black" stroke="black" points="398.59,-153.83 403.09,-144.24 393.59,-148.93 398.59,-153.83"/>
</g>
<!-- hardship_type -->
<g id="node28" class="node">
<title>hardship_type</title>
<path fill="#e1f5fe" stroke="black" d="M369.89,-90C369.89,-90 302.11,-90 302.11,-90 296.11,-90 290.11,-84 290.11,-78 290.11,-78 290.11,-66 290.11,-66 290.11,-60 296.11,-54 302.11,-54 302.11,-54 369.89,-54 369.89,-54 375.89,-54 381.89,-60 381.89,-66 381.89,-66 381.89,-78 381.89,-78 381.89,-84 375.89,-90 369.89,-90"/>
<text text-anchor="middle" x="336" y="-68.4" font-family="Helvetica,sans-Serif" font-size="12.00">hardship_type</text>
</g>
<!-- debt_settlement_flag&#45;&gt;hardship_type -->
<g id="edge45" class="edge">
<title>debt_settlement_flag&#45;&gt;hardship_type</title>
<path fill="none" stroke="black" d="M352.54,-161.7C348.4,-156.4 344.45,-150.29 342,-144 336.66,-130.26 334.99,-113.93 334.73,-100.4"/>
<polygon fill="black" stroke="black" points="338.23,-100.27 334.79,-90.25 331.23,-100.23 338.23,-100.27"/>
</g>
<!-- funded_amnt -->
<g id="node17" class="node">
<title>funded_amnt</title>
<path fill="#e1f5fe" stroke="black" d="M484.05,-252C484.05,-252 421.95,-252 421.95,-252 415.95,-252 409.95,-246 409.95,-240 409.95,-240 409.95,-228 409.95,-228 409.95,-222 415.95,-216 421.95,-216 421.95,-216 484.05,-216 484.05,-216 490.05,-216 496.05,-222 496.05,-228 496.05,-228 496.05,-240 496.05,-240 496.05,-246 490.05,-252 484.05,-252"/>
<text text-anchor="middle" x="453" y="-230.4" font-family="Helvetica,sans-Serif" font-size="12.00">funded_amnt</text>
</g>
<!-- annual_inc&#45;&gt;funded_amnt -->
<g id="edge18" class="edge">
<title>annual_inc&#45;&gt;funded_amnt</title>
<path fill="none" stroke="black" d="M511.51,-269.97C504.75,-265.93 497.44,-261.56 490.35,-257.33"/>
<polygon fill="black" stroke="black" points="491.93,-254.19 481.55,-252.06 488.34,-260.2 491.93,-254.19"/>
</g>
<!-- emp_length -->
<g id="node18" class="node">
<title>emp_length</title>
<path fill="#e1f5fe" stroke="black" d="M587.21,-252C587.21,-252 532.79,-252 532.79,-252 526.79,-252 520.79,-246 520.79,-240 520.79,-240 520.79,-228 520.79,-228 520.79,-222 526.79,-216 532.79,-216 532.79,-216 587.21,-216 587.21,-216 593.21,-216 599.21,-222 599.21,-228 599.21,-228 599.21,-240 599.21,-240 599.21,-246 593.21,-252 587.21,-252"/>
<text text-anchor="middle" x="560" y="-230.4" font-family="Helvetica,sans-Serif" font-size="12.00">emp_length</text>
</g>
<!-- annual_inc&#45;&gt;emp_length -->
<g id="edge19" class="edge">
<title>annual_inc&#45;&gt;emp_length</title>
<path fill="none" stroke="black" d="M546.55,-269.97C547.57,-267.31 548.65,-264.5 549.74,-261.68"/>
<polygon fill="black" stroke="black" points="553.04,-262.83 553.37,-252.24 546.51,-260.32 553.04,-262.83"/>
</g>
<!-- purpose -->
<g id="node19" class="node">
<title>purpose</title>
<path fill="#e1f5fe" stroke="black" d="M504.87,-198C504.87,-198 469.13,-198 469.13,-198 463.13,-198 457.13,-192 457.13,-186 457.13,-186 457.13,-174 457.13,-174 457.13,-168 463.13,-162 469.13,-162 469.13,-162 504.87,-162 504.87,-162 510.87,-162 516.87,-168 516.87,-174 516.87,-174 516.87,-186 516.87,-186 516.87,-192 510.87,-198 504.87,-198"/>
<text text-anchor="middle" x="487" y="-176.4" font-family="Helvetica,sans-Serif" font-size="12.00">purpose</text>
</g>
<!-- funded_amnt&#45;&gt;purpose -->
<g id="edge20" class="edge">
<title>funded_amnt&#45;&gt;purpose</title>
<path fill="none" stroke="black" d="M464.13,-215.97C466.05,-213.04 468.08,-209.93 470.11,-206.83"/>
<polygon fill="black" stroke="black" points="473.18,-208.53 475.73,-198.24 467.32,-204.7 473.18,-208.53"/>
</g>
<!-- emp_length&#45;&gt;home_ownership -->
<g id="edge21" class="edge">
<title>emp_length&#45;&gt;home_ownership</title>
<path fill="none" stroke="black" d="M583.9,-215.97C589.14,-212.24 594.78,-208.23 600.29,-204.3"/>
<polygon fill="black" stroke="black" points="602.68,-206.9 608.79,-198.24 598.62,-201.19 602.68,-206.9"/>
</g>
<!-- open_act_il&#45;&gt;all_util -->
<g id="edge28" class="edge">
<title>open_act_il&#45;&gt;all_util</title>
<path fill="none" stroke="black" d="M419.01,-384.1C386.61,-375.04 340.84,-362.25 309.01,-353.35"/>
<polygon fill="black" stroke="black" points="309.77,-349.93 299.2,-350.6 307.89,-356.67 309.77,-349.93"/>
</g>
<!-- open_act_il&#45;&gt;dti -->
<g id="edge29" class="edge">
<title>open_act_il&#45;&gt;dti</title>
<path fill="none" stroke="black" d="M478.63,-377.97C482.93,-374.42 487.55,-370.61 492.09,-366.86"/>
<polygon fill="black" stroke="black" points="494.63,-369.31 500.11,-360.24 490.17,-363.91 494.63,-369.31"/>
</g>
<!-- dti&#45;&gt;annual_inc -->
<g id="edge39" class="edge">
<title>dti&#45;&gt;annual_inc</title>
<path fill="none" stroke="black" d="M527.22,-323.97C528.2,-321.31 529.22,-318.5 530.25,-315.68"/>
<polygon fill="black" stroke="black" points="533.56,-316.84 533.7,-306.24 526.98,-314.43 533.56,-316.84"/>
</g>
<!-- total_bc_limit&#45;&gt;total_rev_hi_lim -->
<g id="edge37" class="edge">
<title>total_bc_limit&#45;&gt;total_rev_hi_lim</title>
<path fill="none" stroke="black" d="M483.13,-593.97C485.05,-591.04 487.08,-587.93 489.11,-584.83"/>
<polygon fill="black" stroke="black" points="492.18,-586.53 494.73,-576.24 486.32,-582.7 492.18,-586.53"/>
</g>
<!-- total_bc_limit&#45;&gt;term -->
<g id="edge38" class="edge">
<title>total_bc_limit&#45;&gt;term</title>
<path fill="none" stroke="black" d="M447.11,-593.97C441.47,-590.11 435.39,-585.95 429.46,-581.89"/>
<polygon fill="black" stroke="black" points="431.17,-578.82 420.94,-576.06 427.22,-584.6 431.17,-578.82"/>
</g>
<!-- term&#45;&gt;avg_cur_bal -->
<g id="edge42" class="edge">
<title>term&#45;&gt;avg_cur_bal</title>
<path fill="none" stroke="black" d="M416.63,-539.97C420.93,-536.42 425.55,-532.61 430.09,-528.86"/>
<polygon fill="black" stroke="black" points="432.63,-531.31 438.11,-522.24 428.17,-525.91 432.63,-531.31"/>
</g>
<!-- term&#45;&gt;funded_amnt -->
<g id="edge41" class="edge">
<title>term&#45;&gt;funded_amnt</title>
<path fill="none" stroke="black" d="M391.8,-539.86C387.06,-519 380,-482.64 380,-451 380,-451 380,-451 380,-341 380,-308.51 403.56,-278.72 423.91,-259.06"/>
<polygon fill="black" stroke="black" points="426.53,-261.39 431.49,-252.03 421.78,-256.26 426.53,-261.39"/>
</g>
<!-- hardship_loan_status&#45;&gt;hardship_type -->
<g id="edge49" class="edge">
<title>hardship_loan_status&#45;&gt;hardship_type</title>
<path fill="none" stroke="black" d="M392.5,-107.97C386.11,-104.02 379.22,-99.76 372.52,-95.61"/>
<polygon fill="black" stroke="black" points="373.91,-92.35 363.57,-90.06 370.23,-98.3 373.91,-92.35"/>
</g>
<!-- hardship_status -->
<g id="node29" class="node">
<title>hardship_status</title>
<path fill="#e1f5fe" stroke="black" d="M441.22,-36C441.22,-36 364.78,-36 364.78,-36 358.78,-36 352.78,-30 352.78,-24 352.78,-24 352.78,-12 352.78,-12 352.78,-6 358.78,0 364.78,0 364.78,0 441.22,0 441.22,0 447.22,0 453.22,-6 453.22,-12 453.22,-12 453.22,-24 453.22,-24 453.22,-30 447.22,-36 441.22,-36"/>
<text text-anchor="middle" x="403" y="-14.4" font-family="Helvetica,sans-Serif" font-size="12.00">hardship_status</text>
</g>
<!-- hardship_loan_status&#45;&gt;hardship_status -->
<g id="edge48" class="edge">
<title>hardship_loan_status&#45;&gt;hardship_status</title>
<path fill="none" stroke="black" d="M417.27,-107.97C414.61,-91.38 410.52,-65.88 407.4,-46.43"/>
<polygon fill="black" stroke="black" points="410.82,-45.66 405.78,-36.34 403.91,-46.77 410.82,-45.66"/>
</g>
<!-- hardship_type&#45;&gt;binary_loan_status -->
<g id="edge46" class="edge">
<title>hardship_type&#45;&gt;binary_loan_status</title>
<path fill="none" stroke="black" d="M308.5,-53.97C302.11,-50.02 295.22,-45.76 288.52,-41.61"/>
<polygon fill="black" stroke="black" points="289.91,-38.35 279.57,-36.06 286.23,-44.3 289.91,-38.35"/>
</g>
<!-- hardship_type&#45;&gt;hardship_status -->
<g id="edge47" class="edge">
<title>hardship_type&#45;&gt;hardship_status</title>
<path fill="none" stroke="black" d="M357.94,-53.97C362.63,-50.33 367.67,-46.42 372.62,-42.58"/>
<polygon fill="black" stroke="black" points="375.03,-45.14 380.78,-36.24 370.74,-39.61 375.03,-45.14"/>
</g>
</g>
</svg>
